#N canvas 0 26 1024 640 10;
#X obj 101 34 unpack f f f f f f;
#X obj 218 34 unpack f f f f f f;
#X obj 220 10 list-math + 1;
#X obj 332 33 unpack f f f f f f;
#X obj 334 9 list-math + 1;
#X obj 447 33 unpack f f f f f f;
#X obj 449 9 list-math + 1;
#X obj 562 33 unpack f f f f f f;
#X obj 564 9 list-math + 1;
#X obj 677 32 unpack f f f f f f;
#X obj 679 8 list-math + 1;
#X obj 792 32 unpack f f f f f f;
#X obj 794 8 list-math + 1;
#X obj 907 32 unpack f f f f f f;
#X obj 909 8 list-math + 1;
#X obj 1022 32 unpack f f f f f f;
#X obj 1024 8 list-math + 1;
#X obj 1137 32 unpack f f f f f f;
#X obj 1139 8 list-math + 1;
#X obj 1252 31 unpack f f f f f f;
#X obj 1254 7 list-math + 1;
#X obj 1367 31 unpack f f f f f f;
#X obj 1369 7 list-math + 1;
#X obj 1481 31 unpack f f f f f f;
#X obj 1483 7 list-math + 1;
#X obj 105 8 inlet;
#X obj 104 273 vcel;
#X obj 10 344 pack f f f f f f;
#X obj 10 367 outlet;
#X obj 156 239 vcel;
#X obj 104 103 vcel;
#X obj 104 137 vcel;
#X obj 104 171 vcel;
#X obj 104 205 vcel;
#X obj 104 239 vcel;
#X obj 156 103 vcel;
#X obj 156 137 vcel;
#X obj 156 171 vcel;
#X obj 156 205 vcel;
#X obj 156 273 vcel;
#X obj 208 103 vcel;
#X obj 208 137 vcel;
#X obj 208 171 vcel;
#X obj 208 205 vcel;
#X obj 208 239 vcel;
#X obj 208 273 vcel;
#X obj 261 103 vcel;
#X obj 261 137 vcel;
#X obj 261 171 vcel;
#X obj 261 205 vcel;
#X obj 261 239 vcel;
#X obj 261 273 vcel;
#X obj 314 103 vcel;
#X obj 314 137 vcel;
#X obj 314 171 vcel;
#X obj 314 205 vcel;
#X obj 314 239 vcel;
#X obj 314 273 vcel;
#X obj 367 103 vcel;
#X obj 367 137 vcel;
#X obj 367 171 vcel;
#X obj 367 205 vcel;
#X obj 367 239 vcel;
#X obj 367 273 vcel;
#X obj 420 103 vcel;
#X obj 420 137 vcel;
#X obj 420 171 vcel;
#X obj 420 205 vcel;
#X obj 420 239 vcel;
#X obj 420 273 vcel;
#X obj 472 103 vcel;
#X obj 472 137 vcel;
#X obj 472 171 vcel;
#X obj 472 205 vcel;
#X obj 472 239 vcel;
#X obj 472 273 vcel;
#X obj 525 104 vcel;
#X obj 525 138 vcel;
#X obj 525 172 vcel;
#X obj 525 206 vcel;
#X obj 525 240 vcel;
#X obj 525 274 vcel;
#X obj 580 104 vcel;
#X obj 580 138 vcel;
#X obj 580 172 vcel;
#X obj 580 206 vcel;
#X obj 580 240 vcel;
#X obj 580 274 vcel;
#X obj 633 104 vcel;
#X obj 633 138 vcel;
#X obj 633 172 vcel;
#X obj 633 206 vcel;
#X obj 633 240 vcel;
#X obj 633 274 vcel;
#X obj 685 104 vcel;
#X obj 685 138 vcel;
#X obj 685 172 vcel;
#X obj 685 206 vcel;
#X obj 685 240 vcel;
#X obj 685 274 vcel;
#X obj 737 104 vcel;
#X obj 737 138 vcel;
#X obj 737 172 vcel;
#X obj 737 206 vcel;
#X obj 737 240 vcel;
#X obj 737 274 vcel;
#X obj 117 344 pack f f f f f f;
#X obj 117 365 outlet;
#X obj 221 344 pack f f f f f f;
#X obj 221 365 outlet;
#X obj 328 344 pack f f f f f f;
#X obj 328 365 outlet;
#X obj 435 342 pack f f f f f f;
#X obj 435 365 outlet;
#X obj 539 344 pack f f f f f f;
#X obj 540 364 outlet;
#X obj 642 344 pack f f f f f f;
#X obj 642 365 outlet;
#X obj 747 344 pack f f f f f f;
#X obj 747 365 outlet;
#X obj 853 343 pack f f f f f f;
#X obj 853 366 outlet;
#X obj 957 345 pack f f f f f f;
#X obj 958 365 outlet;
#X obj 1060 345 pack f f f f f f;
#X obj 1060 366 outlet;
#X obj 1165 345 pack f f f f f f;
#X obj 1165 366 outlet;
#X obj 1271 343 pack f f f f f f;
#X obj 1271 364 outlet;
#X connect 0 0 30 0;
#X connect 0 1 31 0;
#X connect 0 2 32 0;
#X connect 0 3 33 0;
#X connect 0 4 34 0;
#X connect 0 5 26 0;
#X connect 1 0 35 0;
#X connect 1 1 36 0;
#X connect 1 2 37 0;
#X connect 1 3 38 0;
#X connect 1 4 29 0;
#X connect 1 5 39 0;
#X connect 2 0 1 0;
#X connect 2 0 4 0;
#X connect 3 0 40 0;
#X connect 3 1 41 0;
#X connect 3 2 42 0;
#X connect 3 3 43 0;
#X connect 3 4 44 0;
#X connect 3 5 45 0;
#X connect 4 0 3 0;
#X connect 4 0 6 0;
#X connect 5 0 46 0;
#X connect 5 1 47 0;
#X connect 5 2 48 0;
#X connect 5 3 49 0;
#X connect 5 4 50 0;
#X connect 5 5 51 0;
#X connect 6 0 5 0;
#X connect 6 0 8 0;
#X connect 7 0 52 0;
#X connect 7 1 53 0;
#X connect 7 2 54 0;
#X connect 7 3 55 0;
#X connect 7 4 56 0;
#X connect 7 5 57 0;
#X connect 8 0 7 0;
#X connect 8 0 10 0;
#X connect 9 0 58 0;
#X connect 9 1 59 0;
#X connect 9 2 60 0;
#X connect 9 3 61 0;
#X connect 9 4 62 0;
#X connect 9 5 63 0;
#X connect 10 0 9 0;
#X connect 10 0 12 0;
#X connect 11 0 64 0;
#X connect 11 1 65 0;
#X connect 11 2 66 0;
#X connect 11 3 67 0;
#X connect 11 4 68 0;
#X connect 11 5 69 0;
#X connect 12 0 11 0;
#X connect 12 0 14 0;
#X connect 13 0 70 0;
#X connect 13 1 71 0;
#X connect 13 2 72 0;
#X connect 13 3 73 0;
#X connect 13 4 74 0;
#X connect 13 5 75 0;
#X connect 14 0 13 0;
#X connect 14 0 16 0;
#X connect 15 0 76 0;
#X connect 15 1 77 0;
#X connect 15 2 78 0;
#X connect 15 3 79 0;
#X connect 15 4 80 0;
#X connect 15 5 81 0;
#X connect 16 0 15 0;
#X connect 16 0 18 0;
#X connect 17 0 82 0;
#X connect 17 1 83 0;
#X connect 17 2 84 0;
#X connect 17 3 85 0;
#X connect 17 4 86 0;
#X connect 17 5 87 0;
#X connect 18 0 17 0;
#X connect 18 0 20 0;
#X connect 19 0 88 0;
#X connect 19 1 89 0;
#X connect 19 2 90 0;
#X connect 19 3 91 0;
#X connect 19 4 92 0;
#X connect 19 5 93 0;
#X connect 20 0 19 0;
#X connect 20 0 22 0;
#X connect 21 0 94 0;
#X connect 21 1 95 0;
#X connect 21 2 96 0;
#X connect 21 3 97 0;
#X connect 21 4 98 0;
#X connect 21 5 99 0;
#X connect 22 0 21 0;
#X connect 22 0 24 0;
#X connect 23 0 100 0;
#X connect 23 1 101 0;
#X connect 23 2 102 0;
#X connect 23 3 103 0;
#X connect 23 4 104 0;
#X connect 23 5 105 0;
#X connect 24 0 23 0;
#X connect 25 0 0 0;
#X connect 25 0 2 0;
#X connect 26 0 27 5;
#X connect 27 0 28 0;
#X connect 29 0 106 4;
#X connect 30 0 27 0;
#X connect 31 0 27 1;
#X connect 32 0 27 2;
#X connect 33 0 27 3;
#X connect 34 0 27 4;
#X connect 35 0 106 0;
#X connect 36 0 106 1;
#X connect 37 0 106 2;
#X connect 38 0 106 3;
#X connect 39 0 106 5;
#X connect 40 0 108 0;
#X connect 41 0 108 1;
#X connect 42 0 108 2;
#X connect 43 0 108 3;
#X connect 44 0 108 4;
#X connect 45 0 108 5;
#X connect 46 0 110 0;
#X connect 47 0 110 1;
#X connect 48 0 110 2;
#X connect 49 0 110 3;
#X connect 50 0 110 4;
#X connect 51 0 110 5;
#X connect 52 0 112 0;
#X connect 53 0 112 1;
#X connect 54 0 112 2;
#X connect 55 0 112 3;
#X connect 56 0 112 4;
#X connect 57 0 112 5;
#X connect 58 0 114 0;
#X connect 59 0 114 1;
#X connect 60 0 114 2;
#X connect 61 0 114 3;
#X connect 62 0 114 4;
#X connect 63 0 114 5;
#X connect 64 0 116 0;
#X connect 65 0 116 1;
#X connect 66 0 116 2;
#X connect 67 0 116 3;
#X connect 68 0 116 4;
#X connect 69 0 116 5;
#X connect 70 0 118 0;
#X connect 71 0 118 1;
#X connect 72 0 118 2;
#X connect 73 0 118 3;
#X connect 74 0 118 4;
#X connect 75 0 118 5;
#X connect 76 0 120 0;
#X connect 77 0 120 1;
#X connect 78 0 120 2;
#X connect 79 0 120 3;
#X connect 81 0 120 5;
#X connect 82 0 122 0;
#X connect 83 0 122 1;
#X connect 84 0 122 2;
#X connect 85 0 122 3;
#X connect 86 0 122 4;
#X connect 87 0 122 5;
#X connect 88 0 124 0;
#X connect 89 0 124 1;
#X connect 90 0 124 2;
#X connect 91 0 124 3;
#X connect 92 0 124 4;
#X connect 93 0 124 5;
#X connect 94 0 126 0;
#X connect 95 0 126 1;
#X connect 96 0 126 2;
#X connect 97 0 126 3;
#X connect 98 0 126 4;
#X connect 99 0 126 5;
#X connect 100 0 128 0;
#X connect 101 0 128 1;
#X connect 102 0 128 2;
#X connect 103 0 128 3;
#X connect 104 0 128 4;
#X connect 105 0 128 5;
#X connect 106 0 107 0;
#X connect 108 0 109 0;
#X connect 110 0 111 0;
#X connect 112 0 113 0;
#X connect 114 0 115 0;
#X connect 116 0 117 0;
#X connect 118 0 119 0;
#X connect 120 0 121 0;
#X connect 122 0 123 0;
#X connect 124 0 125 0;
#X connect 126 0 127 0;
#X connect 128 0 129 0;
#X coords 0 -1 1 1 690 210 2 100 100;
