#N canvas 0 26 1024 640 12;
#X msg 91 13 52 47 43 38 33 28;
#X obj 87 65 guitarmatrix;
#X obj 1185 365 pack f f f f f f;
#X obj 1185 386 outlet;
#X text 222 14 base tuning of this guitar;
#N canvas 286 82 450 300 col 0;
#X obj 72 151 list-drip;
#X obj 74 177 prepend add;
#X obj 78 205 outlet;
#X obj 71 58 inlet;
#X msg 146 109 set;
#X obj 69 93 t l b;
#X obj 169 53 key;
#X obj 169 76 sel 32;
#X connect 0 0 1 0;
#X connect 1 0 2 0;
#X connect 3 0 5 0;
#X connect 4 0 2 0;
#X connect 5 0 0 0;
#X connect 5 1 4 0;
#X connect 6 0 7 0;
#X connect 7 0 4 0;
#X restore 87 283 pd col;
#X obj 448 33 s picknote;
#X obj 448 10 bng 15 250 50 0 empty empty empty 17 7 0 10 -262144 -1
-1;
#X msg 87 309;
#N canvas 286 82 450 300 col 0;
#X obj 72 151 list-drip;
#X obj 74 177 prepend add;
#X obj 78 205 outlet;
#X obj 71 58 inlet;
#X msg 146 109 set;
#X obj 69 93 t l b;
#X obj 169 53 key;
#X obj 169 76 sel 32;
#X connect 0 0 1 0;
#X connect 1 0 2 0;
#X connect 3 0 5 0;
#X connect 4 0 2 0;
#X connect 5 0 0 0;
#X connect 5 1 4 0;
#X connect 6 0 7 0;
#X connect 7 0 4 0;
#X restore 144 283 pd col;
#X msg 144 309;
#N canvas 286 82 450 300 col 0;
#X obj 72 151 list-drip;
#X obj 74 177 prepend add;
#X obj 78 205 outlet;
#X obj 71 58 inlet;
#X msg 146 109 set;
#X obj 69 93 t l b;
#X obj 169 53 key;
#X obj 169 76 sel 32;
#X connect 0 0 1 0;
#X connect 1 0 2 0;
#X connect 3 0 5 0;
#X connect 4 0 2 0;
#X connect 5 0 0 0;
#X connect 5 1 4 0;
#X connect 6 0 7 0;
#X connect 7 0 4 0;
#X restore 201 285 pd col;
#X msg 201 311;
#N canvas 286 82 450 300 col 0;
#X obj 72 151 list-drip;
#X obj 74 177 prepend add;
#X obj 78 205 outlet;
#X obj 71 58 inlet;
#X msg 146 109 set;
#X obj 69 93 t l b;
#X obj 169 53 key;
#X obj 169 76 sel 32;
#X connect 0 0 1 0;
#X connect 1 0 2 0;
#X connect 3 0 5 0;
#X connect 4 0 2 0;
#X connect 5 0 0 0;
#X connect 5 1 4 0;
#X connect 6 0 7 0;
#X connect 7 0 4 0;
#X restore 258 285 pd col;
#X msg 258 311;
#N canvas 286 82 450 300 col 0;
#X obj 72 151 list-drip;
#X obj 74 177 prepend add;
#X obj 78 205 outlet;
#X obj 71 58 inlet;
#X msg 146 109 set;
#X obj 69 93 t l b;
#X obj 169 53 key;
#X obj 169 76 sel 32;
#X connect 0 0 1 0;
#X connect 1 0 2 0;
#X connect 3 0 5 0;
#X connect 4 0 2 0;
#X connect 5 0 0 0;
#X connect 5 1 4 0;
#X connect 6 0 7 0;
#X connect 7 0 4 0;
#X restore 316 285 pd col;
#X msg 316 311;
#N canvas 286 82 450 300 col 0;
#X obj 72 151 list-drip;
#X obj 74 177 prepend add;
#X obj 78 205 outlet;
#X obj 71 58 inlet;
#X msg 146 109 set;
#X obj 69 93 t l b;
#X obj 169 53 key;
#X obj 169 76 sel 32;
#X connect 0 0 1 0;
#X connect 1 0 2 0;
#X connect 3 0 5 0;
#X connect 4 0 2 0;
#X connect 5 0 0 0;
#X connect 5 1 4 0;
#X connect 6 0 7 0;
#X connect 7 0 4 0;
#X restore 373 285 pd col;
#X msg 373 311;
#N canvas 286 82 450 300 col 0;
#X obj 72 151 list-drip;
#X obj 74 177 prepend add;
#X obj 78 205 outlet;
#X obj 71 58 inlet;
#X msg 146 109 set;
#X obj 69 93 t l b;
#X obj 169 53 key;
#X obj 169 76 sel 32;
#X connect 0 0 1 0;
#X connect 1 0 2 0;
#X connect 3 0 5 0;
#X connect 4 0 2 0;
#X connect 5 0 0 0;
#X connect 5 1 4 0;
#X connect 6 0 7 0;
#X connect 7 0 4 0;
#X restore 430 287 pd col;
#X msg 430 313;
#N canvas 286 82 450 300 col 0;
#X obj 72 151 list-drip;
#X obj 74 177 prepend add;
#X obj 78 205 outlet;
#X obj 71 58 inlet;
#X msg 146 109 set;
#X obj 69 93 t l b;
#X obj 169 53 key;
#X obj 169 76 sel 32;
#X connect 0 0 1 0;
#X connect 1 0 2 0;
#X connect 3 0 5 0;
#X connect 4 0 2 0;
#X connect 5 0 0 0;
#X connect 5 1 4 0;
#X connect 6 0 7 0;
#X connect 7 0 4 0;
#X restore 487 287 pd col;
#X msg 487 313;
#N canvas 286 82 450 300 col 0;
#X obj 72 151 list-drip;
#X obj 74 177 prepend add;
#X obj 78 205 outlet;
#X obj 71 58 inlet;
#X msg 146 109 set;
#X obj 69 93 t l b;
#X obj 169 53 key;
#X obj 169 76 sel 32;
#X connect 0 0 1 0;
#X connect 1 0 2 0;
#X connect 3 0 5 0;
#X connect 4 0 2 0;
#X connect 5 0 0 0;
#X connect 5 1 4 0;
#X connect 6 0 7 0;
#X connect 7 0 4 0;
#X restore 542 287 pd col;
#X msg 542 313;
#N canvas 286 82 450 300 col 0;
#X obj 72 151 list-drip;
#X obj 74 177 prepend add;
#X obj 78 205 outlet;
#X obj 71 58 inlet;
#X msg 146 109 set;
#X obj 69 93 t l b;
#X obj 169 53 key;
#X obj 169 76 sel 32;
#X connect 0 0 1 0;
#X connect 1 0 2 0;
#X connect 3 0 5 0;
#X connect 4 0 2 0;
#X connect 5 0 0 0;
#X connect 5 1 4 0;
#X connect 6 0 7 0;
#X connect 7 0 4 0;
#X restore 599 287 pd col;
#X msg 599 313;
#N canvas 286 82 450 300 col 0;
#X obj 72 151 list-drip;
#X obj 74 177 prepend add;
#X obj 78 205 outlet;
#X obj 71 58 inlet;
#X msg 146 109 set;
#X obj 69 93 t l b;
#X obj 169 53 key;
#X obj 169 76 sel 32;
#X connect 0 0 1 0;
#X connect 1 0 2 0;
#X connect 3 0 5 0;
#X connect 4 0 2 0;
#X connect 5 0 0 0;
#X connect 5 1 4 0;
#X connect 6 0 7 0;
#X connect 7 0 4 0;
#X restore 656 289 pd col;
#X msg 656 315;
#N canvas 286 82 450 300 col 0;
#X obj 72 151 list-drip;
#X obj 74 177 prepend add;
#X obj 78 205 outlet;
#X obj 71 58 inlet;
#X msg 146 109 set;
#X obj 69 93 t l b;
#X obj 169 53 key;
#X obj 169 76 sel 32;
#X connect 0 0 1 0;
#X connect 1 0 2 0;
#X connect 3 0 5 0;
#X connect 4 0 2 0;
#X connect 5 0 0 0;
#X connect 5 1 4 0;
#X connect 6 0 7 0;
#X connect 7 0 4 0;
#X restore 713 289 pd col;
#X msg 713 315;
#X text 742 579 2009 glerm soares;
#X text 660 596 http://artesanato.devolts.org;
#X text 816 563 GPL v3;
#X text 772 291 spacebar to clean;
#X obj 528 10 bng 15 250 50 0 empty empty empty 17 7 0 10 -262144 -1
-1;
#X obj 528 33 s cleannotes;
#X connect 0 0 1 0;
#X connect 1 0 5 0;
#X connect 1 1 9 0;
#X connect 1 2 11 0;
#X connect 1 3 13 0;
#X connect 1 4 15 0;
#X connect 1 5 17 0;
#X connect 1 6 19 0;
#X connect 1 7 21 0;
#X connect 1 8 23 0;
#X connect 1 9 25 0;
#X connect 1 10 27 0;
#X connect 1 11 29 0;
#X connect 2 0 3 0;
#X connect 5 0 8 0;
#X connect 7 0 6 0;
#X connect 9 0 10 0;
#X connect 11 0 12 0;
#X connect 13 0 14 0;
#X connect 15 0 16 0;
#X connect 17 0 18 0;
#X connect 19 0 20 0;
#X connect 21 0 22 0;
#X connect 23 0 24 0;
#X connect 25 0 26 0;
#X connect 27 0 28 0;
#X connect 29 0 30 0;
#X connect 35 0 36 0;
