#N canvas 0 26 1024 640 10;
#X obj 101 34 unpack f f f f f f;
#X obj 218 34 unpack f f f f f f;
#X obj 220 10 list-math + 1;
#X obj 332 33 unpack f f f f f f;
#X obj 334 9 list-math + 1;
#X obj 447 33 unpack f f f f f f;
#X obj 449 9 list-math + 1;
#X obj 562 33 unpack f f f f f f;
#X obj 564 9 list-math + 1;
#X obj 677 32 unpack f f f f f f;
#X obj 679 8 list-math + 1;
#X obj 792 32 unpack f f f f f f;
#X obj 794 8 list-math + 1;
#X obj 907 32 unpack f f f f f f;
#X obj 909 8 list-math + 1;
#X obj 1022 32 unpack f f f f f f;
#X obj 1024 8 list-math + 1;
#X obj 1137 32 unpack f f f f f f;
#X obj 1139 8 list-math + 1;
#X obj 1252 31 unpack f f f f f f;
#X obj 1254 7 list-math + 1;
#X obj 1367 31 unpack f f f f f f;
#X obj 1369 7 list-math + 1;
#X obj 1481 31 unpack f f f f f f;
#X obj 1483 7 list-math + 1;
#X obj 105 8 inlet;
#X obj 104 273 vcel;
#X obj 10 344 pack f f f f f f;
#X obj 117 344 pack f f f f f f;
#X obj 221 344 pack f f f f f f;
#X obj 328 344 pack f f f f f f;
#X obj 435 342 pack f f f f f f;
#X obj 539 344 pack f f f f f f;
#X obj 642 344 pack f f f f f f;
#X obj 747 344 pack f f f f f f;
#X obj 853 343 pack f f f f f f;
#X obj 957 345 pack f f f f f f;
#X obj 1060 345 pack f f f f f f;
#X obj 1165 345 pack f f f f f f;
#X obj 1271 343 pack f f f f f f;
#X obj 156 239 vcel;
#X obj 104 103 vcel;
#X obj 104 137 vcel;
#X obj 104 171 vcel;
#X obj 104 205 vcel;
#X obj 104 239 vcel;
#X obj 156 103 vcel;
#X obj 156 137 vcel;
#X obj 156 171 vcel;
#X obj 156 205 vcel;
#X obj 156 273 vcel;
#X obj 208 103 vcel;
#X obj 208 137 vcel;
#X obj 208 171 vcel;
#X obj 208 205 vcel;
#X obj 208 239 vcel;
#X obj 208 273 vcel;
#X obj 261 103 vcel;
#X obj 261 137 vcel;
#X obj 261 171 vcel;
#X obj 261 205 vcel;
#X obj 261 239 vcel;
#X obj 261 273 vcel;
#X obj 314 103 vcel;
#X obj 314 137 vcel;
#X obj 314 171 vcel;
#X obj 314 205 vcel;
#X obj 314 239 vcel;
#X obj 314 273 vcel;
#X obj 367 103 vcel;
#X obj 367 137 vcel;
#X obj 367 171 vcel;
#X obj 367 205 vcel;
#X obj 367 239 vcel;
#X obj 367 273 vcel;
#X obj 420 103 vcel;
#X obj 420 137 vcel;
#X obj 420 171 vcel;
#X obj 420 205 vcel;
#X obj 420 239 vcel;
#X obj 420 273 vcel;
#X obj 472 103 vcel;
#X obj 472 137 vcel;
#X obj 472 171 vcel;
#X obj 472 205 vcel;
#X obj 472 239 vcel;
#X obj 472 273 vcel;
#X obj 525 104 vcel;
#X obj 525 138 vcel;
#X obj 525 172 vcel;
#X obj 525 206 vcel;
#X obj 525 240 vcel;
#X obj 525 274 vcel;
#X obj 580 104 vcel;
#X obj 580 138 vcel;
#X obj 580 172 vcel;
#X obj 580 206 vcel;
#X obj 580 240 vcel;
#X obj 580 274 vcel;
#X obj 633 104 vcel;
#X obj 633 138 vcel;
#X obj 633 172 vcel;
#X obj 633 206 vcel;
#X obj 633 240 vcel;
#X obj 633 274 vcel;
#X obj 685 104 vcel;
#X obj 685 138 vcel;
#X obj 685 172 vcel;
#X obj 685 206 vcel;
#X obj 685 240 vcel;
#X obj 685 274 vcel;
#X obj 737 104 vcel;
#X obj 737 138 vcel;
#X obj 737 172 vcel;
#X obj 737 206 vcel;
#X obj 737 240 vcel;
#X obj 737 274 vcel;
#X obj 11 388 s \$0-file;
#X obj 10 367 prepend 0;
#X obj 118 387 s \$0-file;
#X obj 117 365 prepend 1;
#X obj 222 386 s \$0-file;
#X obj 221 365 prepend 2;
#X obj 328 365 prepend 3;
#X obj 435 365 prepend 4;
#X obj 540 364 prepend 5;
#X obj 642 365 prepend 6;
#X obj 747 365 prepend 7;
#X obj 853 366 prepend 8;
#X obj 958 365 prepend 9;
#X obj 1060 366 prepend 10;
#X obj 1165 366 prepend 11;
#X obj 1273 366 prepend 12;
#X obj 330 386 s \$0-file;
#X obj 435 386 s \$0-file;
#X obj 541 387 s \$0-file;
#X obj 643 387 s \$0-file;
#X obj 748 387 s \$0-file;
#X obj 854 388 s \$0-file;
#X obj 958 387 s \$0-file;
#X obj 1060 392 s \$0-file;
#X obj 1166 393 s \$0-file;
#X obj 1270 392 s \$0-file;
#X obj 39 484 r \$0-file;
#X obj 39 507 outlet;
#X connect 0 0 41 0;
#X connect 0 1 42 0;
#X connect 0 2 43 0;
#X connect 0 3 44 0;
#X connect 0 4 45 0;
#X connect 0 5 26 0;
#X connect 1 0 46 0;
#X connect 1 1 47 0;
#X connect 1 2 48 0;
#X connect 1 3 49 0;
#X connect 1 4 40 0;
#X connect 1 5 50 0;
#X connect 2 0 1 0;
#X connect 2 0 4 0;
#X connect 3 0 51 0;
#X connect 3 1 52 0;
#X connect 3 2 53 0;
#X connect 3 3 54 0;
#X connect 3 4 55 0;
#X connect 3 5 56 0;
#X connect 4 0 3 0;
#X connect 4 0 6 0;
#X connect 5 0 57 0;
#X connect 5 1 58 0;
#X connect 5 2 59 0;
#X connect 5 3 60 0;
#X connect 5 4 61 0;
#X connect 5 5 62 0;
#X connect 6 0 5 0;
#X connect 6 0 8 0;
#X connect 7 0 63 0;
#X connect 7 1 64 0;
#X connect 7 2 65 0;
#X connect 7 3 66 0;
#X connect 7 4 67 0;
#X connect 7 5 68 0;
#X connect 8 0 7 0;
#X connect 8 0 10 0;
#X connect 9 0 69 0;
#X connect 9 1 70 0;
#X connect 9 2 71 0;
#X connect 9 3 72 0;
#X connect 9 4 73 0;
#X connect 9 5 74 0;
#X connect 10 0 9 0;
#X connect 10 0 12 0;
#X connect 11 0 75 0;
#X connect 11 1 76 0;
#X connect 11 2 77 0;
#X connect 11 3 78 0;
#X connect 11 4 79 0;
#X connect 11 5 80 0;
#X connect 12 0 11 0;
#X connect 12 0 14 0;
#X connect 13 0 81 0;
#X connect 13 1 82 0;
#X connect 13 2 83 0;
#X connect 13 3 84 0;
#X connect 13 4 85 0;
#X connect 13 5 86 0;
#X connect 14 0 13 0;
#X connect 14 0 16 0;
#X connect 15 0 87 0;
#X connect 15 1 88 0;
#X connect 15 2 89 0;
#X connect 15 3 90 0;
#X connect 15 4 91 0;
#X connect 15 5 92 0;
#X connect 16 0 15 0;
#X connect 16 0 18 0;
#X connect 17 0 93 0;
#X connect 17 1 94 0;
#X connect 17 2 95 0;
#X connect 17 3 96 0;
#X connect 17 4 97 0;
#X connect 17 5 98 0;
#X connect 18 0 17 0;
#X connect 18 0 20 0;
#X connect 19 0 99 0;
#X connect 19 1 100 0;
#X connect 19 2 101 0;
#X connect 19 3 102 0;
#X connect 19 4 103 0;
#X connect 19 5 104 0;
#X connect 20 0 19 0;
#X connect 20 0 22 0;
#X connect 21 0 105 0;
#X connect 21 1 106 0;
#X connect 21 2 107 0;
#X connect 21 3 108 0;
#X connect 21 4 109 0;
#X connect 21 5 110 0;
#X connect 22 0 21 0;
#X connect 22 0 24 0;
#X connect 23 0 111 0;
#X connect 23 1 112 0;
#X connect 23 2 113 0;
#X connect 23 3 114 0;
#X connect 23 4 115 0;
#X connect 23 5 116 0;
#X connect 24 0 23 0;
#X connect 25 0 0 0;
#X connect 25 0 2 0;
#X connect 26 0 27 5;
#X connect 27 0 118 0;
#X connect 28 0 120 0;
#X connect 29 0 122 0;
#X connect 30 0 123 0;
#X connect 31 0 124 0;
#X connect 32 0 125 0;
#X connect 33 0 126 0;
#X connect 34 0 127 0;
#X connect 35 0 128 0;
#X connect 36 0 129 0;
#X connect 37 0 130 0;
#X connect 38 0 131 0;
#X connect 39 0 132 0;
#X connect 40 0 28 4;
#X connect 41 0 27 0;
#X connect 42 0 27 1;
#X connect 43 0 27 2;
#X connect 44 0 27 3;
#X connect 45 0 27 4;
#X connect 46 0 28 0;
#X connect 47 0 28 1;
#X connect 48 0 28 2;
#X connect 49 0 28 3;
#X connect 50 0 28 5;
#X connect 51 0 29 0;
#X connect 52 0 29 1;
#X connect 53 0 29 2;
#X connect 54 0 29 3;
#X connect 55 0 29 4;
#X connect 56 0 29 5;
#X connect 57 0 30 0;
#X connect 58 0 30 1;
#X connect 59 0 30 2;
#X connect 60 0 30 3;
#X connect 61 0 30 4;
#X connect 62 0 30 5;
#X connect 63 0 31 0;
#X connect 64 0 31 1;
#X connect 65 0 31 2;
#X connect 66 0 31 3;
#X connect 67 0 31 4;
#X connect 68 0 31 5;
#X connect 69 0 32 0;
#X connect 70 0 32 1;
#X connect 71 0 32 2;
#X connect 72 0 32 3;
#X connect 73 0 32 4;
#X connect 74 0 32 5;
#X connect 75 0 33 0;
#X connect 76 0 33 1;
#X connect 77 0 33 2;
#X connect 78 0 33 3;
#X connect 79 0 33 4;
#X connect 80 0 33 5;
#X connect 81 0 34 0;
#X connect 82 0 34 1;
#X connect 83 0 34 2;
#X connect 84 0 34 3;
#X connect 85 0 34 4;
#X connect 86 0 34 5;
#X connect 87 0 35 0;
#X connect 88 0 35 1;
#X connect 89 0 35 2;
#X connect 90 0 35 3;
#X connect 92 0 35 5;
#X connect 93 0 36 0;
#X connect 94 0 36 1;
#X connect 95 0 36 2;
#X connect 96 0 36 3;
#X connect 97 0 36 4;
#X connect 98 0 36 5;
#X connect 99 0 37 0;
#X connect 100 0 37 1;
#X connect 101 0 37 2;
#X connect 102 0 37 3;
#X connect 103 0 37 4;
#X connect 104 0 37 5;
#X connect 105 0 38 0;
#X connect 106 0 38 1;
#X connect 107 0 38 2;
#X connect 108 0 38 3;
#X connect 109 0 38 4;
#X connect 110 0 38 5;
#X connect 111 0 39 0;
#X connect 112 0 39 1;
#X connect 113 0 39 2;
#X connect 114 0 39 3;
#X connect 115 0 39 4;
#X connect 116 0 39 5;
#X connect 118 0 117 0;
#X connect 120 0 119 0;
#X connect 122 0 121 0;
#X connect 123 0 133 0;
#X connect 124 0 134 0;
#X connect 125 0 135 0;
#X connect 126 0 136 0;
#X connect 127 0 137 0;
#X connect 128 0 138 0;
#X connect 129 0 139 0;
#X connect 130 0 140 0;
#X connect 131 0 141 0;
#X connect 132 0 142 0;
#X connect 143 0 144 0;
#X coords 0 -1 1 1 690 210 2 100 100;
