#N canvas 0 26 1024 661 10;
#X obj 26 27 mimosa-piano;
#X floatatom 28 120 5 0 0 0 - - -;
#X symbolatom 743 164 20 0 0 0 - - -;
#X floatatom 26 5 5 0 127 0 - - -;
#X obj 282 -46 cnv 15 500 40 empty \$0-cnv Mi(4) 10 20 0 40 -33289
-228856 0;
#X msg 743 196 label \$1;
#X obj 743 225 s \$0-cnv;
#X text 25 -14 midi note;
#X text 29 138 midi note;
#X text 797 150 nome da nota;
#X obj 157 -58 adc~;
#X obj 157 -38 fiddle~;
#X obj 131 -38 int;
#X msg 124 -84 amp-range 70 100;
#X obj 131 -12 spigot;
#X obj 177 -10 tgl 15 0 empty empty empty 17 7 0 10 -262144 -1 -1 0
1;
#X msg 838 -49 \; pd dsp \$1;
#X obj 838 -69 tgl 15 0 empty empty empty 17 7 0 10 -262144 -1 -1 1
1;
#X connect 0 0 1 0;
#X connect 0 1 2 0;
#X connect 2 0 5 0;
#X connect 3 0 0 0;
#X connect 5 0 6 0;
#X connect 10 0 11 0;
#X connect 11 0 12 0;
#X connect 12 0 14 0;
#X connect 13 0 11 0;
#X connect 14 0 3 0;
#X connect 15 0 14 1;
#X connect 17 0 16 0;
