#N canvas 396 80 450 551 10;
#X obj 24 -125 openpanel;
#X obj 84 -167 f \$0;
#X obj 26 -102 pack s s;
#X obj 38 -146 t b b;
#X msg 261 -83 \; \$1 normalize 1;
#X obj 46 -56 soundfiler;
#X obj 149 -73 symbol;
#X obj 77 -37 bang;
#X msg 28 -79 read -resize \$1 \$2;
#X obj 60 -194 inlet;
#X obj 84 -104 makefilename %d-table;
#X obj 221 -1 tabplay~;
#X obj 220 24 outlet~;
#X obj 221 -171 inlet;
#X msg 196 -37 set \$1;
#X obj 124 -126 table \$0-table;
#X obj 292 -18 file.path.split;
#X obj 1 2 cnv 15 195 25 empty \$0-filename mimosa-table 0 12 0 16
-258699 -262144 0;
#X obj 293 63 s \$0-filename;
#X msg 300 24 label \$1;
#X obj 25 -179 bng 15 250 50 0 empty empty empty 17 7 0 10 -262144
-1 -1;
#X msg 129 -158 color \$1 \$2;
#X obj 129 -178 pack f f;
#X obj 129 -219 inlet;
#X obj 169 -208 inlet;
#X obj 140 -197 b;
#X connect 0 0 2 0;
#X connect 0 0 16 0;
#X connect 1 0 10 0;
#X connect 2 0 8 0;
#X connect 3 0 0 0;
#X connect 3 1 1 0;
#X connect 5 0 7 0;
#X connect 6 0 4 0;
#X connect 6 0 14 0;
#X connect 7 0 6 0;
#X connect 8 0 5 0;
#X connect 9 0 3 0;
#X connect 10 0 2 1;
#X connect 10 0 6 1;
#X connect 11 0 12 0;
#X connect 13 0 11 0;
#X connect 14 0 11 0;
#X connect 16 1 19 0;
#X connect 19 0 18 0;
#X connect 20 0 3 0;
#X connect 21 0 18 0;
#X connect 22 0 21 0;
#X connect 23 0 22 0;
#X connect 24 0 22 1;
#X connect 24 0 25 0;
#X connect 25 0 22 0;
#X coords 0 -1 1 1 200 30 1 0 0;
