#N canvas 0 26 1024 661 10;
#X declare -stdpath extra/tof;
#X obj 100 100 cnv 15 200 148 empty \$0-selectarea 0 2 -8 0 50 -118767
-258113 0;
#N canvas 0 22 450 300 (subpatch) 0;
#X array \$0-L 399823 float 2;
#X coords 0 1 399823 -1 800 75 1;
#X restore 100 99 graph;
#N canvas 0 22 450 300 (subpatch) 0;
#X array \$0-R 399823 float 2;
#X coords 0 1 399823 -1 800 75 1;
#X restore 100 174 graph;
#X obj 101 250 hsl 800 12 0 1 0 0 \$0-start \$0-start-r empty -2 -8
0 10 -13330 -262144 -1 0 1;
#X obj 101 263 hsl 800 12 0 1 0 0 \$0-end \$0-end-r empty -2 -8 0 10
-13330 -262144 -1 20000 1;
#N canvas 0 127 1006 556 guts 0;
#X obj 633 391 soundfiler;
#X obj 623 224 openpanel;
#X obj 628 344 pack s \$0;
#X obj 790 264 s \$0-selectarea;
#X msg 633 369 read -resize \$1 \$2-L \$2-R;
#X obj 745 122 s \$0-L;
#X obj 789 122 s \$0-R;
#X msg 750 86 resize 100;
#X obj 6 62 * 800;
#X obj 786 201 loadbang;
#X obj 4 125 s \$0-selectarea;
#X msg 4 103 pos \$1 100;
#X obj 6 83 + 100;
#X obj 595 92 s \$0-selectarea;
#X msg 594 71 label \$1;
#X obj 595 50 makefilename %d;
#X obj 5 42 r \$0-start;
#X obj 183 256 s \$0-end-r;
#X msg 789 227 pos 100 100 \, vis_size 1 148;
#X obj 185 51 r \$0-start;
#X obj 200 164 r \$0-len;
#X obj 186 188 +;
#X obj 185 134 spigot;
#X obj 374 177 tabplay~ \$0-L;
#X obj 419 108 r \$0-len;
#X obj 374 156 pack 0 0;
#X obj 362 66 f;
#X obj 377 41 r \$0-start;
#X obj 362 89 *;
#X obj 390 65 r \$0-samples;
#X obj 420 133 *;
#X obj 446 132 t b f;
#X obj 362 18 r \$0-play;
#X obj 476 31 key;
#X obj 478 53 sel 32;
#X obj 479 76 s \$0-play;
#X obj 635 413 s \$0-samples;
#X obj 596 28 r \$0-slice;
#X obj 407 196 tabplay~ \$0-R;
#X obj 185 83 spigot 1;
#X obj 251 52 r \$0-spigot;
#N canvas 0 26 1016 640 datasaving 0;
#X obj 649 151 s \$0-slices-start;
#X obj 649 129 pack 0 0;
#X obj 649 106 f;
#X obj 650 66 t b f;
#X obj 757 128 pack 0 0;
#X obj 757 105 f;
#X obj 758 65 t b f;
#X obj 757 150 s \$0-slices-end;
#X obj 555 40 r \$0-slice;
#X obj 574 324 tabread \$0-slices-start;
#X obj 555 64 t f f f;
#X obj 575 348 s \$0-start-r;
#X obj 477 137 tabread \$0-slices-end;
#X obj 478 161 s \$0-end-r;
#X obj 853 265 f;
#X obj 880 265 f;
#X obj 866 228 r \$0-start;
#X obj 934 227 r \$0-end;
#X obj 879 189 t b b;
#X obj 834 302 f;
#X obj 859 302 f;
#X obj 893 22 r \$0-save;
#X obj 835 325 s \$0-start-r;
#X obj 917 325 s \$0-end-r;
#X obj 668 7 r \$0-start;
#X obj 767 7 r \$0-end;
#X obj 652 41 f;
#X obj 755 40 f;
#X obj 843 122 t b b b b;
#X msg 893 69 1;
#X msg 923 72 0;
#X obj 911 112 s \$0-spigot;
#X obj 98 315 tabread \$0-slices-start;
#X obj 99 257 f;
#X obj 126 259 + 1;
#X obj 99 235 until;
#X msg 137 229 0;
#X obj 99 204 t f b;
#X obj 99 280 t f f;
#X msg 100 183 15;
#X obj 100 392 pack 0 0;
#X obj 100 444 s \$0-msgbox;
#X obj 346 433 s \$0-msgbox;
#X obj 337 222 list trim;
#X obj 299 158 symbol;
#X obj 333 132 r \$0-filename;
#X obj 337 242 s \$0-msgbox;
#X obj 334 108 s \$0-msgbox;
#X obj 93 500 table \$0-slices-start 100;
#X obj 93 520 table \$0-slices-end 100;
#X obj 101 371 swap;
#X obj 99 341 sel 0;
#X obj 259 232 f;
#X obj 286 234 + 1;
#X obj 259 210 until;
#X msg 297 204 0;
#X obj 259 179 t f b;
#X obj 259 255 t f f;
#X msg 260 158 15;
#X obj 260 367 pack 0 0;
#X obj 261 346 swap;
#X obj 259 316 sel 0;
#X obj 259 290 tabread \$0-slices-end;
#X msg 98 414 add2 start \, add2 \$1 \, add2 \$2 \, addcomma;
#X msg 336 198 add2 filename \, add2 \$1 \, addcomma;
#X obj 195 17 r \$0-savetomsg;
#X obj 193 37 t b b b b b b b;
#X msg 9 182 add done bang;
#X obj 10 202 s \$0-msgbox;
#X msg 332 84 set \, add2 reset bang \, addcomma;
#X msg 346 411 add2 end \, add2 \$1 \, add2 \$2 \, addcomma;
#X text 527 23 seleçao do preset;
#X obj 893 48 t b b b b;
#X text 96 480 memoria das seleções;
#X text 290 24 formata a mensagem do preset;
#X msg 628 235 get start;
#X msg 731 238 get end;
#X obj 595 261 h_multimap glerm;
#X text 98 538 comment;
#X obj 715 262 h_multimap glerm;
#X obj 663 193 r \$0-restore;
#X obj 682 214 t b b;
#X connect 1 0 0 0;
#X connect 2 0 1 0;
#X connect 3 0 2 0;
#X connect 3 1 1 1;
#X connect 4 0 7 0;
#X connect 5 0 4 0;
#X connect 6 0 5 0;
#X connect 6 1 4 1;
#X connect 8 0 10 0;
#X connect 9 0 11 0;
#X connect 10 0 12 0;
#X connect 10 1 9 0;
#X connect 10 2 5 1;
#X connect 10 2 2 1;
#X connect 12 0 13 0;
#X connect 14 0 19 1;
#X connect 15 0 20 1;
#X connect 16 0 14 1;
#X connect 17 0 15 1;
#X connect 18 0 14 0;
#X connect 18 1 15 0;
#X connect 19 0 22 0;
#X connect 20 0 23 0;
#X connect 21 0 72 0;
#X connect 24 0 26 1;
#X connect 25 0 27 1;
#X connect 26 0 3 0;
#X connect 27 0 6 0;
#X connect 28 0 26 0;
#X connect 28 1 27 0;
#X connect 28 2 19 0;
#X connect 28 3 20 0;
#X connect 29 0 31 0;
#X connect 30 0 31 0;
#X connect 32 0 51 0;
#X connect 33 0 34 0;
#X connect 33 0 38 0;
#X connect 34 0 33 1;
#X connect 35 0 33 0;
#X connect 36 0 33 1;
#X connect 37 0 35 0;
#X connect 37 1 36 0;
#X connect 38 0 32 0;
#X connect 38 1 50 1;
#X connect 39 0 37 0;
#X connect 40 0 63 0;
#X connect 43 0 46 0;
#X connect 44 0 64 0;
#X connect 45 0 44 1;
#X connect 50 0 40 0;
#X connect 50 1 40 1;
#X connect 51 1 50 0;
#X connect 52 0 53 0;
#X connect 52 0 57 0;
#X connect 53 0 52 1;
#X connect 54 0 52 0;
#X connect 55 0 52 1;
#X connect 56 0 54 0;
#X connect 56 1 55 0;
#X connect 57 0 62 0;
#X connect 57 1 60 1;
#X connect 58 0 56 0;
#X connect 59 0 70 0;
#X connect 60 0 59 0;
#X connect 60 1 59 1;
#X connect 61 1 60 0;
#X connect 62 0 61 0;
#X connect 63 0 41 0;
#X connect 64 0 43 0;
#X connect 65 0 66 0;
#X connect 66 1 67 0;
#X connect 66 3 39 0;
#X connect 66 4 58 0;
#X connect 66 5 44 0;
#X connect 66 6 69 0;
#X connect 67 0 68 0;
#X connect 69 0 47 0;
#X connect 70 0 42 0;
#X connect 72 0 29 0;
#X connect 72 1 28 0;
#X connect 72 2 30 0;
#X connect 72 3 18 0;
#X connect 75 0 77 0;
#X connect 76 0 79 0;
#X connect 77 0 0 0;
#X connect 79 0 7 0;
#X connect 80 0 81 0;
#X connect 81 0 75 0;
#X connect 81 1 76 0;
#X restore 465 507 pd datasaving;
#X obj 624 246 s \$0-filename;
#X obj 627 298 r \$0-filename;
#X obj 624 204 r \$0-open;
#X obj 748 65 loadbang;
#X obj 230 107 r \$0-spigoot;
#X obj 727 424 s \$0-slices-start;
#X obj 835 423 s \$0-slices-end;
#X msg 726 401 const 0;
#X obj 717 478 s \$0-slice-1s-r;
#X msg 719 456 0;
#X obj 817 478 s \$0-slice-10s-r;
#X obj 628 319 t a b b;
#X msg 413 443 1;
#X obj 412 421 loadbang;
#X obj 412 464 s \$0-spigoot-r;
#X obj 375 234 *~;
#X obj 408 287 *~;
#X obj 467 267 vline~;
#X msg 467 237 0 5 \, 1 5 5;
#X obj 360 109 t f b;
#X obj 361 133 pipe 5;
#X obj 374 388 dac~;
#N canvas 299 253 450 300 rack_de_efeitos 0;
#X obj 86 29 inlet~;
#X obj 152 31 inlet~;
#X obj 86 158 outlet~;
#X obj 154 160 outlet~;
#X text 213 72 usar fx.vocoder~ fica massa;
#X connect 0 0 2 0;
#X connect 1 0 3 0;
#X restore 375 354 pd rack_de_efeitos;
#X text 626 186 abre wav;
#X text 609 282 recebe caminho arq. wav;
#X connect 0 0 36 0;
#X connect 1 0 42 0;
#X connect 2 0 4 0;
#X connect 4 0 0 0;
#X connect 7 0 5 0;
#X connect 7 0 6 0;
#X connect 8 0 12 0;
#X connect 9 0 18 0;
#X connect 11 0 10 0;
#X connect 12 0 11 0;
#X connect 14 0 13 0;
#X connect 15 0 14 0;
#X connect 16 0 8 0;
#X connect 18 0 3 0;
#X connect 19 0 39 0;
#X connect 20 0 21 1;
#X connect 21 0 17 0;
#X connect 22 0 21 0;
#X connect 23 0 57 0;
#X connect 24 0 30 0;
#X connect 25 0 23 0;
#X connect 25 0 38 0;
#X connect 26 0 28 0;
#X connect 27 0 26 1;
#X connect 28 0 61 0;
#X connect 29 0 28 1;
#X connect 29 0 31 0;
#X connect 30 0 25 1;
#X connect 31 0 30 0;
#X connect 31 1 30 1;
#X connect 32 0 26 0;
#X connect 33 0 34 0;
#X connect 34 0 35 0;
#X connect 37 0 15 0;
#X connect 38 0 58 0;
#X connect 39 0 22 0;
#X connect 40 0 39 1;
#X connect 43 0 53 0;
#X connect 44 0 1 0;
#X connect 45 0 7 0;
#X connect 46 0 22 1;
#X connect 49 0 47 0;
#X connect 49 0 48 0;
#X connect 51 0 50 0;
#X connect 51 0 52 0;
#X connect 53 0 2 0;
#X connect 53 1 51 0;
#X connect 53 2 49 0;
#X connect 54 0 56 0;
#X connect 55 0 54 0;
#X connect 57 0 64 0;
#X connect 58 0 64 1;
#X connect 59 0 57 1;
#X connect 59 0 58 1;
#X connect 60 0 59 0;
#X connect 61 0 62 0;
#X connect 61 1 60 0;
#X connect 62 0 25 0;
#X connect 64 0 63 0;
#X connect 64 1 63 1;
#X restore 836 71 pd guts;
#X obj 43 306 bng 50 250 50 0 \$0-save eriyeiuyiueryiiiiiiiiipmx save
0 -15 0 20 -13330 -262144 -258113;
#X obj 401 -33 bng 15 250 50 0 \$0-open eriuytreiuytreiuiuiiiiiuuuuyyyr
OPEN 17 7 0 14 -262144 -1 -1;
#X obj 400 -13 tgl 15 0 \$0-spigoot \$0-spigoot-r lock-length 17 7
0 14 -262144 -1 -1 1 1;
#N canvas 0 22 437 363 readme-howto 0;
#X text 41 23 first \, open a sample.;
#X text 43 45 move the green sliders below the sample display to choose
your section.;
#X text 44 83 press 'store' and then choose a slot with the red radios
to save your section data to.;
#X text 46 121 press save.;
#X text 46 146 repeat for as many sample sections as you need.;
#X text 51 172 finally press 'save to message box'. Now your sample
section data \, along with the location of your sample \, will be saved
to a message box. open the [pd messagebox(dataved)] subpatch \, and
you can cut and paste this message box to use with the 'smp-slice'
abstraction for playing sliced up samples.;
#X text 58 288 oh \, and spacebar plays your currently selected slice
;
#X text 82 328 any questions/troubles/comments: hard.off@gmail.com
;
#X restore 595 -41 pd readme-howto;
#X obj 220 485 -;
#X obj 219 575 s \$0-selectarea;
#X msg 220 555 vis_size \$1 148;
#X obj 273 440 r \$0-start;
#X obj 219 460 r \$0-end;
#X obj 273 460 t b f;
#X obj 220 533 max 1;
#X obj 221 511 * 800;
#X obj 314 525 s \$0-len;
#X floatatom 326 485 5 0 0 0 - - -;
#X text 30 425 seleçao do trecho pra salvar;
#X obj 388 520 f;
#X msg 366 499 bang;
#X floatatom 404 498 3 0 2 0 - - -;
#X obj 388 543 pack 0 0;
#X text 432 498 font;
#X text 468 520 height;
#X msg 388 569 label_font \$1 \$2;
#X obj 28 406 s \$0-slice;
#X obj 99 307 hradio 50 1 0 16 empty empty empty 0 -8 0 10 -54277 -83269
-1 0;
#X obj 164 283 cnv 15 30 20 empty empty 1 0 10 1 30 -204786 -13330
0;
#X obj 212 282 cnv 15 30 20 empty empty 2 0 12 1 30 -204786 -13330
0;
#X obj 264 282 cnv 15 30 20 empty empty 3 0 12 1 30 -204786 -13330
0;
#X obj 310 282 cnv 15 30 20 empty empty 4 0 12 1 30 -204786 -13330
0;
#X obj 361 282 cnv 15 30 20 empty empty 5 0 12 1 30 -204786 -13330
0;
#X obj 410 282 cnv 15 30 20 empty empty 6 0 12 1 30 -204786 -13330
0;
#X obj 461 282 cnv 15 30 20 empty empty 7 0 12 1 30 -204786 -13330
0;
#X obj 509 282 cnv 15 30 20 empty empty 8 0 12 1 30 -204786 -13330
0;
#X obj 113 282 cnv 15 30 20 empty empty 0 0 11 1 30 -204786 -13330
0;
#X obj 562 282 cnv 15 30 20 empty empty 9 0 12 1 30 -204786 -13330
0;
#X obj 609 282 cnv 15 30 20 empty empty 10 0 12 1 30 -204786 -13330
0;
#X obj 660 282 cnv 15 30 20 empty empty 11 0 12 1 30 -204786 -13330
0;
#X obj 708 282 cnv 15 30 20 empty empty 12 0 12 1 30 -204786 -13330
0;
#X obj 759 282 cnv 15 30 20 empty empty 13 0 12 1 30 -204786 -13330
0;
#X obj 808 282 cnv 15 30 20 empty empty 14 0 12 1 30 -204786 -13330
0;
#X obj 857 282 cnv 15 30 20 empty empty 15 0 12 1 30 -204786 -13330
0;
#X floatatom 464 545 5 0 0 0 - - -;
#X obj 47 99 bng 50 250 50 0 \$0-savetomsg eriyeiuyiueryiiiiiiiiipmx
ok! 0 -15 0 20 -4160 -262144 -258113;
#N canvas 278 280 682 385 ascii 0;
#X obj 75 62 key;
#X floatatom 174 51 5 0 0 0 - - -;
#X msg 40 133 0;
#X msg 69 133 1;
#X obj 158 303 outlet;
#X msg 97 135 2;
#X msg 158 135 4;
#X msg 190 134 5;
#X msg 222 136 6;
#X msg 253 137 7;
#X msg 125 134 3;
#X obj 77 102 sel 113 119 101 114 116 121 117 105 111 112;
#X obj 343 76 key;
#X obj 347 102 sel 97 115 100 102 103 104 106 107 108;
#X text 505 83 asdfg;
#X text 287 85 qwerty;
#X connect 0 0 1 0;
#X connect 0 0 11 0;
#X connect 2 0 4 0;
#X connect 3 0 4 0;
#X connect 5 0 4 0;
#X connect 6 0 4 0;
#X connect 7 0 4 0;
#X connect 8 0 4 0;
#X connect 9 0 4 0;
#X connect 10 0 4 0;
#X connect 11 0 2 0;
#X connect 11 1 3 0;
#X connect 11 2 5 0;
#X connect 11 3 10 0;
#X connect 11 4 6 0;
#X connect 11 5 7 0;
#X connect 11 6 8 0;
#X connect 11 7 9 0;
#X connect 12 0 13 0;
#X restore 428 380 pd ascii;
#X obj 430 402 spigot;
#X obj 410 381 tgl 15 0 empty empty empty 17 7 0 10 -262144 -1 -1 1
1;
#X obj 382 425 s \$0-presetpanel;
#X floatatom 383 402 5 0 0 0 - - -;
#X obj -9 234 r \$0-presetpanel;
#X floatatom 173 484 5 0 0 0 - - -;
#X floatatom 350 461 5 0 0 0 - - -;
#X floatatom 451 477 5 0 0 0 - - -;
#N canvas 0 26 1024 661 containter_xml 0;
#X obj 414 150 r \$0-msgbox;
#X msg 265 399 print;
#X msg 564 117 clear;
#X obj 371 338 t b b;
#X obj 353 435 h_multimap glerm;
#X obj 433 369 list;
#X obj 473 343 t b b;
#X obj 526 368 list;
#X msg 473 368 add end;
#X obj 557 346 t b b;
#X obj 647 363 list;
#X obj 415 258 route start end filename;
#X msg 354 367 add start;
#X msg 558 368 add filename;
#X msg 153 471 saveXML /home/glerm/artesanatodevolts/mimosalib/---.xml
;
#X msg 534 502 readXML /home/glerm/artesanatodevolts/mimosalib/cadela.xml
;
#X obj 104 77 makefilename /home/glerm/artesanatodevolts/mimosalib/%s.xml
;
#X symbolatom 102 103 30 0 0 0 - - -;
#X obj 106 155 file.browser_;
#X obj 268 20 loadbang;
#X obj 145 383 prepend set;
#X msg 124 331 saveXML \$1;
#X obj 44 378 prepend set;
#X msg 42 359 readXML \$1;
#X msg 269 45 patterns xml \, /home/glerm/artesanatodevolts/mimosalib
;
#X msg 469 583 get filename;
#X obj 468 628 s \$0-filename;
#X obj 469 606 h_multimap glerm;
#X obj 348 607 s \$0-restore;
#X obj 406 558 t b b;
#X obj 361 584 delay 100;
#X obj 88 52 tosymbol;
#X obj 89 14 loadbang;
#X obj 285 111 bng 15 250 50 0 empty empty save 0 -5 0 10 -262144 -1
-1;
#X obj 116 122 bng 30 250 50 0 empty \$0-preset_btn cadela.xml 34 15
0 15 -191407 -262144 -1;
#X obj 535 541 bang;
#X obj 528 479 delay 1000;
#X obj 819 294 file.path.split;
#X obj 848 373 s \$0-preset_btn;
#X msg 872 343 label \$1;
#X msg 88 33 ---;
#X msg 415 170 reset bang \, filename /home/glerm/samples/espelhoriff.wav
\, end 0 0.177722 \, end 1 0.371715 \, end 2 0.468085 \, end 3 0.525657
\, end 4 0.645807 \, end 5 0.772215 \, end 6 0.813517 \, end 7 1 \,
start 1 0.176471 \, start 2 0.371715 \, start 3 0.441802 \, start 4
0.546934 \, start 5 0.645807 \, start 6 0.743429 \, start 7 0.813517
\, done bang \;;
#X obj 368 99 t b b;
#X obj 368 123 delay 250;
#X obj 368 153 t b b;
#X obj 234 566 s \$0-newentry;
#X obj 237 511 t b;
#X obj 334 16 r \$0-newentry;
#X obj 235 537 delay 50;
#N canvas 0 0 450 300 emtestes 0;
#X obj -100 -19 bng 15 250 50 0 empty empty empty 0 -6 0 8 -262144
-1 -1;
#X msg -146 -114 print;
#X msg -139 -90 clear;
#X obj -149 -135 list;
#X obj -204 -143 t b b;
#X msg -196 -111 add 1;
#X obj -199 -41 h_multimap testes;
#X msg -196 -166;
#X connect 1 0 6 0;
#X connect 2 0 6 0;
#X connect 3 0 6 1;
#X connect 4 0 5 0;
#X connect 4 1 3 0;
#X connect 5 0 6 0;
#X connect 6 2 0 0;
#X connect 7 0 3 1;
#X connect 7 0 4 0;
#X restore 19 626 pd emtestes;
#X obj 355 175 delay 250;
#X obj 354 201 t b;
#X obj 265 376 r \$0-debug;
#X connect 0 0 41 0;
#X connect 1 0 4 0;
#X connect 2 0 4 0;
#X connect 3 0 12 0;
#X connect 3 1 5 0;
#X connect 5 0 4 1;
#X connect 6 0 8 0;
#X connect 6 1 7 0;
#X connect 7 0 4 1;
#X connect 8 0 4 0;
#X connect 9 0 13 0;
#X connect 9 1 10 0;
#X connect 10 0 4 1;
#X connect 11 0 3 0;
#X connect 11 0 5 1;
#X connect 11 1 6 0;
#X connect 11 1 7 1;
#X connect 11 2 9 0;
#X connect 11 2 10 1;
#X connect 12 0 4 0;
#X connect 13 0 4 0;
#X connect 14 0 4 0;
#X connect 14 0 46 0;
#X connect 15 0 4 0;
#X connect 15 0 35 0;
#X connect 16 0 21 0;
#X connect 17 0 16 0;
#X connect 18 0 23 0;
#X connect 18 0 37 0;
#X connect 19 0 24 0;
#X connect 20 0 14 0;
#X connect 21 0 20 0;
#X connect 22 0 15 0;
#X connect 23 0 22 0;
#X connect 24 0 18 1;
#X connect 25 0 27 0;
#X connect 27 0 26 0;
#X connect 29 0 30 0;
#X connect 29 1 25 0;
#X connect 30 0 28 0;
#X connect 31 0 17 0;
#X connect 32 0 40 0;
#X connect 33 0 42 0;
#X connect 34 0 36 0;
#X connect 35 0 29 0;
#X connect 36 0 15 0;
#X connect 37 1 39 0;
#X connect 39 0 38 0;
#X connect 40 0 31 0;
#X connect 41 0 11 0;
#X connect 42 0 43 0;
#X connect 42 1 2 0;
#X connect 43 0 44 0;
#X connect 44 0 50 0;
#X connect 44 1 41 0;
#X connect 46 0 48 0;
#X connect 47 0 24 0;
#X connect 48 0 45 0;
#X connect 50 0 51 0;
#X connect 51 0 14 0;
#X connect 52 0 1 0;
#X coords 0 -1 1 1 210 200 1 100 100;
#X restore 676 380 pd containter_xml;
#X connect 10 0 17 0;
#X connect 10 0 18 0;
#X connect 12 0 11 0;
#X connect 13 0 15 0;
#X connect 13 0 55 0;
#X connect 14 0 10 0;
#X connect 14 0 54 0;
#X connect 15 0 10 0;
#X connect 15 1 10 1;
#X connect 16 0 12 0;
#X connect 17 0 16 0;
#X connect 19 0 12 0;
#X connect 21 0 24 0;
#X connect 22 0 21 0;
#X connect 23 0 21 1;
#X connect 24 0 27 0;
#X connect 27 0 11 0;
#X connect 29 0 28 0;
#X connect 46 0 24 1;
#X connect 48 0 49 0;
#X connect 49 0 51 0;
#X connect 49 0 52 0;
#X connect 50 0 49 1;
#X connect 53 0 29 0;
#X connect 56 0 24 1;
