#N canvas 0 26 1024 661 10;
#X obj 135 174 mimosa-nbxcol;
#X obj 135 122 == 0;
#X obj 207 120 == 1;
#X obj 279 118 == 2;
#X obj 351 119 == 3;
#X obj 423 118 == 4;
#X obj 495 119 == 5;
#X obj 567 118 == 6;
#X obj 639 119 == 7;
#X msg 56 305 bang;
#X text 57 286 zero all;
#X obj 207 174 mimosa-nbxcol;
#X obj 351 174 mimosa-nbxcol;
#X obj 279 174 mimosa-nbxcol;
#X obj 495 174 mimosa-nbxcol;
#X obj 423 174 mimosa-nbxcol;
#X obj 639 174 mimosa-nbxcol;
#X obj 567 174 mimosa-nbxcol;
#X obj 182 148 bng 15 250 50 0 empty \$0-ZERO empty 17 7 0 10 -262144
-1 -1;
#X obj 256 148 bng 15 250 50 0 empty \$0-ZERO empty 17 7 0 10 -262144
-1 -1;
#X obj 329 149 bng 15 250 50 0 empty \$0-ZERO empty 17 7 0 10 -262144
-1 -1;
#X obj 403 149 bng 15 250 50 0 empty \$0-ZERO empty 17 7 0 10 -262144
-1 -1;
#X obj 465 146 bng 15 250 50 0 empty \$0-ZERO empty 17 7 0 10 -262144
-1 -1;
#X obj 539 146 bng 15 250 50 0 empty \$0-ZERO empty 17 7 0 10 -262144
-1 -1;
#X obj 612 147 bng 15 250 50 0 empty \$0-ZERO empty 17 7 0 10 -262144
-1 -1;
#X obj 686 147 bng 15 250 50 0 empty \$0-ZERO empty 17 7 0 10 -262144
-1 -1;
#X obj 49 333 s \$0-ZERO;
#X obj 45 546 t b l;
#X msg 733 147 print;
#X obj 733 173 h_map \$0-nbxmtx;
#X obj 52 592 h_map \$0-nbxmtx;
#X obj 146 545 t b l;
#X obj 153 591 h_map \$0-nbxmtx;
#X obj 250 545 t b l;
#X obj 257 591 h_map \$0-nbxmtx;
#X obj 351 544 t b l;
#X obj 358 590 h_map \$0-nbxmtx;
#X obj 452 543 t b l;
#X obj 459 589 h_map \$0-nbxmtx;
#X obj 553 542 t b l;
#X obj 560 588 h_map \$0-nbxmtx;
#X obj 657 542 t b l;
#X obj 664 588 h_map \$0-nbxmtx;
#X obj 758 541 t b l;
#X obj 765 587 h_map \$0-nbxmtx;
#X msg 44 571 add col_00;
#X msg 145 571 add col_01;
#X msg 249 570 add col_02;
#X msg 351 570 add col_03;
#X msg 451 567 add col_04;
#X msg 552 568 add col_05;
#X msg 656 567 add col_06;
#X msg 759 565 add col_07;
#X msg 678 30 saveXML /home/glerm/artesanatodevolts/matriz.xml;
#X msg 688 51 readXML /home/glerm/artesanatodevolts/matriz.xml;
#X obj 276 -30 tgl 15 0 empty empty empty 0 -6 0 8 -262144 -1 -1 0
1;
#X obj 276 15 timing.tempo 120 1 8;
#X floatatom 242 16 5 0 0 0 - - -;
#X floatatom 411 48 5 0 0 0 - - -;
#X obj 386 40 % 8;
#X floatatom 367 -6 5 0 0 0 - - -;
#X obj 428 24 sel 0;
#X floatatom 480 55 5 0 0 0 - - -;
#X obj 474 -27 hradio 15 1 0 32 empty empty empty 0 -8 0 10 -262144
-1 -1 0;
#X obj 479 32 counter 31;
#X floatatom 316 -8 5 0 0 0 - - -;
#X msg 753 87 clear;
#X msg 728 115 getnamespace;
#X msg 801 76 clearall;
#X msg 837 126 keys;
#X msg 839 98 values;
#X obj 733 200 prepend add;
#X msg 735 224 0 0 0 0 0 0 0 232 0 0 0 0 0 0 0 0 \; 0 0 0 0 0 0 105
0 0 0 0 0 0 0 0 0 \; 0 0 0 0 0 83 0 0 0 0 0 0 0 0 0 0 \; 0 0 0 0 0
67 0 0 0 0 0 0 0 0 0 0 \; 0 0 0 0 0 47 0 0 0 0 0 0 0 0 0 0 \; 0 0 0
0 76 0 0 0 0 0 0 0 0 0 0 0 \; 0 0 0 87 0 0 0 0 0 0 0 0 0 0 0 0 \; 0
0 0 131 0 0 0 0 0 0 0 0 0 0 0 0 \;;
#X msg 901 207 set;
#X obj 901 100 bng 15 250 50 0 empty empty empty 17 7 0 10 -262144
-1 -1;
#X msg 39 508 namespace \$1;
#X msg 531 5 0;
#X obj 421 -11 t b;
#X msg 843 153 namespace page2;
#X obj -7 419 makefilename page%d;
#X connect 0 0 27 0;
#X connect 1 0 0 0;
#X connect 2 0 11 0;
#X connect 3 0 13 0;
#X connect 4 0 12 0;
#X connect 5 0 15 0;
#X connect 6 0 14 0;
#X connect 7 0 17 0;
#X connect 8 0 16 0;
#X connect 9 0 26 0;
#X connect 11 0 31 0;
#X connect 12 0 35 0;
#X connect 13 0 33 0;
#X connect 14 0 39 0;
#X connect 15 0 37 0;
#X connect 16 0 43 0;
#X connect 17 0 41 0;
#X connect 18 0 0 1;
#X connect 19 0 11 1;
#X connect 20 0 13 1;
#X connect 21 0 12 1;
#X connect 22 0 15 1;
#X connect 23 0 14 1;
#X connect 24 0 17 1;
#X connect 25 0 16 1;
#X connect 27 0 45 0;
#X connect 27 1 30 1;
#X connect 28 0 29 0;
#X connect 29 0 71 0;
#X connect 31 0 46 0;
#X connect 31 1 32 1;
#X connect 33 0 47 0;
#X connect 33 1 34 1;
#X connect 35 0 48 0;
#X connect 35 1 36 1;
#X connect 37 0 49 0;
#X connect 37 1 38 1;
#X connect 39 0 50 0;
#X connect 39 1 40 1;
#X connect 41 0 51 0;
#X connect 41 1 42 1;
#X connect 43 0 52 0;
#X connect 43 1 44 1;
#X connect 45 0 30 0;
#X connect 46 0 32 0;
#X connect 47 0 34 0;
#X connect 48 0 36 0;
#X connect 49 0 38 0;
#X connect 50 0 40 0;
#X connect 51 0 42 0;
#X connect 52 0 44 0;
#X connect 53 0 29 0;
#X connect 54 0 29 0;
#X connect 55 0 56 0;
#X connect 55 0 77 0;
#X connect 56 0 57 0;
#X connect 56 0 59 0;
#X connect 56 0 1 0;
#X connect 56 0 2 0;
#X connect 56 0 3 0;
#X connect 56 0 4 0;
#X connect 56 0 5 0;
#X connect 56 0 6 0;
#X connect 56 0 7 0;
#X connect 56 0 8 0;
#X connect 59 0 58 0;
#X connect 59 0 61 0;
#X connect 60 0 56 3;
#X connect 61 0 64 0;
#X connect 64 0 62 0;
#X connect 64 0 63 0;
#X connect 64 0 79 0;
#X connect 65 0 56 1;
#X connect 66 0 29 0;
#X connect 67 0 29 0;
#X connect 68 0 29 0;
#X connect 69 0 29 0;
#X connect 70 0 29 0;
#X connect 71 0 72 0;
#X connect 73 0 72 0;
#X connect 74 0 73 0;
#X connect 75 0 30 0;
#X connect 75 0 32 0;
#X connect 75 0 34 0;
#X connect 75 0 36 0;
#X connect 75 0 38 0;
#X connect 75 0 40 0;
#X connect 75 0 42 0;
#X connect 75 0 44 0;
#X connect 76 0 64 3;
#X connect 77 0 76 0;
#X connect 78 0 29 0;
#X connect 79 0 75 0;
