#N canvas -90 26 1003 662 10;
#X declare -stdpath extra/tof;
#X obj 101 250 hsl 800 12 0 1 0 0 \$0-start \$0-start-r empty -2 -8
0 10 -182874 -1 -1 0 1;
#X obj 101 263 hsl 800 12 0 1 0 0 \$0-end \$0-end-r empty -2 -8 0 10
-182874 -1 -1 14200 1;
#N canvas 113 28 815 634 guts 0;
#X obj 633 391 soundfiler;
#X obj 623 224 openpanel;
#X obj 628 344 pack s \$0;
#X obj 790 264 s \$0-selectarea;
#X msg 633 369 read -resize \$1 \$2-L \$2-R;
#X obj 745 122 s \$0-L;
#X obj 789 122 s \$0-R;
#X msg 750 86 resize 100;
#X obj 5 123 * 800;
#X obj 786 201 loadbang;
#X obj 3 186 s \$0-selectarea;
#X msg 3 164 pos \$1 100;
#X obj 5 144 + 100;
#X obj 595 92 s \$0-selectarea;
#X msg 594 71 label \$1;
#X obj 595 50 makefilename %d;
#X obj 4 103 r \$0-start;
#X obj 183 256 s \$0-end-r;
#X msg 789 227 pos 100 100 \, vis_size 1 148;
#X obj 185 51 r \$0-start;
#X obj 200 164 r \$0-len;
#X obj 186 188 +;
#X obj 185 134 spigot;
#X obj 374 177 tabplay~ \$0-L;
#X obj 419 108 r \$0-len;
#X obj 374 156 pack 0 0;
#X obj 362 66 f;
#X obj 377 41 r \$0-start;
#X obj 362 89 *;
#X obj 390 65 r \$0-samples;
#X obj 420 133 *;
#X obj 446 132 t b f;
#X obj 362 18 r \$0-play;
#X obj 476 31 key;
#X obj 478 53 sel 32;
#X obj 479 76 s \$0-play;
#X obj 635 413 s \$0-samples;
#X obj 596 28 r \$0-slice;
#X obj 407 196 tabplay~ \$0-R;
#X obj 185 83 spigot 1;
#X obj 251 52 r \$0-spigot;
#N canvas 0 26 1016 640 datasaving 0;
#X obj 649 151 s \$0-slices-start;
#X obj 649 129 pack 0 0;
#X obj 649 106 f;
#X obj 650 66 t b f;
#X obj 757 128 pack 0 0;
#X obj 757 105 f;
#X obj 758 65 t b f;
#X obj 757 150 s \$0-slices-end;
#X obj 555 40 r \$0-slice;
#X obj 574 324 tabread \$0-slices-start;
#X obj 555 64 t f f f;
#X obj 575 348 s \$0-start-r;
#X obj 477 137 tabread \$0-slices-end;
#X obj 478 161 s \$0-end-r;
#X obj 853 265 f;
#X obj 880 265 f;
#X obj 866 228 r \$0-start;
#X obj 934 227 r \$0-end;
#X obj 879 189 t b b;
#X obj 834 302 f;
#X obj 859 302 f;
#X obj 893 22 r \$0-save;
#X obj 835 325 s \$0-start-r;
#X obj 917 325 s \$0-end-r;
#X obj 668 7 r \$0-start;
#X obj 767 7 r \$0-end;
#X obj 652 41 f;
#X obj 755 40 f;
#X obj 843 122 t b b b b;
#X msg 893 69 1;
#X msg 923 72 0;
#X obj 911 112 s \$0-spigot;
#X obj 98 315 tabread \$0-slices-start;
#X obj 99 257 f;
#X obj 126 259 + 1;
#X obj 99 235 until;
#X msg 137 229 0;
#X obj 99 204 t f b;
#X obj 99 280 t f f;
#X msg 100 183 15;
#X obj 100 392 pack 0 0;
#X obj 100 444 s \$0-msgbox;
#X obj 346 433 s \$0-msgbox;
#X obj 337 222 list trim;
#X obj 299 158 symbol;
#X obj 333 132 r \$0-filename;
#X obj 337 242 s \$0-msgbox;
#X obj 334 108 s \$0-msgbox;
#X obj 93 500 table \$0-slices-start 100;
#X obj 93 520 table \$0-slices-end 100;
#X obj 101 371 swap;
#X obj 99 341 sel 0;
#X obj 259 232 f;
#X obj 286 234 + 1;
#X obj 259 210 until;
#X msg 297 204 0;
#X obj 259 179 t f b;
#X obj 259 255 t f f;
#X msg 260 158 15;
#X obj 260 367 pack 0 0;
#X obj 261 346 swap;
#X obj 259 316 sel 0;
#X obj 259 290 tabread \$0-slices-end;
#X msg 98 414 add2 start \, add2 \$1 \, add2 \$2 \, addcomma;
#X msg 336 198 add2 filename \, add2 \$1 \, addcomma;
#X obj 195 17 r \$0-savetomsg;
#X obj 193 37 t b b b b b b b;
#X msg 9 182 add done bang;
#X obj 10 202 s \$0-msgbox;
#X msg 332 84 set \, add2 reset bang \, addcomma;
#X msg 346 411 add2 end \, add2 \$1 \, add2 \$2 \, addcomma;
#X text 527 23 seleçao do preset;
#X obj 893 48 t b b b b;
#X text 96 480 memoria das seleções;
#X text 290 24 formata a mensagem do preset;
#X msg 628 235 get start;
#X msg 731 238 get end;
#X obj 595 261 h_multimap glerm;
#X text 98 538 comment;
#X obj 715 262 h_multimap glerm;
#X obj 663 193 r \$0-restore;
#X obj 682 214 t b b;
#X connect 1 0 0 0;
#X connect 2 0 1 0;
#X connect 3 0 2 0;
#X connect 3 1 1 1;
#X connect 4 0 7 0;
#X connect 5 0 4 0;
#X connect 6 0 5 0;
#X connect 6 1 4 1;
#X connect 8 0 10 0;
#X connect 9 0 11 0;
#X connect 10 0 12 0;
#X connect 10 1 9 0;
#X connect 10 2 5 1;
#X connect 10 2 2 1;
#X connect 12 0 13 0;
#X connect 14 0 19 1;
#X connect 15 0 20 1;
#X connect 16 0 14 1;
#X connect 17 0 15 1;
#X connect 18 0 14 0;
#X connect 18 1 15 0;
#X connect 19 0 22 0;
#X connect 20 0 23 0;
#X connect 21 0 72 0;
#X connect 24 0 26 1;
#X connect 25 0 27 1;
#X connect 26 0 3 0;
#X connect 27 0 6 0;
#X connect 28 0 26 0;
#X connect 28 1 27 0;
#X connect 28 2 19 0;
#X connect 28 3 20 0;
#X connect 29 0 31 0;
#X connect 30 0 31 0;
#X connect 32 0 51 0;
#X connect 33 0 34 0;
#X connect 33 0 38 0;
#X connect 34 0 33 1;
#X connect 35 0 33 0;
#X connect 36 0 33 1;
#X connect 37 0 35 0;
#X connect 37 1 36 0;
#X connect 38 0 32 0;
#X connect 38 1 50 1;
#X connect 39 0 37 0;
#X connect 40 0 63 0;
#X connect 43 0 46 0;
#X connect 44 0 64 0;
#X connect 45 0 44 1;
#X connect 50 0 40 0;
#X connect 50 1 40 1;
#X connect 51 1 50 0;
#X connect 52 0 53 0;
#X connect 52 0 57 0;
#X connect 53 0 52 1;
#X connect 54 0 52 0;
#X connect 55 0 52 1;
#X connect 56 0 54 0;
#X connect 56 1 55 0;
#X connect 57 0 62 0;
#X connect 57 1 60 1;
#X connect 58 0 56 0;
#X connect 59 0 70 0;
#X connect 60 0 59 0;
#X connect 60 1 59 1;
#X connect 61 1 60 0;
#X connect 62 0 61 0;
#X connect 63 0 41 0;
#X connect 64 0 43 0;
#X connect 65 0 66 0;
#X connect 66 1 67 0;
#X connect 66 3 39 0;
#X connect 66 4 58 0;
#X connect 66 5 44 0;
#X connect 66 6 69 0;
#X connect 67 0 68 0;
#X connect 69 0 47 0;
#X connect 70 0 42 0;
#X connect 72 0 29 0;
#X connect 72 1 28 0;
#X connect 72 2 30 0;
#X connect 72 3 18 0;
#X connect 75 0 77 0;
#X connect 76 0 79 0;
#X connect 77 0 0 0;
#X connect 79 0 7 0;
#X connect 80 0 81 0;
#X connect 81 0 75 0;
#X connect 81 1 76 0;
#X restore 465 507 pd datasaving;
#X obj 624 246 s \$0-filename;
#X obj 627 298 r \$0-filename;
#X obj 624 204 r \$0-open;
#X obj 748 65 loadbang;
#X obj 230 107 r \$0-spigoot;
#X obj 727 424 s \$0-slices-start;
#X obj 835 423 s \$0-slices-end;
#X msg 726 401 const 0;
#X obj 717 478 s \$0-slice-1s-r;
#X msg 719 456 0;
#X obj 817 478 s \$0-slice-10s-r;
#X obj 628 319 t a b b;
#X msg 413 443 1;
#X obj 412 421 loadbang;
#X obj 412 464 s \$0-spigoot-r;
#X obj 375 234 *~;
#X obj 408 287 *~;
#X obj 467 267 vline~;
#X msg 467 237 0 5 \, 1 5 5;
#X obj 360 109 t f b;
#X obj 361 133 pipe 5;
#X obj 374 388 dac~;
#N canvas 0 107 1024 661 rack_de_efeitos 0;
#X obj 86 29 inlet~;
#X obj 152 31 inlet~;
#X obj 87 263 outlet~;
#X obj 138 263 outlet~;
#X text 364 42 usar fx.vocoder~ fica massa;
#X obj 151 163 fx.pitch.shift~;
#X obj 53 133 fx.pitch.shift~;
#X obj 240 57 r \$0-pshift;
#X obj 358 244 fiddle~;
#N canvas 0 0 664 495 nomesnotas 0;
#X obj 80 47 inlet;
#X obj 79 436 outlet;
#X obj 58 182 % 12;
#X obj 136 202 sel 0 1 2 3 4 5 6 7 8 9 10 11;
#X obj 59 303 t a;
#X msg 58 260 Do;
#X msg 89 260 Do_sustenido;
#X msg 174 262 Re;
#X msg 207 262 Re_sustenido;
#X msg 292 263 Mi;
#X msg 321 264 Fa;
#X msg 349 264 Fa_sustenido;
#X msg 441 263 Sol;
#X msg 473 265 Sol_sustenido;
#X msg 565 268 La;
#X msg 600 271 Si_bemol;
#X msg 666 269 Si;
#X obj 233 129 / 12;
#X obj 226 153 int;
#X obj 187 410 - 1;
#X obj 190 436 outlet;
#X connect 0 0 2 0;
#X connect 0 0 17 0;
#X connect 2 0 3 0;
#X connect 3 0 5 0;
#X connect 3 1 6 0;
#X connect 3 2 7 0;
#X connect 3 3 8 0;
#X connect 3 4 9 0;
#X connect 3 5 10 0;
#X connect 3 6 11 0;
#X connect 3 7 12 0;
#X connect 3 8 13 0;
#X connect 3 9 14 0;
#X connect 3 10 15 0;
#X connect 3 11 16 0;
#X connect 4 0 1 0;
#X connect 5 0 4 0;
#X connect 6 0 4 0;
#X connect 7 0 4 0;
#X connect 8 0 4 0;
#X connect 9 0 4 0;
#X connect 10 0 4 0;
#X connect 11 0 4 0;
#X connect 12 0 4 0;
#X connect 13 0 4 0;
#X connect 14 0 4 0;
#X connect 15 0 4 0;
#X connect 16 0 4 0;
#X connect 17 0 18 0;
#X connect 18 0 19 0;
#X connect 19 0 20 0;
#X restore 287 337 pd nomesnotas;
#X obj 233 454 s \$0-defaultpitchlabel;
#X msg 233 429 label \$1;
#X obj 296 412 tosymbol;
#X obj 287 380 sprintf %s-%d;
#X obj 497 385 t b b;
#X obj 501 459 h_multimap glerm;
#X obj 644 416 list;
#X obj 597 142 r \$0-slice;
#X obj 597 172 makefilename notatrecho%d;
#X msg 597 201 add \$1;
#X msg 507 416 add notatrecho0;
#X obj 597 236 prepend set;
#X obj 507 308 bng 15 250 50 0 empty empty empty 17 7 0 10 -262144
-1 -1;
#X obj 579 361 list-extend;
#X obj 718 433 t b;
#X connect 0 0 6 0;
#X connect 1 0 5 0;
#X connect 5 0 3 0;
#X connect 5 0 8 0;
#X connect 6 0 2 0;
#X connect 6 0 8 0;
#X connect 7 0 5 1;
#X connect 7 0 6 1;
#X connect 8 0 9 0;
#X connect 8 0 23 0;
#X connect 9 0 13 0;
#X connect 9 1 13 1;
#X connect 11 0 10 0;
#X connect 12 0 11 0;
#X connect 13 0 12 0;
#X connect 14 0 20 0;
#X connect 14 1 16 0;
#X connect 16 0 15 1;
#X connect 16 0 24 0;
#X connect 17 0 18 0;
#X connect 18 0 19 0;
#X connect 19 0 21 0;
#X connect 20 0 15 0;
#X connect 21 0 20 0;
#X connect 22 0 14 0;
#X connect 23 0 16 1;
#X connect 24 0 23 1;
#X restore 375 354 pd rack_de_efeitos;
#X text 626 186 abre wav;
#X text 609 282 recebe caminho arq. wav;
#X obj 80 374 key;
#X msg 216 583 print;
#X msg 189 459 start;
#X msg 83 541 stop;
#X msg 142 409 open /home/glerm/ali.wav;
#X obj 294 567 oggwrite~ 2;
#X floatatom 295 590 5 0 0 0 - - -;
#X floatatom 357 590 5 0 0 0 - - -;
#X obj 80 395 sel 39;
#X obj 107 448 t b b;
#X obj 110 469 delay 1000;
#X floatatom 125 371 5 0 0 0 - - -;
#X obj 37 483 sel 127;
#X msg 9 28 \; pd dsp \$1;
#X obj 9 1 r \$0-ligasom;
#X connect 0 0 36 0;
#X connect 1 0 42 0;
#X connect 2 0 4 0;
#X connect 4 0 0 0;
#X connect 7 0 5 0;
#X connect 7 0 6 0;
#X connect 8 0 12 0;
#X connect 9 0 18 0;
#X connect 11 0 10 0;
#X connect 12 0 11 0;
#X connect 14 0 13 0;
#X connect 15 0 14 0;
#X connect 16 0 8 0;
#X connect 18 0 3 0;
#X connect 19 0 39 0;
#X connect 20 0 21 1;
#X connect 21 0 17 0;
#X connect 22 0 21 0;
#X connect 23 0 57 0;
#X connect 24 0 30 0;
#X connect 25 0 23 0;
#X connect 25 0 38 0;
#X connect 26 0 28 0;
#X connect 27 0 26 1;
#X connect 28 0 61 0;
#X connect 29 0 28 1;
#X connect 29 0 31 0;
#X connect 30 0 25 1;
#X connect 31 0 30 0;
#X connect 31 1 30 1;
#X connect 32 0 26 0;
#X connect 33 0 34 0;
#X connect 34 0 35 0;
#X connect 37 0 15 0;
#X connect 38 0 58 0;
#X connect 39 0 22 0;
#X connect 40 0 39 1;
#X connect 43 0 53 0;
#X connect 44 0 1 0;
#X connect 45 0 7 0;
#X connect 46 0 22 1;
#X connect 49 0 47 0;
#X connect 49 0 48 0;
#X connect 51 0 50 0;
#X connect 51 0 52 0;
#X connect 53 0 2 0;
#X connect 53 1 51 0;
#X connect 53 2 49 0;
#X connect 54 0 56 0;
#X connect 55 0 54 0;
#X connect 57 0 64 0;
#X connect 58 0 64 1;
#X connect 59 0 57 1;
#X connect 59 0 58 1;
#X connect 60 0 59 0;
#X connect 61 0 62 0;
#X connect 61 1 60 0;
#X connect 62 0 25 0;
#X connect 64 0 63 0;
#X connect 64 0 72 0;
#X connect 64 1 63 1;
#X connect 64 1 72 1;
#X connect 67 0 75 0;
#X connect 67 0 78 0;
#X connect 68 0 72 0;
#X connect 69 0 72 0;
#X connect 70 0 72 0;
#X connect 71 0 72 0;
#X connect 72 0 73 0;
#X connect 72 1 74 0;
#X connect 75 0 76 0;
#X connect 75 0 79 0;
#X connect 76 0 77 0;
#X connect 76 1 71 0;
#X connect 77 0 69 0;
#X connect 79 0 70 0;
#X connect 81 0 80 0;
#X restore 12 252 pd guts;
#X obj 43 306 bng 50 250 50 0 \$0-save \$0-enterR enter 0 -15 0 20
-13330 -262144 -258113;
#X obj 964 -5 bng 15 250 50 0 \$0-open eriuytreiuytreiuiuiiiiiuuuuyyyr
OPEN 17 7 0 14 -262144 -1 -1;
#X obj 908 209 tgl 15 0 \$0-spigoot \$0-spigoot-r lock-length 17 7
0 14 -262144 -1 -1 1 1;
#X obj 99 307 hradio 50 1 0 16 \$0-slice \$0-slicerpanel empty 0 -8
0 10 -54277 -83269 -1 0;
#X obj 164 283 cnv 15 30 20 empty empty 1 0 10 1 30 -204786 -13330
0;
#X obj 212 282 cnv 15 30 20 empty empty 2 0 12 1 30 -204786 -13330
0;
#X obj 264 282 cnv 15 30 20 empty empty 3 0 12 1 30 -204786 -13330
0;
#X obj 310 282 cnv 15 30 20 empty empty 4 0 12 1 30 -204786 -13330
0;
#X obj 361 282 cnv 15 30 20 empty empty 5 0 12 1 30 -204786 -13330
0;
#X obj 410 282 cnv 15 30 20 empty empty 6 0 12 1 30 -204786 -13330
0;
#X obj 461 282 cnv 15 30 20 empty empty 7 0 12 1 30 -204786 -13330
0;
#X obj 509 282 cnv 15 30 20 empty empty 8 0 12 1 30 -204786 -13330
0;
#X obj 113 282 cnv 15 30 20 empty empty 0 0 11 1 30 -204786 -13330
0;
#X obj 562 282 cnv 15 30 20 empty empty 9 0 12 1 30 -204786 -13330
0;
#X obj 609 282 cnv 15 30 20 empty empty 10 0 12 1 30 -204786 -13330
0;
#X obj 660 282 cnv 15 30 20 empty empty 11 0 12 1 30 -204786 -13330
0;
#X obj 708 282 cnv 15 30 20 empty empty 12 0 12 1 30 -204786 -13330
0;
#X obj 759 282 cnv 15 30 20 empty empty 13 0 12 1 30 -204786 -13330
0;
#X obj 808 282 cnv 15 30 20 empty empty 14 0 12 1 30 -204786 -13330
0;
#X obj 857 282 cnv 15 30 20 empty empty 15 0 12 1 30 -204786 -13330
0;
#X obj 905 307 bng 50 250 50 0 \$0-savetomsg eriyeiuyiueryiiiiiiiiipmx
ok! 0 -15 0 20 -4160 -262144 -258113;
#N canvas 0 26 1003 661 containter_xml 0;
#X obj 558 143 r \$0-msgbox;
#X msg 37 500 print;
#X obj 586 418 t b b;
#X obj 590 492 h_multimap glerm;
#X obj 650 444 list;
#X obj 695 436 t b b;
#X obj 748 461 list;
#X msg 695 461 add end;
#X obj 794 399 t b b;
#X obj 900 431 list;
#X obj 589 386 route start end filename;
#X msg 586 444 add start;
#X msg 811 436 add filename;
#X obj 117 405 makefilename /home/glerm/artesanatodevolts/mimosalib/%s.xml
;
#X obj 104 160 file.browser_;
#X obj 268 20 loadbang;
#X msg 122 430 saveXML \$1;
#X msg 272 48 patterns xml \, /home/glerm/artesanatodevolts/mimosalib
;
#X msg 441 554 get filename;
#X obj 463 604 s \$0-filename;
#X obj 439 575 h_multimap glerm;
#X obj 383 604 s \$0-restore;
#X obj 330 541 t b b;
#X obj 330 565 delay 100;
#X msg 529 211 reset bang \, filename /home/glerm/samples/alice.wav
\, end 0 0.0876095 \, end 1 0.12015 \, end 2 0.239049 \, end 3 0.361702
\, end 4 0.513141 \, end 5 0.545682 \, end 6 0.629537 \, end 7 0.71965
\, end 8 0.75219 \, end 9 0.780976 \, end 10 0.808511 \, end 11 0.846058
\, end 12 0.87234 \, end 13 0.929912 \, end 14 0.954944 \, start 1
0.0826033 \, start 2 0.121402 \, start 3 0.2403 \, start 4 0.362954
\, start 5 0.509387 \, start 6 0.544431 \, start 7 0.633292 \, start
8 0.722153 \, start 9 0.75219 \, start 10 0.778473 \, start 11 0.807259
\, start 12 0.841051 \, start 13 0.869837 \, start 14 0.928661 \, done
bang \;;
#X obj 163 499 s \$0-newentry;
#X obj 324 20 r \$0-newentry;
#N canvas 0 0 450 300 emtestes 0;
#X obj -100 -19 bng 15 250 50 0 empty empty empty 0 -6 0 8 -262144
-1 -1;
#X msg -146 -114 print;
#X msg -139 -90 clear;
#X obj -149 -135 list;
#X obj -204 -143 t b b;
#X msg -196 -111 add 1;
#X obj -199 -41 h_multimap testes;
#X msg -196 -166;
#X connect 1 0 6 0;
#X connect 2 0 6 0;
#X connect 3 0 6 1;
#X connect 4 0 5 0;
#X connect 4 1 3 0;
#X connect 5 0 6 0;
#X connect 6 2 0 0;
#X connect 7 0 3 1;
#X connect 7 0 4 0;
#X restore 19 626 pd emtestes;
#X obj 37 477 r \$0-debug;
#X obj 818 458 h_multimap glerm;
#X obj 701 488 h_multimap glerm;
#X obj 660 40 s \$0-debug;
#X obj 659 21 bng 15 250 50 0 empty empty debug 17 7 0 10 -262144 -1
-1;
#X obj 122 601 h_multimap glerm;
#X msg 159 555 clearall;
#X text 556 125 pdguts - datastore;
#X obj 158 535 r \$0-clearall;
#X text 403 621 pdguts - datastore;
#X text 345 620 start/end;
#X obj 579 170 t b b;
#X obj 617 170 s \$0-clearall;
#X obj 581 192 delay 1000;
#X obj 353 431 r \$0-presetname_load;
#X obj 117 339 r \$0-presetname_save;
#X text 700 177 TO_DO:usar clear;
#X obj 163 475 delay 1000;
#X obj 163 453 t b;
#X obj 75 382 symbol;
#X obj 6 356 r \$0-overwrite;
#X symbolatom 104 119 30 0 0 0 - - -;
#X obj 29 86 tosymbol;
#X obj 30 48 loadbang;
#X obj -30 148 s \$0-presetname_save;
#X obj 104 144 cnv 15 100 15 empty empty read_preset: 0 7 1 12 -203904
-16662 0;
#X obj 289 130 bng 15 250 50 0 \$0-overwrite empty overwrite -35 20
0 10 -262144 -1 -258113;
#X obj 104 102 cnv 15 100 15 empty empty save_preset: 0 7 1 12 -203904
-16662 0;
#X obj 117 358 deny enter_text_here------;
#X msg 29 67 enter_text_here------;
#X obj 444 481 s \$0-clearall;
#X msg 364 484 readXML \$1;
#X obj 247 639 s \$0-newentry;
#X obj 247 618 delay 1000;
#X obj 247 596 t b;
#X msg 331 522 bang;
#X obj 137 306 s \$0-presetname_load;
#X obj 352 451 t b s b;
#X obj 775 31 file.path.split /;
#X obj 773 7 r \$0-presetname_load;
#X obj 852 78 s \$0-presetcanvas;
#X msg 853 55 label \$1;
#X connect 0 0 24 0;
#X connect 0 0 39 0;
#X connect 1 0 33 0;
#X connect 2 0 11 0;
#X connect 2 1 4 0;
#X connect 4 0 3 1;
#X connect 5 0 7 0;
#X connect 5 1 6 0;
#X connect 6 0 30 1;
#X connect 7 0 30 0;
#X connect 8 0 12 0;
#X connect 8 1 9 0;
#X connect 9 0 29 1;
#X connect 10 0 2 0;
#X connect 10 0 4 1;
#X connect 10 1 5 0;
#X connect 10 1 6 1;
#X connect 10 2 8 0;
#X connect 10 2 9 1;
#X connect 11 0 3 0;
#X connect 12 0 29 0;
#X connect 13 0 16 0;
#X connect 14 0 64 0;
#X connect 15 0 17 0;
#X connect 16 0 33 0;
#X connect 16 0 46 0;
#X connect 17 0 14 1;
#X connect 18 0 20 0;
#X connect 20 0 19 0;
#X connect 22 0 23 0;
#X connect 22 1 18 0;
#X connect 23 0 21 0;
#X connect 23 0 62 0;
#X connect 24 0 10 0;
#X connect 26 0 17 0;
#X connect 28 0 1 0;
#X connect 32 0 31 0;
#X connect 34 0 33 0;
#X connect 36 0 34 0;
#X connect 39 0 41 0;
#X connect 39 1 40 0;
#X connect 41 0 24 0;
#X connect 42 0 65 0;
#X connect 43 0 56 0;
#X connect 45 0 25 0;
#X connect 46 0 45 0;
#X connect 47 0 13 0;
#X connect 48 0 47 0;
#X connect 49 0 52 0;
#X connect 50 0 49 0;
#X connect 51 0 57 0;
#X connect 56 0 13 0;
#X connect 56 0 47 1;
#X connect 57 0 50 0;
#X connect 59 0 33 0;
#X connect 61 0 60 0;
#X connect 62 0 61 0;
#X connect 63 0 22 0;
#X connect 65 0 63 0;
#X connect 65 1 59 0;
#X connect 65 2 58 0;
#X connect 66 1 69 0;
#X connect 67 0 66 0;
#X connect 69 0 68 0;
#X coords 0 -1 1 1 210 200 2 100 100;
#X restore 689 359 pd containter_xml;
#N canvas 442 194 450 300 selectarea 0;
#X obj 151 40 -;
#X obj 150 130 s \$0-selectarea;
#X msg 151 110 vis_size \$1 148;
#X obj 204 -5 r \$0-start;
#X obj 150 15 r \$0-end;
#X obj 204 15 t b f;
#X obj 151 88 max 1;
#X obj 152 66 * 800;
#X obj 245 80 s \$0-len;
#X floatatom 257 40 5 0 0 0 - - -;
#X text 110 -21 seleçao do trecho pra salvar;
#X obj 319 75 f;
#X msg 297 54 bang;
#X floatatom 335 53 3 0 2 0 - - -;
#X obj 319 98 pack 0 0;
#X text 363 53 font;
#X text 399 75 height;
#X msg 319 124 label_font \$1 \$2;
#X floatatom 395 100 5 0 0 0 - - -;
#X floatatom 104 39 5 0 0 0 - - -;
#X floatatom 281 16 5 0 0 0 - - -;
#X floatatom 382 32 5 0 0 0 - - -;
#X obj 40 9 color.rgbset;
#N canvas 278 277 682 385 ascii 0;
#X obj 75 62 key;
#X floatatom 174 51 5 0 0 0 - - -;
#X msg 40 133 0;
#X msg 69 133 1;
#X obj 158 303 outlet;
#X msg 97 135 2;
#X msg 158 135 4;
#X msg 190 134 5;
#X msg 222 136 6;
#X msg 253 137 7;
#X msg 125 134 3;
#X obj 77 102 sel 113 119 101 114 116 121 117 105 111 112;
#X obj 343 76 key;
#X obj 347 102 sel 97 115 100 102 103 104 106 107 108;
#X text 505 83 asdfg;
#X text 287 85 qwerty;
#X msg 306 147 8;
#X msg 335 147 9;
#X msg 363 149 10;
#X msg 391 148 11;
#X msg 423 149 12;
#X msg 456 148 13;
#X msg 488 150 14;
#X msg 518 152 15;
#X obj 227 28 sel 10;
#X obj 222 50 s \$0-enterR;
#X obj 357 267 sel 122 120 99 118 98 110 109 44 46 29;
#X msg 451 301 0;
#X msg 477 297 1;
#X msg 506 298 2;
#X msg 534 299 3;
#X msg 419 300 -1;
#X msg 391 299 -2;
#X msg 362 298 -3;
#X msg 335 297 -4;
#X msg 563 300 4;
#X obj 432 351 s \$0-tone;
#X obj 364 242 key;
#X connect 0 0 1 0;
#X connect 0 0 11 0;
#X connect 0 0 24 0;
#X connect 2 0 4 0;
#X connect 3 0 4 0;
#X connect 5 0 4 0;
#X connect 6 0 4 0;
#X connect 7 0 4 0;
#X connect 8 0 4 0;
#X connect 9 0 4 0;
#X connect 10 0 4 0;
#X connect 11 0 2 0;
#X connect 11 1 3 0;
#X connect 11 2 5 0;
#X connect 11 3 10 0;
#X connect 11 4 6 0;
#X connect 11 5 7 0;
#X connect 11 6 8 0;
#X connect 11 7 9 0;
#X connect 12 0 13 0;
#X connect 13 0 16 0;
#X connect 13 1 17 0;
#X connect 13 2 18 0;
#X connect 13 3 19 0;
#X connect 13 4 20 0;
#X connect 13 5 21 0;
#X connect 13 6 22 0;
#X connect 13 7 23 0;
#X connect 16 0 4 0;
#X connect 17 0 4 0;
#X connect 18 0 4 0;
#X connect 19 0 4 0;
#X connect 20 0 4 0;
#X connect 21 0 4 0;
#X connect 22 0 4 0;
#X connect 23 0 4 0;
#X connect 24 0 25 0;
#X connect 26 0 34 0;
#X connect 26 2 33 0;
#X connect 26 3 32 0;
#X connect 26 4 31 0;
#X connect 26 5 27 0;
#X connect 26 6 28 0;
#X connect 26 7 29 0;
#X connect 26 8 30 0;
#X connect 26 9 35 0;
#X connect 27 0 36 0;
#X connect 28 0 36 0;
#X connect 29 0 36 0;
#X connect 30 0 36 0;
#X connect 31 0 36 0;
#X connect 32 0 36 0;
#X connect 33 0 36 0;
#X connect 34 0 36 0;
#X connect 35 0 36 0;
#X connect 37 0 26 0;
#X restore 73 190 pd ascii;
#X obj 75 212 spigot;
#X obj 55 191 tgl 15 1 empty empty empty 17 7 0 10 -262144 -1 -1 1
1;
#X floatatom 28 212 5 0 0 0 - - -;
#X text -6 174 painel de slices(qwerty);
#X obj 27 235 s \$0-slicerpanel;
#X obj 142 238 s \$0-play;
#X obj 142 219 t b;
#X obj 230 194 s \$0-cnvtable;
#X text 229 209 fundo_da_tabela;
#X msg 151 150 color -1.67747e+07 -1 -9.58472e+06;
#X msg 220 241 color -5.38496e+06 -1 -1;
#X obj 246 131 loadbang;
#X connect 0 0 7 0;
#X connect 0 0 8 0;
#X connect 2 0 1 0;
#X connect 3 0 5 0;
#X connect 3 0 20 0;
#X connect 4 0 0 0;
#X connect 4 0 19 0;
#X connect 5 0 0 0;
#X connect 5 1 0 1;
#X connect 6 0 2 0;
#X connect 7 0 6 0;
#X connect 9 0 2 0;
#X connect 11 0 14 0;
#X connect 12 0 11 0;
#X connect 13 0 11 1;
#X connect 14 0 17 0;
#X connect 17 0 1 0;
#X connect 18 0 14 1;
#X connect 21 0 14 1;
#X connect 22 0 31 0;
#X connect 23 0 24 0;
#X connect 24 0 26 0;
#X connect 24 0 28 0;
#X connect 24 0 30 0;
#X connect 25 0 24 1;
#X connect 30 0 29 0;
#X connect 33 0 1 0;
#X connect 35 0 33 0;
#X restore 11 232 pd selectarea;
#X obj 908 538 s \$0-debug;
#X obj 907 519 bng 15 250 50 0 empty empty debug 17 7 0 10 -262144
-1 -1;
#X obj 964 -50 tgl 40 1 \$0-ligasom aaaaaaaaaa DSP 0 -7 0 10 -99865
-262144 -4160 1 1;
#X symbolatom 30 389 10 0 0 0 - #0-defaultpitch -;
#X obj 25 443 s \$0-defaultpitchlabel;
#X obj 4 -18 cnv 15 450 60 empty \$0-defaultpitchlabel Mi-6 0 30 0
50 -66577 -257985 0;
#X msg 28 413 label \$1;
#X obj 244 428 s \$0-pshift;
#X floatatom 190 443 5 0 0 0 - - -;
#X obj 210 393 hradio 12 1 0 24 empty empty empty 0 -8 0 10 -262144
-1 -1 13;
#X obj 194 420 - 12;
#X obj 603 499 random 24;
#X obj 604 478 r \$0-play;
#X obj 100 99 cnv 15 800 150 empty \$0-cnvtable empty 20 12 0 14 -128992
-1 0;
#X obj 100 100 cnv 15 142 148 empty \$0-selectarea 0 2 -8 0 50 -261963
-148500 0;
#N canvas 0 22 450 300 (subpatch) 0;
#X array \$0-L 81955 float 2;
#X coords 0 1 81955 -1 800 75 1;
#X restore 100 99 graph;
#N canvas 0 22 450 300 (subpatch) 0;
#X array \$0-R 81955 float 2;
#X coords 0 1 81955 -1 800 75 1;
#X restore 100 174 graph;
#X msg 210 369 12;
#N canvas 0 26 1024 661 piano 0;
#X obj 102 103 cnv 15 895 70 \$0-basepianoC0_ \$0-basepianoC0 empty
0 30 0 50 -1 -262144 0;
#X obj 943 115 cnv 15 50 15 empty empty root 0 5 0 14 -128992 -262144
0;
#X floatatom 978 113 2 -1 5 2 - #0-rootR #0-rootS;
#X obj 106 117 vsl 15 40 0 127 0 0 \$0-nota0S \$0-nota0R empty 0 -9
0 10 -262144 -262144 -262144 0 1;
#X obj 123 117 vsl 15 40 0 127 0 0 \$0-nota2S \$0-nota2R empty 0 -9
0 10 -262144 -262144 -262144 0 1;
#X obj 140 117 vsl 15 40 0 127 0 0 \$0-nota4S \$0-nota4R empty 0 -9
0 10 -262144 -262144 -262144 0 1;
#X obj 157 117 vsl 15 40 0 127 0 0 \$0-nota5S \$0-nota5R empty 0 -9
0 10 -262144 -262144 -262144 0 1;
#X obj 174 117 vsl 15 40 0 127 0 0 \$0-nota7S \$0-nota7R empty 0 -9
0 10 -262144 -262144 -262144 0 1;
#X obj 191 117 vsl 15 40 0 127 0 0 \$0-nota9S \$0-nota9R empty 0 -9
0 10 -262144 -262144 -262144 0 1;
#X obj 208 117 vsl 15 40 0 127 0 0 \$0-nota11S \$0-nota11R empty 0
-9 0 10 -262144 -262144 -262144 0 1;
#X obj 225 117 vsl 15 40 0 127 0 0 \$0-nota12S \$0-nota12R empty 0
-9 0 10 -262144 -262144 -262144 0 1;
#X obj 242 117 vsl 15 40 0 127 0 0 \$0-nota14S \$0-nota14R empty 0
-9 0 10 -262144 -262144 -262144 0 1;
#X obj 259 117 vsl 15 40 0 127 0 0 \$0-nota16S \$0-nota16R empty 0
-9 0 10 -262144 -262144 -262144 0 1;
#X obj 276 117 vsl 15 40 0 127 0 0 \$0-nota17S \$0-nota17R empty 0
-9 0 10 -262144 -262144 -262144 0 1;
#X obj 293 117 vsl 15 40 0 127 0 0 \$0-nota19S \$0-nota19R empty 0
-9 0 10 -262144 -262144 -262144 0 1;
#X obj 310 117 vsl 15 40 0 127 0 0 \$0-nota21S \$0-nota21R empty 0
-9 0 10 -262144 -262144 -262144 0 1;
#X obj 327 117 vsl 15 40 0 127 0 0 \$0-nota23S \$0-nota23R empty 0
-9 0 10 -262144 -262144 -262144 0 1;
#X obj 344 117 vsl 15 40 0 127 0 0 \$0-nota24S \$0-nota24R empty 0
-9 0 10 -262144 -262144 -262144 0 1;
#X obj 361 117 vsl 15 40 0 127 0 0 \$0-nota26S \$0-nota26R empty 0
-9 0 10 -262144 -262144 -262144 0 1;
#X obj 378 117 vsl 15 40 0 127 0 0 \$0-nota28S \$0-nota28R empty 0
-9 0 10 -262144 -262144 -262144 0 1;
#X obj 395 117 vsl 15 40 0 127 0 0 \$0-nota29S \$0-nota29R empty 0
-9 0 10 -262144 -262144 -262144 0 1;
#X obj 412 117 vsl 15 40 0 127 0 0 \$0-nota31S \$0-nota31R empty 0
-9 0 10 -262144 -262144 -262144 0 1;
#X obj 429 117 vsl 15 40 0 127 0 0 \$0-nota33S \$0-nota33R empty 0
-9 0 10 -262144 -262144 -262144 0 1;
#X obj 446 117 vsl 15 40 0 127 0 0 \$0-nota35S \$0-nota35R empty 0
-9 0 10 -262144 -262144 -262144 0 1;
#X obj 463 117 vsl 15 40 0 127 0 0 \$0-nota36S \$0-nota36R empty 0
-9 0 10 -262144 -262144 -262144 0 1;
#X obj 480 117 vsl 15 40 0 127 0 0 \$0-nota38S \$0-nota38R empty 0
-9 0 10 -262144 -262144 -262144 0 1;
#X obj 497 117 vsl 15 40 0 127 0 0 \$0-nota40S \$0-nota40R empty 0
-9 0 10 -262144 -262144 -262144 0 1;
#X obj 514 117 vsl 15 40 0 127 0 0 \$0-nota41S \$0-nota41R empty 0
-9 0 10 -262144 -262144 -262144 0 1;
#X obj 531 117 vsl 15 40 0 127 0 0 \$0-nota43S \$0-nota43R empty 0
-9 0 10 -262144 -262144 -262144 0 1;
#X obj 548 117 vsl 15 40 0 127 0 0 \$0-nota45S \$0-nota45R empty 0
-9 0 10 -262144 -262144 -262144 0 1;
#X obj 565 117 vsl 15 40 0 127 0 0 \$0-nota47S \$0-nota47R empty 0
-9 0 10 -262144 -262144 -262144 0 1;
#X obj 582 117 vsl 15 40 0 127 0 0 \$0-nota48S \$0-nota48R empty 0
-9 0 10 -262144 -262144 -262144 0 1;
#X obj 599 117 vsl 15 40 0 127 0 0 \$0-nota50S \$0-nota50R empty 0
-9 0 10 -262144 -262144 -262144 0 1;
#X obj 616 117 vsl 15 40 0 127 0 0 \$0-nota52S \$0-nota52R empty 0
-9 0 10 -262144 -262144 -262144 0 1;
#X obj 633 117 vsl 15 40 0 127 0 0 \$0-nota53S \$0-nota53R empty 0
-9 0 10 -262144 -262144 -262144 0 1;
#X obj 650 117 vsl 15 40 0 127 0 0 \$0-nota55S \$0-nota55R empty 0
-9 0 10 -262144 -262144 -262144 0 1;
#X obj 667 117 vsl 15 40 0 127 0 0 \$0-nota57S \$0-nota57R empty 0
-9 0 10 -262144 -262144 -262144 0 1;
#X obj 684 117 vsl 15 40 0 127 0 0 \$0-nota59S \$0-nota59R empty 0
-9 0 10 -262144 -262144 -262144 0 1;
#X obj 701 117 vsl 15 40 0 127 0 0 \$0-nota60S \$0-nota60R empty 0
-9 0 10 -262144 -262144 -262144 0 1;
#X obj 718 117 vsl 15 40 0 127 0 0 \$0-nota62S \$0-nota62R empty 0
-9 0 10 -262144 -262144 -262144 0 1;
#X obj 735 117 vsl 15 40 0 127 0 0 \$0-nota64S \$0-nota64R empty 0
-9 0 10 -262144 -262144 -262144 0 1;
#X obj 752 117 vsl 15 40 0 127 0 0 \$0-nota65S \$0-nota65R empty 0
-9 0 10 -262144 -262144 -262144 0 1;
#X obj 769 117 vsl 15 40 0 127 0 0 \$0-nota67S \$0-nota67R empty 0
-9 0 10 -262144 -262144 -262144 0 1;
#X obj 786 117 vsl 15 40 0 127 0 0 \$0-nota69S \$0-nota69R empty 0
-9 0 10 -262144 -262144 -262144 0 1;
#X obj 803 117 vsl 15 40 0 127 0 0 \$0-nota71S \$0-nota71R empty 0
-9 0 10 -262144 -262144 -262144 0 1;
#X obj 820 117 vsl 15 40 0 127 0 0 \$0-nota72S \$0-nota72R empty 0
-9 0 10 -262144 -262144 -262144 0 1;
#X obj 837 117 vsl 15 40 0 127 0 0 \$0-nota74S \$0-nota74R empty 0
-9 0 10 -262144 -262144 -262144 0 1;
#X obj 854 117 vsl 15 40 0 127 0 0 \$0-nota76S \$0-nota76R empty 0
-9 0 10 -262144 -262144 -262144 0 1;
#X obj 871 117 vsl 15 40 0 127 0 0 \$0-nota77S \$0-nota77R empty 0
-9 0 10 -262144 -262144 -262144 0 1;
#X obj 888 117 vsl 15 40 0 127 0 0 \$0-nota79S \$0-nota79R empty 0
-9 0 10 -262144 -262144 -262144 0 1;
#X obj 905 117 vsl 15 40 0 127 0 0 \$0-nota81S \$0-nota81R empty 0
-9 0 10 -262144 -262144 -262144 0 1;
#X obj 922 117 vsl 15 40 0 127 0 0 \$0-nota83S \$0-nota83R empty 0
-9 0 10 -262144 -262144 -262144 0 1;
#X obj 116 107 vsl 13 30 0 127 0 0 \$0-nota1S \$0-nota1R empty 0 -9
0 10 -1 -1 -1 0 1;
#X obj 134 107 vsl 13 30 0 127 0 0 \$0-nota3S \$0-nota3R empty 0 -9
0 10 -1 -1 -1 0 1;
#X obj 166 106 vsl 13 30 0 127 0 0 \$0-nota6S \$0-nota6R empty 0 -9
0 10 -1 -1 -1 0 1;
#X obj 184 106 vsl 13 30 0 127 0 0 \$0-nota8S \$0-nota8R empty 0 -9
0 10 -1 -1 -1 0 1;
#X obj 202 106 vsl 13 30 0 127 0 0 \$0-nota10S \$0-nota10R empty 0
-9 0 10 -1 -1 -1 0 1;
#X obj 234 106 vsl 13 30 0 127 0 0 \$0-nota13S \$0-nota13R empty 0
-9 0 10 -1 -1 -1 0 1;
#X obj 251 106 vsl 13 30 0 127 0 0 \$0-nota15S \$0-nota15R empty 0
-9 0 10 -1 -1 -1 0 1;
#X obj 283 106 vsl 13 30 0 127 0 0 \$0-nota18S \$0-nota18R empty 0
-9 0 10 -1 -1 -1 0 1;
#X obj 301 106 vsl 13 30 0 127 0 0 \$0-nota20S \$0-nota20R empty 0
-9 0 10 -1 -1 -1 0 1;
#X obj 319 106 vsl 13 30 0 127 0 0 \$0-nota22S \$0-nota22R empty 0
-9 0 10 -1 -1 -1 0 1;
#X obj 355 106 vsl 13 30 0 127 0 0 \$0-nota25S \$0-nota25R empty 0
-9 0 10 -1 -1 -1 0 1;
#X obj 372 106 vsl 13 30 0 127 0 0 \$0-nota27S \$0-nota27R empty 0
-9 0 10 -1 -1 -1 0 1;
#X obj 404 107 vsl 13 30 0 127 0 0 \$0-nota30S \$0-nota30R empty 0
-9 0 10 -1 -1 -1 0 1;
#X obj 422 107 vsl 13 30 0 127 0 0 \$0-nota32S \$0-nota32R empty 0
-9 0 10 -1 -1 -1 0 1;
#X obj 440 107 vsl 13 30 0 127 0 0 \$0-nota34S \$0-nota34R empty 0
-9 0 10 -1 -1 -1 0 1;
#X obj 474 107 vsl 13 30 0 127 0 0 \$0-nota37S \$0-nota37R empty 0
-9 0 10 -1 -1 -1 0 1;
#X obj 491 107 vsl 13 30 0 127 0 0 \$0-nota39S \$0-nota39R empty 0
-9 0 10 -1 -1 -1 0 1;
#X obj 523 106 vsl 13 30 0 127 0 0 \$0-nota42S \$0-nota42R empty 0
-9 0 10 -1 -1 -1 0 1;
#X obj 541 106 vsl 13 30 0 127 0 0 \$0-nota44S \$0-nota44R empty 0
-9 0 10 -1 -1 -1 0 1;
#X obj 559 106 vsl 13 30 0 127 0 0 \$0-nota46S \$0-nota46R empty 0
-9 0 10 -1 -1 -1 0 1;
#X obj 593 106 vsl 13 30 0 127 0 0 \$0-nota49S \$0-nota49R empty 0
-9 0 10 -1 -1 -1 0 1;
#X obj 610 106 vsl 13 30 0 127 0 0 \$0-nota51S \$0-nota51R empty 0
-9 0 10 -1 -1 -1 0 1;
#X obj 642 105 vsl 13 30 0 127 0 0 \$0-nota54S \$0-nota54R empty 0
-9 0 10 -1 -1 -1 0 1;
#X obj 660 105 vsl 13 30 0 127 0 0 \$0-nota56S \$0-nota56R empty 0
-9 0 10 -241291 -241291 -241291 0 1;
#X obj 678 105 vsl 13 30 0 127 0 0 \$0-nota58S \$0-nota58R empty 0
-9 0 10 -1 -1 -1 0 1;
#X obj 712 105 vsl 13 30 0 127 0 0 \$0-nota61S \$0-nota61R empty 0
-9 0 10 -1 -1 -1 0 1;
#X obj 729 105 vsl 13 30 0 127 0 0 \$0-nota63S \$0-nota63R empty 0
-9 0 10 -1 -1 -1 0 1;
#X obj 761 105 vsl 13 30 0 127 0 0 \$0-nota66S \$0-nota66R empty 0
-9 0 10 -1 -1 -1 0 1;
#X obj 779 105 vsl 13 30 0 127 0 0 \$0-nota68S \$0-nota68R empty 0
-9 0 10 -1 -1 -1 0 1;
#X obj 797 105 vsl 13 30 0 127 0 0 \$0-nota70S \$0-nota70R empty 0
-9 0 10 -1 -1 -1 0 1;
#X obj 831 106 vsl 13 30 0 127 0 0 \$0-nota73S \$0-nota73R empty 0
-9 0 10 -1 -1 -1 0 1;
#X obj 848 106 vsl 13 30 0 127 0 0 \$0-nota75S \$0-nota75R empty 0
-9 0 10 -1 -1 -1 0 1;
#X obj 880 106 vsl 13 30 0 127 0 0 \$0-nota78S \$0-nota78R empty 0
-9 0 10 -1 -1 -1 0 1;
#X obj 898 106 vsl 13 30 0 127 0 0 \$0-nota80S \$0-nota80R empty 0
-9 0 10 -1 -1 -1 0 1;
#X obj 916 106 vsl 13 30 0 127 0 0 \$0-nota82S \$0-nota82R empty 0
-9 0 4 -1 -1 -1 0 1;
#X obj 120 253 metro 250;
#X obj 136 234 tgl 15 0 empty empty empty 17 7 0 10 -262144 -1 -1 0
1;
#X obj 940 145 cnv 15 50 15 empty empty midi 0 5 0 14 -128992 -262144
0;
#X floatatom 972 150 4 0 127 2 - #0-ctl2R #0-ctl2S;
#X obj 938 132 hradio 10 1 0 6 \$0-rootR zzzzzzzzz empty 0 -8 0 10
-66577 -191407 -1 0;
#N canvas 0 0 664 495 nomesnotas 0;
#X obj 80 47 inlet;
#X obj 79 436 outlet;
#X obj 58 182 % 12;
#X obj 136 202 sel 0 1 2 3 4 5 6 7 8 9 10 11;
#X obj 59 303 t a;
#X msg 58 260 Do;
#X msg 89 260 Do_sustenido;
#X msg 174 262 Re;
#X msg 207 262 Re_sustenido;
#X msg 292 263 Mi;
#X msg 321 264 Fa;
#X msg 349 264 Fa_sustenido;
#X msg 441 263 Sol;
#X msg 473 265 Sol_sustenido;
#X msg 565 268 La;
#X msg 600 271 Si_bemol;
#X msg 666 269 Si;
#X obj 233 129 / 12;
#X obj 226 153 int;
#X obj 187 410 - 1;
#X obj 190 436 outlet;
#X connect 0 0 2 0;
#X connect 0 0 17 0;
#X connect 2 0 3 0;
#X connect 3 0 5 0;
#X connect 3 1 6 0;
#X connect 3 2 7 0;
#X connect 3 3 8 0;
#X connect 3 4 9 0;
#X connect 3 5 10 0;
#X connect 3 6 11 0;
#X connect 3 7 12 0;
#X connect 3 8 13 0;
#X connect 3 9 14 0;
#X connect 3 10 15 0;
#X connect 3 11 16 0;
#X connect 4 0 1 0;
#X connect 5 0 4 0;
#X connect 6 0 4 0;
#X connect 7 0 4 0;
#X connect 8 0 4 0;
#X connect 9 0 4 0;
#X connect 10 0 4 0;
#X connect 11 0 4 0;
#X connect 12 0 4 0;
#X connect 13 0 4 0;
#X connect 14 0 4 0;
#X connect 15 0 4 0;
#X connect 16 0 4 0;
#X connect 17 0 18 0;
#X connect 18 0 19 0;
#X connect 19 0 20 0;
#X restore 222 398 pd nomesnotas;
#X obj 168 496 s \$0-defaultpitchlabel;
#X msg 168 471 label \$1;
#X obj 231 454 tosymbol;
#X obj 222 371 + 12;
#N canvas 0 0 859 417 colorkeys 0;
#N canvas 68 282 931 380 colorkeys0 0;
#X obj 18 4 s \$0-keyIN;
#X obj 18 -15 inlet;
#X obj 30 318 outlet;
#X obj 30 298 r \$0-notaN;
#X obj 17 96 sel 0 1;
#X obj 42 198 s \$0-nota0R;
#X msg 42 138 color 45 45 45;
#X msg 17 163 color 0 0 0;
#X obj 17 75 == 0;
#X obj 17 54 r \$0-keyIN;
#X msg 66 90 0;
#X obj 66 111 s \$0-notaN;
#X obj 139 99 sel 0 1;
#X obj 139 77 == 1;
#X msg 139 167 color 142 142 142;
#X obj 156 196 s \$0-nota1R;
#X msg 158 130 color 45 45 45;
#X obj 139 54 r \$0-keyIN;
#X obj 187 100 s \$0-notaN;
#X msg 187 79 1;
#X obj 262 99 sel 0 1;
#X msg 287 141 color 45 45 45;
#X msg 262 166 color 0 0 0;
#X obj 262 57 r \$0-keyIN;
#X obj 311 114 s \$0-notaN;
#X obj 287 201 s \$0-nota2R;
#X obj 262 77 == 2;
#X msg 311 93 2;
#X obj 384 101 sel 0 1;
#X msg 384 169 color 142 142 142;
#X msg 403 132 color 45 45 45;
#X obj 384 56 r \$0-keyIN;
#X obj 432 102 s \$0-notaN;
#X obj 409 204 s \$0-nota3R;
#X obj 384 79 == 3;
#X msg 432 81 3;
#X obj 507 101 sel 0 1;
#X msg 532 143 color 45 45 45;
#X msg 507 168 color 0 0 0;
#X obj 507 59 r \$0-keyIN;
#X obj 556 116 s \$0-notaN;
#X obj 507 79 == 4;
#X obj 532 202 s \$0-nota4R;
#X msg 556 95 4;
#X obj 635 103 sel 0 1;
#X msg 660 145 color 45 45 45;
#X msg 635 170 color 0 0 0;
#X obj 635 61 r \$0-keyIN;
#X obj 684 118 s \$0-notaN;
#X msg 684 97 5;
#X obj 635 81 == 5;
#X obj 660 204 s \$0-nota5R;
#X obj 766 104 sel 0 1;
#X msg 766 172 color 142 142 142;
#X msg 785 135 color 45 45 45;
#X obj 766 59 r \$0-keyIN;
#X obj 814 105 s \$0-notaN;
#X obj 766 82 == 6;
#X msg 814 84 6;
#X obj 789 208 s \$0-nota6R;
#X obj 898 102 sel 0 1;
#X msg 923 144 color 45 45 45;
#X msg 898 169 color 0 0 0;
#X obj 898 60 r \$0-keyIN;
#X obj 947 117 s \$0-notaN;
#X msg 948 96 7;
#X obj 923 202 s \$0-nota7R;
#X obj 898 80 == 7;
#X obj 1029 103 sel 0 1;
#X msg 1029 171 color 142 142 142;
#X msg 1048 134 color 45 45 45;
#X obj 1029 58 r \$0-keyIN;
#X obj 1077 104 s \$0-notaN;
#X msg 1077 83 8;
#X obj 1029 81 == 8;
#X obj 1053 207 s \$0-nota8R;
#X obj 1157 101 sel 0 1;
#X msg 1182 143 color 45 45 45;
#X msg 1157 168 color 0 0 0;
#X obj 1157 59 r \$0-keyIN;
#X obj 1206 116 s \$0-notaN;
#X msg 1207 95 9;
#X obj 1158 81 == 9;
#X obj 1182 201 s \$0-nota9R;
#X obj 1288 102 sel 0 1;
#X msg 1288 170 color 142 142 142;
#X msg 1307 133 color 45 45 45;
#X obj 1288 57 r \$0-keyIN;
#X obj 1336 103 s \$0-notaN;
#X obj 1312 206 s \$0-nota10R;
#X msg 1336 82 10;
#X obj 1288 80 == 10;
#X obj 1416 105 sel 0 1;
#X msg 1441 147 color 45 45 45;
#X msg 1416 172 color 0 0 0;
#X obj 1416 63 r \$0-keyIN;
#X obj 1465 120 s \$0-notaN;
#X msg 1466 99 11;
#X obj 1417 85 == 11;
#X obj 1441 205 s \$0-nota11R;
#X connect 1 0 0 0;
#X connect 3 0 2 0;
#X connect 4 0 7 0;
#X connect 4 1 6 0;
#X connect 4 1 10 0;
#X connect 6 0 5 0;
#X connect 7 0 5 0;
#X connect 8 0 4 0;
#X connect 9 0 8 0;
#X connect 10 0 11 0;
#X connect 12 0 14 0;
#X connect 12 1 16 0;
#X connect 12 1 19 0;
#X connect 13 0 12 0;
#X connect 14 0 15 0;
#X connect 16 0 15 0;
#X connect 17 0 13 0;
#X connect 19 0 18 0;
#X connect 20 0 22 0;
#X connect 20 1 21 0;
#X connect 20 1 27 0;
#X connect 21 0 25 0;
#X connect 22 0 25 0;
#X connect 23 0 26 0;
#X connect 26 0 20 0;
#X connect 27 0 24 0;
#X connect 28 0 29 0;
#X connect 28 1 30 0;
#X connect 28 1 35 0;
#X connect 29 0 33 0;
#X connect 30 0 33 0;
#X connect 31 0 34 0;
#X connect 34 0 28 0;
#X connect 35 0 32 0;
#X connect 36 0 38 0;
#X connect 36 1 37 0;
#X connect 36 1 43 0;
#X connect 37 0 42 0;
#X connect 38 0 42 0;
#X connect 39 0 41 0;
#X connect 41 0 36 0;
#X connect 43 0 40 0;
#X connect 44 0 46 0;
#X connect 44 1 45 0;
#X connect 44 1 49 0;
#X connect 45 0 51 0;
#X connect 46 0 51 0;
#X connect 47 0 50 0;
#X connect 49 0 48 0;
#X connect 50 0 44 0;
#X connect 52 0 53 0;
#X connect 52 1 54 0;
#X connect 52 1 58 0;
#X connect 53 0 59 0;
#X connect 54 0 59 0;
#X connect 55 0 57 0;
#X connect 57 0 52 0;
#X connect 58 0 56 0;
#X connect 60 0 62 0;
#X connect 60 1 61 0;
#X connect 60 1 65 0;
#X connect 61 0 66 0;
#X connect 62 0 66 0;
#X connect 63 0 67 0;
#X connect 65 0 64 0;
#X connect 67 0 60 0;
#X connect 68 0 69 0;
#X connect 68 1 70 0;
#X connect 68 1 73 0;
#X connect 69 0 75 0;
#X connect 70 0 75 0;
#X connect 71 0 74 0;
#X connect 73 0 72 0;
#X connect 74 0 68 0;
#X connect 76 0 78 0;
#X connect 76 1 77 0;
#X connect 76 1 81 0;
#X connect 77 0 83 0;
#X connect 78 0 83 0;
#X connect 79 0 82 0;
#X connect 81 0 80 0;
#X connect 82 0 76 0;
#X connect 84 0 85 0;
#X connect 84 1 86 0;
#X connect 84 1 90 0;
#X connect 85 0 89 0;
#X connect 86 0 89 0;
#X connect 87 0 91 0;
#X connect 90 0 88 0;
#X connect 91 0 84 0;
#X connect 92 0 94 0;
#X connect 92 1 93 0;
#X connect 92 1 97 0;
#X connect 93 0 99 0;
#X connect 94 0 99 0;
#X connect 95 0 98 0;
#X connect 97 0 96 0;
#X connect 98 0 92 0;
#X restore 28 132 pd colorkeys0;
#N canvas 68 282 931 380 colorkeys12 0;
#X obj 18 4 s \$0-keyIN;
#X obj 18 -15 inlet;
#X obj 30 318 outlet;
#X obj 30 298 r \$0-notaN;
#X obj 17 96 sel 0 1;
#X msg 42 138 color 45 45 45;
#X msg 17 163 color 0 0 0;
#X obj 17 54 r \$0-keyIN;
#X obj 66 111 s \$0-notaN;
#X obj 139 99 sel 0 1;
#X msg 139 167 color 142 142 142;
#X msg 158 130 color 45 45 45;
#X obj 139 54 r \$0-keyIN;
#X obj 187 100 s \$0-notaN;
#X obj 262 99 sel 0 1;
#X msg 287 141 color 45 45 45;
#X msg 262 166 color 0 0 0;
#X obj 262 57 r \$0-keyIN;
#X obj 311 114 s \$0-notaN;
#X obj 384 101 sel 0 1;
#X msg 384 169 color 142 142 142;
#X msg 403 132 color 45 45 45;
#X obj 384 56 r \$0-keyIN;
#X obj 432 102 s \$0-notaN;
#X obj 507 101 sel 0 1;
#X msg 532 143 color 45 45 45;
#X msg 507 168 color 0 0 0;
#X obj 507 59 r \$0-keyIN;
#X obj 556 116 s \$0-notaN;
#X obj 635 103 sel 0 1;
#X msg 660 145 color 45 45 45;
#X msg 635 170 color 0 0 0;
#X obj 635 61 r \$0-keyIN;
#X obj 684 118 s \$0-notaN;
#X obj 766 104 sel 0 1;
#X msg 766 172 color 142 142 142;
#X msg 785 135 color 45 45 45;
#X obj 766 59 r \$0-keyIN;
#X obj 814 105 s \$0-notaN;
#X obj 898 102 sel 0 1;
#X msg 923 144 color 45 45 45;
#X msg 898 169 color 0 0 0;
#X obj 898 60 r \$0-keyIN;
#X obj 947 117 s \$0-notaN;
#X obj 1029 103 sel 0 1;
#X msg 1029 171 color 142 142 142;
#X msg 1048 134 color 45 45 45;
#X obj 1029 58 r \$0-keyIN;
#X obj 1077 104 s \$0-notaN;
#X obj 1157 101 sel 0 1;
#X msg 1182 143 color 45 45 45;
#X msg 1157 168 color 0 0 0;
#X obj 1157 59 r \$0-keyIN;
#X obj 1206 116 s \$0-notaN;
#X obj 1288 102 sel 0 1;
#X msg 1288 170 color 142 142 142;
#X msg 1307 133 color 45 45 45;
#X obj 1288 57 r \$0-keyIN;
#X obj 1336 103 s \$0-notaN;
#X obj 1416 105 sel 0 1;
#X msg 1441 147 color 45 45 45;
#X msg 1416 172 color 0 0 0;
#X obj 1416 63 r \$0-keyIN;
#X obj 1465 120 s \$0-notaN;
#X msg 66 90 12;
#X msg 187 79 13;
#X msg 311 93 14;
#X msg 432 81 15;
#X msg 556 95 16;
#X msg 684 97 17;
#X msg 814 84 18;
#X msg 948 96 19;
#X msg 1077 83 20;
#X msg 1207 95 21;
#X msg 1336 82 22;
#X msg 1466 99 23;
#X obj 17 75 == 12;
#X obj 139 77 == 13;
#X obj 262 77 == 14;
#X obj 384 79 == 15;
#X obj 507 80 == 16;
#X obj 635 81 == 17;
#X obj 767 82 == 18;
#X obj 898 80 == 19;
#X obj 1029 82 == 20;
#X obj 1158 81 == 21;
#X obj 1290 80 == 22;
#X obj 1417 85 == 23;
#X obj 42 198 s \$0-nota12R;
#X obj 156 196 s \$0-nota13R;
#X obj 287 201 s \$0-nota14R;
#X obj 408 204 s \$0-nota15R;
#X obj 532 202 s \$0-nota16R;
#X obj 656 204 s \$0-nota17R;
#X obj 789 208 s \$0-nota18R;
#X obj 923 202 s \$0-nota19R;
#X obj 1053 207 s \$0-nota20R;
#X obj 1182 201 s \$0-nota21R;
#X obj 1312 206 s \$0-nota22R;
#X obj 1441 205 s \$0-nota23R;
#X connect 1 0 0 0;
#X connect 3 0 2 0;
#X connect 4 0 6 0;
#X connect 4 1 5 0;
#X connect 4 1 64 0;
#X connect 5 0 88 0;
#X connect 6 0 88 0;
#X connect 7 0 76 0;
#X connect 9 0 10 0;
#X connect 9 1 11 0;
#X connect 9 1 65 0;
#X connect 10 0 89 0;
#X connect 11 0 89 0;
#X connect 12 0 77 0;
#X connect 14 0 16 0;
#X connect 14 1 15 0;
#X connect 14 1 66 0;
#X connect 15 0 90 0;
#X connect 16 0 90 0;
#X connect 17 0 78 0;
#X connect 19 0 20 0;
#X connect 19 1 21 0;
#X connect 19 1 67 0;
#X connect 20 0 91 0;
#X connect 21 0 91 0;
#X connect 22 0 79 0;
#X connect 24 0 26 0;
#X connect 24 1 25 0;
#X connect 24 1 68 0;
#X connect 25 0 92 0;
#X connect 26 0 92 0;
#X connect 27 0 80 0;
#X connect 29 0 31 0;
#X connect 29 1 30 0;
#X connect 29 1 69 0;
#X connect 30 0 93 0;
#X connect 31 0 93 0;
#X connect 32 0 81 0;
#X connect 34 0 35 0;
#X connect 34 1 36 0;
#X connect 34 1 70 0;
#X connect 35 0 94 0;
#X connect 36 0 94 0;
#X connect 37 0 82 0;
#X connect 39 0 41 0;
#X connect 39 1 40 0;
#X connect 39 1 71 0;
#X connect 40 0 95 0;
#X connect 41 0 95 0;
#X connect 42 0 83 0;
#X connect 44 0 45 0;
#X connect 44 1 46 0;
#X connect 44 1 72 0;
#X connect 45 0 96 0;
#X connect 46 0 96 0;
#X connect 47 0 84 0;
#X connect 49 0 51 0;
#X connect 49 1 50 0;
#X connect 49 1 73 0;
#X connect 50 0 97 0;
#X connect 51 0 97 0;
#X connect 52 0 85 0;
#X connect 54 0 55 0;
#X connect 54 1 56 0;
#X connect 54 1 74 0;
#X connect 55 0 98 0;
#X connect 56 0 98 0;
#X connect 57 0 86 0;
#X connect 59 0 61 0;
#X connect 59 1 60 0;
#X connect 59 1 75 0;
#X connect 60 0 99 0;
#X connect 61 0 99 0;
#X connect 62 0 87 0;
#X connect 64 0 8 0;
#X connect 65 0 13 0;
#X connect 66 0 18 0;
#X connect 67 0 23 0;
#X connect 68 0 28 0;
#X connect 69 0 33 0;
#X connect 70 0 38 0;
#X connect 71 0 43 0;
#X connect 72 0 48 0;
#X connect 73 0 53 0;
#X connect 74 0 58 0;
#X connect 75 0 63 0;
#X connect 76 0 4 0;
#X connect 77 0 9 0;
#X connect 78 0 14 0;
#X connect 79 0 19 0;
#X connect 80 0 24 0;
#X connect 81 0 29 0;
#X connect 82 0 34 0;
#X connect 83 0 39 0;
#X connect 84 0 44 0;
#X connect 85 0 49 0;
#X connect 86 0 54 0;
#X connect 87 0 59 0;
#X restore 114 133 pd colorkeys12;
#N canvas 68 282 931 380 colorkeys24 0;
#X obj 18 4 s \$0-keyIN;
#X obj 18 -15 inlet;
#X obj 30 318 outlet;
#X obj 30 298 r \$0-notaN;
#X obj 17 96 sel 0 1;
#X msg 42 138 color 45 45 45;
#X msg 17 163 color 0 0 0;
#X obj 17 54 r \$0-keyIN;
#X obj 66 111 s \$0-notaN;
#X obj 139 99 sel 0 1;
#X msg 139 167 color 142 142 142;
#X msg 158 130 color 45 45 45;
#X obj 139 54 r \$0-keyIN;
#X obj 187 100 s \$0-notaN;
#X obj 262 99 sel 0 1;
#X msg 287 141 color 45 45 45;
#X msg 262 166 color 0 0 0;
#X obj 262 57 r \$0-keyIN;
#X obj 311 114 s \$0-notaN;
#X obj 384 101 sel 0 1;
#X msg 384 169 color 142 142 142;
#X msg 403 132 color 45 45 45;
#X obj 384 56 r \$0-keyIN;
#X obj 432 102 s \$0-notaN;
#X obj 507 101 sel 0 1;
#X msg 532 143 color 45 45 45;
#X msg 507 168 color 0 0 0;
#X obj 507 59 r \$0-keyIN;
#X obj 556 116 s \$0-notaN;
#X obj 635 103 sel 0 1;
#X msg 660 145 color 45 45 45;
#X msg 635 170 color 0 0 0;
#X obj 635 61 r \$0-keyIN;
#X obj 684 118 s \$0-notaN;
#X obj 766 104 sel 0 1;
#X msg 766 172 color 142 142 142;
#X msg 785 135 color 45 45 45;
#X obj 766 59 r \$0-keyIN;
#X obj 814 105 s \$0-notaN;
#X obj 898 102 sel 0 1;
#X msg 923 144 color 45 45 45;
#X msg 898 169 color 0 0 0;
#X obj 898 60 r \$0-keyIN;
#X obj 947 117 s \$0-notaN;
#X obj 1029 103 sel 0 1;
#X msg 1029 171 color 142 142 142;
#X msg 1048 134 color 45 45 45;
#X obj 1029 58 r \$0-keyIN;
#X obj 1077 104 s \$0-notaN;
#X obj 1157 101 sel 0 1;
#X msg 1182 143 color 45 45 45;
#X msg 1157 168 color 0 0 0;
#X obj 1157 59 r \$0-keyIN;
#X obj 1206 116 s \$0-notaN;
#X obj 1288 102 sel 0 1;
#X msg 1288 170 color 142 142 142;
#X msg 1307 133 color 45 45 45;
#X obj 1288 57 r \$0-keyIN;
#X obj 1336 103 s \$0-notaN;
#X obj 1416 105 sel 0 1;
#X msg 1441 147 color 45 45 45;
#X msg 1416 172 color 0 0 0;
#X obj 1416 63 r \$0-keyIN;
#X obj 1465 120 s \$0-notaN;
#X msg 66 90 24;
#X msg 187 79 25;
#X msg 311 93 26;
#X msg 432 81 27;
#X msg 556 95 28;
#X msg 684 97 29;
#X msg 814 84 30;
#X msg 948 96 31;
#X msg 1077 83 32;
#X msg 1207 95 33;
#X msg 1336 82 34;
#X msg 1466 99 35;
#X obj 17 75 == 24;
#X obj 139 77 == 25;
#X obj 262 76 == 26;
#X obj 384 79 == 27;
#X obj 506 79 == 28;
#X obj 635 80 == 29;
#X obj 765 82 == 30;
#X obj 898 80 == 31;
#X obj 1034 81 == 32;
#X obj 1157 81 == 33;
#X obj 1290 79 == 34;
#X obj 1417 84 == 35;
#X obj 42 198 s \$0-nota24R;
#X obj 156 196 s \$0-nota25R;
#X obj 287 201 s \$0-nota26R;
#X obj 409 204 s \$0-nota27R;
#X obj 532 202 s \$0-nota28R;
#X obj 660 204 s \$0-nota29R;
#X obj 788 207 s \$0-nota30R;
#X obj 923 202 s \$0-nota31R;
#X obj 1053 207 s \$0-nota32R;
#X obj 1182 201 s \$0-nota33R;
#X obj 1312 206 s \$0-nota34R;
#X obj 1441 205 s \$0-nota35R;
#X connect 1 0 0 0;
#X connect 3 0 2 0;
#X connect 4 0 6 0;
#X connect 4 1 5 0;
#X connect 4 1 64 0;
#X connect 5 0 88 0;
#X connect 6 0 88 0;
#X connect 7 0 76 0;
#X connect 9 0 10 0;
#X connect 9 1 11 0;
#X connect 9 1 65 0;
#X connect 10 0 89 0;
#X connect 11 0 89 0;
#X connect 12 0 77 0;
#X connect 14 0 16 0;
#X connect 14 1 15 0;
#X connect 14 1 66 0;
#X connect 15 0 90 0;
#X connect 16 0 90 0;
#X connect 17 0 78 0;
#X connect 19 0 20 0;
#X connect 19 1 21 0;
#X connect 19 1 67 0;
#X connect 20 0 91 0;
#X connect 21 0 91 0;
#X connect 22 0 79 0;
#X connect 24 0 26 0;
#X connect 24 1 25 0;
#X connect 24 1 68 0;
#X connect 25 0 92 0;
#X connect 26 0 92 0;
#X connect 27 0 80 0;
#X connect 29 0 31 0;
#X connect 29 1 30 0;
#X connect 29 1 69 0;
#X connect 30 0 93 0;
#X connect 31 0 93 0;
#X connect 32 0 81 0;
#X connect 34 0 35 0;
#X connect 34 1 36 0;
#X connect 34 1 70 0;
#X connect 35 0 94 0;
#X connect 36 0 94 0;
#X connect 37 0 82 0;
#X connect 39 0 41 0;
#X connect 39 1 40 0;
#X connect 39 1 71 0;
#X connect 40 0 95 0;
#X connect 41 0 95 0;
#X connect 42 0 83 0;
#X connect 44 0 45 0;
#X connect 44 1 46 0;
#X connect 44 1 72 0;
#X connect 45 0 96 0;
#X connect 46 0 96 0;
#X connect 47 0 84 0;
#X connect 49 0 51 0;
#X connect 49 1 50 0;
#X connect 49 1 73 0;
#X connect 50 0 97 0;
#X connect 51 0 97 0;
#X connect 52 0 85 0;
#X connect 54 0 55 0;
#X connect 54 1 56 0;
#X connect 54 1 74 0;
#X connect 55 0 98 0;
#X connect 56 0 98 0;
#X connect 57 0 86 0;
#X connect 59 0 61 0;
#X connect 59 1 60 0;
#X connect 59 1 75 0;
#X connect 60 0 99 0;
#X connect 61 0 99 0;
#X connect 62 0 87 0;
#X connect 64 0 8 0;
#X connect 65 0 13 0;
#X connect 66 0 18 0;
#X connect 67 0 23 0;
#X connect 68 0 28 0;
#X connect 69 0 33 0;
#X connect 70 0 38 0;
#X connect 71 0 43 0;
#X connect 72 0 48 0;
#X connect 73 0 53 0;
#X connect 74 0 58 0;
#X connect 75 0 63 0;
#X connect 76 0 4 0;
#X connect 77 0 9 0;
#X connect 78 0 14 0;
#X connect 79 0 19 0;
#X connect 80 0 24 0;
#X connect 81 0 29 0;
#X connect 82 0 34 0;
#X connect 83 0 39 0;
#X connect 84 0 44 0;
#X connect 85 0 49 0;
#X connect 86 0 54 0;
#X connect 87 0 59 0;
#X restore 206 133 pd colorkeys24;
#N canvas 68 282 931 380 colorkeys48 0;
#X obj 18 4 s \$0-keyIN;
#X obj 18 -15 inlet;
#X obj 30 318 outlet;
#X obj 30 298 r \$0-notaN;
#X obj 17 96 sel 0 1;
#X msg 42 138 color 45 45 45;
#X msg 17 163 color 0 0 0;
#X obj 17 54 r \$0-keyIN;
#X obj 66 111 s \$0-notaN;
#X obj 139 99 sel 0 1;
#X msg 139 167 color 142 142 142;
#X msg 158 130 color 45 45 45;
#X obj 139 54 r \$0-keyIN;
#X obj 187 100 s \$0-notaN;
#X obj 262 99 sel 0 1;
#X msg 287 141 color 45 45 45;
#X msg 262 166 color 0 0 0;
#X obj 262 57 r \$0-keyIN;
#X obj 311 114 s \$0-notaN;
#X obj 384 101 sel 0 1;
#X msg 384 169 color 142 142 142;
#X msg 403 132 color 45 45 45;
#X obj 384 56 r \$0-keyIN;
#X obj 432 102 s \$0-notaN;
#X obj 507 101 sel 0 1;
#X msg 532 143 color 45 45 45;
#X msg 507 168 color 0 0 0;
#X obj 507 59 r \$0-keyIN;
#X obj 556 116 s \$0-notaN;
#X obj 635 103 sel 0 1;
#X msg 660 145 color 45 45 45;
#X msg 635 170 color 0 0 0;
#X obj 635 61 r \$0-keyIN;
#X obj 684 118 s \$0-notaN;
#X obj 766 104 sel 0 1;
#X msg 766 172 color 142 142 142;
#X msg 785 135 color 45 45 45;
#X obj 766 59 r \$0-keyIN;
#X obj 814 105 s \$0-notaN;
#X obj 898 102 sel 0 1;
#X msg 923 144 color 45 45 45;
#X msg 898 169 color 0 0 0;
#X obj 898 60 r \$0-keyIN;
#X obj 947 117 s \$0-notaN;
#X obj 1029 103 sel 0 1;
#X msg 1029 171 color 142 142 142;
#X msg 1048 134 color 45 45 45;
#X obj 1029 58 r \$0-keyIN;
#X obj 1077 104 s \$0-notaN;
#X obj 1157 101 sel 0 1;
#X msg 1182 143 color 45 45 45;
#X msg 1157 168 color 0 0 0;
#X obj 1157 59 r \$0-keyIN;
#X obj 1206 116 s \$0-notaN;
#X obj 1288 102 sel 0 1;
#X msg 1288 170 color 142 142 142;
#X msg 1307 133 color 45 45 45;
#X obj 1288 57 r \$0-keyIN;
#X obj 1336 103 s \$0-notaN;
#X obj 1416 105 sel 0 1;
#X msg 1441 147 color 45 45 45;
#X msg 1416 172 color 0 0 0;
#X obj 1416 63 r \$0-keyIN;
#X obj 1465 120 s \$0-notaN;
#X msg 66 90 48;
#X msg 187 79 49;
#X msg 311 93 50;
#X msg 432 81 51;
#X msg 556 95 52;
#X msg 684 97 53;
#X msg 814 84 54;
#X msg 948 96 55;
#X msg 1077 83 56;
#X msg 1207 95 57;
#X msg 1336 82 58;
#X msg 1466 99 59;
#X obj 17 75 == 48;
#X obj 139 77 == 49;
#X obj 262 77 == 50;
#X obj 384 79 == 51;
#X obj 507 79 == 52;
#X obj 635 81 == 53;
#X obj 766 82 == 54;
#X obj 898 80 == 55;
#X obj 1029 81 == 56;
#X obj 1158 81 == 57;
#X obj 1288 80 == 58;
#X obj 1417 85 == 59;
#X obj 42 198 s \$0-nota48R;
#X obj 156 196 s \$0-nota49R;
#X obj 287 201 s \$0-nota50R;
#X obj 409 204 s \$0-nota51R;
#X obj 532 202 s \$0-nota52R;
#X obj 660 204 s \$0-nota53R;
#X obj 789 208 s \$0-nota54R;
#X obj 923 202 s \$0-nota55R;
#X obj 1053 207 s \$0-nota56R;
#X obj 1182 201 s \$0-nota57R;
#X obj 1312 206 s \$0-nota58R;
#X obj 1441 205 s \$0-nota59R;
#X connect 1 0 0 0;
#X connect 3 0 2 0;
#X connect 4 0 6 0;
#X connect 4 1 5 0;
#X connect 4 1 64 0;
#X connect 5 0 88 0;
#X connect 6 0 88 0;
#X connect 7 0 76 0;
#X connect 9 0 10 0;
#X connect 9 1 11 0;
#X connect 9 1 65 0;
#X connect 10 0 89 0;
#X connect 11 0 89 0;
#X connect 12 0 77 0;
#X connect 14 0 16 0;
#X connect 14 1 15 0;
#X connect 14 1 66 0;
#X connect 15 0 90 0;
#X connect 16 0 90 0;
#X connect 17 0 78 0;
#X connect 19 0 20 0;
#X connect 19 1 21 0;
#X connect 19 1 67 0;
#X connect 20 0 91 0;
#X connect 21 0 91 0;
#X connect 22 0 79 0;
#X connect 24 0 26 0;
#X connect 24 1 25 0;
#X connect 24 1 68 0;
#X connect 25 0 92 0;
#X connect 26 0 92 0;
#X connect 27 0 80 0;
#X connect 29 0 31 0;
#X connect 29 1 30 0;
#X connect 29 1 69 0;
#X connect 30 0 93 0;
#X connect 31 0 93 0;
#X connect 32 0 81 0;
#X connect 34 0 35 0;
#X connect 34 1 36 0;
#X connect 34 1 70 0;
#X connect 35 0 94 0;
#X connect 36 0 94 0;
#X connect 37 0 82 0;
#X connect 39 0 41 0;
#X connect 39 1 40 0;
#X connect 39 1 71 0;
#X connect 40 0 95 0;
#X connect 41 0 95 0;
#X connect 42 0 83 0;
#X connect 44 0 45 0;
#X connect 44 1 46 0;
#X connect 44 1 72 0;
#X connect 45 0 96 0;
#X connect 46 0 96 0;
#X connect 47 0 84 0;
#X connect 49 0 51 0;
#X connect 49 1 50 0;
#X connect 49 1 73 0;
#X connect 50 0 97 0;
#X connect 51 0 97 0;
#X connect 52 0 85 0;
#X connect 54 0 55 0;
#X connect 54 1 56 0;
#X connect 54 1 74 0;
#X connect 55 0 98 0;
#X connect 56 0 98 0;
#X connect 57 0 86 0;
#X connect 59 0 61 0;
#X connect 59 1 60 0;
#X connect 59 1 75 0;
#X connect 60 0 99 0;
#X connect 61 0 99 0;
#X connect 62 0 87 0;
#X connect 64 0 8 0;
#X connect 65 0 13 0;
#X connect 66 0 18 0;
#X connect 67 0 23 0;
#X connect 68 0 28 0;
#X connect 69 0 33 0;
#X connect 70 0 38 0;
#X connect 71 0 43 0;
#X connect 72 0 48 0;
#X connect 73 0 53 0;
#X connect 74 0 58 0;
#X connect 75 0 63 0;
#X connect 76 0 4 0;
#X connect 77 0 9 0;
#X connect 78 0 14 0;
#X connect 79 0 19 0;
#X connect 80 0 24 0;
#X connect 81 0 29 0;
#X connect 82 0 34 0;
#X connect 83 0 39 0;
#X connect 84 0 44 0;
#X connect 85 0 49 0;
#X connect 86 0 54 0;
#X connect 87 0 59 0;
#X restore 389 132 pd colorkeys48;
#N canvas 68 282 931 380 colorkeys60 0;
#X obj 18 4 s \$0-keyIN;
#X obj 18 -15 inlet;
#X obj 30 318 outlet;
#X obj 30 298 r \$0-notaN;
#X obj 17 96 sel 0 1;
#X msg 42 138 color 45 45 45;
#X msg 17 163 color 0 0 0;
#X obj 17 54 r \$0-keyIN;
#X obj 66 111 s \$0-notaN;
#X obj 139 99 sel 0 1;
#X msg 139 167 color 142 142 142;
#X msg 158 130 color 45 45 45;
#X obj 139 54 r \$0-keyIN;
#X obj 187 100 s \$0-notaN;
#X obj 262 99 sel 0 1;
#X msg 287 141 color 45 45 45;
#X msg 262 166 color 0 0 0;
#X obj 262 57 r \$0-keyIN;
#X obj 311 114 s \$0-notaN;
#X obj 384 101 sel 0 1;
#X msg 384 169 color 142 142 142;
#X msg 403 132 color 45 45 45;
#X obj 384 56 r \$0-keyIN;
#X obj 432 102 s \$0-notaN;
#X obj 507 101 sel 0 1;
#X msg 532 143 color 45 45 45;
#X msg 507 168 color 0 0 0;
#X obj 507 59 r \$0-keyIN;
#X obj 556 116 s \$0-notaN;
#X obj 635 103 sel 0 1;
#X msg 660 145 color 45 45 45;
#X msg 635 170 color 0 0 0;
#X obj 635 61 r \$0-keyIN;
#X obj 684 118 s \$0-notaN;
#X obj 766 104 sel 0 1;
#X msg 766 172 color 142 142 142;
#X msg 785 135 color 45 45 45;
#X obj 766 59 r \$0-keyIN;
#X obj 814 105 s \$0-notaN;
#X obj 898 102 sel 0 1;
#X msg 923 144 color 45 45 45;
#X msg 898 169 color 0 0 0;
#X obj 898 60 r \$0-keyIN;
#X obj 947 117 s \$0-notaN;
#X obj 1029 103 sel 0 1;
#X msg 1029 171 color 142 142 142;
#X msg 1048 134 color 45 45 45;
#X obj 1029 58 r \$0-keyIN;
#X obj 1077 104 s \$0-notaN;
#X obj 1157 101 sel 0 1;
#X msg 1182 143 color 45 45 45;
#X msg 1157 168 color 0 0 0;
#X obj 1157 59 r \$0-keyIN;
#X obj 1206 116 s \$0-notaN;
#X obj 1288 102 sel 0 1;
#X msg 1288 170 color 142 142 142;
#X msg 1307 133 color 45 45 45;
#X obj 1288 57 r \$0-keyIN;
#X obj 1336 103 s \$0-notaN;
#X obj 1416 105 sel 0 1;
#X msg 1441 147 color 45 45 45;
#X msg 1416 172 color 0 0 0;
#X obj 1416 63 r \$0-keyIN;
#X obj 1465 120 s \$0-notaN;
#X msg 66 90 60;
#X msg 187 79 61;
#X msg 311 93 62;
#X msg 432 81 63;
#X msg 556 95 64;
#X msg 684 97 65;
#X msg 814 84 66;
#X msg 948 96 67;
#X msg 1077 83 68;
#X msg 1207 95 69;
#X msg 1336 82 70;
#X msg 1466 99 71;
#X obj 17 75 == 60;
#X obj 139 77 == 61;
#X obj 262 77 == 62;
#X obj 384 79 == 63;
#X obj 507 79 == 64;
#X obj 635 81 == 65;
#X obj 766 82 == 66;
#X obj 898 80 == 67;
#X obj 1030 82 == 68;
#X obj 1158 81 == 69;
#X obj 1288 80 == 70;
#X obj 1417 85 == 71;
#X obj 43 198 s \$0-nota60R;
#X obj 156 196 s \$0-nota61R;
#X obj 287 201 s \$0-nota62R;
#X obj 409 204 s \$0-nota63R;
#X obj 532 202 s \$0-nota64R;
#X obj 659 204 s \$0-nota65R;
#X obj 789 208 s \$0-nota66R;
#X obj 923 202 s \$0-nota67R;
#X obj 1053 207 s \$0-nota68R;
#X obj 1182 201 s \$0-nota69R;
#X obj 1312 206 s \$0-nota70R;
#X obj 1441 205 s \$0-nota71R;
#X connect 1 0 0 0;
#X connect 3 0 2 0;
#X connect 4 0 6 0;
#X connect 4 1 5 0;
#X connect 4 1 64 0;
#X connect 5 0 88 0;
#X connect 6 0 88 0;
#X connect 7 0 76 0;
#X connect 9 0 10 0;
#X connect 9 1 11 0;
#X connect 9 1 65 0;
#X connect 10 0 89 0;
#X connect 11 0 89 0;
#X connect 12 0 77 0;
#X connect 14 0 16 0;
#X connect 14 1 15 0;
#X connect 14 1 66 0;
#X connect 15 0 90 0;
#X connect 16 0 90 0;
#X connect 17 0 78 0;
#X connect 19 0 20 0;
#X connect 19 1 21 0;
#X connect 19 1 67 0;
#X connect 20 0 91 0;
#X connect 21 0 91 0;
#X connect 22 0 79 0;
#X connect 24 0 26 0;
#X connect 24 1 25 0;
#X connect 24 1 68 0;
#X connect 25 0 92 0;
#X connect 26 0 92 0;
#X connect 27 0 80 0;
#X connect 29 0 31 0;
#X connect 29 1 30 0;
#X connect 29 1 69 0;
#X connect 30 0 93 0;
#X connect 31 0 93 0;
#X connect 32 0 81 0;
#X connect 34 0 35 0;
#X connect 34 1 36 0;
#X connect 34 1 70 0;
#X connect 35 0 94 0;
#X connect 36 0 94 0;
#X connect 37 0 82 0;
#X connect 39 0 41 0;
#X connect 39 1 40 0;
#X connect 39 1 71 0;
#X connect 40 0 95 0;
#X connect 41 0 95 0;
#X connect 42 0 83 0;
#X connect 44 0 45 0;
#X connect 44 1 46 0;
#X connect 44 1 72 0;
#X connect 45 0 96 0;
#X connect 46 0 96 0;
#X connect 47 0 84 0;
#X connect 49 0 51 0;
#X connect 49 1 50 0;
#X connect 49 1 73 0;
#X connect 50 0 97 0;
#X connect 51 0 97 0;
#X connect 52 0 85 0;
#X connect 54 0 55 0;
#X connect 54 1 56 0;
#X connect 54 1 74 0;
#X connect 55 0 98 0;
#X connect 56 0 98 0;
#X connect 57 0 86 0;
#X connect 59 0 61 0;
#X connect 59 1 60 0;
#X connect 59 1 75 0;
#X connect 60 0 99 0;
#X connect 61 0 99 0;
#X connect 62 0 87 0;
#X connect 64 0 8 0;
#X connect 65 0 13 0;
#X connect 66 0 18 0;
#X connect 67 0 23 0;
#X connect 68 0 28 0;
#X connect 69 0 33 0;
#X connect 70 0 38 0;
#X connect 71 0 43 0;
#X connect 72 0 48 0;
#X connect 73 0 53 0;
#X connect 74 0 58 0;
#X connect 75 0 63 0;
#X connect 76 0 4 0;
#X connect 77 0 9 0;
#X connect 78 0 14 0;
#X connect 79 0 19 0;
#X connect 80 0 24 0;
#X connect 81 0 29 0;
#X connect 82 0 34 0;
#X connect 83 0 39 0;
#X connect 84 0 44 0;
#X connect 85 0 49 0;
#X connect 86 0 54 0;
#X connect 87 0 59 0;
#X restore 481 131 pd colorkeys60;
#N canvas 68 282 931 380 colorkeys72 0;
#X obj 18 4 s \$0-keyIN;
#X obj 18 -15 inlet;
#X obj 30 318 outlet;
#X obj 30 298 r \$0-notaN;
#X obj 17 96 sel 0 1;
#X msg 42 138 color 45 45 45;
#X msg 17 163 color 0 0 0;
#X obj 17 54 r \$0-keyIN;
#X obj 66 111 s \$0-notaN;
#X obj 139 99 sel 0 1;
#X msg 139 167 color 142 142 142;
#X msg 158 130 color 45 45 45;
#X obj 139 54 r \$0-keyIN;
#X obj 187 100 s \$0-notaN;
#X obj 262 99 sel 0 1;
#X msg 287 141 color 45 45 45;
#X msg 262 166 color 0 0 0;
#X obj 262 57 r \$0-keyIN;
#X obj 311 114 s \$0-notaN;
#X obj 384 101 sel 0 1;
#X msg 384 169 color 142 142 142;
#X msg 403 132 color 45 45 45;
#X obj 384 56 r \$0-keyIN;
#X obj 432 102 s \$0-notaN;
#X obj 507 101 sel 0 1;
#X msg 532 143 color 45 45 45;
#X msg 507 168 color 0 0 0;
#X obj 507 59 r \$0-keyIN;
#X obj 556 116 s \$0-notaN;
#X obj 635 103 sel 0 1;
#X msg 660 145 color 45 45 45;
#X msg 635 170 color 0 0 0;
#X obj 635 61 r \$0-keyIN;
#X obj 684 118 s \$0-notaN;
#X obj 766 104 sel 0 1;
#X msg 766 172 color 142 142 142;
#X msg 785 135 color 45 45 45;
#X obj 766 59 r \$0-keyIN;
#X obj 814 105 s \$0-notaN;
#X obj 898 102 sel 0 1;
#X msg 923 144 color 45 45 45;
#X msg 898 169 color 0 0 0;
#X obj 898 60 r \$0-keyIN;
#X obj 947 117 s \$0-notaN;
#X obj 1029 103 sel 0 1;
#X msg 1029 171 color 142 142 142;
#X msg 1048 134 color 45 45 45;
#X obj 1029 58 r \$0-keyIN;
#X obj 1077 104 s \$0-notaN;
#X obj 1157 101 sel 0 1;
#X msg 1182 143 color 45 45 45;
#X msg 1157 168 color 0 0 0;
#X obj 1157 59 r \$0-keyIN;
#X obj 1206 116 s \$0-notaN;
#X obj 1288 102 sel 0 1;
#X msg 1288 170 color 142 142 142;
#X msg 1307 133 color 45 45 45;
#X obj 1288 57 r \$0-keyIN;
#X obj 1336 103 s \$0-notaN;
#X obj 1416 105 sel 0 1;
#X msg 1441 147 color 45 45 45;
#X msg 1416 172 color 0 0 0;
#X obj 1416 63 r \$0-keyIN;
#X obj 1465 120 s \$0-notaN;
#X msg 66 90 72;
#X msg 187 79 73;
#X msg 311 93 74;
#X msg 432 81 75;
#X msg 556 95 76;
#X msg 684 97 77;
#X msg 814 84 78;
#X msg 948 96 79;
#X msg 1077 83 80;
#X msg 1209 97 81;
#X msg 1336 82 82;
#X msg 1466 99 83;
#X obj 17 75 == 72;
#X obj 139 77 == 73;
#X obj 262 77 == 74;
#X obj 384 79 == 75;
#X obj 507 79 == 76;
#X obj 634 81 == 77;
#X obj 766 82 == 78;
#X obj 898 80 == 79;
#X obj 1029 81 == 80;
#X obj 1158 81 == 81;
#X obj 1288 80 == 82;
#X obj 1417 85 == 83;
#X obj 42 197 s \$0-nota72R;
#X obj 156 196 s \$0-nota73R;
#X obj 287 201 s \$0-nota74R;
#X obj 409 204 s \$0-nota75R;
#X obj 532 202 s \$0-nota76R;
#X obj 660 204 s \$0-nota77R;
#X obj 789 208 s \$0-nota78R;
#X obj 923 202 s \$0-nota79R;
#X obj 1053 208 s \$0-nota80R;
#X obj 1182 201 s \$0-nota81R;
#X obj 1312 206 s \$0-nota82R;
#X obj 1441 205 s \$0-nota83R;
#X connect 1 0 0 0;
#X connect 3 0 2 0;
#X connect 4 0 6 0;
#X connect 4 1 5 0;
#X connect 4 1 64 0;
#X connect 5 0 88 0;
#X connect 6 0 88 0;
#X connect 7 0 76 0;
#X connect 9 0 10 0;
#X connect 9 1 11 0;
#X connect 9 1 65 0;
#X connect 10 0 89 0;
#X connect 11 0 89 0;
#X connect 12 0 77 0;
#X connect 14 0 16 0;
#X connect 14 1 15 0;
#X connect 14 1 66 0;
#X connect 15 0 90 0;
#X connect 16 0 90 0;
#X connect 17 0 78 0;
#X connect 19 0 20 0;
#X connect 19 1 21 0;
#X connect 19 1 67 0;
#X connect 20 0 91 0;
#X connect 21 0 91 0;
#X connect 22 0 79 0;
#X connect 24 0 26 0;
#X connect 24 1 25 0;
#X connect 24 1 68 0;
#X connect 25 0 92 0;
#X connect 26 0 92 0;
#X connect 27 0 80 0;
#X connect 29 0 31 0;
#X connect 29 1 30 0;
#X connect 29 1 69 0;
#X connect 30 0 93 0;
#X connect 31 0 93 0;
#X connect 32 0 81 0;
#X connect 34 0 35 0;
#X connect 34 1 36 0;
#X connect 34 1 70 0;
#X connect 35 0 94 0;
#X connect 36 0 94 0;
#X connect 37 0 82 0;
#X connect 39 0 41 0;
#X connect 39 1 40 0;
#X connect 39 1 71 0;
#X connect 40 0 95 0;
#X connect 41 0 95 0;
#X connect 42 0 83 0;
#X connect 44 0 45 0;
#X connect 44 1 46 0;
#X connect 44 1 72 0;
#X connect 45 0 96 0;
#X connect 46 0 96 0;
#X connect 47 0 84 0;
#X connect 49 0 51 0;
#X connect 49 1 50 0;
#X connect 49 1 73 0;
#X connect 50 0 97 0;
#X connect 51 0 97 0;
#X connect 52 0 85 0;
#X connect 54 0 55 0;
#X connect 54 1 56 0;
#X connect 54 1 74 0;
#X connect 55 0 98 0;
#X connect 56 0 98 0;
#X connect 57 0 86 0;
#X connect 59 0 61 0;
#X connect 59 1 60 0;
#X connect 59 1 75 0;
#X connect 60 0 99 0;
#X connect 61 0 99 0;
#X connect 62 0 87 0;
#X connect 64 0 8 0;
#X connect 65 0 13 0;
#X connect 66 0 18 0;
#X connect 67 0 23 0;
#X connect 68 0 28 0;
#X connect 69 0 33 0;
#X connect 70 0 38 0;
#X connect 71 0 43 0;
#X connect 72 0 48 0;
#X connect 73 0 53 0;
#X connect 74 0 58 0;
#X connect 75 0 63 0;
#X connect 76 0 4 0;
#X connect 77 0 9 0;
#X connect 78 0 14 0;
#X connect 79 0 19 0;
#X connect 80 0 24 0;
#X connect 81 0 29 0;
#X connect 82 0 34 0;
#X connect 83 0 39 0;
#X connect 84 0 44 0;
#X connect 85 0 49 0;
#X connect 86 0 54 0;
#X connect 87 0 59 0;
#X restore 571 132 pd colorkeys72;
#X obj 222 11 inlet;
#X obj 47 200 outlet;
#N canvas 68 282 931 380 colorkeys36 0;
#X obj 18 4 s \$0-keyIN;
#X obj 18 -15 inlet;
#X obj 30 318 outlet;
#X obj 30 298 r \$0-notaN;
#X obj 17 96 sel 0 1;
#X msg 42 138 color 45 45 45;
#X msg 17 163 color 0 0 0;
#X obj 17 54 r \$0-keyIN;
#X obj 66 111 s \$0-notaN;
#X obj 139 99 sel 0 1;
#X msg 139 167 color 142 142 142;
#X msg 158 130 color 45 45 45;
#X obj 139 54 r \$0-keyIN;
#X obj 187 100 s \$0-notaN;
#X obj 262 99 sel 0 1;
#X msg 287 141 color 45 45 45;
#X msg 262 166 color 0 0 0;
#X obj 262 57 r \$0-keyIN;
#X obj 311 114 s \$0-notaN;
#X obj 384 101 sel 0 1;
#X msg 384 169 color 142 142 142;
#X msg 403 132 color 45 45 45;
#X obj 384 56 r \$0-keyIN;
#X obj 432 102 s \$0-notaN;
#X obj 507 101 sel 0 1;
#X msg 532 143 color 45 45 45;
#X msg 507 168 color 0 0 0;
#X obj 507 59 r \$0-keyIN;
#X obj 556 116 s \$0-notaN;
#X obj 635 103 sel 0 1;
#X msg 660 145 color 45 45 45;
#X msg 635 170 color 0 0 0;
#X obj 635 61 r \$0-keyIN;
#X obj 684 118 s \$0-notaN;
#X obj 766 104 sel 0 1;
#X msg 766 172 color 142 142 142;
#X msg 785 135 color 45 45 45;
#X obj 766 59 r \$0-keyIN;
#X obj 814 105 s \$0-notaN;
#X obj 898 102 sel 0 1;
#X msg 923 144 color 45 45 45;
#X msg 898 169 color 0 0 0;
#X obj 898 60 r \$0-keyIN;
#X obj 947 117 s \$0-notaN;
#X obj 1029 103 sel 0 1;
#X msg 1029 171 color 142 142 142;
#X msg 1048 134 color 45 45 45;
#X obj 1029 58 r \$0-keyIN;
#X obj 1077 104 s \$0-notaN;
#X obj 1157 101 sel 0 1;
#X msg 1182 143 color 45 45 45;
#X msg 1157 168 color 0 0 0;
#X obj 1157 59 r \$0-keyIN;
#X obj 1206 116 s \$0-notaN;
#X obj 1288 102 sel 0 1;
#X msg 1288 170 color 142 142 142;
#X msg 1307 133 color 45 45 45;
#X obj 1288 57 r \$0-keyIN;
#X obj 1336 103 s \$0-notaN;
#X obj 1416 105 sel 0 1;
#X msg 1441 147 color 45 45 45;
#X msg 1416 172 color 0 0 0;
#X obj 1416 63 r \$0-keyIN;
#X obj 1465 120 s \$0-notaN;
#X msg 66 90 36;
#X msg 187 79 37;
#X msg 311 93 38;
#X msg 432 81 39;
#X msg 556 95 40;
#X msg 684 97 41;
#X msg 814 84 42;
#X msg 948 96 43;
#X msg 1077 83 44;
#X msg 1207 95 45;
#X msg 1336 82 46;
#X msg 1466 99 47;
#X obj 42 198 s \$0-nota36R;
#X obj 156 196 s \$0-nota37R;
#X obj 287 201 s \$0-nota38R;
#X obj 409 204 s \$0-nota39R;
#X obj 533 202 s \$0-nota40R;
#X obj 660 204 s \$0-nota41R;
#X obj 789 208 s \$0-nota42R;
#X obj 923 202 s \$0-nota43R;
#X obj 1053 207 s \$0-nota44R;
#X obj 1182 201 s \$0-nota45R;
#X obj 1311 206 s \$0-nota46R;
#X obj 1441 205 s \$0-nota47R;
#X obj 17 75 == 36;
#X obj 139 77 == 37;
#X obj 262 77 == 38;
#X obj 507 79 == 40;
#X obj 636 81 == 41;
#X obj 766 82 == 42;
#X obj 898 80 == 43;
#X obj 1029 81 == 44;
#X obj 1158 81 == 45;
#X obj 1288 80 == 46;
#X obj 1418 85 == 47;
#X obj 384 79 == 39;
#X connect 1 0 0 0;
#X connect 3 0 2 0;
#X connect 4 0 6 0;
#X connect 4 1 5 0;
#X connect 4 1 64 0;
#X connect 5 0 76 0;
#X connect 6 0 76 0;
#X connect 7 0 88 0;
#X connect 9 0 10 0;
#X connect 9 1 11 0;
#X connect 9 1 65 0;
#X connect 10 0 77 0;
#X connect 11 0 77 0;
#X connect 12 0 89 0;
#X connect 14 0 16 0;
#X connect 14 1 15 0;
#X connect 14 1 66 0;
#X connect 15 0 78 0;
#X connect 16 0 78 0;
#X connect 17 0 90 0;
#X connect 19 0 20 0;
#X connect 19 1 21 0;
#X connect 19 1 67 0;
#X connect 20 0 79 0;
#X connect 21 0 79 0;
#X connect 22 0 99 0;
#X connect 24 0 26 0;
#X connect 24 1 25 0;
#X connect 24 1 68 0;
#X connect 25 0 80 0;
#X connect 26 0 80 0;
#X connect 27 0 91 0;
#X connect 29 0 31 0;
#X connect 29 1 30 0;
#X connect 29 1 69 0;
#X connect 30 0 81 0;
#X connect 31 0 81 0;
#X connect 32 0 92 0;
#X connect 34 0 35 0;
#X connect 34 1 36 0;
#X connect 34 1 70 0;
#X connect 35 0 82 0;
#X connect 36 0 82 0;
#X connect 37 0 93 0;
#X connect 39 0 41 0;
#X connect 39 1 40 0;
#X connect 39 1 71 0;
#X connect 40 0 83 0;
#X connect 41 0 83 0;
#X connect 42 0 94 0;
#X connect 44 0 45 0;
#X connect 44 1 46 0;
#X connect 44 1 72 0;
#X connect 45 0 84 0;
#X connect 46 0 84 0;
#X connect 47 0 95 0;
#X connect 49 0 51 0;
#X connect 49 1 50 0;
#X connect 49 1 73 0;
#X connect 50 0 85 0;
#X connect 51 0 85 0;
#X connect 52 0 96 0;
#X connect 54 0 55 0;
#X connect 54 1 56 0;
#X connect 54 1 74 0;
#X connect 55 0 86 0;
#X connect 56 0 86 0;
#X connect 57 0 97 0;
#X connect 59 0 61 0;
#X connect 59 1 60 0;
#X connect 59 1 75 0;
#X connect 60 0 87 0;
#X connect 61 0 87 0;
#X connect 62 0 98 0;
#X connect 64 0 8 0;
#X connect 65 0 13 0;
#X connect 66 0 18 0;
#X connect 67 0 23 0;
#X connect 68 0 28 0;
#X connect 69 0 33 0;
#X connect 70 0 38 0;
#X connect 71 0 43 0;
#X connect 72 0 48 0;
#X connect 73 0 53 0;
#X connect 74 0 58 0;
#X connect 75 0 63 0;
#X connect 88 0 4 0;
#X connect 89 0 9 0;
#X connect 90 0 14 0;
#X connect 91 0 24 0;
#X connect 92 0 29 0;
#X connect 93 0 34 0;
#X connect 94 0 39 0;
#X connect 95 0 44 0;
#X connect 96 0 49 0;
#X connect 97 0 54 0;
#X connect 98 0 59 0;
#X connect 99 0 19 0;
#X restore 297 132 pd colorkeys36;
#X connect 0 0 7 0;
#X connect 1 0 7 0;
#X connect 2 0 7 0;
#X connect 3 0 7 0;
#X connect 4 0 7 0;
#X connect 5 0 7 0;
#X connect 6 0 0 0;
#X connect 6 0 1 0;
#X connect 6 0 2 0;
#X connect 6 0 8 0;
#X connect 6 0 3 0;
#X connect 6 0 4 0;
#X connect 6 0 5 0;
#X connect 8 0 7 0;
#X restore 122 331 pd colorkeys;
#X obj 117 277 counter 83;
#X obj 222 422 sprintf %s[%d];
#N canvas 0 107 1024 661 notetouch 0;
#X obj 7 629 outlet;
#X obj 7 605 r \$0-touch;
#X obj 15 10 r \$0-nota0S;
#X msg 16 34 0;
#X obj 15 54 s \$0-touch;
#X msg 89 31 1;
#X obj 89 10 r \$0-nota1S;
#X obj 89 55 s \$0-touch;
#X obj 165 10 r \$0-nota2S;
#X msg 165 32 2;
#X obj 165 55 s \$0-touch;
#X obj 316 52 s \$0-touch;
#X obj 390 53 s \$0-touch;
#X obj 466 53 s \$0-touch;
#X msg 315 30 4;
#X msg 390 29 5;
#X msg 465 30 6;
#X obj 316 8 r \$0-nota4S;
#X obj 390 8 r \$0-nota5S;
#X obj 466 8 r \$0-nota6S;
#X obj 540 52 s \$0-touch;
#X obj 614 53 s \$0-touch;
#X obj 690 53 s \$0-touch;
#X obj 764 52 s \$0-touch;
#X obj 844 53 s \$0-touch;
#X obj 924 53 s \$0-touch;
#X msg 540 29 7;
#X msg 614 29 8;
#X msg 690 30 9;
#X msg 764 29 10;
#X msg 844 30 11;
#X msg 923 30 12;
#X obj 540 8 r \$0-nota7S;
#X obj 614 8 r \$0-nota8S;
#X obj 764 8 r \$0-nota10S;
#X obj 844 8 r \$0-nota11S;
#X obj 923 7 r \$0-nota12S;
#X obj 15 129 s \$0-touch;
#X obj 89 130 s \$0-touch;
#X obj 165 130 s \$0-touch;
#X obj 239 129 s \$0-touch;
#X obj 313 130 s \$0-touch;
#X obj 389 130 s \$0-touch;
#X obj 463 129 s \$0-touch;
#X obj 537 130 s \$0-touch;
#X obj 613 130 s \$0-touch;
#X obj 687 129 s \$0-touch;
#X obj 767 130 s \$0-touch;
#X obj 847 130 s \$0-touch;
#X msg 15 109 13;
#X msg 89 106 14;
#X msg 239 106 16;
#X msg 313 106 17;
#X msg 388 107 18;
#X msg 463 106 19;
#X msg 537 106 20;
#X msg 613 106 21;
#X msg 687 106 22;
#X msg 767 107 23;
#X msg 846 107 24;
#X obj 15 85 r \$0-nota13S;
#X obj 89 85 r \$0-nota14S;
#X obj 165 85 r \$0-nota15S;
#X obj 239 85 r \$0-nota16S;
#X obj 313 85 r \$0-nota17S;
#X obj 389 85 r \$0-nota18S;
#X obj 463 85 r \$0-nota19S;
#X obj 537 85 r \$0-nota20S;
#X obj 613 85 r \$0-nota21S;
#X obj 687 85 r \$0-nota22S;
#X obj 767 85 r \$0-nota23S;
#X obj 846 84 r \$0-nota24S;
#X obj 239 53 s \$0-touch;
#X obj 239 8 r \$0-nota3S;
#X msg 239 30 3;
#X obj 691 8 r \$0-nota9S;
#X msg 165 107 15;
#X obj 14 199 s \$0-touch;
#X obj 88 200 s \$0-touch;
#X obj 164 200 s \$0-touch;
#X obj 238 199 s \$0-touch;
#X obj 312 200 s \$0-touch;
#X obj 388 200 s \$0-touch;
#X obj 462 199 s \$0-touch;
#X obj 536 200 s \$0-touch;
#X obj 612 200 s \$0-touch;
#X obj 686 199 s \$0-touch;
#X obj 766 200 s \$0-touch;
#X obj 846 200 s \$0-touch;
#X msg 14 179 25;
#X msg 88 176 26;
#X msg 164 177 27;
#X msg 238 176 28;
#X msg 312 176 29;
#X msg 387 177 30;
#X msg 462 176 31;
#X msg 536 176 32;
#X msg 612 176 33;
#X msg 686 176 34;
#X msg 766 177 35;
#X msg 845 177 36;
#X obj 14 155 r \$0-nota25S;
#X obj 88 155 r \$0-nota26S;
#X obj 164 155 r \$0-nota27S;
#X obj 238 155 r \$0-nota28S;
#X obj 312 156 r \$0-nota29S;
#X obj 388 155 r \$0-nota30S;
#X obj 462 155 r \$0-nota31S;
#X obj 536 155 r \$0-nota32S;
#X obj 612 155 r \$0-nota33S;
#X obj 686 155 r \$0-nota34S;
#X obj 765 155 r \$0-nota35S;
#X obj 845 154 r \$0-nota36S;
#X obj 14 266 s \$0-touch;
#X obj 88 267 s \$0-touch;
#X obj 164 267 s \$0-touch;
#X obj 238 266 s \$0-touch;
#X obj 312 267 s \$0-touch;
#X obj 388 267 s \$0-touch;
#X obj 462 266 s \$0-touch;
#X obj 536 267 s \$0-touch;
#X obj 612 267 s \$0-touch;
#X obj 686 266 s \$0-touch;
#X obj 766 267 s \$0-touch;
#X obj 846 267 s \$0-touch;
#X msg 15 247 37;
#X msg 88 243 38;
#X msg 165 244 39;
#X msg 238 243 40;
#X msg 312 243 41;
#X msg 387 244 42;
#X msg 462 243 43;
#X msg 536 243 44;
#X msg 612 243 45;
#X msg 686 243 46;
#X msg 766 244 47;
#X msg 845 244 48;
#X obj 14 222 r \$0-nota37S;
#X obj 88 222 r \$0-nota38S;
#X obj 164 222 r \$0-nota39S;
#X obj 238 222 r \$0-nota40S;
#X obj 312 223 r \$0-nota41S;
#X obj 388 222 r \$0-nota42S;
#X obj 462 222 r \$0-nota43S;
#X obj 536 222 r \$0-nota44S;
#X obj 612 222 r \$0-nota45S;
#X obj 686 222 r \$0-nota46S;
#X obj 765 222 r \$0-nota47S;
#X obj 845 221 r \$0-nota48S;
#X obj 16 335 s \$0-touch;
#X obj 90 336 s \$0-touch;
#X obj 166 336 s \$0-touch;
#X obj 240 335 s \$0-touch;
#X obj 314 336 s \$0-touch;
#X obj 390 336 s \$0-touch;
#X obj 464 335 s \$0-touch;
#X obj 538 336 s \$0-touch;
#X obj 614 336 s \$0-touch;
#X obj 688 335 s \$0-touch;
#X obj 768 336 s \$0-touch;
#X obj 848 336 s \$0-touch;
#X msg 17 316 49;
#X msg 90 312 50;
#X msg 167 313 51;
#X msg 240 312 52;
#X msg 314 312 53;
#X msg 389 313 54;
#X msg 464 312 55;
#X msg 538 312 56;
#X msg 614 312 57;
#X msg 688 313 58;
#X msg 768 313 59;
#X msg 847 313 60;
#X obj 16 291 r \$0-nota49S;
#X obj 90 291 r \$0-nota50S;
#X obj 166 291 r \$0-nota51S;
#X obj 240 291 r \$0-nota52S;
#X obj 314 292 r \$0-nota53S;
#X obj 390 291 r \$0-nota54S;
#X obj 464 291 r \$0-nota55S;
#X obj 538 291 r \$0-nota56S;
#X obj 614 291 r \$0-nota57S;
#X obj 688 292 r \$0-nota58S;
#X obj 768 291 r \$0-nota59S;
#X obj 847 290 r \$0-nota60S;
#X obj 17 403 s \$0-touch;
#X obj 91 404 s \$0-touch;
#X obj 167 404 s \$0-touch;
#X obj 241 403 s \$0-touch;
#X obj 315 404 s \$0-touch;
#X obj 391 404 s \$0-touch;
#X obj 465 403 s \$0-touch;
#X obj 539 404 s \$0-touch;
#X obj 615 404 s \$0-touch;
#X obj 689 403 s \$0-touch;
#X obj 769 404 s \$0-touch;
#X obj 849 404 s \$0-touch;
#X msg 18 384 61;
#X msg 91 380 62;
#X msg 168 381 63;
#X msg 241 380 64;
#X msg 315 380 65;
#X msg 390 381 66;
#X msg 465 380 67;
#X msg 538 380 68;
#X msg 615 380 69;
#X msg 689 381 70;
#X msg 769 381 71;
#X msg 848 381 72;
#X obj 17 359 r \$0-nota61S;
#X obj 91 359 r \$0-nota62S;
#X obj 167 359 r \$0-nota63S;
#X obj 241 359 r \$0-nota64S;
#X obj 315 360 r \$0-nota65S;
#X obj 391 359 r \$0-nota66S;
#X obj 465 359 r \$0-nota67S;
#X obj 539 359 r \$0-nota68S;
#X obj 615 359 r \$0-nota69S;
#X obj 689 360 r \$0-nota70S;
#X obj 769 359 r \$0-nota71S;
#X obj 848 358 r \$0-nota72S;
#X obj 14 472 s \$0-touch;
#X obj 88 473 s \$0-touch;
#X obj 164 473 s \$0-touch;
#X obj 238 472 s \$0-touch;
#X obj 312 473 s \$0-touch;
#X obj 388 473 s \$0-touch;
#X obj 462 472 s \$0-touch;
#X obj 536 473 s \$0-touch;
#X obj 612 473 s \$0-touch;
#X obj 686 472 s \$0-touch;
#X obj 766 473 s \$0-touch;
#X msg 15 453 73;
#X msg 88 449 74;
#X msg 165 451 75;
#X msg 238 449 76;
#X msg 312 449 77;
#X msg 387 450 78;
#X msg 462 449 79;
#X msg 535 451 80;
#X msg 612 449 81;
#X msg 686 450 82;
#X msg 766 450 83;
#X obj 14 428 r \$0-nota73S;
#X obj 88 428 r \$0-nota74S;
#X obj 164 428 r \$0-nota75S;
#X obj 238 428 r \$0-nota76S;
#X obj 312 429 r \$0-nota77S;
#X obj 387 428 r \$0-nota78S;
#X obj 462 428 r \$0-nota79S;
#X obj 536 428 r \$0-nota80S;
#X obj 611 428 r \$0-nota81S;
#X obj 686 429 r \$0-nota82S;
#X obj 766 428 r \$0-nota83S;
#X connect 1 0 0 0;
#X connect 2 0 3 0;
#X connect 3 0 4 0;
#X connect 5 0 7 0;
#X connect 6 0 5 0;
#X connect 8 0 9 0;
#X connect 9 0 10 0;
#X connect 14 0 11 0;
#X connect 15 0 12 0;
#X connect 16 0 13 0;
#X connect 17 0 14 0;
#X connect 18 0 15 0;
#X connect 19 0 16 0;
#X connect 26 0 20 0;
#X connect 27 0 21 0;
#X connect 28 0 22 0;
#X connect 29 0 23 0;
#X connect 30 0 24 0;
#X connect 31 0 25 0;
#X connect 32 0 26 0;
#X connect 33 0 27 0;
#X connect 34 0 29 0;
#X connect 35 0 30 0;
#X connect 36 0 31 0;
#X connect 49 0 37 0;
#X connect 50 0 38 0;
#X connect 51 0 40 0;
#X connect 52 0 41 0;
#X connect 53 0 42 0;
#X connect 54 0 43 0;
#X connect 55 0 44 0;
#X connect 56 0 45 0;
#X connect 57 0 46 0;
#X connect 58 0 47 0;
#X connect 59 0 48 0;
#X connect 60 0 49 0;
#X connect 61 0 50 0;
#X connect 62 0 76 0;
#X connect 63 0 51 0;
#X connect 64 0 52 0;
#X connect 65 0 53 0;
#X connect 66 0 54 0;
#X connect 67 0 55 0;
#X connect 68 0 56 0;
#X connect 69 0 57 0;
#X connect 70 0 58 0;
#X connect 71 0 59 0;
#X connect 73 0 74 0;
#X connect 74 0 72 0;
#X connect 75 0 28 0;
#X connect 76 0 39 0;
#X connect 89 0 77 0;
#X connect 90 0 78 0;
#X connect 91 0 79 0;
#X connect 92 0 80 0;
#X connect 93 0 81 0;
#X connect 94 0 82 0;
#X connect 95 0 83 0;
#X connect 96 0 84 0;
#X connect 97 0 85 0;
#X connect 98 0 86 0;
#X connect 99 0 87 0;
#X connect 100 0 88 0;
#X connect 101 0 89 0;
#X connect 102 0 90 0;
#X connect 103 0 91 0;
#X connect 104 0 92 0;
#X connect 105 0 93 0;
#X connect 106 0 94 0;
#X connect 107 0 95 0;
#X connect 108 0 96 0;
#X connect 109 0 97 0;
#X connect 110 0 98 0;
#X connect 111 0 99 0;
#X connect 112 0 100 0;
#X connect 125 0 113 0;
#X connect 126 0 114 0;
#X connect 127 0 115 0;
#X connect 128 0 116 0;
#X connect 129 0 117 0;
#X connect 130 0 118 0;
#X connect 131 0 119 0;
#X connect 132 0 120 0;
#X connect 133 0 121 0;
#X connect 134 0 122 0;
#X connect 135 0 123 0;
#X connect 136 0 124 0;
#X connect 137 0 125 0;
#X connect 138 0 126 0;
#X connect 139 0 127 0;
#X connect 140 0 128 0;
#X connect 141 0 129 0;
#X connect 142 0 130 0;
#X connect 143 0 131 0;
#X connect 144 0 132 0;
#X connect 145 0 133 0;
#X connect 146 0 134 0;
#X connect 147 0 135 0;
#X connect 148 0 136 0;
#X connect 161 0 149 0;
#X connect 162 0 150 0;
#X connect 163 0 151 0;
#X connect 164 0 152 0;
#X connect 165 0 153 0;
#X connect 166 0 154 0;
#X connect 167 0 155 0;
#X connect 168 0 156 0;
#X connect 169 0 157 0;
#X connect 170 0 158 0;
#X connect 171 0 159 0;
#X connect 172 0 160 0;
#X connect 173 0 161 0;
#X connect 174 0 162 0;
#X connect 175 0 163 0;
#X connect 176 0 164 0;
#X connect 177 0 165 0;
#X connect 178 0 166 0;
#X connect 179 0 167 0;
#X connect 180 0 168 0;
#X connect 181 0 169 0;
#X connect 182 0 170 0;
#X connect 183 0 171 0;
#X connect 184 0 172 0;
#X connect 197 0 185 0;
#X connect 198 0 186 0;
#X connect 199 0 187 0;
#X connect 200 0 188 0;
#X connect 201 0 189 0;
#X connect 202 0 190 0;
#X connect 203 0 191 0;
#X connect 204 0 192 0;
#X connect 205 0 193 0;
#X connect 206 0 194 0;
#X connect 207 0 195 0;
#X connect 208 0 196 0;
#X connect 209 0 197 0;
#X connect 210 0 198 0;
#X connect 211 0 199 0;
#X connect 212 0 200 0;
#X connect 213 0 201 0;
#X connect 214 0 202 0;
#X connect 215 0 203 0;
#X connect 216 0 204 0;
#X connect 217 0 205 0;
#X connect 218 0 206 0;
#X connect 219 0 207 0;
#X connect 220 0 208 0;
#X connect 232 0 221 0;
#X connect 233 0 222 0;
#X connect 234 0 223 0;
#X connect 235 0 224 0;
#X connect 236 0 225 0;
#X connect 237 0 226 0;
#X connect 238 0 227 0;
#X connect 239 0 228 0;
#X connect 240 0 229 0;
#X connect 241 0 230 0;
#X connect 242 0 231 0;
#X connect 243 0 232 0;
#X connect 244 0 233 0;
#X connect 245 0 234 0;
#X connect 246 0 235 0;
#X connect 247 0 236 0;
#X connect 248 0 237 0;
#X connect 249 0 238 0;
#X connect 250 0 239 0;
#X connect 251 0 240 0;
#X connect 252 0 241 0;
#X connect 253 0 242 0;
#X restore 30 16 pd notetouch;
#X floatatom 58 41 5 0 0 0 - - #0-ctl2R;
#X connect 87 0 98 0;
#X connect 88 0 87 0;
#X connect 92 0 99 0;
#X connect 92 1 99 1;
#X connect 94 0 93 0;
#X connect 95 0 94 0;
#X connect 96 0 92 0;
#X connect 97 0 96 0;
#X connect 98 0 97 0;
#X connect 99 0 95 0;
#X connect 100 0 97 0;
#X connect 100 0 101 0;
#X coords 0 -1 1 1 900 75 2 100 100;
#X restore 3 -97 pd piano;
#X obj 742 -28 cnv 15 200 30 empty \$0-presetcanvas espelho.xml 0 20
0 20 -191407 -16662 0;
#X obj 338 365 r \$0-tone;
#X floatatom 264 367 5 0 0 0 - - -;
#N canvas 172 81 450 300 netpd 0;
#X obj 57 166 s \$0-play;
#X obj 183 75 netreceive 3000;
#X floatatom 280 98 5 0 0 0 - - -;
#X obj 236 173 s \$0-tone;
#X obj 227 143 list-dripslow;
#X msg 315 136 0 3 4;
#X obj 225 102 bng 15 250 50 0 empty empty empty 17 7 0 10 -262144
-1 -1;
#X connect 1 0 0 0;
#X connect 1 0 6 0;
#X connect 1 0 4 0;
#X connect 1 1 2 0;
#X connect 4 0 3 0;
#X connect 4 1 5 0;
#X connect 5 0 4 1;
#X restore 531 45 pd netpd;
#X connect 27 0 26 0;
#X connect 29 0 32 0;
#X connect 32 0 30 0;
#X connect 34 0 33 0;
#X connect 35 0 36 0;
#X connect 36 0 34 0;
#X connect 38 0 37 0;
#X connect 43 0 35 0;
#X connect 46 0 47 0;
#X connect 47 0 33 0;
