#N canvas 0 26 1024 661 10;
#X obj 136 483 color.rgbset;
#X obj 169 611 s \$0-frame0;
#X msg 45 560 vis_size 2 200;
#X msg 60 604 vis_size 2 200;
#X floatatom 678 574 5 0 0 0 - - -;
#X msg 677 592 pos 105 \$1;
#X floatatom 696 481 5 0 0 0 - - -;
#X msg 696 503 vis_size \$1 15;
#X obj 108 45 hradio 22 1 0 32 \$0-bl1 empty empty 0 -8 0 10 -261234
-261682 -1 0;
#X obj 682 527 r \$0-bl1;
#N canvas 0 0 970 408 32pos 0;
#X obj 582 305 outlet;
#X msg 104 168;
#X msg 133 168;
#X msg 161 168;
#X msg 190 168;
#X msg 218 168;
#X msg 247 167;
#X msg 275 167;
#X msg 304 167;
#X msg 332 167;
#X msg 361 167;
#X msg 389 167;
#X msg 418 167;
#X msg 446 167;
#X msg 474 167;
#X msg 502 167;
#X msg 531 167;
#X msg 559 167;
#X msg 588 167;
#X msg 616 167;
#X msg 645 167;
#X msg 673 167;
#X msg 702 166;
#X msg 730 166;
#X msg 759 166;
#X msg 787 166;
#X msg 816 166;
#X msg 844 166;
#X msg 873 166;
#X msg 901 167;
#X obj 429 -51 sel 0 1 2 3 4 5 6 7 8 9 10 11 12 13 14 15 16 17 18 19
20 21 22 23 24 25 26 27 28 29 30 31;
#X obj 429 -72 inlet;
#X msg 19 168 20;
#X msg 47 168 41;
#X msg 76 168 64;
#X connect 1 0 0 0;
#X connect 2 0 0 0;
#X connect 3 0 0 0;
#X connect 4 0 0 0;
#X connect 5 0 0 0;
#X connect 6 0 0 0;
#X connect 7 0 0 0;
#X connect 8 0 0 0;
#X connect 9 0 0 0;
#X connect 10 0 0 0;
#X connect 11 0 0 0;
#X connect 12 0 0 0;
#X connect 13 0 0 0;
#X connect 14 0 0 0;
#X connect 15 0 0 0;
#X connect 16 0 0 0;
#X connect 17 0 0 0;
#X connect 18 0 0 0;
#X connect 19 0 0 0;
#X connect 20 0 0 0;
#X connect 21 0 0 0;
#X connect 22 0 0 0;
#X connect 23 0 0 0;
#X connect 24 0 0 0;
#X connect 25 0 0 0;
#X connect 26 0 0 0;
#X connect 27 0 0 0;
#X connect 28 0 0 0;
#X connect 29 0 0 0;
#X connect 30 0 32 0;
#X connect 30 1 33 0;
#X connect 30 2 34 0;
#X connect 30 3 1 0;
#X connect 30 4 2 0;
#X connect 30 5 3 0;
#X connect 30 6 4 0;
#X connect 30 7 5 0;
#X connect 30 8 6 0;
#X connect 30 9 7 0;
#X connect 30 10 8 0;
#X connect 30 11 9 0;
#X connect 30 12 10 0;
#X connect 30 13 11 0;
#X connect 30 14 12 0;
#X connect 30 15 13 0;
#X connect 30 16 14 0;
#X connect 30 17 15 0;
#X connect 30 18 16 0;
#X connect 30 19 17 0;
#X connect 30 20 18 0;
#X connect 30 21 19 0;
#X connect 30 22 20 0;
#X connect 30 23 21 0;
#X connect 30 24 22 0;
#X connect 30 25 23 0;
#X connect 30 26 24 0;
#X connect 30 27 25 0;
#X connect 30 28 26 0;
#X connect 30 29 27 0;
#X connect 30 30 28 0;
#X connect 30 31 29 0;
#X connect 31 0 30 0;
#X connect 32 0 0 0;
#X connect 33 0 0 0;
#X connect 34 0 0 0;
#X restore 675 549 pd 32pos;
#X obj 140 102 tgl 16 0 \$0-bS00 \$0-bR00 empty 17 7 0 10 -215324 -215324
-1 1 1;
#X obj 140 120 tgl 16 0 \$0-bS10 \$0-bR10 empty 17 7 0 10 -125216 -1
-1 0 1;
#X obj 140 138 tgl 16 0 \$0-bS20 \$0-bR20 empty 17 7 0 10 -125216 -1
-1 0 1;
#X obj 140 156 tgl 16 0 \$0-bS30 \$0-bR30 empty 17 7 0 10 -125216 -1
-1 0 1;
#X obj 140 174 tgl 16 0 \$0-bS40 \$0-bR40 empty 17 7 0 10 -125216 -1
-1 0 1;
#X obj 140 192 tgl 16 0 \$0-bS50 \$0-bR50 empty 17 7 0 10 -125216 -1
-1 0 1;
#X obj 140 210 tgl 16 0 \$0-bS60 \$0-bR60 empty 17 7 0 10 -125216 -1
-1 0 1;
#X obj 140 228 tgl 16 0 \$0-bS70 \$0-bR70 empty 17 7 0 10 -125216 -1
-1 0 1;
#X obj 140 246 tgl 16 0 \$0-bS80 \$0-bR80 empty 17 7 0 10 -125216 -1
-1 0 1;
#X obj 140 264 tgl 16 0 \$0-bS90 \$0-bR9 empty 17 7 0 10 -125216 -1
-1 0 1;
#X obj 140 282 tgl 16 0 \$0-bS100 \$0-bR100 empty 17 7 0 10 -125216
-1 -1 0 1;
#X obj 140 300 tgl 16 0 \$0-bS110 \$0-bR110 empty 17 7 0 10 -125216
-1 -1 0 1;
#X obj 140 318 tgl 16 0 \$0-bS0 \$0-bR120 empty 17 7 0 10 -125216 -1
-1 0 1;
#X obj 140 336 tgl 16 0 \$0-bS0 \$0-bR130 empty 17 7 0 10 -125216 -1
-1 0 1;
#X obj 140 354 tgl 16 0 \$0-bS0 \$0-bR140 empty 17 7 0 10 -125216 -1
-1 0 1;
#X obj 140 372 tgl 16 0 \$0-bS0 \$0-bR150 empty 17 7 0 10 -125216 -1
-1 0 1;
#X msg 678 440 size \$1;
#X floatatom 677 421 5 0 0 0 - - -;
#X obj 158 102 tgl 16 0 \$0-bS01 \$0-bR01 empty 17 7 0 10 -215328 -1
-1 0 1;
#X obj 158 120 tgl 16 0 \$0-bS0 \$0-bR11 empty 17 7 0 10 -125216 -1
-1 0 1;
#X obj 158 138 tgl 16 0 \$0-bS0 \$0-bR21 empty 17 7 0 10 -125216 -1
-1 0 1;
#X obj 158 156 tgl 16 0 \$0-bS0 \$0-bR31 empty 17 7 0 10 -125216 -1
-1 0 1;
#X obj 158 174 tgl 16 0 \$0-bS0 \$0-bR41 empty 17 7 0 10 -125216 -1
-1 0 1;
#X obj 158 192 tgl 16 0 \$0-bS0 \$0-bR51 empty 17 7 0 10 -125216 -1
-1 0 1;
#X obj 158 210 tgl 16 0 \$0-bS0 \$0-bR61 empty 17 7 0 10 -125216 -1
-1 0 1;
#X obj 158 228 tgl 16 0 \$0-bS0 \$0-bR71 empty 17 7 0 10 -125216 -1
-1 0 1;
#X obj 158 246 tgl 16 0 \$0-bS0 \$0-bR81 empty 17 7 0 10 -125216 -1
-1 0 1;
#X obj 158 264 tgl 16 0 \$0-bS0 \$0-bR91 empty 17 7 0 10 -125216 -1
-1 0 1;
#X obj 158 282 tgl 16 0 \$0-bS0 \$0-bR101 empty 17 7 0 10 -125216 -1
-1 0 1;
#X obj 158 300 tgl 16 0 \$0-bS0 \$0-bR111 empty 17 7 0 10 -125216 -1
-1 0 1;
#X obj 158 318 tgl 16 0 \$0-bS0 \$0-bR121 empty 17 7 0 10 -125216 -1
-1 0 1;
#X obj 158 336 tgl 16 0 \$0-bS0 \$0-bR131 empty 17 7 0 10 -125216 -1
-1 0 1;
#X obj 158 354 tgl 16 0 \$0-bS0 \$0-bR141 empty 17 7 0 10 -125216 -1
-1 0 1;
#X obj 158 372 tgl 16 0 \$0-bS0 \$0-bR151 empty 17 7 0 10 -125216 -1
-1 0 1;
#X floatatom 105 102 5 0 0 0 - - -;
#X msg 41 155 B0;
#X obj 68 77 pitch;
#X obj 30 101 prepend set;
#X obj 176 102 tgl 16 0 \$0-bS02 \$0-bR02 empty 17 7 0 10 -215328 -1
-1 0 1;
#X obj 176 120 tgl 16 0 \$0-bS0 \$0-bR12 empty 17 7 0 10 -125216 -1
-1 0 1;
#X obj 176 138 tgl 16 0 \$0-bS0 \$0-bR22 empty 17 7 0 10 -125216 -1
-1 0 1;
#X obj 176 156 tgl 16 0 \$0-bS0 \$0-bR32 empty 17 7 0 10 -129312 -1
-1 0 1;
#X obj 176 174 tgl 16 0 \$0-bS0 \$0-bR42 empty 17 7 0 10 -125216 -1
-1 0 1;
#X obj 176 192 tgl 16 0 \$0-bS0 \$0-bR52 empty 17 7 0 10 -125216 -1
-1 0 1;
#X obj 176 210 tgl 16 0 \$0-bS0 \$0-bR62 empty 17 7 0 10 -125216 -1
-1 0 1;
#X obj 176 228 tgl 16 0 \$0-bS0 \$0-bR72 empty 17 7 0 10 -125216 -1
-1 0 1;
#X obj 176 246 tgl 16 0 \$0-bS0 \$0-bR82 empty 17 7 0 10 -125216 -1
-1 0 1;
#X obj 176 264 tgl 16 0 \$0-bS0 \$0-bR92 empty 17 7 0 10 -125216 -1
-1 0 1;
#X obj 176 282 tgl 16 0 \$0-bS0 \$0-bR102 empty 17 7 0 10 -125216 -1
-1 0 1;
#X obj 176 300 tgl 16 0 \$0-bS0 \$0-bR112 empty 17 7 0 10 -125216 -1
-1 0 1;
#X obj 176 318 tgl 16 0 \$0-bS0 \$0-bR122 empty 17 7 0 10 -125216 -1
-1 0 1;
#X obj 176 336 tgl 16 0 \$0-bS0 \$0-bR132 empty 17 7 0 10 -125216 -1
-1 0 1;
#X obj 176 354 tgl 16 0 \$0-bS0 \$0-bR142 empty 17 7 0 10 -125216 -1
-1 0 1;
#X obj 176 372 tgl 16 0 \$0-bS0 \$0-bR152 empty 17 7 0 10 -125216 -1
-1 0 1;
#X obj 194 102 tgl 16 0 \$0-bS03 \$0-bR03 empty 17 7 0 10 -215328 -1
-1 0 1;
#X obj 194 120 tgl 16 0 \$0-bS0 \$0-bR0 empty 17 7 0 10 -125216 -1
-1 0 1;
#X obj 194 138 tgl 16 0 \$0-bS0 \$0-bR0 empty 17 7 0 10 -125216 -1
-1 0 1;
#X obj 194 156 tgl 16 0 \$0-bS0 \$0-bR0 empty 17 7 0 10 -125216 -1
-1 0 1;
#X obj 194 174 tgl 16 0 \$0-bS0 \$0-bR0 empty 17 7 0 10 -125216 -1
-1 0 1;
#X obj 194 192 tgl 16 0 \$0-bS0 \$0-bR0 empty 17 7 0 10 -125216 -1
-1 0 1;
#X obj 194 210 tgl 16 0 \$0-bS0 \$0-bR0 empty 17 7 0 10 -125216 -1
-1 0 1;
#X obj 194 228 tgl 16 0 \$0-bS0 \$0-bR0 empty 17 7 0 10 -125216 -1
-1 0 1;
#X obj 194 246 tgl 16 0 \$0-bS0 \$0-bR0 empty 17 7 0 10 -125216 -1
-1 0 1;
#X obj 194 264 tgl 16 0 \$0-bS0 \$0-bR0 empty 17 7 0 10 -125216 -1
-1 0 1;
#X obj 194 282 tgl 16 0 \$0-bS0 \$0-bR0 empty 17 7 0 10 -125216 -1
-1 0 1;
#X obj 194 300 tgl 16 0 \$0-bS0 \$0-bR0 empty 17 7 0 10 -125216 -1
-1 0 1;
#X obj 194 318 tgl 16 0 \$0-bS0 \$0-bR0 empty 17 7 0 10 -125216 -1
-1 0 1;
#X obj 194 336 tgl 16 0 \$0-bS0 \$0-bR0 empty 17 7 0 10 -125216 -1
-1 0 1;
#X obj 194 354 tgl 16 0 \$0-bS0 \$0-bR0 empty 17 7 0 10 -125216 -1
-1 0 1;
#X obj 194 372 tgl 16 0 \$0-bS0 \$0-bR0 empty 17 7 0 10 -125216 -1
-1 0 1;
#X obj 212 102 tgl 16 0 \$0-bS04 \$0-bR04 empty 17 7 0 10 -215324 -215324
-1 1 1;
#X obj 212 120 tgl 16 0 \$0-bS0 \$0-bR0 empty 17 7 0 10 -125216 -1
-1 0 1;
#X obj 212 138 tgl 16 0 \$0-bS0 \$0-bR0 empty 17 7 0 10 -125216 -1
-1 0 1;
#X obj 212 156 tgl 16 0 \$0-bS0 \$0-bR0 empty 17 7 0 10 -125216 -1
-1 0 1;
#X obj 212 174 tgl 16 0 \$0-bS0 \$0-bR0 empty 17 7 0 10 -125216 -1
-1 0 1;
#X obj 212 192 tgl 16 0 \$0-bS0 \$0-bR0 empty 17 7 0 10 -125216 -1
-1 0 1;
#X obj 212 210 tgl 16 0 \$0-bS0 \$0-bR0 empty 17 7 0 10 -125216 -1
-1 0 1;
#X obj 212 228 tgl 16 0 \$0-bS0 \$0-bR0 empty 17 7 0 10 -125216 -1
-1 0 1;
#X obj 212 246 tgl 16 0 \$0-bS0 \$0-bR0 empty 17 7 0 10 -125216 -1
-1 0 1;
#X obj 212 264 tgl 16 0 \$0-bS0 \$0-bR0 empty 17 7 0 10 -125216 -1
-1 0 1;
#X obj 212 282 tgl 16 0 \$0-bS0 \$0-bR0 empty 17 7 0 10 -125216 -1
-1 0 1;
#X obj 212 300 tgl 16 0 \$0-bS0 \$0-bR0 empty 17 7 0 10 -125216 -1
-1 0 1;
#X obj 212 318 tgl 16 0 \$0-bS0 \$0-bR0 empty 17 7 0 10 -125216 -1
-1 0 1;
#X obj 212 336 tgl 16 0 \$0-bS0 \$0-bR0 empty 17 7 0 10 -125216 -1
-1 0 1;
#X obj 212 354 tgl 16 0 \$0-bS0 \$0-bR0 empty 17 7 0 10 -125216 -1
-1 0 1;
#X obj 212 372 tgl 16 0 \$0-bS0 \$0-bR0 empty 17 7 0 10 -125216 -1
-1 0 1;
#X obj 230 102 tgl 16 0 \$0-bS0 \$0-bR0 empty 17 7 0 10 -125216 -1
-1 0 1;
#X obj 230 120 tgl 16 0 \$0-bS0 \$0-bR0 empty 17 7 0 10 -125216 -1
-1 0 1;
#X obj 230 138 tgl 16 0 \$0-bS0 \$0-bR0 empty 17 7 0 10 -125216 -1
-1 0 1;
#X obj 230 156 tgl 16 0 \$0-bS0 \$0-bR0 empty 17 7 0 10 -125216 -1
-1 0 1;
#X obj 230 174 tgl 16 0 \$0-bS0 \$0-bR0 empty 17 7 0 10 -125216 -1
-1 0 1;
#X obj 230 192 tgl 16 0 \$0-bS0 \$0-bR0 empty 17 7 0 10 -125216 -1
-1 0 1;
#X obj 230 210 tgl 16 0 \$0-bS0 \$0-bR0 empty 17 7 0 10 -125216 -1
-1 0 1;
#X obj 230 228 tgl 16 0 \$0-bS0 \$0-bR0 empty 17 7 0 10 -125216 -1
-1 0 1;
#X obj 230 246 tgl 16 0 \$0-bS0 \$0-bR0 empty 17 7 0 10 -125216 -1
-1 0 1;
#X obj 230 264 tgl 16 0 \$0-bS0 \$0-bR0 empty 17 7 0 10 -125216 -1
-1 0 1;
#X obj 230 282 tgl 16 0 \$0-bS0 \$0-bR0 empty 17 7 0 10 -125216 -1
-1 0 1;
#X obj 230 300 tgl 16 0 \$0-bS0 \$0-bR0 empty 17 7 0 10 -125216 -1
-1 0 1;
#X obj 230 318 tgl 16 0 \$0-bS0 \$0-bR0 empty 17 7 0 10 -125216 -1
-1 0 1;
#X obj 230 336 tgl 16 0 \$0-bS0 \$0-bR0 empty 17 7 0 10 -125216 -1
-1 0 1;
#X obj 230 354 tgl 16 0 \$0-bS0 \$0-bR0 empty 17 7 0 10 -125216 -1
-1 0 1;
#X obj 230 372 tgl 16 0 \$0-bS0 \$0-bR0 empty 17 7 0 10 -125216 -1
-1 0 1;
#X obj 248 102 tgl 16 0 \$0-bS0 \$0-bR0 empty 17 7 0 10 -125216 -1
-1 0 1;
#X obj 248 120 tgl 16 0 \$0-bS0 \$0-bR0 empty 17 7 0 10 -125216 -1
-1 0 1;
#X obj 248 138 tgl 16 0 \$0-bS0 \$0-bR0 empty 17 7 0 10 -125216 -1
-1 0 1;
#X obj 248 156 tgl 16 0 \$0-bS0 \$0-bR0 empty 17 7 0 10 -125216 -1
-1 0 1;
#X obj 248 174 tgl 16 0 \$0-bS0 \$0-bR0 empty 17 7 0 10 -125216 -1
-1 0 1;
#X obj 248 192 tgl 16 0 \$0-bS0 \$0-bR0 empty 17 7 0 10 -125216 -1
-1 0 1;
#X obj 248 210 tgl 16 0 \$0-bS0 \$0-bR0 empty 17 7 0 10 -125216 -1
-1 0 1;
#X obj 248 228 tgl 16 0 \$0-bS0 \$0-bR0 empty 17 7 0 10 -125216 -1
-1 0 1;
#X obj 248 246 tgl 16 0 \$0-bS0 \$0-bR0 empty 17 7 0 10 -125216 -1
-1 0 1;
#X obj 248 264 tgl 16 0 \$0-bS0 \$0-bR0 empty 17 7 0 10 -125216 -1
-1 0 1;
#X obj 248 282 tgl 16 0 \$0-bS0 \$0-bR0 empty 17 7 0 10 -125216 -1
-1 0 1;
#X obj 248 300 tgl 16 0 \$0-bS0 \$0-bR0 empty 17 7 0 10 -125216 -1
-1 0 1;
#X obj 248 318 tgl 16 0 \$0-bS0 \$0-bR0 empty 17 7 0 10 -125216 -1
-1 0 1;
#X obj 248 336 tgl 16 0 \$0-bS0 \$0-bR0 empty 17 7 0 10 -125216 -1
-1 0 1;
#X obj 248 354 tgl 16 0 \$0-bS0 \$0-bR0 empty 17 7 0 10 -125216 -1
-1 0 1;
#X obj 248 372 tgl 16 0 \$0-bS0 \$0-bR0 empty 17 7 0 10 -125216 -1
-1 0 1;
#X obj 266 102 tgl 16 0 \$0-bS0 \$0-bR0 empty 17 7 0 10 -125216 -1
-1 0 1;
#X obj 266 120 tgl 16 0 \$0-bS0 \$0-bR0 empty 17 7 0 10 -125216 -1
-1 0 1;
#X obj 266 138 tgl 16 0 \$0-bS0 \$0-bR0 empty 17 7 0 10 -125216 -1
-1 0 1;
#X obj 266 156 tgl 16 0 \$0-bS0 \$0-bR0 empty 17 7 0 10 -125216 -1
-1 0 1;
#X obj 266 174 tgl 16 0 \$0-bS0 \$0-bR0 empty 17 7 0 10 -125216 -1
-1 0 1;
#X obj 266 192 tgl 16 0 \$0-bS0 \$0-bR0 empty 17 7 0 10 -125216 -1
-1 0 1;
#X obj 266 210 tgl 16 0 \$0-bS0 \$0-bR0 empty 17 7 0 10 -125216 -1
-1 0 1;
#X obj 266 228 tgl 16 0 \$0-bS0 \$0-bR0 empty 17 7 0 10 -125216 -1
-1 0 1;
#X obj 266 246 tgl 16 0 \$0-bS0 \$0-bR0 empty 17 7 0 10 -125216 -1
-1 0 1;
#X obj 266 264 tgl 16 0 \$0-bS0 \$0-bR0 empty 17 7 0 10 -125216 -1
-1 0 1;
#X obj 266 282 tgl 16 0 \$0-bS0 \$0-bR0 empty 17 7 0 10 -125216 -1
-1 0 1;
#X obj 266 300 tgl 16 0 \$0-bS0 \$0-bR0 empty 17 7 0 10 -125216 -1
-1 0 1;
#X obj 266 318 tgl 16 0 \$0-bS0 \$0-bR0 empty 17 7 0 10 -125216 -1
-1 0 1;
#X obj 266 336 tgl 16 0 \$0-bS0 \$0-bR0 empty 17 7 0 10 -125216 -1
-1 0 1;
#X obj 266 354 tgl 16 0 \$0-bS0 \$0-bR0 empty 17 7 0 10 -125216 -1
-1 0 1;
#X obj 266 372 tgl 16 0 \$0-bS0 \$0-bR0 empty 17 7 0 10 -125216 -1
-1 0 1;
#X obj 284 102 tgl 16 0 \$0-bS0 \$0-bR0 empty 17 7 0 10 -125216 -1
-1 0 1;
#X obj 284 120 tgl 16 0 \$0-bS0 \$0-bR0 empty 17 7 0 10 -125216 -1
-1 0 1;
#X obj 284 138 tgl 16 0 \$0-bS0 \$0-bR0 empty 17 7 0 10 -125216 -1
-1 0 1;
#X obj 284 156 tgl 16 0 \$0-bS0 \$0-bR0 empty 17 7 0 10 -125216 -1
-1 0 1;
#X obj 284 174 tgl 16 0 \$0-bS0 \$0-bR0 empty 17 7 0 10 -125216 -1
-1 0 1;
#X obj 284 192 tgl 16 0 \$0-bS0 \$0-bR0 empty 17 7 0 10 -125216 -1
-1 0 1;
#X obj 284 210 tgl 16 0 \$0-bS0 \$0-bR0 empty 17 7 0 10 -125216 -1
-1 0 1;
#X obj 284 228 tgl 16 0 \$0-bS0 \$0-bR0 empty 17 7 0 10 -125216 -1
-1 0 1;
#X obj 284 246 tgl 16 0 \$0-bS0 \$0-bR0 empty 17 7 0 10 -125216 -1
-1 0 1;
#X obj 284 264 tgl 16 0 \$0-bS0 \$0-bR0 empty 17 7 0 10 -125216 -1
-1 0 1;
#X obj 284 282 tgl 16 0 \$0-bS0 \$0-bR0 empty 17 7 0 10 -125216 -1
-1 0 1;
#X obj 284 300 tgl 16 0 \$0-bS0 \$0-bR0 empty 17 7 0 10 -125216 -1
-1 0 1;
#X obj 284 318 tgl 16 0 \$0-bS0 \$0-bR0 empty 17 7 0 10 -125216 -1
-1 0 1;
#X obj 284 336 tgl 16 0 \$0-bS0 \$0-bR0 empty 17 7 0 10 -125216 -1
-1 0 1;
#X obj 284 354 tgl 16 0 \$0-bS0 \$0-bR0 empty 17 7 0 10 -125216 -1
-1 0 1;
#X obj 284 372 tgl 16 0 \$0-bS0 \$0-bR0 empty 17 7 0 10 -125216 -1
-1 0 1;
#X obj 302 102 tgl 16 0 \$0-bS0 \$0-bR0 empty 17 7 0 10 -125216 -1
-1 0 1;
#X obj 302 120 tgl 16 0 \$0-bS0 \$0-bR0 empty 17 7 0 10 -125216 -1
-1 0 1;
#X obj 302 138 tgl 16 0 \$0-bS0 \$0-bR0 empty 17 7 0 10 -125216 -1
-1 0 1;
#X obj 302 156 tgl 16 0 \$0-bS0 \$0-bR0 empty 17 7 0 10 -125216 -1
-1 0 1;
#X obj 302 174 tgl 16 0 \$0-bS0 \$0-bR0 empty 17 7 0 10 -125216 -1
-1 0 1;
#X obj 302 192 tgl 16 0 \$0-bS0 \$0-bR0 empty 17 7 0 10 -125216 -1
-1 0 1;
#X obj 302 210 tgl 16 0 \$0-bS0 \$0-bR0 empty 17 7 0 10 -125216 -1
-1 0 1;
#X obj 302 228 tgl 16 0 \$0-bS0 \$0-bR0 empty 17 7 0 10 -125216 -1
-1 0 1;
#X obj 302 246 tgl 16 0 \$0-bS0 \$0-bR0 empty 17 7 0 10 -125216 -1
-1 0 1;
#X obj 302 264 tgl 16 0 \$0-bS0 \$0-bR0 empty 17 7 0 10 -125216 -1
-1 0 1;
#X obj 302 282 tgl 16 0 \$0-bS0 \$0-bR0 empty 17 7 0 10 -125216 -1
-1 0 1;
#X obj 302 300 tgl 16 0 \$0-bS0 \$0-bR0 empty 17 7 0 10 -125216 -1
-1 0 1;
#X obj 302 318 tgl 16 0 \$0-bS0 \$0-bR0 empty 17 7 0 10 -125216 -1
-1 0 1;
#X obj 302 336 tgl 16 0 \$0-bS0 \$0-bR0 empty 17 7 0 10 -125216 -1
-1 0 1;
#X obj 302 354 tgl 16 0 \$0-bS0 \$0-bR0 empty 17 7 0 10 -125216 -1
-1 0 1;
#X obj 302 372 tgl 16 0 \$0-bS0 \$0-bR0 empty 17 7 0 10 -125216 -1
-1 0 1;
#X obj 320 102 tgl 16 0 \$0-bS0 \$0-bR0 empty 17 7 0 10 -125216 -1
-1 0 1;
#X obj 320 120 tgl 16 0 \$0-bS0 \$0-bR0 empty 17 7 0 10 -125216 -1
-1 0 1;
#X obj 320 138 tgl 16 0 \$0-bS0 \$0-bR0 empty 17 7 0 10 -125216 -1
-1 0 1;
#X obj 320 156 tgl 16 0 \$0-bS0 \$0-bR0 empty 17 7 0 10 -125216 -1
-1 0 1;
#X obj 320 174 tgl 16 0 \$0-bS0 \$0-bR0 empty 17 7 0 10 -125216 -1
-1 0 1;
#X obj 320 192 tgl 16 0 \$0-bS0 \$0-bR0 empty 17 7 0 10 -125216 -1
-1 0 1;
#X obj 320 210 tgl 16 0 \$0-bS0 \$0-bR0 empty 17 7 0 10 -125216 -1
-1 0 1;
#X obj 320 228 tgl 16 0 \$0-bS0 \$0-bR0 empty 17 7 0 10 -125216 -1
-1 0 1;
#X obj 320 246 tgl 16 0 \$0-bS0 \$0-bR0 empty 17 7 0 10 -125216 -1
-1 0 1;
#X obj 320 264 tgl 16 0 \$0-bS0 \$0-bR0 empty 17 7 0 10 -125216 -1
-1 0 1;
#X obj 320 282 tgl 16 0 \$0-bS0 \$0-bR0 empty 17 7 0 10 -125216 -1
-1 0 1;
#X obj 320 300 tgl 16 0 \$0-bS0 \$0-bR0 empty 17 7 0 10 -125216 -1
-1 0 1;
#X obj 320 318 tgl 16 0 \$0-bS0 \$0-bR0 empty 17 7 0 10 -125216 -1
-1 0 1;
#X obj 320 336 tgl 16 0 \$0-bS0 \$0-bR0 empty 17 7 0 10 -125216 -1
-1 0 1;
#X obj 320 354 tgl 16 0 \$0-bS0 \$0-bR0 empty 17 7 0 10 -125216 -1
-1 0 1;
#X obj 320 372 tgl 16 0 \$0-bS0 \$0-bR0 empty 17 7 0 10 -125216 -1
-1 0 1;
#X obj 338 102 tgl 16 0 \$0-bS0 \$0-bR0 empty 17 7 0 10 -125216 -1
-1 0 1;
#X obj 338 120 tgl 16 0 \$0-bS0 \$0-bR0 empty 17 7 0 10 -125216 -1
-1 0 1;
#X obj 338 138 tgl 16 0 \$0-bS0 \$0-bR0 empty 17 7 0 10 -125216 -1
-1 0 1;
#X obj 338 156 tgl 16 0 \$0-bS0 \$0-bR0 empty 17 7 0 10 -125216 -1
-1 0 1;
#X obj 338 174 tgl 16 0 \$0-bS0 \$0-bR0 empty 17 7 0 10 -125216 -1
-1 0 1;
#X obj 338 192 tgl 16 0 \$0-bS0 \$0-bR0 empty 17 7 0 10 -125216 -1
-1 0 1;
#X obj 338 210 tgl 16 0 \$0-bS0 \$0-bR0 empty 17 7 0 10 -125216 -1
-1 0 1;
#X obj 338 228 tgl 16 0 \$0-bS0 \$0-bR0 empty 17 7 0 10 -125216 -1
-1 0 1;
#X obj 338 246 tgl 16 0 \$0-bS0 \$0-bR0 empty 17 7 0 10 -125216 -1
-1 0 1;
#X obj 338 264 tgl 16 0 \$0-bS0 \$0-bR0 empty 17 7 0 10 -125216 -1
-1 0 1;
#X obj 338 282 tgl 16 0 \$0-bS0 \$0-bR0 empty 17 7 0 10 -125216 -1
-1 0 1;
#X obj 338 300 tgl 16 0 \$0-bS0 \$0-bR0 empty 17 7 0 10 -125216 -1
-1 0 1;
#X obj 338 318 tgl 16 0 \$0-bS0 \$0-bR0 empty 17 7 0 10 -125216 -1
-1 0 1;
#X obj 338 336 tgl 16 0 \$0-bS0 \$0-bR0 empty 17 7 0 10 -125216 -1
-1 0 1;
#X obj 338 354 tgl 16 0 \$0-bS0 \$0-bR0 empty 17 7 0 10 -125216 -1
-1 0 1;
#X obj 338 372 tgl 16 0 \$0-bS0 \$0-bR0 empty 17 7 0 10 -125216 -1
-1 0 1;
#X obj 356 102 tgl 16 0 \$0-bS0 \$0-bR0 empty 17 7 0 10 -125216 -1
-1 0 1;
#X obj 356 120 tgl 16 0 \$0-bS0 \$0-bR0 empty 17 7 0 10 -125216 -1
-1 0 1;
#X obj 356 138 tgl 16 0 \$0-bS0 \$0-bR0 empty 17 7 0 10 -125216 -1
-1 0 1;
#X obj 356 156 tgl 16 0 \$0-bS0 \$0-bR0 empty 17 7 0 10 -125216 -1
-1 0 1;
#X obj 356 174 tgl 16 0 \$0-bS0 \$0-bR0 empty 17 7 0 10 -125216 -1
-1 0 1;
#X obj 356 192 tgl 16 0 \$0-bS0 \$0-bR0 empty 17 7 0 10 -125216 -1
-1 0 1;
#X obj 356 210 tgl 16 0 \$0-bS0 \$0-bR0 empty 17 7 0 10 -125216 -1
-1 0 1;
#X obj 356 228 tgl 16 0 \$0-bS0 \$0-bR0 empty 17 7 0 10 -125216 -1
-1 0 1;
#X obj 356 246 tgl 16 0 \$0-bS0 \$0-bR0 empty 17 7 0 10 -125216 -1
-1 0 1;
#X obj 356 264 tgl 16 0 \$0-bS0 \$0-bR0 empty 17 7 0 10 -125216 -1
-1 0 1;
#X obj 356 282 tgl 16 0 \$0-bS0 \$0-bR0 empty 17 7 0 10 -125216 -1
-1 0 1;
#X obj 356 300 tgl 16 0 \$0-bS0 \$0-bR0 empty 17 7 0 10 -125216 -1
-1 0 1;
#X obj 356 318 tgl 16 0 \$0-bS0 \$0-bR0 empty 17 7 0 10 -125216 -1
-1 0 1;
#X obj 356 336 tgl 16 0 \$0-bS0 \$0-bR0 empty 17 7 0 10 -125216 -1
-1 0 1;
#X obj 356 354 tgl 16 0 \$0-bS0 \$0-bR0 empty 17 7 0 10 -125216 -1
-1 0 1;
#X obj 356 372 tgl 16 0 \$0-bS0 \$0-bR0 empty 17 7 0 10 -125216 -1
-1 0 1;
#X obj 374 102 tgl 16 0 \$0-bS0 \$0-bR0 empty 17 7 0 10 -125216 -1
-1 0 1;
#X obj 374 120 tgl 16 0 \$0-bS0 \$0-bR0 empty 17 7 0 10 -125216 -1
-1 0 1;
#X obj 374 138 tgl 16 0 \$0-bS0 \$0-bR0 empty 17 7 0 10 -125216 -1
-1 0 1;
#X obj 374 156 tgl 16 0 \$0-bS0 \$0-bR0 empty 17 7 0 10 -125216 -1
-1 0 1;
#X obj 374 174 tgl 16 0 \$0-bS0 \$0-bR0 empty 17 7 0 10 -125216 -1
-1 0 1;
#X obj 374 192 tgl 16 0 \$0-bS0 \$0-bR0 empty 17 7 0 10 -125216 -1
-1 0 1;
#X obj 374 210 tgl 16 0 \$0-bS0 \$0-bR0 empty 17 7 0 10 -125216 -1
-1 0 1;
#X obj 374 228 tgl 16 0 \$0-bS0 \$0-bR0 empty 17 7 0 10 -125216 -1
-1 0 1;
#X obj 374 246 tgl 16 0 \$0-bS0 \$0-bR0 empty 17 7 0 10 -125216 -1
-1 0 1;
#X obj 374 264 tgl 16 0 \$0-bS0 \$0-bR0 empty 17 7 0 10 -125216 -1
-1 0 1;
#X obj 374 282 tgl 16 0 \$0-bS0 \$0-bR0 empty 17 7 0 10 -125216 -1
-1 0 1;
#X obj 374 300 tgl 16 0 \$0-bS0 \$0-bR0 empty 17 7 0 10 -125216 -1
-1 0 1;
#X obj 374 318 tgl 16 0 \$0-bS0 \$0-bR0 empty 17 7 0 10 -125216 -1
-1 0 1;
#X obj 374 336 tgl 16 0 \$0-bS0 \$0-bR0 empty 17 7 0 10 -125216 -1
-1 0 1;
#X obj 374 354 tgl 16 0 \$0-bS0 \$0-bR0 empty 17 7 0 10 -125216 -1
-1 0 1;
#X obj 374 372 tgl 16 0 \$0-bS0 \$0-bR0 empty 17 7 0 10 -125216 -1
-1 0 1;
#X obj 392 102 tgl 16 0 \$0-bS0 \$0-bR0 empty 17 7 0 10 -125216 -1
-1 0 1;
#X obj 392 120 tgl 16 0 \$0-bS0 \$0-bR0 empty 17 7 0 10 -125216 -1
-1 0 1;
#X obj 392 138 tgl 16 0 \$0-bS0 \$0-bR0 empty 17 7 0 10 -125216 -1
-1 0 1;
#X obj 392 156 tgl 16 0 \$0-bS0 \$0-bR0 empty 17 7 0 10 -125216 -1
-1 0 1;
#X obj 392 174 tgl 16 0 \$0-bS0 \$0-bR0 empty 17 7 0 10 -125216 -1
-1 0 1;
#X obj 392 192 tgl 16 0 \$0-bS0 \$0-bR0 empty 17 7 0 10 -125216 -1
-1 0 1;
#X obj 392 210 tgl 16 0 \$0-bS0 \$0-bR0 empty 17 7 0 10 -125216 -1
-1 0 1;
#X obj 392 228 tgl 16 0 \$0-bS0 \$0-bR0 empty 17 7 0 10 -125216 -1
-1 0 1;
#X obj 392 246 tgl 16 0 \$0-bS0 \$0-bR0 empty 17 7 0 10 -125216 -1
-1 0 1;
#X obj 392 264 tgl 16 0 \$0-bS0 \$0-bR0 empty 17 7 0 10 -125216 -1
-1 0 1;
#X obj 392 282 tgl 16 0 \$0-bS0 \$0-bR0 empty 17 7 0 10 -125216 -1
-1 0 1;
#X obj 392 300 tgl 16 0 \$0-bS0 \$0-bR0 empty 17 7 0 10 -125216 -1
-1 0 1;
#X obj 392 318 tgl 16 0 \$0-bS0 \$0-bR0 empty 17 7 0 10 -125216 -1
-1 0 1;
#X obj 392 336 tgl 16 0 \$0-bS0 \$0-bR0 empty 17 7 0 10 -125216 -1
-1 0 1;
#X obj 392 354 tgl 16 0 \$0-bS0 \$0-bR0 empty 17 7 0 10 -125216 -1
-1 0 1;
#X obj 392 372 tgl 16 0 \$0-bS0 \$0-bR0 empty 17 7 0 10 -125216 -1
-1 0 1;
#X obj 410 102 tgl 16 0 \$0-bS0 \$0-bR0 empty 17 7 0 10 -125216 -1
-1 0 1;
#X obj 410 120 tgl 16 0 \$0-bS0 \$0-bR0 empty 17 7 0 10 -125216 -1
-1 0 1;
#X obj 410 138 tgl 16 0 \$0-bS0 \$0-bR0 empty 17 7 0 10 -125216 -1
-1 0 1;
#X obj 410 156 tgl 16 0 \$0-bS0 \$0-bR0 empty 17 7 0 10 -125216 -1
-1 0 1;
#X obj 410 174 tgl 16 0 \$0-bS0 \$0-bR0 empty 17 7 0 10 -125216 -1
-1 0 1;
#X obj 410 192 tgl 16 0 \$0-bS0 \$0-bR0 empty 17 7 0 10 -125216 -1
-1 0 1;
#X obj 410 210 tgl 16 0 \$0-bS0 \$0-bR0 empty 17 7 0 10 -125216 -1
-1 0 1;
#X obj 410 228 tgl 16 0 \$0-bS0 \$0-bR0 empty 17 7 0 10 -125216 -1
-1 0 1;
#X obj 410 246 tgl 16 0 \$0-bS0 \$0-bR0 empty 17 7 0 10 -125216 -1
-1 0 1;
#X obj 410 264 tgl 16 0 \$0-bS0 \$0-bR0 empty 17 7 0 10 -125216 -1
-1 0 1;
#X obj 410 282 tgl 16 0 \$0-bS0 \$0-bR0 empty 17 7 0 10 -125216 -1
-1 0 1;
#X obj 410 300 tgl 16 0 \$0-bS0 \$0-bR0 empty 17 7 0 10 -125216 -1
-1 0 1;
#X obj 410 318 tgl 16 0 \$0-bS0 \$0-bR0 empty 17 7 0 10 -125216 -1
-1 0 1;
#X obj 410 336 tgl 16 0 \$0-bS0 \$0-bR0 empty 17 7 0 10 -125216 -1
-1 0 1;
#X obj 410 354 tgl 16 0 \$0-bS0 \$0-bR0 empty 17 7 0 10 -125216 -1
-1 0 1;
#X obj 410 372 tgl 16 0 \$0-bS0 \$0-bR0 empty 17 7 0 10 -125216 -1
-1 0 1;
#X obj 428 102 tgl 16 0 \$0-bS0 \$0-bR0 empty 17 7 0 10 -125216 -1
-1 0 1;
#X obj 428 120 tgl 16 0 \$0-bS0 \$0-bR0 empty 17 7 0 10 -125216 -1
-1 0 1;
#X obj 428 138 tgl 16 0 \$0-bS0 \$0-bR0 empty 17 7 0 10 -125216 -1
-1 0 1;
#X obj 428 156 tgl 16 0 \$0-bS0 \$0-bR0 empty 17 7 0 10 -125216 -1
-1 0 1;
#X obj 428 174 tgl 16 0 \$0-bS0 \$0-bR0 empty 17 7 0 10 -125216 -1
-1 0 1;
#X obj 428 192 tgl 16 0 \$0-bS0 \$0-bR0 empty 17 7 0 10 -125216 -1
-1 0 1;
#X obj 428 210 tgl 16 0 \$0-bS0 \$0-bR0 empty 17 7 0 10 -125216 -1
-1 0 1;
#X obj 428 228 tgl 16 0 \$0-bS0 \$0-bR0 empty 17 7 0 10 -125216 -1
-1 0 1;
#X obj 428 246 tgl 16 0 \$0-bS0 \$0-bR0 empty 17 7 0 10 -125216 -1
-1 0 1;
#X obj 428 264 tgl 16 0 \$0-bS0 \$0-bR0 empty 17 7 0 10 -125216 -1
-1 0 1;
#X obj 428 282 tgl 16 0 \$0-bS0 \$0-bR0 empty 17 7 0 10 -125216 -1
-1 0 1;
#X obj 428 300 tgl 16 0 \$0-bS0 \$0-bR0 empty 17 7 0 10 -125216 -1
-1 0 1;
#X obj 428 318 tgl 16 0 \$0-bS0 \$0-bR0 empty 17 7 0 10 -125216 -1
-1 0 1;
#X obj 428 336 tgl 16 0 \$0-bS0 \$0-bR0 empty 17 7 0 10 -125216 -1
-1 0 1;
#X obj 428 354 tgl 16 0 \$0-bS0 \$0-bR0 empty 17 7 0 10 -125216 -1
-1 0 1;
#X obj 428 372 tgl 16 0 \$0-bS0 \$0-bR0 empty 17 7 0 10 -125216 -1
-1 0 1;
#X obj 446 102 tgl 16 0 \$0-bS0 \$0-bR0 empty 17 7 0 10 -125216 -1
-1 0 1;
#X obj 446 120 tgl 16 0 \$0-bS0 \$0-bR0 empty 17 7 0 10 -125216 -1
-1 0 1;
#X obj 446 138 tgl 16 0 \$0-bS0 \$0-bR0 empty 17 7 0 10 -125216 -1
-1 0 1;
#X obj 446 156 tgl 16 0 \$0-bS0 \$0-bR0 empty 17 7 0 10 -125216 -1
-1 0 1;
#X obj 446 174 tgl 16 0 \$0-bS0 \$0-bR0 empty 17 7 0 10 -125216 -1
-1 0 1;
#X obj 446 192 tgl 16 0 \$0-bS0 \$0-bR0 empty 17 7 0 10 -125216 -1
-1 0 1;
#X obj 446 210 tgl 16 0 \$0-bS0 \$0-bR0 empty 17 7 0 10 -125216 -1
-1 0 1;
#X obj 446 228 tgl 16 0 \$0-bS0 \$0-bR0 empty 17 7 0 10 -125216 -1
-1 0 1;
#X obj 446 246 tgl 16 0 \$0-bS0 \$0-bR0 empty 17 7 0 10 -125216 -1
-1 0 1;
#X obj 446 264 tgl 16 0 \$0-bS0 \$0-bR0 empty 17 7 0 10 -125216 -1
-1 0 1;
#X obj 446 282 tgl 16 0 \$0-bS0 \$0-bR0 empty 17 7 0 10 -125216 -1
-1 0 1;
#X obj 446 300 tgl 16 0 \$0-bS0 \$0-bR0 empty 17 7 0 10 -125216 -1
-1 0 1;
#X obj 446 318 tgl 16 0 \$0-bS0 \$0-bR0 empty 17 7 0 10 -125216 -1
-1 0 1;
#X obj 446 336 tgl 16 0 \$0-bS0 \$0-bR0 empty 17 7 0 10 -125216 -1
-1 0 1;
#X obj 446 354 tgl 16 0 \$0-bS0 \$0-bR0 empty 17 7 0 10 -125216 -1
-1 0 1;
#X obj 446 372 tgl 16 0 \$0-bS0 \$0-bR0 empty 17 7 0 10 -125216 -1
-1 0 1;
#X obj 464 102 tgl 16 0 \$0-bS0 \$0-bR0 empty 17 7 0 10 -125216 -1
-1 0 1;
#X obj 464 120 tgl 16 0 \$0-bS0 \$0-bR0 empty 17 7 0 10 -125216 -1
-1 0 1;
#X obj 464 138 tgl 16 0 \$0-bS0 \$0-bR0 empty 17 7 0 10 -125216 -1
-1 0 1;
#X obj 464 156 tgl 16 0 \$0-bS0 \$0-bR0 empty 17 7 0 10 -125216 -1
-1 0 1;
#X obj 464 174 tgl 16 0 \$0-bS0 \$0-bR0 empty 17 7 0 10 -125216 -1
-1 0 1;
#X obj 464 192 tgl 16 0 \$0-bS0 \$0-bR0 empty 17 7 0 10 -125216 -1
-1 0 1;
#X obj 464 210 tgl 16 0 \$0-bS0 \$0-bR0 empty 17 7 0 10 -125216 -1
-1 0 1;
#X obj 464 228 tgl 16 0 \$0-bS0 \$0-bR0 empty 17 7 0 10 -125216 -1
-1 0 1;
#X obj 464 246 tgl 16 0 \$0-bS0 \$0-bR0 empty 17 7 0 10 -125216 -1
-1 0 1;
#X obj 464 264 tgl 16 0 \$0-bS0 \$0-bR0 empty 17 7 0 10 -125216 -1
-1 0 1;
#X obj 464 282 tgl 16 0 \$0-bS0 \$0-bR0 empty 17 7 0 10 -125216 -1
-1 0 1;
#X obj 464 300 tgl 16 0 \$0-bS0 \$0-bR0 empty 17 7 0 10 -125216 -1
-1 0 1;
#X obj 464 318 tgl 16 0 \$0-bS0 \$0-bR0 empty 17 7 0 10 -125216 -1
-1 0 1;
#X obj 464 336 tgl 16 0 \$0-bS0 \$0-bR0 empty 17 7 0 10 -125216 -1
-1 0 1;
#X obj 464 354 tgl 16 0 \$0-bS0 \$0-bR0 empty 17 7 0 10 -125216 -1
-1 0 1;
#X obj 464 372 tgl 16 0 \$0-bS0 \$0-bR0 empty 17 7 0 10 -125216 -1
-1 0 1;
#X obj 482 102 tgl 16 0 \$0-bS0 \$0-bR0 empty 17 7 0 10 -125216 -1
-1 0 1;
#X obj 482 120 tgl 16 0 \$0-bS0 \$0-bR0 empty 17 7 0 10 -125216 -1
-1 0 1;
#X obj 482 138 tgl 16 0 \$0-bS0 \$0-bR0 empty 17 7 0 10 -125216 -1
-1 0 1;
#X obj 482 156 tgl 16 0 \$0-bS0 \$0-bR0 empty 17 7 0 10 -125216 -1
-1 0 1;
#X obj 482 174 tgl 16 0 \$0-bS0 \$0-bR0 empty 17 7 0 10 -125216 -1
-1 0 1;
#X obj 482 192 tgl 16 0 \$0-bS0 \$0-bR0 empty 17 7 0 10 -125216 -1
-1 0 1;
#X obj 482 210 tgl 16 0 \$0-bS0 \$0-bR0 empty 17 7 0 10 -125216 -1
-1 0 1;
#X obj 482 228 tgl 16 0 \$0-bS0 \$0-bR0 empty 17 7 0 10 -125216 -1
-1 0 1;
#X obj 482 246 tgl 16 0 \$0-bS0 \$0-bR0 empty 17 7 0 10 -125216 -1
-1 0 1;
#X obj 482 264 tgl 16 0 \$0-bS0 \$0-bR0 empty 17 7 0 10 -125216 -1
-1 0 1;
#X obj 482 282 tgl 16 0 \$0-bS0 \$0-bR0 empty 17 7 0 10 -125216 -1
-1 0 1;
#X obj 482 300 tgl 16 0 \$0-bS0 \$0-bR0 empty 17 7 0 10 -125216 -1
-1 0 1;
#X obj 482 318 tgl 16 0 \$0-bS0 \$0-bR0 empty 17 7 0 10 -125216 -1
-1 0 1;
#X obj 482 336 tgl 16 0 \$0-bS0 \$0-bR0 empty 17 7 0 10 -125216 -1
-1 0 1;
#X obj 482 354 tgl 16 0 \$0-bS0 \$0-bR0 empty 17 7 0 10 -125216 -1
-1 0 1;
#X obj 482 372 tgl 16 0 \$0-bS0 \$0-bR0 empty 17 7 0 10 -125216 -1
-1 0 1;
#X obj 500 102 tgl 16 0 \$0-bS0 \$0-bR0 empty 17 7 0 10 -125216 -1
-1 0 1;
#X obj 500 120 tgl 16 0 \$0-bS0 \$0-bR0 empty 17 7 0 10 -125216 -1
-1 0 1;
#X obj 500 138 tgl 16 0 \$0-bS0 \$0-bR0 empty 17 7 0 10 -125216 -1
-1 0 1;
#X obj 500 156 tgl 16 0 \$0-bS0 \$0-bR0 empty 17 7 0 10 -125216 -1
-1 0 1;
#X obj 500 174 tgl 16 0 \$0-bS0 \$0-bR0 empty 17 7 0 10 -125216 -1
-1 0 1;
#X obj 500 192 tgl 16 0 \$0-bS0 \$0-bR0 empty 17 7 0 10 -125216 -1
-1 0 1;
#X obj 500 210 tgl 16 0 \$0-bS0 \$0-bR0 empty 17 7 0 10 -125216 -1
-1 0 1;
#X obj 500 228 tgl 16 0 \$0-bS0 \$0-bR0 empty 17 7 0 10 -125216 -1
-1 0 1;
#X obj 500 246 tgl 16 0 \$0-bS0 \$0-bR0 empty 17 7 0 10 -125216 -1
-1 0 1;
#X obj 500 264 tgl 16 0 \$0-bS0 \$0-bR0 empty 17 7 0 10 -125216 -1
-1 0 1;
#X obj 500 282 tgl 16 0 \$0-bS0 \$0-bR0 empty 17 7 0 10 -125216 -1
-1 0 1;
#X obj 500 300 tgl 16 0 \$0-bS0 \$0-bR0 empty 17 7 0 10 -125216 -1
-1 0 1;
#X obj 500 318 tgl 16 0 \$0-bS0 \$0-bR0 empty 17 7 0 10 -125216 -1
-1 0 1;
#X obj 500 336 tgl 16 0 \$0-bS0 \$0-bR0 empty 17 7 0 10 -125216 -1
-1 0 1;
#X obj 500 354 tgl 16 0 \$0-bS0 \$0-bR0 empty 17 7 0 10 -125216 -1
-1 0 1;
#X obj 500 372 tgl 16 0 \$0-bS0 \$0-bR0 empty 17 7 0 10 -125216 -1
-1 0 1;
#X obj 518 102 tgl 16 0 \$0-bS0 \$0-bR0 empty 17 7 0 10 -125216 -1
-1 0 1;
#X obj 518 120 tgl 16 0 \$0-bS0 \$0-bR0 empty 17 7 0 10 -125216 -1
-1 0 1;
#X obj 518 138 tgl 16 0 \$0-bS0 \$0-bR0 empty 17 7 0 10 -125216 -1
-1 0 1;
#X obj 518 156 tgl 16 0 \$0-bS0 \$0-bR0 empty 17 7 0 10 -125216 -1
-1 0 1;
#X obj 518 174 tgl 16 0 \$0-bS0 \$0-bR0 empty 17 7 0 10 -125216 -1
-1 0 1;
#X obj 518 192 tgl 16 0 \$0-bS0 \$0-bR0 empty 17 7 0 10 -125216 -1
-1 0 1;
#X obj 518 210 tgl 16 0 \$0-bS0 \$0-bR0 empty 17 7 0 10 -125216 -1
-1 0 1;
#X obj 518 228 tgl 16 0 \$0-bS0 \$0-bR0 empty 17 7 0 10 -125216 -1
-1 0 1;
#X obj 518 246 tgl 16 0 \$0-bS0 \$0-bR0 empty 17 7 0 10 -125216 -1
-1 0 1;
#X obj 518 264 tgl 16 0 \$0-bS0 \$0-bR0 empty 17 7 0 10 -125216 -1
-1 0 1;
#X obj 518 282 tgl 16 0 \$0-bS0 \$0-bR0 empty 17 7 0 10 -125216 -1
-1 0 1;
#X obj 518 300 tgl 16 0 \$0-bS0 \$0-bR0 empty 17 7 0 10 -125216 -1
-1 0 1;
#X obj 518 318 tgl 16 0 \$0-bS0 \$0-bR0 empty 17 7 0 10 -125216 -1
-1 0 1;
#X obj 518 336 tgl 16 0 \$0-bS0 \$0-bR0 empty 17 7 0 10 -125216 -1
-1 0 1;
#X obj 518 354 tgl 16 0 \$0-bS0 \$0-bR0 empty 17 7 0 10 -125216 -1
-1 0 1;
#X obj 518 372 tgl 16 0 \$0-bS0 \$0-bR0 empty 17 7 0 10 -125216 -1
-1 0 1;
#X obj 536 102 tgl 16 0 \$0-bS0 \$0-bR0 empty 17 7 0 10 -125216 -1
-1 0 1;
#X obj 536 120 tgl 16 0 \$0-bS0 \$0-bR0 empty 17 7 0 10 -125216 -1
-1 0 1;
#X obj 536 138 tgl 16 0 \$0-bS0 \$0-bR0 empty 17 7 0 10 -125216 -1
-1 0 1;
#X obj 536 156 tgl 16 0 \$0-bS0 \$0-bR0 empty 17 7 0 10 -125216 -1
-1 0 1;
#X obj 536 174 tgl 16 0 \$0-bS0 \$0-bR0 empty 17 7 0 10 -125216 -1
-1 0 1;
#X obj 536 192 tgl 16 0 \$0-bS0 \$0-bR0 empty 17 7 0 10 -125216 -1
-1 0 1;
#X obj 536 210 tgl 16 0 \$0-bS0 \$0-bR0 empty 17 7 0 10 -125216 -1
-1 0 1;
#X obj 536 228 tgl 16 0 \$0-bS0 \$0-bR0 empty 17 7 0 10 -125216 -1
-1 0 1;
#X obj 536 246 tgl 16 0 \$0-bS0 \$0-bR0 empty 17 7 0 10 -125216 -1
-1 0 1;
#X obj 536 264 tgl 16 0 \$0-bS0 \$0-bR0 empty 17 7 0 10 -125216 -1
-1 0 1;
#X obj 536 282 tgl 16 0 \$0-bS0 \$0-bR0 empty 17 7 0 10 -125216 -1
-1 0 1;
#X obj 536 300 tgl 16 0 \$0-bS0 \$0-bR0 empty 17 7 0 10 -125216 -1
-1 0 1;
#X obj 536 318 tgl 16 0 \$0-bS0 \$0-bR0 empty 17 7 0 10 -125216 -1
-1 0 1;
#X obj 536 336 tgl 16 0 \$0-bS0 \$0-bR0 empty 17 7 0 10 -125216 -1
-1 0 1;
#X obj 536 354 tgl 16 0 \$0-bS0 \$0-bR0 empty 17 7 0 10 -125216 -1
-1 0 1;
#X obj 536 372 tgl 16 0 \$0-bS0 \$0-bR0 empty 17 7 0 10 -125216 -1
-1 0 1;
#X obj 554 102 tgl 16 0 \$0-bS0 \$0-bR0 empty 17 7 0 10 -125216 -1
-1 0 1;
#X obj 554 120 tgl 16 0 \$0-bS0 \$0-bR0 empty 17 7 0 10 -125216 -1
-1 0 1;
#X obj 554 138 tgl 16 0 \$0-bS0 \$0-bR0 empty 17 7 0 10 -125216 -1
-1 0 1;
#X obj 554 156 tgl 16 0 \$0-bS0 \$0-bR0 empty 17 7 0 10 -125216 -1
-1 0 1;
#X obj 554 174 tgl 16 0 \$0-bS0 \$0-bR0 empty 17 7 0 10 -125216 -1
-1 0 1;
#X obj 554 192 tgl 16 0 \$0-bS0 \$0-bR0 empty 17 7 0 10 -125216 -1
-1 0 1;
#X obj 554 210 tgl 16 0 \$0-bS0 \$0-bR0 empty 17 7 0 10 -125216 -1
-1 0 1;
#X obj 554 228 tgl 16 0 \$0-bS0 \$0-bR0 empty 17 7 0 10 -125216 -1
-1 0 1;
#X obj 554 246 tgl 16 0 \$0-bS0 \$0-bR0 empty 17 7 0 10 -125216 -1
-1 0 1;
#X obj 554 264 tgl 16 0 \$0-bS0 \$0-bR0 empty 17 7 0 10 -125216 -1
-1 0 1;
#X obj 554 282 tgl 16 0 \$0-bS0 \$0-bR0 empty 17 7 0 10 -125216 -1
-1 0 1;
#X obj 554 300 tgl 16 0 \$0-bS0 \$0-bR0 empty 17 7 0 10 -125216 -1
-1 0 1;
#X obj 554 318 tgl 16 0 \$0-bS0 \$0-bR0 empty 17 7 0 10 -125216 -1
-1 0 1;
#X obj 554 336 tgl 16 0 \$0-bS0 \$0-bR0 empty 17 7 0 10 -125216 -1
-1 0 1;
#X obj 554 354 tgl 16 0 \$0-bS0 \$0-bR0 empty 17 7 0 10 -125216 -1
-1 0 1;
#X obj 554 372 tgl 16 0 \$0-bS0 \$0-bR0 empty 17 7 0 10 -125216 -1
-1 0 1;
#X obj 572 102 tgl 16 0 \$0-bS0 \$0-bR0 empty 17 7 0 10 -125216 -1
-1 0 1;
#X obj 572 120 tgl 16 0 \$0-bS0 \$0-bR0 empty 17 7 0 10 -125216 -1
-1 0 1;
#X obj 572 138 tgl 16 0 \$0-bS0 \$0-bR0 empty 17 7 0 10 -125216 -1
-1 0 1;
#X obj 572 156 tgl 16 0 \$0-bS0 \$0-bR0 empty 17 7 0 10 -125216 -1
-1 0 1;
#X obj 572 174 tgl 16 0 \$0-bS0 \$0-bR0 empty 17 7 0 10 -125216 -1
-1 0 1;
#X obj 572 192 tgl 16 0 \$0-bS0 \$0-bR0 empty 17 7 0 10 -125216 -1
-1 0 1;
#X obj 572 210 tgl 16 0 \$0-bS0 \$0-bR0 empty 17 7 0 10 -125216 -1
-1 0 1;
#X obj 572 228 tgl 16 0 \$0-bS0 \$0-bR0 empty 17 7 0 10 -125216 -1
-1 0 1;
#X obj 572 246 tgl 16 0 \$0-bS0 \$0-bR0 empty 17 7 0 10 -125216 -1
-1 0 1;
#X obj 572 264 tgl 16 0 \$0-bS0 \$0-bR0 empty 17 7 0 10 -125216 -1
-1 0 1;
#X obj 572 282 tgl 16 0 \$0-bS0 \$0-bR0 empty 17 7 0 10 -125216 -1
-1 0 1;
#X obj 572 300 tgl 16 0 \$0-bS0 \$0-bR0 empty 17 7 0 10 -125216 -1
-1 0 1;
#X obj 572 318 tgl 16 0 \$0-bS0 \$0-bR0 empty 17 7 0 10 -125216 -1
-1 0 1;
#X obj 572 336 tgl 16 0 \$0-bS0 \$0-bR0 empty 17 7 0 10 -125216 -1
-1 0 1;
#X obj 572 354 tgl 16 0 \$0-bS0 \$0-bR0 empty 17 7 0 10 -125216 -1
-1 0 1;
#X obj 572 372 tgl 16 0 \$0-bS0 \$0-bR0 empty 17 7 0 10 -125216 -1
-1 0 1;
#X obj 590 102 tgl 16 0 \$0-bS0 \$0-bR0 empty 17 7 0 10 -125216 -1
-1 0 1;
#X obj 590 120 tgl 16 0 \$0-bS0 \$0-bR0 empty 17 7 0 10 -125216 -1
-1 0 1;
#X obj 590 138 tgl 16 0 \$0-bS0 \$0-bR0 empty 17 7 0 10 -125216 -1
-1 0 1;
#X obj 590 156 tgl 16 0 \$0-bS0 \$0-bR0 empty 17 7 0 10 -125216 -1
-1 0 1;
#X obj 590 174 tgl 16 0 \$0-bS0 \$0-bR0 empty 17 7 0 10 -125216 -1
-1 0 1;
#X obj 590 192 tgl 16 0 \$0-bS0 \$0-bR0 empty 17 7 0 10 -125216 -1
-1 0 1;
#X obj 590 210 tgl 16 0 \$0-bS0 \$0-bR0 empty 17 7 0 10 -125216 -1
-1 0 1;
#X obj 590 228 tgl 16 0 \$0-bS0 \$0-bR0 empty 17 7 0 10 -125216 -1
-1 0 1;
#X obj 590 246 tgl 16 0 \$0-bS0 \$0-bR0 empty 17 7 0 10 -125216 -1
-1 0 1;
#X obj 590 264 tgl 16 0 \$0-bS0 \$0-bR0 empty 17 7 0 10 -125216 -1
-1 0 1;
#X obj 590 282 tgl 16 0 \$0-bS0 \$0-bR0 empty 17 7 0 10 -125216 -1
-1 0 1;
#X obj 590 300 tgl 16 0 \$0-bS0 \$0-bR0 empty 17 7 0 10 -125216 -1
-1 0 1;
#X obj 590 318 tgl 16 0 \$0-bS0 \$0-bR0 empty 17 7 0 10 -125216 -1
-1 0 1;
#X obj 590 336 tgl 16 0 \$0-bS0 \$0-bR0 empty 17 7 0 10 -125216 -1
-1 0 1;
#X obj 590 354 tgl 16 0 \$0-bS0 \$0-bR0 empty 17 7 0 10 -125216 -1
-1 0 1;
#X obj 590 372 tgl 16 0 \$0-bS0 \$0-bR0 empty 17 7 0 10 -125216 -1
-1 0 1;
#X obj 608 102 tgl 16 0 \$0-bS0 \$0-bR0 empty 17 7 0 10 -125216 -1
-1 0 1;
#X obj 608 120 tgl 16 0 \$0-bS0 \$0-bR0 empty 17 7 0 10 -125216 -1
-1 0 1;
#X obj 608 138 tgl 16 0 \$0-bS0 \$0-bR0 empty 17 7 0 10 -125216 -1
-1 0 1;
#X obj 608 156 tgl 16 0 \$0-bS0 \$0-bR0 empty 17 7 0 10 -125216 -1
-1 0 1;
#X obj 608 174 tgl 16 0 \$0-bS0 \$0-bR0 empty 17 7 0 10 -125216 -1
-1 0 1;
#X obj 608 192 tgl 16 0 \$0-bS0 \$0-bR0 empty 17 7 0 10 -125216 -1
-1 0 1;
#X obj 608 210 tgl 16 0 \$0-bS0 \$0-bR0 empty 17 7 0 10 -125216 -1
-1 0 1;
#X obj 608 228 tgl 16 0 \$0-bS0 \$0-bR0 empty 17 7 0 10 -125216 -1
-1 0 1;
#X obj 608 246 tgl 16 0 \$0-bS0 \$0-bR0 empty 17 7 0 10 -125216 -1
-1 0 1;
#X obj 608 264 tgl 16 0 \$0-bS0 \$0-bR0 empty 17 7 0 10 -125216 -1
-1 0 1;
#X obj 608 282 tgl 16 0 \$0-bS0 \$0-bR0 empty 17 7 0 10 -125216 -1
-1 0 1;
#X obj 608 300 tgl 16 0 \$0-bS0 \$0-bR0 empty 17 7 0 10 -125216 -1
-1 0 1;
#X obj 608 318 tgl 16 0 \$0-bS0 \$0-bR0 empty 17 7 0 10 -125216 -1
-1 0 1;
#X obj 608 336 tgl 16 0 \$0-bS0 \$0-bR0 empty 17 7 0 10 -125216 -1
-1 0 1;
#X obj 608 354 tgl 16 0 \$0-bS0 \$0-bR0 empty 17 7 0 10 -125216 -1
-1 0 1;
#X obj 608 372 tgl 16 0 \$0-bS0 \$0-bR0 empty 17 7 0 10 -125216 -1
-1 0 1;
#X obj 626 102 tgl 16 0 \$0-bS0 \$0-bR0 empty 17 7 0 10 -125216 -1
-1 0 1;
#X obj 626 120 tgl 16 0 \$0-bS0 \$0-bR0 empty 17 7 0 10 -125216 -1
-1 0 1;
#X obj 626 138 tgl 16 0 \$0-bS0 \$0-bR0 empty 17 7 0 10 -125216 -1
-1 0 1;
#X obj 626 156 tgl 16 0 \$0-bS0 \$0-bR0 empty 17 7 0 10 -125216 -1
-1 0 1;
#X obj 626 174 tgl 16 0 \$0-bS0 \$0-bR0 empty 17 7 0 10 -125216 -1
-1 0 1;
#X obj 626 192 tgl 16 0 \$0-bS0 \$0-bR0 empty 17 7 0 10 -125216 -1
-1 0 1;
#X obj 626 210 tgl 16 0 \$0-bS0 \$0-bR0 empty 17 7 0 10 -125216 -1
-1 0 1;
#X obj 626 228 tgl 16 0 \$0-bS0 \$0-bR0 empty 17 7 0 10 -125216 -1
-1 0 1;
#X obj 626 246 tgl 16 0 \$0-bS0 \$0-bR0 empty 17 7 0 10 -125216 -1
-1 0 1;
#X obj 626 264 tgl 16 0 \$0-bS0 \$0-bR0 empty 17 7 0 10 -125216 -1
-1 0 1;
#X obj 626 282 tgl 16 0 \$0-bS0 \$0-bR0 empty 17 7 0 10 -125216 -1
-1 0 1;
#X obj 626 300 tgl 16 0 \$0-bS0 \$0-bR0 empty 17 7 0 10 -125216 -1
-1 0 1;
#X obj 626 318 tgl 16 0 \$0-bS0 \$0-bR0 empty 17 7 0 10 -125216 -1
-1 0 1;
#X obj 626 336 tgl 16 0 \$0-bS0 \$0-bR0 empty 17 7 0 10 -125216 -1
-1 0 1;
#X obj 626 354 tgl 16 0 \$0-bS0 \$0-bR0 empty 17 7 0 10 -125216 -1
-1 0 1;
#X obj 626 372 tgl 16 0 \$0-bS0 \$0-bR0 empty 17 7 0 10 -125216 -1
-1 0 1;
#X obj 644 102 tgl 16 0 \$0-bS0 \$0-bR0 empty 17 7 0 10 -125216 -1
-1 0 1;
#X obj 644 120 tgl 16 0 \$0-bS0 \$0-bR0 empty 17 7 0 10 -125216 -1
-1 0 1;
#X obj 644 138 tgl 16 0 \$0-bS0 \$0-bR0 empty 17 7 0 10 -125216 -1
-1 0 1;
#X obj 644 156 tgl 16 0 \$0-bS0 \$0-bR0 empty 17 7 0 10 -125216 -1
-1 0 1;
#X obj 644 174 tgl 16 0 \$0-bS0 \$0-bR0 empty 17 7 0 10 -125216 -1
-1 0 1;
#X obj 644 192 tgl 16 0 \$0-bS0 \$0-bR0 empty 17 7 0 10 -125216 -1
-1 0 1;
#X obj 644 210 tgl 16 0 \$0-bS0 \$0-bR0 empty 17 7 0 10 -125216 -1
-1 0 1;
#X obj 644 228 tgl 16 0 \$0-bS0 \$0-bR0 empty 17 7 0 10 -125216 -1
-1 0 1;
#X obj 644 246 tgl 16 0 \$0-bS0 \$0-bR0 empty 17 7 0 10 -125216 -1
-1 0 1;
#X obj 644 264 tgl 16 0 \$0-bS0 \$0-bR0 empty 17 7 0 10 -125216 -1
-1 0 1;
#X obj 644 282 tgl 16 0 \$0-bS0 \$0-bR0 empty 17 7 0 10 -125216 -1
-1 0 1;
#X obj 644 300 tgl 16 0 \$0-bS0 \$0-bR0 empty 17 7 0 10 -125216 -1
-1 0 1;
#X obj 644 318 tgl 16 0 \$0-bS0 \$0-bR0 empty 17 7 0 10 -125216 -1
-1 0 1;
#X obj 644 336 tgl 16 0 \$0-bS0 \$0-bR0 empty 17 7 0 10 -125216 -1
-1 0 1;
#X obj 644 354 tgl 16 0 \$0-bS0 \$0-bR0 empty 17 7 0 10 -125216 -1
-1 0 1;
#X obj 644 372 tgl 16 0 \$0-bS0 \$0-bR0 empty 17 7 0 10 -125216 -1
-1 0 1;
#X obj 662 102 tgl 16 0 \$0-bS0 \$0-bR0 empty 17 7 0 10 -125216 -1
-1 0 1;
#X obj 662 120 tgl 16 0 \$0-bS0 \$0-bR0 empty 17 7 0 10 -125216 -1
-1 0 1;
#X obj 662 138 tgl 16 0 \$0-bS0 \$0-bR0 empty 17 7 0 10 -125216 -1
-1 0 1;
#X obj 662 156 tgl 16 0 \$0-bS0 \$0-bR0 empty 17 7 0 10 -125216 -1
-1 0 1;
#X obj 662 174 tgl 16 0 \$0-bS0 \$0-bR0 empty 17 7 0 10 -125216 -1
-1 0 1;
#X obj 662 192 tgl 16 0 \$0-bS0 \$0-bR0 empty 17 7 0 10 -125216 -1
-1 0 1;
#X obj 662 210 tgl 16 0 \$0-bS0 \$0-bR0 empty 17 7 0 10 -125216 -1
-1 0 1;
#X obj 662 228 tgl 16 0 \$0-bS0 \$0-bR0 empty 17 7 0 10 -125216 -1
-1 0 1;
#X obj 662 246 tgl 16 0 \$0-bS0 \$0-bR0 empty 17 7 0 10 -125216 -1
-1 0 1;
#X obj 662 264 tgl 16 0 \$0-bS0 \$0-bR0 empty 17 7 0 10 -125216 -1
-1 0 1;
#X obj 662 282 tgl 16 0 \$0-bS0 \$0-bR0 empty 17 7 0 10 -125216 -1
-1 0 1;
#X obj 662 300 tgl 16 0 \$0-bS0 \$0-bR0 empty 17 7 0 10 -125216 -1
-1 0 1;
#X obj 662 318 tgl 16 0 \$0-bS0 \$0-bR0 empty 17 7 0 10 -125216 -1
-1 0 1;
#X obj 662 336 tgl 16 0 \$0-bS0 \$0-bR0 empty 17 7 0 10 -125216 -1
-1 0 1;
#X obj 662 354 tgl 16 0 \$0-bS0 \$0-bR0 empty 17 7 0 10 -125216 -1
-1 0 1;
#X obj 662 372 tgl 16 0 \$0-bS0 \$0-bR0 empty 17 7 0 10 -125216 -1
-1 0 1;
#X obj 680 102 tgl 16 0 \$0-bS0 \$0-bR0 empty 17 7 0 10 -125216 -1
-1 0 1;
#X obj 680 120 tgl 16 0 \$0-bS0 \$0-bR0 empty 17 7 0 10 -125216 -1
-1 0 1;
#X obj 680 138 tgl 16 0 \$0-bS0 \$0-bR0 empty 17 7 0 10 -125216 -1
-1 0 1;
#X obj 680 156 tgl 16 0 \$0-bS0 \$0-bR0 empty 17 7 0 10 -125216 -1
-1 0 1;
#X obj 680 174 tgl 16 0 \$0-bS0 \$0-bR0 empty 17 7 0 10 -125216 -1
-1 0 1;
#X obj 680 192 tgl 16 0 \$0-bS0 \$0-bR0 empty 17 7 0 10 -125216 -1
-1 0 1;
#X obj 680 210 tgl 16 0 \$0-bS0 \$0-bR0 empty 17 7 0 10 -125216 -1
-1 0 1;
#X obj 680 228 tgl 16 0 \$0-bS0 \$0-bR0 empty 17 7 0 10 -125216 -1
-1 0 1;
#X obj 680 246 tgl 16 0 \$0-bS0 \$0-bR0 empty 17 7 0 10 -125216 -1
-1 0 1;
#X obj 680 264 tgl 16 0 \$0-bS0 \$0-bR0 empty 17 7 0 10 -125216 -1
-1 0 1;
#X obj 680 282 tgl 16 0 \$0-bS0 \$0-bR0 empty 17 7 0 10 -125216 -1
-1 0 1;
#X obj 680 300 tgl 16 0 \$0-bS0 \$0-bR0 empty 17 7 0 10 -125216 -1
-1 0 1;
#X obj 680 318 tgl 16 0 \$0-bS0 \$0-bR0 empty 17 7 0 10 -125216 -1
-1 0 1;
#X obj 680 336 tgl 16 0 \$0-bS0 \$0-bR0 empty 17 7 0 10 -125216 -1
-1 0 1;
#X obj 680 354 tgl 16 0 \$0-bS0 \$0-bR0 empty 17 7 0 10 -125216 -1
-1 0 1;
#X obj 680 372 tgl 16 0 \$0-bS0 \$0-bR0 empty 17 7 0 10 -125216 -1
-1 0 1;
#X obj 698 102 tgl 16 0 \$0-bS0 \$0-bR0 empty 17 7 0 10 -125216 -1
-1 0 1;
#X obj 698 120 tgl 16 0 \$0-bS0 \$0-bR0 empty 17 7 0 10 -125216 -1
-1 0 1;
#X obj 698 138 tgl 16 0 \$0-bS0 \$0-bR0 empty 17 7 0 10 -125216 -1
-1 0 1;
#X obj 698 156 tgl 16 0 \$0-bS0 \$0-bR0 empty 17 7 0 10 -125216 -1
-1 0 1;
#X obj 698 174 tgl 16 0 \$0-bS0 \$0-bR0 empty 17 7 0 10 -125216 -1
-1 0 1;
#X obj 698 192 tgl 16 0 \$0-bS0 \$0-bR0 empty 17 7 0 10 -125216 -1
-1 0 1;
#X obj 698 210 tgl 16 0 \$0-bS0 \$0-bR0 empty 17 7 0 10 -125216 -1
-1 0 1;
#X obj 698 228 tgl 16 0 \$0-bS0 \$0-bR0 empty 17 7 0 10 -125216 -1
-1 0 1;
#X obj 698 246 tgl 16 0 \$0-bS0 \$0-bR0 empty 17 7 0 10 -125216 -1
-1 0 1;
#X obj 698 264 tgl 16 0 \$0-bS0 \$0-bR0 empty 17 7 0 10 -125216 -1
-1 0 1;
#X obj 698 282 tgl 16 0 \$0-bS0 \$0-bR0 empty 17 7 0 10 -125216 -1
-1 0 1;
#X obj 698 300 tgl 16 0 \$0-bS0 \$0-bR0 empty 17 7 0 10 -125216 -1
-1 0 1;
#X obj 698 318 tgl 16 0 \$0-bS0 \$0-bR0 empty 17 7 0 10 -125216 -1
-1 0 1;
#X obj 698 336 tgl 16 0 \$0-bS0 \$0-bR0 empty 17 7 0 10 -125216 -1
-1 0 1;
#X obj 698 354 tgl 16 0 \$0-bS0 \$0-bR0 empty 17 7 0 10 -125216 -1
-1 0 1;
#X obj 698 372 tgl 16 0 \$0-bS0 \$0-bR0 empty 17 7 0 10 -125216 -1
-1 0 1;
#X msg 242 441 color -8.29453e+06 -1 -1;
#X obj 158 443 sel 0 1;
#X msg 220 483 color -1.3734e+07 -1.3734e+07 -1;
#X obj 289 599 s \$0-bR04;
#X msg 389 551 \;;
#X obj 159 414 r \$0-bS04;
#X connect 0 0 532 0;
#X connect 2 0 1 0;
#X connect 4 0 5 0;
#X connect 6 0 7 0;
#X connect 9 0 10 0;
#X connect 10 0 6 0;
#X connect 28 0 27 0;
#X connect 45 0 47 0;
#X connect 47 1 48 0;
#X connect 48 0 46 0;
#X connect 529 0 532 0;
#X connect 530 0 529 0;
#X connect 530 1 531 0;
#X connect 531 0 532 0;
#X connect 534 0 530 0;
#X coords 0 -1 1 1 730 305 2 100 100;
