#N canvas 133 51 883 576 10;
#X msg 176 191 poll 20;
#X msg 177 170 poll 2;
#X msg 175 128 info;
#X msg 176 150 poll 200;
#X msg 175 107 open 8;
#X obj 44 240 hid 8;
#X obj 24 395 route btn_0 btn_1 btn_2 btn_3 btn_4 btn_5 btn_6 btn_7
btn_8 btn_9 btn_10 btn_11;
#X obj -165 465 outlet;
#X obj -121 464 outlet;
#X text -131 445 joy1;
#X text -152 481 x;
#X text -105 480 y;
#X obj -76 464 outlet;
#X obj -32 463 outlet;
#X text -63 480 x;
#X text -16 479 y;
#X obj -25 20 inlet;
#X text -51 491 joy2;
#X obj 16 291 route key abs;
#X obj 16 450 outlet;
#X obj 57 450 outlet;
#X obj 101 450 outlet;
#X obj 144 452 outlet;
#X obj 187 452 outlet;
#X obj 231 451 outlet;
#X obj 276 451 outlet;
#X obj 320 450 outlet;
#X obj 53 338 route abs_x abs_y abs_rx abs_rz;
#X obj 547 416 route abs_hat0x abs_hat0y;
#X obj 551 448 outlet;
#X obj 595 448 outlet;
#X obj 365 450 outlet;
#X obj 409 449 outlet;
#X obj 454 448 outlet;
#X obj 498 448 outlet;
#X obj 178 77 loadbang;
#X connect 0 0 5 0;
#X connect 1 0 5 0;
#X connect 2 0 5 0;
#X connect 3 0 5 0;
#X connect 4 0 5 0;
#X connect 5 0 18 0;
#X connect 6 0 19 0;
#X connect 6 1 20 0;
#X connect 6 2 21 0;
#X connect 6 3 22 0;
#X connect 6 4 23 0;
#X connect 6 5 24 0;
#X connect 6 6 25 0;
#X connect 6 7 26 0;
#X connect 6 8 31 0;
#X connect 6 9 32 0;
#X connect 6 10 33 0;
#X connect 6 11 34 0;
#X connect 16 0 5 0;
#X connect 18 0 6 0;
#X connect 18 1 27 0;
#X connect 27 0 7 0;
#X connect 27 1 8 0;
#X connect 27 2 12 0;
#X connect 27 3 13 0;
#X connect 27 4 28 0;
#X connect 28 0 29 0;
#X connect 28 1 30 0;
#X connect 35 0 4 0;
