#N canvas 0 26 1024 661 10;
#X declare -stdpath extra/tof;
#X obj 101 250 hsl 800 12 0 1 0 0 \$0-start \$0-start-r empty -2 -8
0 10 -182874 -1 -1 60100 1;
#X obj 101 263 hsl 800 12 0 1 0 0 \$0-end \$0-end-r empty -2 -8 0 10
-182874 -1 -1 62400 1;
#N canvas 113 28 815 634 guts 0;
#X obj 633 391 soundfiler;
#X obj 623 224 openpanel;
#X obj 628 344 pack s \$0;
#X obj 790 264 s \$0-selectarea;
#X msg 633 369 read -resize \$1 \$2-L \$2-R;
#X obj 745 122 s \$0-L;
#X obj 789 122 s \$0-R;
#X msg 750 86 resize 100;
#X obj 5 123 * 800;
#X obj 786 201 loadbang;
#X obj 3 186 s \$0-selectarea;
#X msg 3 164 pos \$1 100;
#X obj 5 144 + 100;
#X obj 595 92 s \$0-selectarea;
#X msg 594 71 label \$1;
#X obj 595 50 makefilename %d;
#X obj 4 103 r \$0-start;
#X obj 183 256 s \$0-end-r;
#X msg 789 227 pos 100 100 \, vis_size 1 148;
#X obj 185 51 r \$0-start;
#X obj 200 164 r \$0-len;
#X obj 186 188 +;
#X obj 185 134 spigot;
#X obj 374 177 tabplay~ \$0-L;
#X obj 419 108 r \$0-len;
#X obj 374 156 pack 0 0;
#X obj 362 66 f;
#X obj 377 41 r \$0-start;
#X obj 362 89 *;
#X obj 390 65 r \$0-samples;
#X obj 420 133 *;
#X obj 446 132 t b f;
#X obj 362 18 r \$0-play;
#X obj 476 31 key;
#X obj 478 53 sel 32;
#X obj 479 76 s \$0-play;
#X obj 635 413 s \$0-samples;
#X obj 596 28 r \$0-slice;
#X obj 407 196 tabplay~ \$0-R;
#X obj 185 83 spigot 1;
#X obj 251 52 r \$0-spigot;
#N canvas 0 26 1016 640 datasaving 0;
#X obj 649 151 s \$0-slices-start;
#X obj 649 129 pack 0 0;
#X obj 649 106 f;
#X obj 650 66 t b f;
#X obj 757 128 pack 0 0;
#X obj 757 105 f;
#X obj 758 65 t b f;
#X obj 757 150 s \$0-slices-end;
#X obj 555 40 r \$0-slice;
#X obj 574 324 tabread \$0-slices-start;
#X obj 555 64 t f f f;
#X obj 575 348 s \$0-start-r;
#X obj 477 137 tabread \$0-slices-end;
#X obj 478 161 s \$0-end-r;
#X obj 853 265 f;
#X obj 880 265 f;
#X obj 866 228 r \$0-start;
#X obj 934 227 r \$0-end;
#X obj 879 189 t b b;
#X obj 834 302 f;
#X obj 859 302 f;
#X obj 893 22 r \$0-save;
#X obj 835 325 s \$0-start-r;
#X obj 917 325 s \$0-end-r;
#X obj 668 7 r \$0-start;
#X obj 767 7 r \$0-end;
#X obj 652 41 f;
#X obj 755 40 f;
#X obj 843 122 t b b b b;
#X msg 893 69 1;
#X msg 923 72 0;
#X obj 911 112 s \$0-spigot;
#X obj 98 315 tabread \$0-slices-start;
#X obj 99 257 f;
#X obj 126 259 + 1;
#X obj 99 235 until;
#X msg 137 229 0;
#X obj 99 204 t f b;
#X obj 99 280 t f f;
#X msg 100 183 15;
#X obj 100 392 pack 0 0;
#X obj 100 444 s \$0-msgbox;
#X obj 346 433 s \$0-msgbox;
#X obj 337 222 list trim;
#X obj 299 158 symbol;
#X obj 333 132 r \$0-filename;
#X obj 337 242 s \$0-msgbox;
#X obj 334 108 s \$0-msgbox;
#X obj 93 500 table \$0-slices-start 100;
#X obj 93 520 table \$0-slices-end 100;
#X obj 101 371 swap;
#X obj 99 341 sel 0;
#X obj 259 232 f;
#X obj 286 234 + 1;
#X obj 259 210 until;
#X msg 297 204 0;
#X obj 259 179 t f b;
#X obj 259 255 t f f;
#X msg 260 158 15;
#X obj 260 367 pack 0 0;
#X obj 261 346 swap;
#X obj 259 316 sel 0;
#X obj 259 290 tabread \$0-slices-end;
#X msg 98 414 add2 start \, add2 \$1 \, add2 \$2 \, addcomma;
#X msg 336 198 add2 filename \, add2 \$1 \, addcomma;
#X obj 195 17 r \$0-savetomsg;
#X obj 193 37 t b b b b b b b;
#X msg 9 182 add done bang;
#X obj 10 202 s \$0-msgbox;
#X msg 332 84 set \, add2 reset bang \, addcomma;
#X msg 346 411 add2 end \, add2 \$1 \, add2 \$2 \, addcomma;
#X text 527 23 seleçao do preset;
#X obj 893 48 t b b b b;
#X text 96 480 memoria das seleções;
#X text 290 24 formata a mensagem do preset;
#X msg 628 235 get start;
#X msg 731 238 get end;
#X obj 595 261 h_multimap glerm;
#X text 98 538 comment;
#X obj 715 262 h_multimap glerm;
#X obj 663 193 r \$0-restore;
#X obj 682 214 t b b;
#X connect 1 0 0 0;
#X connect 2 0 1 0;
#X connect 3 0 2 0;
#X connect 3 1 1 1;
#X connect 4 0 7 0;
#X connect 5 0 4 0;
#X connect 6 0 5 0;
#X connect 6 1 4 1;
#X connect 8 0 10 0;
#X connect 9 0 11 0;
#X connect 10 0 12 0;
#X connect 10 1 9 0;
#X connect 10 2 5 1;
#X connect 10 2 2 1;
#X connect 12 0 13 0;
#X connect 14 0 19 1;
#X connect 15 0 20 1;
#X connect 16 0 14 1;
#X connect 17 0 15 1;
#X connect 18 0 14 0;
#X connect 18 1 15 0;
#X connect 19 0 22 0;
#X connect 20 0 23 0;
#X connect 21 0 72 0;
#X connect 24 0 26 1;
#X connect 25 0 27 1;
#X connect 26 0 3 0;
#X connect 27 0 6 0;
#X connect 28 0 26 0;
#X connect 28 1 27 0;
#X connect 28 2 19 0;
#X connect 28 3 20 0;
#X connect 29 0 31 0;
#X connect 30 0 31 0;
#X connect 32 0 51 0;
#X connect 33 0 34 0;
#X connect 33 0 38 0;
#X connect 34 0 33 1;
#X connect 35 0 33 0;
#X connect 36 0 33 1;
#X connect 37 0 35 0;
#X connect 37 1 36 0;
#X connect 38 0 32 0;
#X connect 38 1 50 1;
#X connect 39 0 37 0;
#X connect 40 0 63 0;
#X connect 43 0 46 0;
#X connect 44 0 64 0;
#X connect 45 0 44 1;
#X connect 50 0 40 0;
#X connect 50 1 40 1;
#X connect 51 1 50 0;
#X connect 52 0 53 0;
#X connect 52 0 57 0;
#X connect 53 0 52 1;
#X connect 54 0 52 0;
#X connect 55 0 52 1;
#X connect 56 0 54 0;
#X connect 56 1 55 0;
#X connect 57 0 62 0;
#X connect 57 1 60 1;
#X connect 58 0 56 0;
#X connect 59 0 70 0;
#X connect 60 0 59 0;
#X connect 60 1 59 1;
#X connect 61 1 60 0;
#X connect 62 0 61 0;
#X connect 63 0 41 0;
#X connect 64 0 43 0;
#X connect 65 0 66 0;
#X connect 66 1 67 0;
#X connect 66 3 39 0;
#X connect 66 4 58 0;
#X connect 66 5 44 0;
#X connect 66 6 69 0;
#X connect 67 0 68 0;
#X connect 69 0 47 0;
#X connect 70 0 42 0;
#X connect 72 0 29 0;
#X connect 72 1 28 0;
#X connect 72 2 30 0;
#X connect 72 3 18 0;
#X connect 75 0 77 0;
#X connect 76 0 79 0;
#X connect 77 0 0 0;
#X connect 79 0 7 0;
#X connect 80 0 81 0;
#X connect 81 0 75 0;
#X connect 81 1 76 0;
#X restore 465 507 pd datasaving;
#X obj 624 246 s \$0-filename;
#X obj 627 298 r \$0-filename;
#X obj 624 204 r \$0-open;
#X obj 748 65 loadbang;
#X obj 230 107 r \$0-spigoot;
#X obj 727 424 s \$0-slices-start;
#X obj 835 423 s \$0-slices-end;
#X msg 726 401 const 0;
#X obj 717 478 s \$0-slice-1s-r;
#X msg 719 456 0;
#X obj 817 478 s \$0-slice-10s-r;
#X obj 628 319 t a b b;
#X msg 413 443 1;
#X obj 412 421 loadbang;
#X obj 412 464 s \$0-spigoot-r;
#X obj 375 234 *~;
#X obj 408 287 *~;
#X obj 467 267 vline~;
#X msg 467 237 0 5 \, 1 5 5;
#X obj 360 109 t f b;
#X obj 361 133 pipe 5;
#X obj 374 388 dac~;
#N canvas 0 107 1024 661 rack_de_efeitos 0;
#X obj 86 29 inlet~;
#X obj 152 31 inlet~;
#X obj 87 263 outlet~;
#X obj 138 263 outlet~;
#X text 364 42 usar fx.vocoder~ fica massa;
#X obj 151 163 fx.pitch.shift~;
#X obj 53 133 fx.pitch.shift~;
#X obj 240 57 r \$0-pshift;
#X obj 358 244 fiddle~;
#N canvas 0 0 664 495 nomesnotas 0;
#X obj 80 47 inlet;
#X obj 79 436 outlet;
#X obj 58 182 % 12;
#X obj 136 202 sel 0 1 2 3 4 5 6 7 8 9 10 11;
#X obj 59 303 t a;
#X msg 58 260 Do;
#X msg 89 260 Do_sustenido;
#X msg 174 262 Re;
#X msg 207 262 Re_sustenido;
#X msg 292 263 Mi;
#X msg 321 264 Fa;
#X msg 349 264 Fa_sustenido;
#X msg 441 263 Sol;
#X msg 473 265 Sol_sustenido;
#X msg 565 268 La;
#X msg 600 271 Si_bemol;
#X msg 666 269 Si;
#X obj 233 129 / 12;
#X obj 226 153 int;
#X obj 187 410 - 1;
#X obj 190 436 outlet;
#X connect 0 0 2 0;
#X connect 0 0 17 0;
#X connect 2 0 3 0;
#X connect 3 0 5 0;
#X connect 3 1 6 0;
#X connect 3 2 7 0;
#X connect 3 3 8 0;
#X connect 3 4 9 0;
#X connect 3 5 10 0;
#X connect 3 6 11 0;
#X connect 3 7 12 0;
#X connect 3 8 13 0;
#X connect 3 9 14 0;
#X connect 3 10 15 0;
#X connect 3 11 16 0;
#X connect 4 0 1 0;
#X connect 5 0 4 0;
#X connect 6 0 4 0;
#X connect 7 0 4 0;
#X connect 8 0 4 0;
#X connect 9 0 4 0;
#X connect 10 0 4 0;
#X connect 11 0 4 0;
#X connect 12 0 4 0;
#X connect 13 0 4 0;
#X connect 14 0 4 0;
#X connect 15 0 4 0;
#X connect 16 0 4 0;
#X connect 17 0 18 0;
#X connect 18 0 19 0;
#X connect 19 0 20 0;
#X restore 258 295 pd nomesnotas;
#X obj 233 454 s \$0-defaultpitchlabel;
#X obj 190 342 tosymbol;
#X symbolatom 144 383 10 0 0 0 - - -;
#X msg 233 429 label \$1;
#X obj 388 334 tosymbol;
#X obj 296 412 tosymbol;
#X obj 287 380 sprintf %s-%d;
#X obj 497 385 t b b;
#X obj 501 459 h_multimap glerm;
#X obj 644 416 list;
#X obj 597 142 r \$0-slice;
#X obj 597 172 makefilename notatrecho%d;
#X msg 597 201 add \$1;
#X msg 507 416 add notatrecho9;
#X obj 597 236 prepend set;
#X obj 507 308 bng 15 250 50 0 empty empty empty 17 7 0 10 -262144
-1 -1;
#X obj 579 361 list-extend;
#X obj 718 433 t b;
#X connect 0 0 6 0;
#X connect 1 0 5 0;
#X connect 5 0 3 0;
#X connect 5 0 8 0;
#X connect 6 0 2 0;
#X connect 6 0 8 0;
#X connect 7 0 5 1;
#X connect 7 0 6 1;
#X connect 8 0 9 0;
#X connect 8 0 26 0;
#X connect 9 0 11 0;
#X connect 9 0 16 0;
#X connect 9 1 14 0;
#X connect 9 1 16 1;
#X connect 11 0 12 0;
#X connect 13 0 10 0;
#X connect 15 0 13 0;
#X connect 16 0 15 0;
#X connect 17 0 23 0;
#X connect 17 1 19 0;
#X connect 19 0 18 1;
#X connect 19 0 27 0;
#X connect 20 0 21 0;
#X connect 21 0 22 0;
#X connect 22 0 24 0;
#X connect 23 0 18 0;
#X connect 24 0 23 0;
#X connect 25 0 17 0;
#X connect 26 0 19 1;
#X connect 27 0 26 1;
#X restore 375 354 pd rack_de_efeitos;
#X text 626 186 abre wav;
#X text 609 282 recebe caminho arq. wav;
#X obj 80 374 key;
#X msg 216 583 print;
#X msg 189 459 start;
#X msg 83 541 stop;
#X msg 142 409 open /home/glerm/ali.wav;
#X obj 294 567 oggwrite~ 2;
#X floatatom 295 590 5 0 0 0 - - -;
#X floatatom 357 590 5 0 0 0 - - -;
#X obj 80 395 sel 39;
#X obj 107 448 t b b;
#X obj 110 469 delay 1000;
#X floatatom 125 371 5 0 0 0 - - -;
#X obj 37 483 sel 127;
#X msg 9 28 \; pd dsp \$1;
#X obj 9 1 r \$0-ligasom;
#X connect 0 0 36 0;
#X connect 1 0 42 0;
#X connect 2 0 4 0;
#X connect 4 0 0 0;
#X connect 7 0 5 0;
#X connect 7 0 6 0;
#X connect 8 0 12 0;
#X connect 9 0 18 0;
#X connect 11 0 10 0;
#X connect 12 0 11 0;
#X connect 14 0 13 0;
#X connect 15 0 14 0;
#X connect 16 0 8 0;
#X connect 18 0 3 0;
#X connect 19 0 39 0;
#X connect 20 0 21 1;
#X connect 21 0 17 0;
#X connect 22 0 21 0;
#X connect 23 0 57 0;
#X connect 24 0 30 0;
#X connect 25 0 23 0;
#X connect 25 0 38 0;
#X connect 26 0 28 0;
#X connect 27 0 26 1;
#X connect 28 0 61 0;
#X connect 29 0 28 1;
#X connect 29 0 31 0;
#X connect 30 0 25 1;
#X connect 31 0 30 0;
#X connect 31 1 30 1;
#X connect 32 0 26 0;
#X connect 33 0 34 0;
#X connect 34 0 35 0;
#X connect 37 0 15 0;
#X connect 38 0 58 0;
#X connect 39 0 22 0;
#X connect 40 0 39 1;
#X connect 43 0 53 0;
#X connect 44 0 1 0;
#X connect 45 0 7 0;
#X connect 46 0 22 1;
#X connect 49 0 47 0;
#X connect 49 0 48 0;
#X connect 51 0 50 0;
#X connect 51 0 52 0;
#X connect 53 0 2 0;
#X connect 53 1 51 0;
#X connect 53 2 49 0;
#X connect 54 0 56 0;
#X connect 55 0 54 0;
#X connect 57 0 64 0;
#X connect 58 0 64 1;
#X connect 59 0 57 1;
#X connect 59 0 58 1;
#X connect 60 0 59 0;
#X connect 61 0 62 0;
#X connect 61 1 60 0;
#X connect 62 0 25 0;
#X connect 64 0 63 0;
#X connect 64 0 72 0;
#X connect 64 1 63 1;
#X connect 64 1 72 1;
#X connect 67 0 75 0;
#X connect 67 0 78 0;
#X connect 68 0 72 0;
#X connect 69 0 72 0;
#X connect 70 0 72 0;
#X connect 71 0 72 0;
#X connect 72 0 73 0;
#X connect 72 1 74 0;
#X connect 75 0 76 0;
#X connect 75 0 79 0;
#X connect 76 0 77 0;
#X connect 76 1 71 0;
#X connect 77 0 69 0;
#X connect 79 0 70 0;
#X connect 81 0 80 0;
#X restore 12 252 pd guts;
#X obj 43 306 bng 50 250 50 0 \$0-save \$0-enterR enter 0 -15 0 20
-13330 -262144 -258113;
#X obj 964 -5 bng 15 250 50 0 \$0-open eriuytreiuytreiuiuiiiiiuuuuyyyr
OPEN 17 7 0 14 -262144 -1 -1;
#X obj 908 209 tgl 15 0 \$0-spigoot \$0-spigoot-r lock-length 17 7
0 14 -262144 -1 -1 1 1;
#X obj 99 307 hradio 50 1 0 16 \$0-slice \$0-slicerpanel empty 0 -8
0 10 -54277 -83269 -1 9;
#X obj 164 283 cnv 15 30 20 empty empty 1 0 10 1 30 -204786 -13330
0;
#X obj 212 282 cnv 15 30 20 empty empty 2 0 12 1 30 -204786 -13330
0;
#X obj 264 282 cnv 15 30 20 empty empty 3 0 12 1 30 -204786 -13330
0;
#X obj 310 282 cnv 15 30 20 empty empty 4 0 12 1 30 -204786 -13330
0;
#X obj 361 282 cnv 15 30 20 empty empty 5 0 12 1 30 -204786 -13330
0;
#X obj 410 282 cnv 15 30 20 empty empty 6 0 12 1 30 -204786 -13330
0;
#X obj 461 282 cnv 15 30 20 empty empty 7 0 12 1 30 -204786 -13330
0;
#X obj 509 282 cnv 15 30 20 empty empty 8 0 12 1 30 -204786 -13330
0;
#X obj 113 282 cnv 15 30 20 empty empty 0 0 11 1 30 -204786 -13330
0;
#X obj 562 282 cnv 15 30 20 empty empty 9 0 12 1 30 -204786 -13330
0;
#X obj 609 282 cnv 15 30 20 empty empty 10 0 12 1 30 -204786 -13330
0;
#X obj 660 282 cnv 15 30 20 empty empty 11 0 12 1 30 -204786 -13330
0;
#X obj 708 282 cnv 15 30 20 empty empty 12 0 12 1 30 -204786 -13330
0;
#X obj 759 282 cnv 15 30 20 empty empty 13 0 12 1 30 -204786 -13330
0;
#X obj 808 282 cnv 15 30 20 empty empty 14 0 12 1 30 -204786 -13330
0;
#X obj 857 282 cnv 15 30 20 empty empty 15 0 12 1 30 -204786 -13330
0;
#X obj 905 307 bng 50 250 50 0 \$0-savetomsg eriyeiuyiueryiiiiiiiiipmx
ok! 0 -15 0 20 -4160 -262144 -258113;
#N canvas 0 26 1003 661 containter_xml 0;
#X obj 558 143 r \$0-msgbox;
#X msg 37 500 print;
#X obj 586 418 t b b;
#X obj 590 492 h_multimap glerm;
#X obj 650 444 list;
#X obj 695 436 t b b;
#X obj 748 461 list;
#X msg 695 461 add end;
#X obj 794 399 t b b;
#X obj 900 431 list;
#X obj 589 386 route start end filename;
#X msg 586 444 add start;
#X msg 811 436 add filename;
#X obj 117 405 makefilename /home/glerm/artesanatodevolts/mimosalib/%s.xml
;
#X obj 104 160 file.browser_;
#X obj 268 20 loadbang;
#X msg 122 430 saveXML \$1;
#X msg 272 48 patterns xml \, /home/glerm/artesanatodevolts/mimosalib
;
#X msg 441 554 get filename;
#X obj 463 604 s \$0-filename;
#X obj 439 575 h_multimap glerm;
#X obj 383 604 s \$0-restore;
#X obj 330 541 t b b;
#X obj 330 565 delay 100;
#X msg 529 211 reset bang \, filename /home/glerm/samples/alice.wav
\, end 0 0.0876095 \, end 1 0.12015 \, end 2 0.239049 \, end 3 0.361702
\, end 4 0.513141 \, end 5 0.545682 \, end 6 0.629537 \, end 7 0.71965
\, end 8 0.75219 \, end 9 0.780976 \, end 10 0.808511 \, end 11 0.846058
\, end 12 0.87234 \, end 13 0.929912 \, end 14 0.954944 \, start 1
0.0826033 \, start 2 0.121402 \, start 3 0.2403 \, start 4 0.362954
\, start 5 0.509387 \, start 6 0.544431 \, start 7 0.633292 \, start
8 0.722153 \, start 9 0.75219 \, start 10 0.778473 \, start 11 0.807259
\, start 12 0.841051 \, start 13 0.869837 \, start 14 0.928661 \, done
bang \;;
#X obj 163 499 s \$0-newentry;
#X obj 324 20 r \$0-newentry;
#N canvas 0 0 450 300 emtestes 0;
#X obj -100 -19 bng 15 250 50 0 empty empty empty 0 -6 0 8 -262144
-1 -1;
#X msg -146 -114 print;
#X msg -139 -90 clear;
#X obj -149 -135 list;
#X obj -204 -143 t b b;
#X msg -196 -111 add 1;
#X obj -199 -41 h_multimap testes;
#X msg -196 -166;
#X connect 1 0 6 0;
#X connect 2 0 6 0;
#X connect 3 0 6 1;
#X connect 4 0 5 0;
#X connect 4 1 3 0;
#X connect 5 0 6 0;
#X connect 6 2 0 0;
#X connect 7 0 3 1;
#X connect 7 0 4 0;
#X restore 19 626 pd emtestes;
#X obj 37 477 r \$0-debug;
#X obj 818 458 h_multimap glerm;
#X obj 701 488 h_multimap glerm;
#X obj 660 40 s \$0-debug;
#X obj 659 21 bng 15 250 50 0 empty empty debug 17 7 0 10 -262144 -1
-1;
#X obj 122 601 h_multimap glerm;
#X msg 159 555 clearall;
#X text 556 125 pdguts - datastore;
#X obj 158 535 r \$0-clearall;
#X text 403 621 pdguts - datastore;
#X text 345 620 start/end;
#X obj 579 170 t b b;
#X obj 617 170 s \$0-clearall;
#X obj 581 192 delay 1000;
#X obj 353 431 r \$0-presetname_load;
#X obj 117 339 r \$0-presetname_save;
#X text 700 177 TO_DO:usar clear;
#X obj 163 475 delay 1000;
#X obj 163 453 t b;
#X obj 75 382 symbol;
#X obj 6 356 r \$0-overwrite;
#X symbolatom 104 119 30 0 0 0 - - -;
#X obj 29 86 tosymbol;
#X obj 30 48 loadbang;
#X obj -30 148 s \$0-presetname_save;
#X obj 104 144 cnv 15 100 15 empty empty read_preset: 0 7 1 12 -203904
-16662 0;
#X obj 289 130 bng 15 250 50 0 \$0-overwrite empty overwrite -35 20
0 10 -262144 -1 -258113;
#X obj 104 102 cnv 15 100 15 empty empty save_preset: 0 7 1 12 -203904
-16662 0;
#X obj 117 358 deny enter_text_here------;
#X msg 29 67 enter_text_here------;
#X obj 444 481 s \$0-clearall;
#X msg 364 484 readXML \$1;
#X obj 247 639 s \$0-newentry;
#X obj 247 618 delay 1000;
#X obj 247 596 t b;
#X msg 331 522 bang;
#X obj 137 306 s \$0-presetname_load;
#X obj 352 451 t b s b;
#X obj 775 31 file.path.split /;
#X obj 773 7 r \$0-presetname_load;
#X obj 852 78 s \$0-presetcanvas;
#X msg 853 55 label \$1;
#X connect 0 0 24 0;
#X connect 0 0 39 0;
#X connect 1 0 33 0;
#X connect 2 0 11 0;
#X connect 2 1 4 0;
#X connect 4 0 3 1;
#X connect 5 0 7 0;
#X connect 5 1 6 0;
#X connect 6 0 30 1;
#X connect 7 0 30 0;
#X connect 8 0 12 0;
#X connect 8 1 9 0;
#X connect 9 0 29 1;
#X connect 10 0 2 0;
#X connect 10 0 4 1;
#X connect 10 1 5 0;
#X connect 10 1 6 1;
#X connect 10 2 8 0;
#X connect 10 2 9 1;
#X connect 11 0 3 0;
#X connect 12 0 29 0;
#X connect 13 0 16 0;
#X connect 14 0 64 0;
#X connect 15 0 17 0;
#X connect 16 0 33 0;
#X connect 16 0 46 0;
#X connect 17 0 14 1;
#X connect 18 0 20 0;
#X connect 20 0 19 0;
#X connect 22 0 23 0;
#X connect 22 1 18 0;
#X connect 23 0 21 0;
#X connect 23 0 62 0;
#X connect 24 0 10 0;
#X connect 26 0 17 0;
#X connect 28 0 1 0;
#X connect 32 0 31 0;
#X connect 34 0 33 0;
#X connect 36 0 34 0;
#X connect 39 0 41 0;
#X connect 39 1 40 0;
#X connect 41 0 24 0;
#X connect 42 0 65 0;
#X connect 43 0 56 0;
#X connect 45 0 25 0;
#X connect 46 0 45 0;
#X connect 47 0 13 0;
#X connect 48 0 47 0;
#X connect 49 0 52 0;
#X connect 50 0 49 0;
#X connect 51 0 57 0;
#X connect 56 0 13 0;
#X connect 56 0 47 1;
#X connect 57 0 50 0;
#X connect 59 0 33 0;
#X connect 61 0 60 0;
#X connect 62 0 61 0;
#X connect 63 0 22 0;
#X connect 65 0 63 0;
#X connect 65 1 59 0;
#X connect 65 2 58 0;
#X connect 66 1 69 0;
#X connect 67 0 66 0;
#X connect 69 0 68 0;
#X coords 0 -1 1 1 210 200 2 100 100;
#X restore 673 366 pd containter_xml;
#X obj 698 48 cnv 15 200 50 empty \$0-presetcanvas alice.xml 0 10 0
20 -191407 -16662 0;
#N canvas 442 194 450 300 selectarea 0;
#X obj 151 40 -;
#X obj 150 130 s \$0-selectarea;
#X msg 151 110 vis_size \$1 148;
#X obj 204 -5 r \$0-start;
#X obj 150 15 r \$0-end;
#X obj 204 15 t b f;
#X obj 151 88 max 1;
#X obj 152 66 * 800;
#X obj 245 80 s \$0-len;
#X floatatom 257 40 5 0 0 0 - - -;
#X text 110 -21 seleçao do trecho pra salvar;
#X obj 319 75 f;
#X msg 297 54 bang;
#X floatatom 335 53 3 0 2 0 - - -;
#X obj 319 98 pack 0 0;
#X text 363 53 font;
#X text 399 75 height;
#X msg 319 124 label_font \$1 \$2;
#X floatatom 395 100 5 0 0 0 - - -;
#X floatatom 104 39 5 0 0 0 - - -;
#X floatatom 281 16 5 0 0 0 - - -;
#X floatatom 382 32 5 0 0 0 - - -;
#X obj 40 9 color.rgbset;
#N canvas 278 280 682 385 ascii 0;
#X obj 75 62 key;
#X floatatom 174 51 5 0 0 0 - - -;
#X msg 40 133 0;
#X msg 69 133 1;
#X obj 158 303 outlet;
#X msg 97 135 2;
#X msg 158 135 4;
#X msg 190 134 5;
#X msg 222 136 6;
#X msg 253 137 7;
#X msg 125 134 3;
#X obj 77 102 sel 113 119 101 114 116 121 117 105 111 112;
#X obj 343 76 key;
#X obj 347 102 sel 97 115 100 102 103 104 106 107 108;
#X text 505 83 asdfg;
#X text 287 85 qwerty;
#X msg 306 147 8;
#X msg 335 147 9;
#X msg 363 149 10;
#X msg 391 148 11;
#X msg 423 149 12;
#X msg 456 148 13;
#X msg 488 150 14;
#X msg 518 152 15;
#X obj 227 28 sel 10;
#X obj 222 50 s \$0-enterR;
#X connect 0 0 1 0;
#X connect 0 0 11 0;
#X connect 0 0 24 0;
#X connect 2 0 4 0;
#X connect 3 0 4 0;
#X connect 5 0 4 0;
#X connect 6 0 4 0;
#X connect 7 0 4 0;
#X connect 8 0 4 0;
#X connect 9 0 4 0;
#X connect 10 0 4 0;
#X connect 11 0 2 0;
#X connect 11 1 3 0;
#X connect 11 2 5 0;
#X connect 11 3 10 0;
#X connect 11 4 6 0;
#X connect 11 5 7 0;
#X connect 11 6 8 0;
#X connect 11 7 9 0;
#X connect 12 0 13 0;
#X connect 13 0 16 0;
#X connect 13 1 17 0;
#X connect 13 2 18 0;
#X connect 13 3 19 0;
#X connect 13 4 20 0;
#X connect 13 5 21 0;
#X connect 13 6 22 0;
#X connect 13 7 23 0;
#X connect 16 0 4 0;
#X connect 17 0 4 0;
#X connect 18 0 4 0;
#X connect 19 0 4 0;
#X connect 20 0 4 0;
#X connect 21 0 4 0;
#X connect 22 0 4 0;
#X connect 23 0 4 0;
#X connect 24 0 25 0;
#X restore 73 190 pd ascii;
#X obj 75 212 spigot;
#X obj 55 191 tgl 15 1 empty empty empty 17 7 0 10 -262144 -1 -1 1
1;
#X floatatom 28 212 5 0 0 0 - - -;
#X text -6 174 painel de slices(qwerty);
#X obj 27 235 s \$0-slicerpanel;
#X obj 142 238 s \$0-play;
#X obj 142 219 t b;
#X obj 230 194 s \$0-cnvtable;
#X text 229 209 fundo_da_tabela;
#X msg 151 150 color -1.67747e+07 -1 -9.58472e+06;
#X msg 220 241 color -5.38496e+06 -1 -1;
#X obj 246 131 loadbang;
#X connect 0 0 7 0;
#X connect 0 0 8 0;
#X connect 2 0 1 0;
#X connect 3 0 5 0;
#X connect 3 0 20 0;
#X connect 4 0 0 0;
#X connect 4 0 19 0;
#X connect 5 0 0 0;
#X connect 5 1 0 1;
#X connect 6 0 2 0;
#X connect 7 0 6 0;
#X connect 9 0 2 0;
#X connect 11 0 14 0;
#X connect 12 0 11 0;
#X connect 13 0 11 1;
#X connect 14 0 17 0;
#X connect 17 0 1 0;
#X connect 18 0 14 1;
#X connect 21 0 14 1;
#X connect 22 0 31 0;
#X connect 23 0 24 0;
#X connect 24 0 26 0;
#X connect 24 0 28 0;
#X connect 24 0 30 0;
#X connect 25 0 24 1;
#X connect 30 0 29 0;
#X connect 33 0 1 0;
#X connect 35 0 33 0;
#X restore 11 232 pd selectarea;
#X obj 312 506 s \$0-debug;
#X obj 311 487 bng 15 250 50 0 empty empty debug 17 7 0 10 -262144
-1 -1;
#X obj 964 -50 tgl 40 1 \$0-ligasom aaaaaaaaaa DSP 0 -7 0 10 -99865
-262144 -4160 1 1;
#X symbolatom 32 404 10 0 0 0 - #0-defaultpitch -;
#X obj 29 514 s \$0-defaultpitchlabel;
#X obj -2 -8 cnv 15 450 60 empty \$0-defaultpitchlabel Re_sustenido-5
0 30 0 50 -66577 -257985 0;
#X msg 32 484 label \$1;
#X obj 131 418 tosymbol;
#X obj 222 524 s \$0-pshift;
#X floatatom 222 495 5 0 0 0 - - -;
#X obj 223 451 hradio 12 1 0 24 empty empty empty 0 -8 0 10 -262144
-1 -1 0;
#X obj 226 472 - 12;
#X obj 603 501 random 24;
#X obj 604 480 r \$0-play;
#X obj 100 99 cnv 15 800 150 empty \$0-cnvtable empty 20 12 0 14 -128992
-1 0;
#X obj 701 100 cnv 15 23 148 empty \$0-selectarea 9 2 -8 0 50 -261963
-148500 0;
#N canvas 0 22 450 300 (subpatch) 0;
#X array \$0-L 406027 float 2;
#X coords 0 1 406027 -1 800 75 1;
#X restore 100 99 graph;
#N canvas 0 22 450 300 (subpatch) 0;
#X array \$0-R 406027 float 2;
#X coords 0 1 406027 -1 800 75 1;
#X restore 100 174 graph;
#X msg 151 461 12;
#N canvas 0 26 1024 661 piano 0;
#X obj 103 102 cnv 15 895 65 \$0-basepianoC0_ \$0-basepianoC0 empty
0 30 0 50 -66577 -262144 0;
#X obj 124 136 vsl 15 50 0 127 0 0 \$0-nota14S \$0-nota14R empty 0
-9 0 10 -262144 -262144 -262144 3000 1;
#X obj 107 136 vsl 15 50 0 127 0 0 \$0-nota12S \$0-nota12S empty 0
-9 0 10 -262144 -262144 -262144 0 1;
#X obj 158 136 vsl 15 50 0 127 0 0 \$0-notaS_F0 \$0-notaR_F0 empty
0 -9 0 10 -262144 -262144 -1 0 1;
#X obj 175 136 vsl 15 50 0 127 0 0 \$0-notaS_G0 \$0-notaR_G0 empty
0 -9 0 10 -262144 -262144 -1 0 1;
#X obj 192 136 vsl 15 50 0 127 0 0 \$0-notaS_A0 \$0-notaR_A0 empty
0 -9 0 10 -262144 -262144 -1 0 1;
#X obj 209 136 vsl 15 50 0 127 0 0 \$0-notaS_B0 \$0-notaR_B0 empty
0 -9 0 10 -262144 -262144 -1 0 1;
#X obj 226 136 vsl 15 50 0 127 0 0 \$0-notaS \$0-notaR empty 0 -9 0
10 -262144 -262144 -1 0 1;
#X obj 243 136 vsl 15 50 0 127 0 0 \$0-notaS \$0-notaR empty 0 -9 0
10 -262144 -262144 -1 0 1;
#X obj 260 136 vsl 15 50 0 127 0 0 \$0-notaS \$0-notaR empty 0 -9 0
10 -262144 -262144 -1 0 1;
#X obj 277 136 vsl 15 50 0 127 0 0 \$0-notaS \$0-notaR empty 0 -9 0
10 -262144 -262144 -1 0 1;
#X obj 294 136 vsl 15 50 0 127 0 0 \$0-notaS \$0-notaR empty 0 -9 0
10 -262144 -262144 -1 0 1;
#X obj 311 136 vsl 15 50 0 127 0 0 \$0-notaS \$0-notaR empty 0 -9 0
10 -262144 -262144 -1 0 1;
#X obj 328 136 vsl 15 50 0 127 0 0 \$0-notaS \$0-notaR empty 0 -9 0
10 -262144 -262144 -1 0 1;
#X obj 345 136 vsl 15 50 0 127 0 0 \$0-notaS \$0-notaR empty 0 -9 0
10 -262144 -262144 -1 0 1;
#X obj 362 136 vsl 15 50 0 127 0 0 \$0-notaS \$0-notaR empty 0 -9 0
10 -262144 -262144 -1 0 1;
#X obj 379 136 vsl 15 50 0 127 0 0 \$0-notaS \$0-notaR empty 0 -9 0
10 -262144 -262144 -1 0 1;
#X obj 396 136 vsl 15 50 0 127 0 0 \$0-notaS \$0-notaR empty 0 -9 0
10 -262144 -262144 -1 0 1;
#X obj 413 136 vsl 15 50 0 127 0 0 \$0-notaS \$0-notaR empty 0 -9 0
10 -262144 -262144 -1 0 1;
#X obj 430 136 vsl 15 50 0 127 0 0 \$0-notaS \$0-notaR empty 0 -9 0
10 -262144 -262144 -1 0 1;
#X obj 447 136 vsl 15 50 0 127 0 0 \$0-notaS \$0-notaR empty 0 -9 0
10 -262144 -262144 -1 0 1;
#X obj 464 136 vsl 15 50 0 127 0 0 \$0-notaS \$0-notaR empty 0 -9 0
10 -262144 -262144 -1 0 1;
#X obj 481 136 vsl 15 50 0 127 0 0 \$0-notaS \$0-notaR empty 0 -9 0
10 -262144 -262144 -1 0 1;
#X obj 498 136 vsl 15 50 0 127 0 0 \$0-notaS \$0-notaR empty 0 -9 0
10 -262144 -262144 -1 0 1;
#X obj 515 136 vsl 15 50 0 127 0 0 \$0-notaS \$0-notaR empty 0 -9 0
10 -262144 -262144 -1 0 1;
#X obj 532 136 vsl 15 50 0 127 0 0 \$0-notaS \$0-notaR empty 0 -9 0
10 -262144 -262144 -1 0 1;
#X obj 549 136 vsl 15 50 0 127 0 0 \$0-notaS \$0-notaR empty 0 -9 0
10 -262144 -262144 -1 0 1;
#X obj 566 136 vsl 15 50 0 127 0 0 \$0-notaS \$0-notaR empty 0 -9 0
10 -262144 -262144 -1 0 1;
#X obj 583 136 vsl 15 50 0 127 0 0 \$0-notaS \$0-notaR empty 0 -9 0
10 -262144 -262144 -1 0 1;
#X obj 600 136 vsl 15 50 0 127 0 0 \$0-notaS \$0-notaR empty 0 -9 0
10 -262144 -262144 -1 0 1;
#X obj 617 136 vsl 15 50 0 127 0 0 \$0-notaS \$0-notaR empty 0 -9 0
10 -262144 -262144 -1 0 1;
#X obj 634 136 vsl 15 50 0 127 0 0 \$0-notaS \$0-notaR empty 0 -9 0
10 -262144 -262144 -1 0 1;
#X obj 651 136 vsl 15 50 0 127 0 0 \$0-notaS \$0-notaR empty 0 -9 0
10 -262144 -262144 -1 0 1;
#X obj 668 136 vsl 15 50 0 127 0 0 \$0-notaS \$0-notaR empty 0 -9 0
10 -262144 -262144 -1 0 1;
#X obj 685 136 vsl 15 50 0 127 0 0 \$0-notaS \$0-notaR empty 0 -9 0
10 -262144 -262144 -1 0 1;
#X obj 702 136 vsl 15 50 0 127 0 0 \$0-notaS \$0-notaR empty 0 -9 0
10 -262144 -262144 -1 0 1;
#X obj 719 136 vsl 15 50 0 127 0 0 \$0-notaS \$0-notaR empty 0 -9 0
10 -262144 -262144 -1 0 1;
#X obj 736 136 vsl 15 50 0 127 0 0 \$0-notaS \$0-notaR empty 0 -9 0
10 -262144 -262144 -1 0 1;
#X obj 753 136 vsl 15 50 0 127 0 0 \$0-notaS \$0-notaR empty 0 -9 0
10 -262144 -262144 -1 0 1;
#X obj 770 136 vsl 15 50 0 127 0 0 \$0-notaS \$0-notaR empty 0 -9 0
10 -262144 -262144 -1 0 1;
#X obj 787 136 vsl 15 50 0 127 0 0 \$0-notaS \$0-notaR empty 0 -9 0
10 -262144 -262144 -1 0 1;
#X obj 804 136 vsl 15 50 0 127 0 0 \$0-notaS \$0-notaR empty 0 -9 0
10 -262144 -262144 -1 0 1;
#X obj 821 136 vsl 15 50 0 127 0 0 \$0-notaS \$0-notaR empty 0 -9 0
10 -262144 -262144 -1 0 1;
#X obj 838 136 vsl 15 50 0 127 0 0 \$0-notaS \$0-notaR empty 0 -9 0
10 -262144 -262144 -1 0 1;
#X obj 855 136 vsl 15 50 0 127 0 0 \$0-notaS \$0-notaR empty 0 -9 0
10 -262144 -262144 -1 0 1;
#X obj 872 136 vsl 15 50 0 127 0 0 \$0-notaS \$0-notaR empty 0 -9 0
10 -262144 -262144 -1 0 1;
#X obj 889 136 vsl 15 50 0 127 0 0 \$0-notaS \$0-notaR empty 0 -9 0
10 -262144 -262144 -1 0 1;
#X obj 141 136 vsl 15 50 0 127 0 0 \$0-notaS_E0 \$0-notaR_E0 empty
0 -9 0 10 -262144 -262144 -1 0 1;
#X obj 134 81 vsl 13 30 0 127 0 0 \$0-notaS \$0-notaR empty 0 -9 0
10 -1 -1 -1 0 1;
#X obj 166 80 vsl 13 30 0 127 0 0 \$0-notaS \$0-notaR empty 0 -9 0
10 -1 -1 -1 0 1;
#X obj 184 80 vsl 13 30 0 127 0 0 \$0-notaS \$0-notaR empty 0 -9 0
10 -1 -1 -1 0 1;
#X obj 202 80 vsl 13 30 0 127 0 0 \$0-notaS \$0-notaR empty 0 -9 0
10 -1 -1 -1 0 1;
#X obj 906 136 vsl 15 50 0 127 0 0 \$0-notaS \$0-notaR empty 0 -9 0
10 -262144 -262144 -1 900 1;
#X obj 936 136 cnv 15 60 30 empty empty empty 20 12 0 14 -99929 -83269
0;
#X obj 936 105 cnv 15 60 30 empty empty empty 20 12 0 14 -99929 -83269
0;
#X obj 234 80 vsl 13 30 0 127 0 0 \$0-notaS \$0-notaR empty 0 -9 0
10 -1 -1 -1 0 1;
#X obj 252 80 vsl 13 30 0 127 0 0 \$0-notaS \$0-notaR empty 0 -9 0
10 -1 -1 -1 0 1;
#X obj 284 79 vsl 13 30 0 127 0 0 \$0-notaS \$0-notaR empty 0 -9 0
10 -1 -1 -1 0 1;
#X obj 302 79 vsl 13 30 0 127 0 0 \$0-notaS \$0-notaR empty 0 -9 0
10 -1 -1 -1 0 1;
#X obj 320 79 vsl 13 30 0 127 0 0 \$0-notaS \$0-notaR empty 0 -9 0
10 -1 -1 -1 0 1;
#X obj 353 79 vsl 13 30 0 127 0 0 \$0-notaS \$0-notaR empty 0 -9 0
10 -1 -1 -1 0 1;
#X obj 371 79 vsl 13 30 0 127 0 0 \$0-notaS \$0-notaR empty 0 -9 0
10 -1 -1 -1 0 1;
#X obj 403 78 vsl 13 30 0 127 0 0 \$0-notaS \$0-notaR empty 0 -9 0
10 -1 -1 -1 0 1;
#X obj 421 78 vsl 13 30 0 127 0 0 \$0-notaS \$0-notaR empty 0 -9 0
10 -1 -1 -1 0 1;
#X obj 439 78 vsl 13 30 0 127 0 0 \$0-notaS \$0-notaR empty 0 -9 0
10 -1 -1 -1 0 1;
#X obj 471 78 vsl 13 30 0 127 0 0 \$0-notaS \$0-notaR empty 0 -9 0
10 -1 -1 -1 0 1;
#X obj 489 78 vsl 13 30 0 127 0 0 \$0-notaS \$0-notaR empty 0 -9 0
10 -1 -1 -1 0 1;
#X obj 521 78 vsl 13 30 0 127 0 0 \$0-notaS \$0-notaR empty 0 -9 0
10 -1 -1 -1 0 1;
#X obj 539 78 vsl 13 30 0 127 0 0 \$0-notaS \$0-notaR empty 0 -9 0
10 -1 -1 -1 0 1;
#X obj 557 78 vsl 13 30 0 127 0 0 \$0-notaS \$0-notaR empty 0 -9 0
10 -1 -1 -1 0 1;
#X obj 592 79 vsl 13 30 0 127 0 0 \$0-notaS \$0-notaR empty 0 -9 0
10 -1 -1 -1 0 1;
#X obj 610 79 vsl 13 30 0 127 0 0 \$0-notaS \$0-notaR empty 0 -9 0
10 -1 -1 -1 0 1;
#X obj 642 78 vsl 13 30 0 127 0 0 \$0-notaS \$0-notaR empty 0 -9 0
10 -1 -1 -1 0 1;
#X obj 660 78 vsl 13 30 0 127 0 0 \$0-notaS \$0-notaR empty 0 -9 0
10 -1 -1 -1 0 1;
#X obj 678 78 vsl 13 30 0 127 0 0 \$0-notaS \$0-notaR empty 0 -9 0
10 -1 -1 -1 0 1;
#X obj 710 78 vsl 13 30 0 127 0 0 \$0-notaS \$0-notaR empty 0 -9 0
10 -1 -1 -1 0 1;
#X obj 728 78 vsl 13 30 0 127 0 0 \$0-notaS \$0-notaR empty 0 -9 0
10 -1 -1 -1 0 1;
#X obj 760 77 vsl 13 30 0 127 0 0 \$0-notaS \$0-notaR empty 0 -9 0
10 -1 -1 -1 0 1;
#X obj 778 77 vsl 13 30 0 127 0 0 \$0-notaS \$0-notaR empty 0 -9 0
10 -1 -1 -1 0 1;
#X obj 796 77 vsl 13 30 0 127 0 0 \$0-notaS \$0-notaR empty 0 -9 0
10 -1 -1 -1 0 1;
#X obj 829 77 vsl 13 30 0 127 0 0 \$0-notaS \$0-notaR empty 0 -9 0
10 -1 -1 -1 0 1;
#X obj 847 77 vsl 13 30 0 127 0 0 \$0-notaS \$0-notaR empty 0 -9 0
10 -1 -1 -1 0 1;
#X obj 879 78 vsl 13 30 0 127 0 0 \$0-notaS \$0-notaR empty 0 -9 0
10 -1 -1 -1 0 1;
#X obj 897 78 vsl 13 30 0 127 0 0 \$0-notaS \$0-notaR empty 0 -9 0
10 -1 -1 -1 0 1;
#X obj 923 136 vsl 15 50 0 127 0 0 \$0-notaS \$0-notaR empty 0 -9 0
10 -262144 -262144 -1 0 1;
#X obj 914 78 vsl 13 30 0 127 0 0 \$0-notaS \$0-notaR empty 0 -9 0
10 -1 -1 -1 0 1;
#X obj 940 136 vsl 15 50 0 127 0 0 \$0-notaS \$0-notaR empty 0 -9 0
10 -262144 -262144 -1 0 1;
#X obj 962 106 knob 25 25 0 127 0 0 \$0-ctl1R \$0-k1 empty 0 -8 192
8 -262144 -257985 -1 400 1;
#X obj 962 136 knob 25 25 0 127 0 0 \$0-ctl2R \$0-k2 empty 0 -8 192
8 -262144 -257985 -1 1400 1;
#X floatatom 716 265 5 0 0 0 - #0-ctl1R #0-ctl1S;
#X floatatom 747 252 5 0 0 0 - #0-ctl2R #0-ctl2S;
#X obj 126 245 bng 15 250 50 0 empty empty empty 17 7 0 10 -260818
-260818 -260818;
#X obj 117 213 r \$0-notaS_C0;
#X obj 213 246 bng 15 250 50 0 empty empty empty 17 7 0 10 -226957
-1 -262144;
#X msg 527 238 color 0 0 0;
#X obj 489 196 sel 0 1;
#X obj 360 196 tgl 15 0 empty empty empty 17 7 0 10 -262144 -1 -1 1
1;
#X floatatom 556 310 5 0 0 0 - - -;
#X msg 486 19 color 0 0 0;
#X msg 480 56 color 44 44 44;
#X obj 355 42 s \$0-notaS_Cs0;
#X obj 117 81 vsl 13 30 0 127 0 0 \$0-nota13S \$0-nota13R empty 0 -9
0 10 -1 -1 -1 0 1;
#X obj 380 422 s \$0-nota13R;
#X msg 386 364 color 142 142 142;
#X msg 521 275 color 45 45 45;
#X msg 502 397 color 44 44 44;
#X obj 398 245 s \$0-nota14R;
#X obj 206 212 r \$0-nota14S;
#X connect 92 0 91 0;
#X connect 93 0 96 0;
#X connect 94 0 106 0;
#X connect 95 0 104 0;
#X connect 95 1 94 0;
#X connect 96 0 95 0;
#X connect 97 0 104 0;
#X connect 98 0 100 0;
#X connect 99 0 100 0;
#X connect 103 0 102 0;
#X connect 104 0 106 0;
#X connect 105 0 102 0;
#X connect 107 0 93 0;
#X coords 0 -1 1 1 900 70 2 100 100;
#X restore -3 -85 pd piano;
#X connect 28 0 27 0;
#X connect 30 0 33 0;
#X connect 33 0 31 0;
#X connect 36 0 35 0;
#X connect 37 0 38 0;
#X connect 38 0 36 0;
#X connect 40 0 39 0;
#X connect 45 0 37 0;
