#N canvas 246 73 660 458 24;
#X obj 174 121 netsend;
#X floatatom 176 175 5 0 0 0 - - -;
#X msg 254 72 connect 192.168.1.101 3030;
#X obj 280 197 netreceive 3033;
#X floatatom 492 240 5 0 0 0 - - -;
#X obj 289 249 prepend set;
#X msg 200 307 5 1;
#X obj 37 241 prepend set;
#X msg 42 291 77 0;
#X obj 31 56 r notas;
#X msg 178 29 send \$1 \$2;
#X obj 343 327 s camera;
#X connect 0 0 1 0;
#X connect 2 0 0 0;
#X connect 3 0 5 0;
#X connect 3 0 11 0;
#X connect 3 1 4 0;
#X connect 5 0 6 0;
#X connect 7 0 8 0;
#X connect 9 0 7 0;
#X connect 9 0 10 0;
#X connect 10 0 0 0;
