#N canvas 0 26 1003 640 16;
#X obj 25 89 gemhead;
#X obj 26 672 pix_texture;
#X floatatom 105 392 5 0 0 0 - - -;
#X floatatom 48 640 5 0 0 0 - - -;
#X floatatom 106 599 5 0 0 0 - - -;
#X symbolatom 343 590 40 0 0 0 - - -;
#X text 145 599 width;
#X text 170 580 height;
#X floatatom 129 581 5 0 0 0 - - -;
#X floatatom 84 618 5 0 0 0 - - -;
#X text 123 618 #frames;
#X text 151 390 Playback speed;
#X text 88 640 current frame;
#X text 576 497 This outlet outputs a bang when the end of the file
is reached.;
#X obj 26 724 square;
#X obj 158 66 tgl 15 0 empty empty empty 0 -6 0 10 -262144 -1 -1 1
1;
#X obj 83 531 unpack f f f s f;
#X floatatom 212 631 5 0 0 0 - - -;
#X text 247 534 frame rate(fps) \, defaults to 20 with old versions
of Gem;
#X obj 26 698 gems.fit.scale window;
#X obj 92 472 dac~;
#X obj 105 414 sig~;
#X msg 76 235 frame \$1;
#X obj 145 263 hsl 128 15 0 1 0 0 empty empty empty -2 -8 0 10 -262144
-1 -1 3100 1;
#X obj 145 282 hsl 128 15 0 1 0 0 empty empty empty -2 -8 0 10 -262144
-1 -1 4806 1;
#X text 282 263 Loop start (0-1);
#X text 282 279 Loop end (0-1);
#X obj 79 213 hsl 128 15 0 1 0 0 empty empty empty -2 -8 0 10 -262144
-1 -1 0 1;
#X text 140 237 Go to frame (0-1);
#X obj 142 302 t f b;
#X obj 89 325 pack f f;
#X msg 89 347 loop \$1 \$2;
#X obj 25 444 gems.movies~;
#X obj 94 503 print enfofloop;
#X obj 158 90 gems.win 700 500;
#X floatatom 364 229 5 0 0 0 - - in;
#X floatatom 238 302 5 0 0 0 - - out;
#N canvas 0 0 450 300 (subpatch) 0;
#X array inicio 8 float 3;
#A 0 0 0.110236 0.244094 0.409449 0.543307 0.606299 0.732283 0.874016
;
#X coords 0 1 8 0 200 140 1;
#X restore 457 21 graph;
#N canvas 0 0 450 300 (subpatch) 0;
#X array final 8 float 3;
#A 0 0.134331 0.252441 0.378425 0.512283 0.638268 0.748504 0.85874
1;
#X coords 0 1 8 0 200 140 1;
#X restore 458 196 graph;
#X obj 599 497 tabwrite inicio;
#X obj 541 428 tabwrite final;
#X obj 691 309 vradio 15 1 0 8 empty empty empty 0 -8 0 10 -262144
-1 -1 0;
#X obj 538 402 f;
#X obj 529 383 bng 15 250 50 0 empty empty empty 17 7 0 10 -262144
-1 -1;
#X obj 592 472 f;
#X obj 563 457 bng 15 250 50 0 empty empty empty 17 7 0 10 -262144
-1 -1;
#X obj 552 370 r out;
#X obj 621 458 r in;
#X obj 699 442 s go;
#X obj 484 363 r go;
#X obj 327 349 hradio 15 1 0 8 empty empty empty 0 -8 0 10 -262144
-1 -1 2;
#X obj 328 397 tabread inicio;
#X obj 358 436 tabread final;
#N canvas 118 215 682 385 ascii 0;
#X obj 75 62 key;
#X floatatom 174 51 5 0 0 0 - - -;
#X msg 40 133 0;
#X msg 69 133 1;
#X obj 158 303 outlet;
#X msg 97 135 2;
#X msg 158 135 4;
#X msg 190 134 5;
#X msg 222 136 6;
#X msg 253 137 7;
#X msg 125 134 3;
#X obj 77 102 sel 113 119 101 114 116 121 117 105 111 112;
#X obj 343 76 key;
#X obj 347 102 sel 97 115 100 102 103 104 106 107 108;
#X text 506 83 asdfg;
#X text 287 85 qwerty;
#X msg 306 147 8;
#X msg 335 147 9;
#X msg 363 149 10;
#X msg 391 148 11;
#X msg 423 149 12;
#X msg 456 148 13;
#X msg 488 150 14;
#X msg 518 152 15;
#X obj 227 28 sel 10;
#X obj 222 50 s \$0-enterR;
#X obj 357 267 sel 122 120 99 118 98 110 109 44 46 29;
#X msg 451 301 0;
#X msg 477 297 1;
#X msg 506 298 2;
#X msg 534 299 3;
#X msg 419 300 -1;
#X msg 391 299 -2;
#X msg 362 298 -3;
#X msg 335 297 -4;
#X msg 563 300 4;
#X obj 432 351 s \$0-tone;
#X obj 364 242 key;
#X obj 413 20 adc~;
#X obj 413 47 fiddle~;
#X floatatom 469 13 5 0 0 0 - - -;
#X obj 521 22 % 12;
#X floatatom 523 41 5 0 0 0 - - -;
#X obj 78 264 r seq;
#X connect 0 0 1 0;
#X connect 0 0 11 0;
#X connect 0 0 24 0;
#X connect 2 0 4 0;
#X connect 3 0 4 0;
#X connect 5 0 4 0;
#X connect 6 0 4 0;
#X connect 7 0 4 0;
#X connect 8 0 4 0;
#X connect 9 0 4 0;
#X connect 10 0 4 0;
#X connect 11 0 2 0;
#X connect 11 1 3 0;
#X connect 11 2 5 0;
#X connect 11 3 10 0;
#X connect 11 4 6 0;
#X connect 11 5 7 0;
#X connect 11 6 8 0;
#X connect 11 7 9 0;
#X connect 12 0 13 0;
#X connect 13 0 16 0;
#X connect 13 1 17 0;
#X connect 13 2 18 0;
#X connect 13 3 19 0;
#X connect 13 4 20 0;
#X connect 13 5 21 0;
#X connect 13 6 22 0;
#X connect 13 7 23 0;
#X connect 16 0 4 0;
#X connect 17 0 4 0;
#X connect 18 0 4 0;
#X connect 19 0 4 0;
#X connect 20 0 4 0;
#X connect 21 0 4 0;
#X connect 22 0 4 0;
#X connect 23 0 4 0;
#X connect 24 0 25 0;
#X connect 26 0 34 0;
#X connect 26 2 33 0;
#X connect 26 3 32 0;
#X connect 26 4 31 0;
#X connect 26 5 27 0;
#X connect 26 6 28 0;
#X connect 26 7 29 0;
#X connect 26 8 30 0;
#X connect 26 9 35 0;
#X connect 27 0 36 0;
#X connect 28 0 36 0;
#X connect 29 0 36 0;
#X connect 30 0 36 0;
#X connect 31 0 36 0;
#X connect 32 0 36 0;
#X connect 33 0 36 0;
#X connect 34 0 36 0;
#X connect 35 0 36 0;
#X connect 37 0 26 0;
#X connect 38 0 39 0;
#X connect 39 0 40 0;
#X connect 40 0 41 0;
#X connect 41 0 42 0;
#X connect 43 0 4 0;
#X restore 337 311 pd ascii;
#X floatatom 382 458 5 0 0 0 - - -;
#X floatatom 434 435 5 0 0 0 - - -;
#X obj 446 370 bng 15 250 50 0 empty empty empty 17 7 0 10 -262144
-1 -1;
#X obj 262 342 pipe 100;
#N canvas 0 26 800 472 salvando 0;
#X msg 396 -361 rewind;
#X obj 443 -43 textfile;
#X msg 396 -334 bang;
#X msg 506 -165 write /tmp/textfile2.txt cr;
#X obj 255 -37 print list;
#X msg 505 -96 read textfile.txt cr;
#X msg 396 -306 clear;
#X msg 504 -246 set 2 4 6 8;
#X msg 526 -193 add2 bang;
#X msg 504 -69 print;
#X obj 182 -214 tabdump inicio;
#X obj 105 -314 bng 15 250 50 0 empty empty empty 17 7 0 10 -262144
-1 -1;
#X obj 177 -157 prepend add;
#X msg 58 -106 add teste;
#X obj 44 -158 prepend add;
#X obj 43 -213 tabdump final;
#X msg 47 27 write /home/glerm/artesanatodevolts/video.vmpd;
#X msg 86 67 read /home/glerm/artesanatodevolts/video.vmpd;
#X obj 554 10 prepend set;
#X obj 181 -184 prepend inicio;
#X obj 43 -184 prepend final;
#X obj 331 -153 prepend add;
#X obj 335 -222 r nome;
#X obj 109 -285 t b b b;
#X obj 224 -274 s bnome;
#X obj 333 -190 prepend nome;
#X msg 558 47 final 0.134331 0.252441 0.378425 0.512283 0.638268 0.748504
0.85874 1;
#X obj 667 -282 s inicio;
#X obj 621 -335 route nome inicio final;
#X msg 506 -220 read textfile.txt;
#X obj 767 -279 s final;
#X obj 666 -308 prepend 0;
#X obj 766 -306 prepend 0;
#X connect 0 0 1 0;
#X connect 1 0 4 0;
#X connect 1 0 18 0;
#X connect 1 0 28 0;
#X connect 2 0 1 0;
#X connect 3 0 1 0;
#X connect 5 0 1 0;
#X connect 6 0 1 0;
#X connect 7 0 1 0;
#X connect 8 0 1 0;
#X connect 9 0 1 0;
#X connect 10 0 19 0;
#X connect 11 0 23 0;
#X connect 12 0 1 0;
#X connect 13 0 1 0;
#X connect 14 0 1 0;
#X connect 15 0 20 0;
#X connect 16 0 1 0;
#X connect 17 0 1 0;
#X connect 18 0 26 0;
#X connect 19 0 12 0;
#X connect 20 0 14 0;
#X connect 21 0 1 0;
#X connect 22 0 25 0;
#X connect 23 0 15 0;
#X connect 23 1 10 0;
#X connect 23 2 24 0;
#X connect 25 0 21 0;
#X connect 28 1 31 0;
#X connect 28 2 32 0;
#X connect 29 0 1 0;
#X connect 31 0 27 0;
#X connect 32 0 30 0;
#X restore 281 638 pd salvando;
#X obj 446 693 symbol;
#X obj 455 651 bng 15 250 50 0 empty empty empty 17 7 0 10 -262144
-1 -1;
#X obj 453 722 s nome;
#X obj 387 567 bng 15 250 50 0 empty empty empty 17 7 0 10 -262144
-1 -1;
#X obj 502 641 r bnome;
#X msg 61 171 load \$1;
#X obj 63 141 openpanel;
#X obj 64 121 bng 15 250 50 0 empty empty empty 17 7 0 10 -262144 -1
-1;
#X obj 192 458 hsl 128 15 0 -1 0 0 empty empty empty -2 -8 0 10 -262144
-1 -1 10341 1;
#X obj 191 422 r a0;
#X obj 253 428 change;
#X obj 246 485 autoscale -1 1;
#X connect 0 0 32 0;
#X connect 1 0 19 0;
#X connect 2 0 21 0;
#X connect 5 0 59 1;
#X connect 15 0 34 0;
#X connect 16 0 9 0;
#X connect 16 1 4 0;
#X connect 16 2 8 0;
#X connect 16 3 5 0;
#X connect 16 4 17 0;
#X connect 19 0 14 0;
#X connect 21 0 32 2;
#X connect 22 0 32 1;
#X connect 23 0 30 0;
#X connect 23 0 35 0;
#X connect 24 0 29 0;
#X connect 24 0 36 0;
#X connect 27 0 22 0;
#X connect 29 0 30 1;
#X connect 29 1 23 0;
#X connect 30 0 31 0;
#X connect 31 0 32 1;
#X connect 32 0 1 0;
#X connect 32 1 3 0;
#X connect 32 2 16 0;
#X connect 32 3 33 0;
#X connect 32 4 20 0;
#X connect 32 5 20 1;
#X connect 41 0 40 1;
#X connect 41 0 39 1;
#X connect 41 0 48 0;
#X connect 42 0 40 0;
#X connect 43 0 42 0;
#X connect 44 0 39 0;
#X connect 45 0 44 0;
#X connect 46 0 42 1;
#X connect 47 0 44 1;
#X connect 49 0 43 0;
#X connect 49 0 45 0;
#X connect 50 0 52 0;
#X connect 50 0 51 0;
#X connect 51 0 55 0;
#X connect 51 0 57 0;
#X connect 52 0 54 0;
#X connect 52 0 24 0;
#X connect 53 0 50 0;
#X connect 53 0 56 0;
#X connect 57 0 23 0;
#X connect 59 0 61 0;
#X connect 60 0 59 0;
#X connect 62 0 5 0;
#X connect 63 0 60 0;
#X connect 64 0 32 1;
#X connect 65 0 64 0;
#X connect 66 0 65 0;
#X connect 67 0 2 0;
#X connect 68 0 70 0;
#X connect 69 0 67 0;
#X connect 70 0 69 0;
