#N canvas 0 26 1003 661 10;
#X obj 135 174 mimosa-nbxcol;
#X obj 135 122 == 0;
#X obj 207 120 == 1;
#X obj 279 118 == 2;
#X obj 351 119 == 3;
#X obj 423 118 == 4;
#X obj 495 119 == 5;
#X obj 567 118 == 6;
#X obj 639 119 == 7;
#X msg 56 305 bang;
#X text 57 286 zero all;
#X obj 207 174 mimosa-nbxcol;
#X obj 351 174 mimosa-nbxcol;
#X obj 279 174 mimosa-nbxcol;
#X obj 495 174 mimosa-nbxcol;
#X obj 423 174 mimosa-nbxcol;
#X obj 639 174 mimosa-nbxcol;
#X obj 567 174 mimosa-nbxcol;
#X obj 182 148 bng 15 250 50 0 empty \$0-ZERO empty 17 7 0 10 -262144
-1 -1;
#X obj 256 148 bng 15 250 50 0 empty \$0-ZERO empty 17 7 0 10 -262144
-1 -1;
#X obj 329 149 bng 15 250 50 0 empty \$0-ZERO empty 17 7 0 10 -262144
-1 -1;
#X obj 403 149 bng 15 250 50 0 empty \$0-ZERO empty 17 7 0 10 -262144
-1 -1;
#X obj 465 146 bng 15 250 50 0 empty \$0-ZERO empty 17 7 0 10 -262144
-1 -1;
#X obj 539 146 bng 15 250 50 0 empty \$0-ZERO empty 17 7 0 10 -262144
-1 -1;
#X obj 612 147 bng 15 250 50 0 empty \$0-ZERO empty 17 7 0 10 -262144
-1 -1;
#X obj 686 147 bng 15 250 50 0 empty \$0-ZERO empty 17 7 0 10 -262144
-1 -1;
#X obj 49 333 s \$0-ZERO;
#X obj 45 546 t b l;
#X msg 733 147 print;
#X msg 678 30 saveXML /home/glerm/artesanatodevolts/matriz.xml;
#X msg 688 51 readXML /home/glerm/artesanatodevolts/matriz.xml;
#X obj 289 -49 tgl 15 0 empty empty empty 0 -6 0 8 -262144 -1 -1 0
1;
#X obj 276 15 timing.tempo 120 1 8;
#X floatatom 242 16 5 0 0 0 - - -;
#X floatatom 411 48 5 0 0 0 - - -;
#X obj 386 40 % 8;
#X floatatom 395 -11 5 0 0 0 - - -;
#X floatatom 480 55 5 0 0 0 - - -;
#X obj 474 -27 hradio 15 1 0 32 empty empty empty 0 -8 0 10 -262144
-1 -1 0;
#X floatatom 316 -8 5 0 0 0 - - -;
#X obj 9 98 h_multimap;
#X obj 47 192 h_multiset;
#X msg 44 571 add page0;
#X msg 486 1 set 0;
#X obj 287 -30 t f b;
#X obj 531 61 s \$0-page;
#X obj 35 410 r \$0-page;
#X obj 7 445 makefilename page%d;
#X msg 11 475 add \$1;
#X obj 22 504 prepend set;
#X msg 780 112 clearall;
#X obj 52 592 h_multimap \$0-nbxmtx;
#X obj 733 173 h_multimap \$0-nbxmtx;
#X obj 479 32 counter 0 31;
#X obj 426 13 sel 7;
#X msg 528 1 jam 0;
#X connect 1 0 0 0;
#X connect 2 0 11 0;
#X connect 3 0 13 0;
#X connect 4 0 12 0;
#X connect 5 0 15 0;
#X connect 6 0 14 0;
#X connect 7 0 17 0;
#X connect 8 0 16 0;
#X connect 9 0 26 0;
#X connect 18 0 0 1;
#X connect 19 0 11 1;
#X connect 20 0 13 1;
#X connect 21 0 12 1;
#X connect 22 0 15 1;
#X connect 23 0 14 1;
#X connect 24 0 17 1;
#X connect 25 0 16 1;
#X connect 27 0 42 0;
#X connect 27 1 51 1;
#X connect 28 0 52 0;
#X connect 29 0 52 0;
#X connect 30 0 52 0;
#X connect 31 0 44 0;
#X connect 32 0 33 0;
#X connect 32 0 35 0;
#X connect 32 0 1 0;
#X connect 32 0 2 0;
#X connect 32 0 3 0;
#X connect 32 0 4 0;
#X connect 32 0 5 0;
#X connect 32 0 6 0;
#X connect 32 0 7 0;
#X connect 32 0 8 0;
#X connect 35 0 34 0;
#X connect 35 0 54 0;
#X connect 36 0 32 3;
#X connect 39 0 32 1;
#X connect 42 0 51 0;
#X connect 43 0 53 0;
#X connect 44 0 32 0;
#X connect 44 1 43 0;
#X connect 44 1 32 0;
#X connect 44 1 55 0;
#X connect 46 0 47 0;
#X connect 47 0 48 0;
#X connect 48 0 49 0;
#X connect 49 0 42 0;
#X connect 50 0 52 0;
#X connect 53 0 37 0;
#X connect 53 0 38 0;
#X connect 53 0 45 0;
#X connect 54 0 53 0;
#X connect 55 0 53 0;
