#N canvas 0 26 800 493 10;
#X obj 213 136 nbx 1 20 -1e+37 1e+37 0 0 empty empty empty 0 -8 0 20
-257985 -13381 -1 0 256;
#X obj 143 136 nbx 1 20 -1e+37 1e+37 0 0 empty empty empty 0 -8 0 20
-260097 -86853 -1 0 256;
#X obj 178 136 nbx 1 20 -1e+37 1e+37 0 0 empty empty empty 0 -8 0 20
-4034 -13381 -1 0 256;
#X obj 108 136 nbx 1 20 -1e+37 1e+37 0 0 empty empty empty 0 -8 0 20
-16662 -203904 -1 3 256;
#X obj 353 136 nbx 1 20 -1e+37 1e+37 0 0 empty empty empty 0 -8 0 20
-257985 -13381 -1 0 256;
#X obj 283 136 nbx 1 20 -1e+37 1e+37 0 0 empty empty empty 0 -8 0 20
-260097 -86853 -1 0 256;
#X obj 318 136 nbx 1 20 -1e+37 1e+37 0 0 empty empty empty 0 -8 0 20
-4034 -13381 -1 0 256;
#X obj 248 136 nbx 1 20 -1e+37 1e+37 0 0 empty empty empty 0 -8 0 20
-16662 -203904 -1 0 256;
#X obj 202 403 outlet;
#X obj 38 22 inlet;
#X obj 106 158 hradio 35 1 0 16 empty empty empty 0 -8 0 10 -228856
-58253 -1 0;
#X obj 113 321 int;
#X obj 149 321 int;
#X obj 185 321 int;
#X obj 219 321 int;
#X obj 254 321 int;
#X obj 290 321 int;
#X obj 326 321 int;
#X obj 360 321 int;
#X obj 189 210 sel 0 1 2 3 4 5 6 7;
#X obj 681 109 bng 15 250 50 0 empty empty random -20 -5 0 10 -262144
-1 -1;
#N canvas 0 163 792 437 auto 0;
#X obj 40 388 outlet;
#X obj 41 175 random 8;
#X obj 94 388 outlet;
#X obj 95 175 random 8;
#X obj 149 388 outlet;
#X obj 150 175 random 8;
#X obj 203 388 outlet;
#X obj 204 175 random 8;
#X obj 258 388 outlet;
#X obj 259 175 random 8;
#X obj 312 388 outlet;
#X obj 313 175 random 8;
#X obj 367 388 outlet;
#X obj 368 175 random 8;
#X obj 421 388 outlet;
#X obj 422 175 random 8;
#X obj 215 45 t b b b b b b b b;
#X obj 215 23 inlet;
#X obj 379 21 inlet;
#X msg 384 49 0 1 2 3 4 5 6 7;
#X obj 373 78 unpack f f f f f f f f;
#X obj 489 18 inlet;
#X obj 602 19 inlet;
#X msg 627 76 0 0 0 0 0 0 0 0;
#X msg 494 46 7 6 5 4 3 2 1 0;
#X obj 688 26 inlet;
#X connect 1 0 0 0;
#X connect 3 0 2 0;
#X connect 5 0 4 0;
#X connect 7 0 6 0;
#X connect 9 0 8 0;
#X connect 11 0 10 0;
#X connect 13 0 12 0;
#X connect 15 0 14 0;
#X connect 16 0 1 0;
#X connect 16 1 3 0;
#X connect 16 2 5 0;
#X connect 16 3 7 0;
#X connect 16 4 9 0;
#X connect 16 5 11 0;
#X connect 16 6 13 0;
#X connect 16 7 15 0;
#X connect 17 0 16 0;
#X connect 18 0 19 0;
#X connect 19 0 20 0;
#X connect 20 0 0 0;
#X connect 20 1 2 0;
#X connect 20 2 4 0;
#X connect 20 3 6 0;
#X connect 20 4 8 0;
#X connect 20 5 10 0;
#X connect 20 6 12 0;
#X connect 20 7 14 0;
#X connect 21 0 24 0;
#X connect 22 0 23 0;
#X connect 23 0 20 0;
#X connect 24 0 20 0;
#X connect 25 0 20 0;
#X restore 110 70 pd auto -----------------------------------;
#X obj 682 135 bng 15 250 50 0 empty empty > 0 -5 0 15 -262144 -1 -1
;
#X obj 682 160 bng 15 250 50 0 empty empty < 0 -5 0 15 -262144 -1 -1
;
#X obj 684 185 bng 12 250 50 0 empty empty zero -15 -5 0 10 -262144
-1 -1;
#X obj 410 31 inlet;
#X obj 418 444 outlet;
#X obj 416 417 prepend set;
#X obj 388 383 pack f f f f f f f f;
#X obj 494 136 nbx 1 20 -1e+37 1e+37 0 0 empty empty empty 0 -8 0 20
-257985 -13381 -1 0 256;
#X obj 424 136 nbx 1 20 -1e+37 1e+37 0 0 empty empty empty 0 -8 0 20
-260097 -86853 -1 0 256;
#X obj 459 136 nbx 1 20 -1e+37 1e+37 0 0 empty empty empty 0 -8 0 20
-4034 -13381 -1 0 256;
#X obj 388 136 nbx 1 20 -1e+37 1e+37 0 0 empty empty empty 0 -8 0 20
-16662 -203904 -1 0 256;
#X obj 634 136 nbx 1 20 -1e+37 1e+37 0 0 empty empty empty 0 -8 0 20
-257985 -13381 -1 0 256;
#X obj 563 136 nbx 1 20 -1e+37 1e+37 0 0 empty empty empty 0 -8 0 20
-260097 -86853 -1 0 256;
#X obj 599 136 nbx 1 20 -1e+37 1e+37 0 0 empty empty empty 0 -8 0 20
-4034 -13381 -1 0 256;
#X obj 528 136 nbx 1 20 -1e+37 1e+37 0 0 empty empty empty 0 -8 0 20
-16662 -203904 -1 0 256;
#X floatatom 76 21 5 0 0 0 - - -;
#X floatatom 85 369 5 0 0 0 - - -;
#X connect 0 0 14 1;
#X connect 1 0 12 1;
#X connect 2 0 13 1;
#X connect 3 0 11 1;
#X connect 4 0 18 1;
#X connect 5 0 16 1;
#X connect 6 0 17 1;
#X connect 7 0 15 1;
#X connect 9 0 10 0;
#X connect 10 0 19 0;
#X connect 11 0 8 0;
#X connect 11 0 28 0;
#X connect 11 0 38 0;
#X connect 12 0 8 0;
#X connect 12 0 28 1;
#X connect 13 0 8 0;
#X connect 13 0 28 2;
#X connect 14 0 8 0;
#X connect 14 0 28 3;
#X connect 15 0 8 0;
#X connect 15 0 28 4;
#X connect 16 0 8 0;
#X connect 16 0 28 5;
#X connect 17 0 8 0;
#X connect 17 0 28 6;
#X connect 18 0 8 0;
#X connect 18 0 28 7;
#X connect 19 0 11 0;
#X connect 19 1 12 0;
#X connect 19 2 13 0;
#X connect 19 3 14 0;
#X connect 19 4 15 0;
#X connect 19 5 16 0;
#X connect 19 6 17 0;
#X connect 19 7 18 0;
#X connect 20 0 21 0;
#X connect 21 0 3 0;
#X connect 21 1 1 0;
#X connect 21 2 2 0;
#X connect 21 3 0 0;
#X connect 21 4 7 0;
#X connect 21 5 5 0;
#X connect 21 6 6 0;
#X connect 21 7 4 0;
#X connect 22 0 21 1;
#X connect 23 0 21 2;
#X connect 24 0 21 3;
#X connect 25 0 21 4;
#X connect 27 0 26 0;
#X connect 28 0 27 0;
#X connect 37 0 10 0;
#X coords 0 -1 1 1 600 100 2 100 100;
