#N canvas 0 0 779 493 16;
#X obj 135 121 == 0;
#X obj 207 120 == 1;
#X obj 279 118 == 2;
#X obj 351 119 == 3;
#X obj 423 118 == 4;
#X obj 495 119 == 5;
#X obj 567 118 == 6;
#X obj 639 119 == 7;
#X msg 198 24 bang;
#X obj 356 -23 tgl 40 0 empty empty empty 17 7 0 10 -146369 -86853
-1 0 1;
#X text 199 5 zero all;
#X obj 513 -11 hsl 128 10 100 1000 1 0 empty empty empty -2 -8 0 10
-203904 -4160 -1 1700 1;
#N canvas 116 136 450 300 metrocount 0;
#X obj 48 55 metro 250;
#X obj 66 5 inlet;
#X obj 107 226 outlet;
#X obj 127 3 inlet;
#X obj 73 154 f 0;
#X obj 73 175 + 1;
#X msg 85 118 0;
#X obj 54 76 route reset;
#X msg 23 119 bang;
#X obj 73 199 - 1;
#X obj 109 154 mod 8;
#X obj 199 16 inlet;
#X connect 0 0 7 0;
#X connect 1 0 0 0;
#X connect 3 0 0 1;
#X connect 4 0 5 0;
#X connect 5 0 9 0;
#X connect 5 0 10 0;
#X connect 6 0 4 1;
#X connect 7 0 6 0;
#X connect 7 1 8 0;
#X connect 8 0 4 0;
#X connect 9 0 2 0;
#X connect 10 0 4 1;
#X connect 11 0 2 0;
#X restore 355 21 pd metrocount;
#X obj 179 150 bng 15 250 50 0 empty \$0-ZERO empty 17 7 0 10 -262144
-1 -1;
#X obj 256 148 bng 15 250 50 0 empty \$0-ZERO empty 17 7 0 10 -262144
-1 -1;
#X obj 329 149 bng 15 250 50 0 empty \$0-ZERO empty 17 7 0 10 -262144
-1 -1;
#X obj 403 149 bng 15 250 50 0 empty \$0-ZERO empty 17 7 0 10 -262144
-1 -1;
#X obj 465 146 bng 15 250 50 0 empty \$0-ZERO empty 17 7 0 10 -262144
-1 -1;
#X obj 539 146 bng 15 250 50 0 empty \$0-ZERO empty 17 7 0 10 -262144
-1 -1;
#X obj 612 147 bng 15 250 50 0 empty \$0-ZERO empty 17 7 0 10 -262144
-1 -1;
#X obj 686 147 bng 15 250 50 0 empty \$0-ZERO empty 17 7 0 10 -262144
-1 -1;
#X obj 98 -12 s \$0-ZERO;
#X obj 196 -16 sel 0;
#X text 597 778 ____;
#X obj 231 626 prepend add;
#X obj 337 760 textfile;
#X msg 607 707 print;
#X msg 602 756 rewind;
#X msg 611 730 clear;
#N canvas 181 45 450 300 gravando 0;
#X obj 209 179 list-drip;
#X msg 209 153 0 1 2 3 4 5 6 7;
#X obj 279 99 s txtmsg;
#X msg 279 69 clear;
#X obj 43 19 inlet;
#X obj 115 46 t b b b;
#X obj 213 267 outlet;
#X connect 0 0 6 0;
#X connect 1 0 0 0;
#X connect 3 0 2 0;
#X connect 4 0 5 0;
#X connect 5 1 1 0;
#X connect 5 2 3 0;
#X restore 518 34 pd gravando;
#X obj 224 709 r txtmsg;
#X obj 535 12 bng 15 250 50 0 empty empty empty 17 7 0 10 -262144 -1
-1;
#X obj 136 174 mimosa-nbxcol;
#X obj 207 174 mimosa-nbxcol;
#X obj 351 174 mimosa-nbxcol;
#X obj 279 174 mimosa-nbxcol;
#X obj 495 174 mimosa-nbxcol;
#X obj 423 174 mimosa-nbxcol;
#X obj 639 174 mimosa-nbxcol;
#X obj 567 174 mimosa-nbxcol;
#X obj 335 706 spigot;
#X obj -18 73 route 0 1 2 3 4 5 6 7;
#X obj -33 540 prepend 0;
#X obj 67 540 prepend 1;
#X obj 399 683 tgl 15 0 empty empty empty 17 7 0 10 -262144 -1 -1 0
1;
#X obj 166 540 prepend 2;
#X obj 267 540 prepend 3;
#X obj 366 542 prepend 4;
#X obj 466 542 prepend 5;
#X obj 565 542 prepend 6;
#X obj 662 542 prepend 7;
#X obj 532 617 t b b b b b b b b;
#X obj 539 703 bng 15 250 50 0 empty empty empty 17 7 0 10 -262144
-1 -1;
#X obj 40 706 s preset;
#X obj -20 38 r preset;
#X obj 537 595 bng 15 250 50 0 empty empty empty 17 7 0 10 -262144
-1 -1;
#X connect 0 0 32 1;
#X connect 1 0 33 1;
#X connect 2 0 35 1;
#X connect 3 0 34 1;
#X connect 4 0 37 1;
#X connect 5 0 36 1;
#X connect 6 0 39 1;
#X connect 7 0 38 1;
#X connect 8 0 21 0;
#X connect 9 0 12 0;
#X connect 11 0 12 1;
#X connect 12 0 0 0;
#X connect 12 0 1 0;
#X connect 12 0 2 0;
#X connect 12 0 3 0;
#X connect 12 0 4 0;
#X connect 12 0 5 0;
#X connect 12 0 6 0;
#X connect 12 0 7 0;
#X connect 13 0 32 2;
#X connect 14 0 33 2;
#X connect 15 0 35 2;
#X connect 16 0 34 2;
#X connect 17 0 37 2;
#X connect 18 0 36 2;
#X connect 19 0 39 2;
#X connect 20 0 38 2;
#X connect 22 0 8 0;
#X connect 24 0 40 0;
#X connect 25 0 53 0;
#X connect 26 0 25 0;
#X connect 27 0 25 0;
#X connect 28 0 25 0;
#X connect 29 0 12 2;
#X connect 30 0 25 0;
#X connect 31 0 29 0;
#X connect 32 0 42 0;
#X connect 33 0 43 0;
#X connect 34 0 46 0;
#X connect 35 0 45 0;
#X connect 36 0 48 0;
#X connect 37 0 47 0;
#X connect 38 0 50 0;
#X connect 39 0 49 0;
#X connect 40 0 25 0;
#X connect 41 0 32 0;
#X connect 41 1 33 0;
#X connect 41 2 35 0;
#X connect 41 3 34 0;
#X connect 41 4 37 0;
#X connect 41 5 36 0;
#X connect 41 6 39 0;
#X connect 41 7 38 0;
#X connect 42 0 24 0;
#X connect 43 0 24 0;
#X connect 44 0 40 1;
#X connect 45 0 24 0;
#X connect 46 0 24 0;
#X connect 47 0 24 0;
#X connect 48 0 24 0;
#X connect 49 0 24 0;
#X connect 50 0 24 0;
#X connect 51 0 25 0;
#X connect 51 1 25 0;
#X connect 51 2 25 0;
#X connect 51 3 25 0;
#X connect 51 4 25 0;
#X connect 51 5 25 0;
#X connect 51 6 25 0;
#X connect 51 7 25 0;
#X connect 52 0 25 0;
#X connect 54 0 41 0;
#X connect 55 0 51 0;
