#N canvas 0 26 1024 661 10;
#X obj 104 103 nbx 3 20 0 1e+37 0 0 \$0-Scol0 \$0-Rcol0 empty 0 -8
1 20 -129313 -1 -1 0 256;
#X obj 159 102 bng 10 250 50 0 \$0-Smute0 \$0-Rmute0 empty 17 7 0 10
-191407 -1 -1;
#X obj 104 125 nbx 3 20 0 1e+37 0 0 \$0-Scol1 \$0-Rcol1 empty 0 -8
1 20 -129313 -1 -1 0 256;
#X obj 159 124 bng 10 250 50 0 \$0-Smute1 \$0-Rmute1 empty 17 7 0 10
-191407 -1 -1;
#X obj 104 147 nbx 3 20 0 1e+37 0 0 \$0-Scol2 \$0-Rcol2 empty 0 -8
1 20 -129313 -1 -1 51 256;
#X obj 159 146 bng 10 250 50 0 \$0-Smute2 \$0-Rmute2 empty 17 7 0 10
-191407 -1 -1;
#X obj 104 169 nbx 3 20 0 1e+37 0 0 \$0-Scol3 \$0-Rcol3 empty 0 -8
1 20 -129313 -1 -1 0 256;
#X obj 159 168 bng 10 250 50 0 \$0-Smute3 \$0-Rmute3 empty 17 7 0 10
-191407 -1 -1;
#X obj 104 191 nbx 3 20 0 1e+37 0 0 \$0-Scol4 \$0-Rcol4 empty 0 -8
1 20 -129313 -1 -1 0 256;
#X obj 159 190 bng 10 250 50 0 \$0-Smute4 \$0-Rmute4 empty 17 7 0 10
-191407 -1 -1;
#X obj 104 213 nbx 3 20 0 1e+37 0 0 \$0-Scol5 \$0-Rcol5 empty 0 -8
1 20 -129313 -1 -1 0 256;
#X obj 159 212 bng 10 250 50 0 \$0-Smute5 \$0-Rmute5 empty 17 7 0 10
-191407 -1 -1;
#X obj 104 235 nbx 3 20 0 1e+37 0 0 \$0-Scol6 \$0-Rcol6 empty 0 -8
1 20 -129313 -1 -1 0 256;
#X obj 159 234 bng 10 250 50 0 \$0-Smute6 \$0-Rmute6 empty 17 7 0 10
-191407 -1 -1;
#X obj 104 257 nbx 3 20 0 1e+37 0 0 \$0-Scol7 \$0-Rcol7 empty 0 -8
1 20 -129313 -1 -1 0 256;
#X obj 159 256 bng 10 250 50 0 \$0-Smute7 \$0-Rmute7 empty 17 7 0 10
-191407 -1 -1;
#X obj 104 279 nbx 3 20 0 1e+37 0 0 \$0-Scol8 \$0-Rcol8 empty 0 -8
1 20 -129313 -1 -1 0 256;
#X obj 159 278 bng 10 250 50 0 \$0-Smute8 \$0-Rmute8 empty 17 7 0 10
-191407 -1 -1;
#X obj 104 301 nbx 3 20 0 1e+37 0 0 \$0-Scol9 \$0-Rcol9 empty 0 -8
1 20 -129313 -1 -1 0 256;
#X obj 159 300 bng 10 250 50 0 \$0-Smute9 \$0-Rmute9 empty 17 7 0 10
-191407 -1 -1;
#X obj 104 323 nbx 3 20 0 1e+37 0 0 \$0-Scol10 \$0-Rcol10 empty 0 -8
1 20 -129313 -1 -1 118 256;
#X obj 159 322 bng 10 250 50 0 \$0-Smute10 \$0-Rmute10 empty 17 7 0
10 -191407 -1 -1;
#X obj 104 345 nbx 3 20 0 1e+37 0 0 \$0-Scol11 \$0-Rcol11 empty 0 -8
1 20 -129313 -1 -1 0 256;
#X obj 159 344 bng 10 250 50 0 \$0-Smute11 \$0-Rmute11 empty 17 7 0
10 -191407 -1 -1;
#X obj 104 367 nbx 3 20 0 1e+37 0 0 \$0-Scol12 \$0-Rcol12 empty 0 -8
1 20 -129313 -1 -1 0 256;
#X obj 159 366 bng 10 250 50 0 \$0-Smute12 \$0-Rmute12 empty 17 7 0
10 -191407 -1 -1;
#X obj 104 389 nbx 3 20 0 1e+37 0 0 \$0-Scol13 \$0-Rcol13 empty 0 -8
1 20 -129313 -1 -1 0 256;
#X obj 159 388 bng 10 250 50 0 \$0-Smute13 \$0-Rmute13 empty 17 7 0
10 -191407 -1 -1;
#X obj 104 411 nbx 3 20 0 1e+37 0 0 \$0-Scol14 \$0-Rcol14 empty 0 -8
1 20 -129313 -1 -1 0 256;
#X obj 159 410 bng 10 250 50 0 \$0-Smute14 \$0-Rmute14 empty 17 7 0
10 -191407 -1 -1;
#X obj 104 433 nbx 3 20 0 1e+37 0 0 \$0-Scol15 \$0-Rcol15 empty 0 -8
1 20 -129313 -1 -1 65 256;
#X obj 159 432 bng 10 250 50 0 \$0-Smute15 \$0-Rmute14 empty 17 7 0
10 -191407 -1 -1;
#N canvas 0 107 1003 661 celulas 0;
#X msg -73 101 color -8.29453e+06 -1 -1;
#X msg -63 123 color -1.3734e+07 -1 -1;
#X obj -79 29 >= 1;
#X obj -80 68 sel 0 1;
#X obj -1 31 r \$0-Smute0;
#X msg -15 57 0;
#X obj -87 7 r \$0-Scol0;
#X obj -62 150 s \$0-Rcol0;
#X msg -73 276 color -8.29453e+06 -1 -1;
#X msg -63 298 color -1.3734e+07 -1 -1;
#X obj -79 204 >= 1;
#X obj -80 243 sel 0 1;
#X obj 1 212 r \$0-Smute1;
#X msg -15 232 0;
#X obj -87 182 r \$0-Scol1;
#X obj -62 325 s \$0-Rcol1;
#X msg -77 453 color -8.29453e+06 -1 -1;
#X msg -67 475 color -1.3734e+07 -1 -1;
#X obj -83 381 >= 1;
#X obj -84 420 sel 0 1;
#X obj 2 389 r \$0-Smute2;
#X msg -19 409 0;
#X obj -91 359 r \$0-Scol2;
#X obj -66 502 s \$0-Rcol2;
#X msg -76 628 color -8.29453e+06 -1 -1;
#X msg -66 650 color -1.3734e+07 -1 -1;
#X obj -82 556 >= 1;
#X obj -83 595 sel 0 1;
#X obj 5 562 r \$0-Smute3;
#X msg -18 584 0;
#X obj -90 534 r \$0-Scol3;
#X obj -65 677 s \$0-Rcol3;
#X msg 121 101 color -8.29453e+06 -1 -1;
#X msg 131 123 color -1.3734e+07 -1 -1;
#X obj 115 29 >= 1;
#X obj 114 68 sel 0 1;
#X obj 197 34 r \$0-Smute4;
#X msg 179 57 0;
#X obj 107 7 r \$0-Scol4;
#X obj 132 150 s \$0-Rcol4;
#X msg 137 281 color -8.29453e+06 -1 -1;
#X msg 147 303 color -1.3734e+07 -1 -1;
#X obj 131 209 >= 1;
#X obj 130 248 sel 0 1;
#X obj 211 213 r \$0-Smute5;
#X msg 195 237 0;
#X obj 123 187 r \$0-Scol5;
#X obj 148 330 s \$0-Rcol5;
#X msg 158 453 color -8.29453e+06 -1 -1;
#X msg 168 475 color -1.3734e+07 -1 -1;
#X obj 152 381 >= 1;
#X obj 151 420 sel 0 1;
#X obj 240 387 r \$0-Smute6;
#X msg 216 409 0;
#X obj 144 359 r \$0-Scol6;
#X obj 169 502 s \$0-Rcol6;
#X msg 178 631 color -8.29453e+06 -1 -1;
#X msg 188 653 color -1.3734e+07 -1 -1;
#X obj 172 559 >= 1;
#X obj 171 598 sel 0 1;
#X obj 252 562 r \$0-Smute7;
#X msg 236 587 0;
#X obj 164 537 r \$0-Scol7;
#X obj 189 680 s \$0-Rcol7;
#X msg 369 98 color -8.29453e+06 -1 -1;
#X msg 379 120 color -1.3734e+07 -1 -1;
#X obj 363 26 >= 1;
#X obj 362 65 sel 0 1;
#X obj 438 31 r \$0-Smute8;
#X msg 427 54 0;
#X obj 355 4 r \$0-Scol8;
#X obj 380 147 s \$0-Rcol8;
#X msg 369 273 color -8.29453e+06 -1 -1;
#X msg 379 295 color -1.3734e+07 -1 -1;
#X obj 363 201 >= 1;
#X obj 362 240 sel 0 1;
#X obj 445 206 r \$0-Smute9;
#X msg 427 229 0;
#X obj 355 179 r \$0-Scol9;
#X obj 380 322 s \$0-Rcol9;
#X msg 365 450 color -8.29453e+06 -1 -1;
#X msg 375 472 color -1.3734e+07 -1 -1;
#X obj 359 378 >= 1;
#X obj 358 417 sel 0 1;
#X obj 442 384 r \$0-Smute10;
#X msg 423 406 0;
#X obj 351 356 r \$0-Scol10;
#X obj 376 499 s \$0-Rcol10;
#X msg 366 625 color -8.29453e+06 -1 -1;
#X msg 376 647 color -1.3734e+07 -1 -1;
#X obj 360 553 >= 1;
#X obj 359 592 sel 0 1;
#X obj 451 548 r \$0-Smute11;
#X msg 424 581 0;
#X obj 352 531 r \$0-Scol11;
#X obj 377 674 s \$0-Rcol11;
#X msg 563 98 color -8.29453e+06 -1 -1;
#X msg 573 120 color -1.3734e+07 -1 -1;
#X obj 557 26 >= 1;
#X obj 556 65 sel 0 1;
#X obj 635 31 r \$0-Smute12;
#X msg 621 54 0;
#X obj 549 4 r \$0-Scol12;
#X obj 574 147 s \$0-Rcol12;
#X msg 579 278 color -8.29453e+06 -1 -1;
#X msg 589 300 color -1.3734e+07 -1 -1;
#X obj 573 206 >= 1;
#X obj 572 245 sel 0 1;
#X obj 658 211 r \$0-Smute13;
#X msg 637 234 0;
#X obj 565 184 r \$0-Scol13;
#X obj 590 327 s \$0-Rcol13;
#X msg 600 450 color -8.29453e+06 -1 -1;
#X msg 610 472 color -1.3734e+07 -1 -1;
#X obj 594 378 >= 1;
#X obj 593 417 sel 0 1;
#X obj 685 386 r \$0-Smute14;
#X msg 658 406 0;
#X obj 586 356 r \$0-Scol14;
#X obj 611 499 s \$0-Rcol14;
#X msg 620 628 color -8.29453e+06 -1 -1;
#X msg 630 650 color -1.3734e+07 -1 -1;
#X obj 614 556 >= 1;
#X obj 613 595 sel 0 1;
#X obj 692 562 r \$0-Smute15;
#X msg 678 584 0;
#X obj 606 534 r \$0-Scol15;
#X obj 631 677 s \$0-Rcol15;
#X obj -8 11 r \$0-Smute;
#X obj 193 14 r \$0-Smute;
#X obj 427 11 r \$0-Smute;
#X obj -6 189 r \$0-Smute;
#X obj 198 191 r \$0-Smute;
#X obj 427 187 r \$0-Smute;
#X obj 643 190 r \$0-Smute;
#X obj 3 365 r \$0-Smute;
#X obj 231 367 r \$0-Smute;
#X obj 438 364 r \$0-Smute;
#X obj 666 365 r \$0-Smute;
#X obj 686 538 r \$0-Smute;
#X obj 442 528 r \$0-Smute;
#X obj 239 541 r \$0-Smute;
#X obj -2 543 r \$0-Smute;
#X obj 630 7 r \$0-Smute;
#X connect 0 0 7 0;
#X connect 1 0 7 0;
#X connect 2 0 3 0;
#X connect 3 0 0 0;
#X connect 3 1 1 0;
#X connect 4 0 5 0;
#X connect 5 0 7 0;
#X connect 6 0 2 0;
#X connect 8 0 15 0;
#X connect 9 0 15 0;
#X connect 10 0 11 0;
#X connect 11 0 8 0;
#X connect 11 1 9 0;
#X connect 12 0 13 0;
#X connect 13 0 15 0;
#X connect 14 0 10 0;
#X connect 16 0 23 0;
#X connect 17 0 23 0;
#X connect 18 0 19 0;
#X connect 19 0 16 0;
#X connect 19 1 17 0;
#X connect 20 0 21 0;
#X connect 21 0 23 0;
#X connect 22 0 18 0;
#X connect 24 0 31 0;
#X connect 25 0 31 0;
#X connect 26 0 27 0;
#X connect 27 0 24 0;
#X connect 27 1 25 0;
#X connect 28 0 29 0;
#X connect 29 0 31 0;
#X connect 30 0 26 0;
#X connect 32 0 39 0;
#X connect 33 0 39 0;
#X connect 34 0 35 0;
#X connect 35 0 32 0;
#X connect 35 1 33 0;
#X connect 36 0 37 0;
#X connect 37 0 39 0;
#X connect 38 0 34 0;
#X connect 40 0 47 0;
#X connect 41 0 47 0;
#X connect 42 0 43 0;
#X connect 43 0 40 0;
#X connect 43 1 41 0;
#X connect 44 0 45 0;
#X connect 45 0 47 0;
#X connect 46 0 42 0;
#X connect 48 0 55 0;
#X connect 49 0 55 0;
#X connect 50 0 51 0;
#X connect 51 0 48 0;
#X connect 51 1 49 0;
#X connect 52 0 53 0;
#X connect 53 0 55 0;
#X connect 54 0 50 0;
#X connect 56 0 63 0;
#X connect 57 0 63 0;
#X connect 58 0 59 0;
#X connect 59 0 56 0;
#X connect 59 1 57 0;
#X connect 60 0 61 0;
#X connect 61 0 63 0;
#X connect 62 0 58 0;
#X connect 64 0 71 0;
#X connect 65 0 71 0;
#X connect 66 0 67 0;
#X connect 67 0 64 0;
#X connect 67 1 65 0;
#X connect 68 0 69 0;
#X connect 69 0 71 0;
#X connect 70 0 66 0;
#X connect 72 0 79 0;
#X connect 73 0 79 0;
#X connect 74 0 75 0;
#X connect 75 0 72 0;
#X connect 75 1 73 0;
#X connect 76 0 77 0;
#X connect 77 0 79 0;
#X connect 78 0 74 0;
#X connect 80 0 87 0;
#X connect 81 0 87 0;
#X connect 82 0 83 0;
#X connect 83 0 80 0;
#X connect 83 1 81 0;
#X connect 84 0 85 0;
#X connect 85 0 87 0;
#X connect 86 0 82 0;
#X connect 88 0 95 0;
#X connect 89 0 95 0;
#X connect 90 0 91 0;
#X connect 91 0 88 0;
#X connect 91 1 89 0;
#X connect 92 0 93 0;
#X connect 93 0 95 0;
#X connect 94 0 90 0;
#X connect 96 0 103 0;
#X connect 97 0 103 0;
#X connect 98 0 99 0;
#X connect 99 0 96 0;
#X connect 99 1 97 0;
#X connect 100 0 101 0;
#X connect 101 0 103 0;
#X connect 102 0 98 0;
#X connect 104 0 111 0;
#X connect 105 0 111 0;
#X connect 106 0 107 0;
#X connect 107 0 104 0;
#X connect 107 1 105 0;
#X connect 108 0 109 0;
#X connect 109 0 111 0;
#X connect 110 0 106 0;
#X connect 112 0 119 0;
#X connect 113 0 119 0;
#X connect 114 0 115 0;
#X connect 115 0 112 0;
#X connect 115 1 113 0;
#X connect 116 0 117 0;
#X connect 117 0 119 0;
#X connect 118 0 114 0;
#X connect 120 0 127 0;
#X connect 121 0 127 0;
#X connect 122 0 123 0;
#X connect 123 0 120 0;
#X connect 123 1 121 0;
#X connect 124 0 125 0;
#X connect 125 0 127 0;
#X connect 126 0 122 0;
#X connect 128 0 5 0;
#X connect 129 0 37 0;
#X connect 130 0 69 0;
#X connect 131 0 13 0;
#X connect 132 0 45 0;
#X connect 133 0 77 0;
#X connect 134 0 109 0;
#X connect 135 0 21 0;
#X connect 136 0 53 0;
#X connect 137 0 85 0;
#X connect 138 0 117 0;
#X connect 139 0 125 0;
#X connect 140 0 93 0;
#X connect 141 0 61 0;
#X connect 142 0 29 0;
#X connect 143 0 101 0;
#X restore 103 465 pd celulas;
#N canvas 316 264 450 300 timeline 0;
#X msg -71 121 color -8.29453e+06 -1 -1;
#X msg -52 146 color -1.67657e+07 -1 -1;
#X obj -69 14 inlet;
#X obj -61 188 outlet;
#X obj -69 39 >= 1;
#X obj -70 78 sel 0 1;
#X obj -69 58 change;
#X connect 0 0 3 0;
#X connect 1 0 3 0;
#X connect 2 0 4 0;
#X connect 4 0 6 0;
#X connect 5 0 0 0;
#X connect 5 1 1 0;
#X connect 6 0 5 0;
#X restore 81 51 pd timeline;
#X obj 54 14 inlet;
#X obj -8 27 tgl 15 0 empty empty empty 17 7 0 10 -262144 -1 -1 0 1
;
#X obj 110 528 outlet;
#X obj 221 9 unpack f f f f f f f f f f f f f f f f;
#X obj 221 475 s \$0-Scol0;
#X obj 236 454 s \$0-Scol1;
#X obj 251 429 s \$0-Scol2;
#X obj 266 406 s \$0-Scol3;
#X obj 281 381 s \$0-Scol4;
#X obj 296 360 s \$0-Scol5;
#X obj 311 334 s \$0-Scol6;
#X obj 326 312 s \$0-Scol7;
#X obj 341 286 s \$0-Scol8;
#X obj 356 265 s \$0-Scol9;
#X obj 371 240 s \$0-Scol10;
#X obj 386 217 s \$0-Scol11;
#X obj 401 192 s \$0-Scol12;
#X obj 416 171 s \$0-Scol13;
#X obj 431 144 s \$0-Scol14;
#X obj 446 123 s \$0-Scol15;
#X obj 221 -14 list;
#X obj -44 105 sel 1 0;
#X obj 557 56 s \$0-Smute;
#X obj 559 33 inlet;
#X obj -146 473 pack f f f f f f f f f f f f f f f f;
#X connect 0 0 58 0;
#X connect 2 0 58 1;
#X connect 4 0 58 2;
#X connect 6 0 58 3;
#X connect 8 0 58 4;
#X connect 10 0 58 5;
#X connect 12 0 58 6;
#X connect 14 0 58 7;
#X connect 16 0 58 8;
#X connect 18 0 58 9;
#X connect 20 0 58 10;
#X connect 22 0 58 11;
#X connect 24 0 58 12;
#X connect 26 0 58 13;
#X connect 28 0 58 14;
#X connect 30 0 58 15;
#X connect 33 0 0 0;
#X connect 33 0 2 0;
#X connect 33 0 4 0;
#X connect 33 0 6 0;
#X connect 33 0 8 0;
#X connect 33 0 10 0;
#X connect 33 0 12 0;
#X connect 33 0 14 0;
#X connect 33 0 16 0;
#X connect 33 0 18 0;
#X connect 33 0 20 0;
#X connect 33 0 22 0;
#X connect 33 0 24 0;
#X connect 33 0 26 0;
#X connect 33 0 28 0;
#X connect 33 0 30 0;
#X connect 34 0 33 0;
#X connect 34 0 55 0;
#X connect 35 0 33 0;
#X connect 35 0 55 0;
#X connect 37 0 38 0;
#X connect 37 1 39 0;
#X connect 37 2 40 0;
#X connect 37 3 41 0;
#X connect 37 4 42 0;
#X connect 37 5 43 0;
#X connect 37 6 44 0;
#X connect 37 7 45 0;
#X connect 37 8 46 0;
#X connect 37 9 47 0;
#X connect 37 10 48 0;
#X connect 37 11 49 0;
#X connect 37 12 50 0;
#X connect 37 13 51 0;
#X connect 37 14 52 0;
#X connect 37 15 53 0;
#X connect 54 0 37 0;
#X connect 55 0 58 0;
#X connect 55 1 54 0;
#X connect 57 0 56 0;
#X connect 58 0 36 0;
#X connect 58 0 54 1;
#X coords 0 -1 1 1 70 357 2 100 100;
