#N canvas 0 26 779 493 24;
#X obj 70 59 seq;
#X msg 181 85 read \$1;
#X obj 182 46 openpanel;
#X obj 323 31 bng 15 250 50 0 empty empty empty 17 7 0 10 -262144 -1
-1;
#X msg 188 121 read /home/glerm/midi/mikro113.mid;
#X obj 545 79 midiformat;
#X obj 131 179 midiparse;
#X obj 223 560 unpack f f;
#X floatatom 43 459 5 0 0 0 - - -;
#X floatatom 55 521 5 0 0 0 - - -;
#X text 17 413 pitch;
#X text 41 549 velocity;
#X text 408 576 note on messages;
#X obj 279 476 unpack f f;
#X floatatom 267 516 5 0 0 0 - - -;
#X floatatom 406 525 5 0 0 0 - - -;
#X text 293 517 aftert;
#X text 466 525 pitch;
#X text 430 481 poly aftertouch messages;
#X obj 252 366 unpack f f;
#X floatatom 263 404 5 0 0 0 - - -;
#X floatatom 397 405 5 0 0 0 - - -;
#X text 282 431 value;
#X text 476 407 ctrl nr;
#X text 401 362 controller messages;
#X floatatom 284 328 5 0 0 0 - - -;
#X floatatom 284 289 5 0 0 0 - - -;
#X floatatom 284 250 5 0 0 0 - - -;
#X floatatom 284 212 5 0 0 0 - - -;
#X text 362 327 program change;
#X text 359 250 pitch bend;
#X text 357 292 aftertouch;
#X text 356 195 channel number;
#X msg 46 -56 bang;
#X msg 73 -10 stop;
#X obj 51 -75 bng 15 250 50 0 empty empty empty 0 -6 0 10 -262144 -1
-1;
#X msg 148 -29 pause;
#X msg 243 -31 continue;
#X text 107 -83 loop;
#X text 187 -79 play;
#X obj 11 269 ezdac~;
#X obj 148 426 mtof;
#X obj -1 162 moses 60;
#X floatatom 175 261 5 0 0 0 - - -;
#X obj 365 72 mtof;
#X obj 25 113 *~ 0.1;
#X floatatom 402 -64 5 0 0 0 - - -;
#X obj 141 323 phasor~;
#X obj 151 389 - 12;
#X obj 519 -68 syn-xfm;
#X connect 0 0 6 0;
#X connect 1 0 0 0;
#X connect 2 0 1 0;
#X connect 3 0 2 0;
#X connect 4 0 0 0;
#X connect 6 0 7 0;
#X connect 6 1 13 0;
#X connect 6 2 19 0;
#X connect 6 3 25 0;
#X connect 6 4 26 0;
#X connect 6 5 27 0;
#X connect 6 6 28 0;
#X connect 7 0 8 0;
#X connect 7 0 42 0;
#X connect 7 1 9 0;
#X connect 8 0 48 0;
#X connect 13 0 14 0;
#X connect 13 1 15 0;
#X connect 19 0 20 0;
#X connect 19 1 21 0;
#X connect 33 0 0 0;
#X connect 34 0 0 0;
#X connect 35 0 33 0;
#X connect 36 0 0 0;
#X connect 37 0 0 0;
#X connect 41 0 47 0;
#X connect 42 1 43 0;
#X connect 43 0 44 0;
#X connect 44 0 46 0;
#X connect 45 0 40 1;
#X connect 46 0 49 0;
#X connect 47 0 45 0;
#X connect 48 0 41 0;
#X connect 49 0 40 0;
