#N canvas 0 26 1024 661 10;
#X declare -stdpath extra/tof;
#X obj -13 124 hsl 800 12 0 1 0 0 \$0-end \$0-end-r empty -2 -8 0 10
-182874 -1 -1 79900 1;
#N canvas 0 0 779 472 containter_xml 0;
#X obj 558 143 r \$0-msgbox;
#X msg 857 463 print;
#X obj 104 160 file.browser_;
#X obj 268 20 loadbang;
#X obj 463 604 s \$0-filename;
#X obj 550 604 s \$0-restore;
#X msg 529 211 reset bang \, filename \, end 0 0.177722 \, end 1 0.300375
\, end 2 0.39174 \, end 3 0.483104 \, end 4 0.594493 \, end 5 0.75219
\, end 6 0.868586 \, end 7 1 \, start 1 0.170213 \, start 2 0.301627
\, start 3 0.394243 \, start 4 0.469337 \, start 5 0.594493 \, start
6 0.753442 \, start 7 0.871089 \, done bang \;;
#X obj 336 543 s \$0-newentry;
#X obj 324 20 r \$0-newentry;
#X obj 858 443 r \$0-debug;
#X obj 660 40 s \$0-debug;
#X obj 659 21 bng 15 250 50 0 empty empty debug 17 7 0 10 -262144 -1
-1;
#X text 556 125 pdguts - datastore;
#X obj 843 488 r \$0-clearall;
#X text 570 621 pdguts - datastore;
#X text 628 607 start/end;
#X obj 579 170 t b b;
#X obj 617 170 s \$0-clearall;
#X obj 581 192 delay 1000;
#X obj 353 431 r \$0-presetname_load;
#X obj 122 346 r \$0-presetname_save;
#X text 700 177 TO_DO:usar clear;
#X obj 75 382 symbol;
#X obj 6 356 r \$0-overwrite;
#X symbolatom 104 119 30 0 0 0 - - -;
#X obj 29 86 tosymbol;
#X obj 30 48 loadbang;
#X obj -30 148 s \$0-presetname_save;
#X obj 104 144 cnv 15 100 15 empty empty read_preset: 0 7 1 12 -203904
-16662 0;
#X obj 289 130 bng 15 250 50 0 \$0-overwrite empty overwrite -35 20
0 10 -262144 -1 -258113;
#X obj 104 102 cnv 15 100 15 empty empty save_preset: 0 7 1 12 -203904
-16662 0;
#X obj 122 365 deny enter_text_here------;
#X msg 29 67 enter_text_here------;
#X obj 466 468 s \$0-clearall;
#X obj 27 318 s \$0-presetname_load;
#X obj 352 451 t b s b;
#X obj 775 31 file.path.split /;
#X obj 773 7 r \$0-presetname_load;
#X obj 852 78 s \$0-presetcanvas;
#X msg 853 55 label \$1;
#X obj 861 418 prepend add;
#X obj 118 405 makefilename /home/glerm/artesanatodevolts/mimosalib/%s.nvl
;
#X msg 844 508 clear;
#X msg 470 499 write \$1;
#X obj 469 559 route filename;
#X obj 340 519 delay 1000;
#X obj 452 526 txtflush;
#X obj 104 515 s \$0-newentry;
#X obj 108 491 delay 1000;
#X obj 108 467 t b;
#X msg 272 48 patterns nvl \, /home/glerm/artesanatodevolts/mimosalib
;
#X obj 321 310 prepend set;
#X obj 381 135 shell;
#X connect 0 0 6 0;
#X connect 0 0 16 0;
#X connect 1 0 46 1;
#X connect 2 0 34 0;
#X connect 2 0 51 0;
#X connect 3 0 50 0;
#X connect 6 0 40 0;
#X connect 8 0 50 0;
#X connect 9 0 1 0;
#X connect 11 0 10 0;
#X connect 13 0 42 0;
#X connect 16 0 18 0;
#X connect 16 1 17 0;
#X connect 18 0 6 0;
#X connect 19 0 35 0;
#X connect 20 0 31 0;
#X connect 22 0 41 0;
#X connect 23 0 22 0;
#X connect 24 0 27 0;
#X connect 25 0 24 0;
#X connect 26 0 32 0;
#X connect 31 0 22 1;
#X connect 31 0 41 0;
#X connect 32 0 25 0;
#X connect 35 0 45 0;
#X connect 35 1 46 0;
#X connect 35 2 33 0;
#X connect 36 1 39 0;
#X connect 37 0 36 0;
#X connect 39 0 38 0;
#X connect 40 0 46 1;
#X connect 41 0 43 0;
#X connect 41 0 49 0;
#X connect 42 0 46 1;
#X connect 43 0 46 1;
#X connect 44 0 4 0;
#X connect 44 1 5 0;
#X connect 45 0 7 0;
#X connect 46 0 44 0;
#X connect 48 0 47 0;
#X connect 49 0 48 0;
#X connect 50 0 2 1;
#X coords 0 -1 1 1 210 200 2 100 100;
#X restore 792 40 pd containter_xml;
#X obj -15 -106 cnv 15 600 60 empty \$0-defaultpitchlabel Si-4 0 30
0 50 -1 -262144 0;
#X obj 799 -13 tgl 40 1 \$0-ligasom aaaaaaaaaa DSP 0 -7 0 10 -99865
-262144 -4160 1 1;
#X obj 587 -73 cnv 15 350 30 empty \$0-presetcanvas x.nvl 0 20 0 25
-191407 -16662 0;
#X obj 587 -89 cnv 15 200 15 empty empty preset: 0 10 0 20 -158624
-13381 0;
#X obj 949 26 image NAVA100.gif;
#X obj -13 -27 cnv 15 800 150 empty \$0-cnvtable empty 20 12 0 14 -224813
-1 0;
#X obj 638 -26 cnv 15 149 148 empty \$0-selectarea 7 0 80 0 150 -195986
-247041 0;
#N canvas 0 22 450 300 (subpatch) 0;
#X array \$0-L 81955 float 2;
#X coords 0 1 81955 -1 800 75 1;
#X restore -14 -28 graph;
#N canvas 0 22 450 300 (subpatch) 0;
#X array \$0-R 81955 float 2;
#X coords 0 1 81955 -1 800 75 1;
#X restore -14 48 graph;
#X obj -12 -40 hsl 800 12 0 1 0 0 \$0-start \$0-start-r empty -2 -8
0 10 -182874 -1 -1 65000 1;
#N canvas 0 26 1024 661 sequencer 0;
#X obj 101 101 cnv 15 797 97 empty fundooo empty 20 12 0 14 -128992
-1 0;
#X obj 216 139 nbx 1 20 -1e+37 1e+37 0 0 empty empty empty 0 -8 0 20
-257985 -13381 -1 5 256;
#X obj 146 139 nbx 1 20 -1e+37 1e+37 0 0 empty empty empty 0 -8 0 20
-260097 -86853 -1 2 256;
#X obj 181 139 nbx 1 20 -1e+37 1e+37 0 0 empty empty empty 0 -8 0 20
-4034 -13381 -1 7 256;
#X obj 111 139 nbx 1 20 -1e+37 1e+37 0 0 empty empty empty 0 -8 0 20
-16662 -203904 -1 2 256;
#X obj 356 139 nbx 1 20 -1e+37 1e+37 0 0 empty empty empty 0 -8 0 20
-257985 -13381 -1 7 256;
#X obj 286 139 nbx 1 20 -1e+37 1e+37 0 0 empty empty empty 0 -8 0 20
-260097 -86853 -1 3 256;
#X obj 321 139 nbx 1 20 -1e+37 1e+37 0 0 empty empty empty 0 -8 0 20
-4034 -13381 -1 7 256;
#X obj 251 139 nbx 1 20 -1e+37 1e+37 0 0 empty empty empty 0 -8 0 20
-16662 -203904 -1 1 256;
#X obj 109 161 hradio 35 1 0 16 empty empty empty 0 -8 0 10 -228856
-58253 -1 2;
#X obj 123 331 int;
#X obj 159 331 int;
#X obj 195 331 int;
#X obj 229 331 int;
#X obj 264 331 int;
#X obj 300 331 int;
#X obj 336 331 int;
#X obj 370 331 int;
#X obj 199 220 sel 0 1 2 3 4 5 6 7;
#X obj 879 111 bng 15 250 50 0 empty empty random -20 -5 0 10 -262144
-1 -1;
#X obj 880 137 bng 15 250 50 0 empty empty > 0 -5 0 15 -262144 -1 -1
;
#X obj 880 162 bng 15 250 50 0 empty empty < 0 -5 0 15 -262144 -1 -1
;
#X obj 882 185 bng 12 250 50 0 empty empty zero -15 -5 0 10 -262144
-1 -1;
#X obj 311 407 prepend set;
#X obj 283 373 pack f f f f f f f f;
#X obj 70 -17 metro 145;
#X obj 105 105 tgl 15 0 empty empty empty 17 7 0 10 -262144 -1 -1 0
1;
#X floatatom 123 105 5 0 0 0 - - -;
#N canvas 0 0 450 300 presets 0;
#X msg 106 59 6 3 0 7 6 6 2 0;
#X msg 115 84 0 7 6 0 3 5 0 3;
#X msg 129 107 4 0 4 4 1 1 1 4;
#X msg 165 164 1 4 0 6 4 2 4 0;
#X msg 153 135 7 0 7 7 1 6 1 6;
#X msg 151 200 0 1 2 3 4 5 6 7;
#X obj 80 232 outlet;
#X obj 127 3 inlet;
#X msg 266 106 1 0 4 7 5 0 1 4;
#X obj 128 26 sel 0 1 2 3 4 5 6 7;
#X msg 277 144 0 1 4 3 5 3 7 7;
#X connect 0 0 6 0;
#X connect 1 0 6 0;
#X connect 2 0 6 0;
#X connect 3 0 6 0;
#X connect 4 0 6 0;
#X connect 5 0 6 0;
#X connect 7 0 9 0;
#X connect 8 0 6 0;
#X connect 9 0 0 0;
#X connect 9 1 1 0;
#X connect 9 2 2 0;
#X connect 9 3 4 0;
#X connect 9 4 3 0;
#X connect 9 5 5 0;
#X connect 9 6 8 0;
#X connect 9 7 10 0;
#X connect 10 0 6 0;
#X restore 393 -7 pd presets;
#X obj 394 -28 hradio 15 1 0 8 empty empty empty 0 -8 0 10 -262144
-1 -1 0;
#X obj 20 94 loadbang;
#X msg 22 117 145;
#X obj 212 413 s seq;
#X obj 290 434 list;
#X obj 505 417 s fundooo;
#X obj 507 270 color.rgbset;
#X obj 496 139 nbx 1 20 -1e+37 1e+37 0 0 empty empty empty 0 -8 0 20
-257985 -13381 -1 0 256;
#X obj 426 139 nbx 1 20 -1e+37 1e+37 0 0 empty empty empty 0 -8 0 20
-260097 -86853 -1 0 256;
#X obj 461 139 nbx 1 20 -1e+37 1e+37 0 0 empty empty empty 0 -8 0 20
-4034 -13381 -1 0 256;
#X obj 391 139 nbx 1 20 -1e+37 1e+37 0 0 empty empty empty 0 -8 0 20
-16662 -203904 -1 0 256;
#X obj 636 139 nbx 1 20 -1e+37 1e+37 0 0 empty empty empty 0 -8 0 20
-257985 -13381 -1 0 256;
#X obj 566 139 nbx 1 20 -1e+37 1e+37 0 0 empty empty empty 0 -8 0 20
-260097 -86853 -1 0 256;
#X obj 601 139 nbx 1 20 -1e+37 1e+37 0 0 empty empty empty 0 -8 0 20
-4034 -13381 -1 0 256;
#X obj 531 139 nbx 1 20 -1e+37 1e+37 0 0 empty empty empty 0 -8 0 20
-16662 -203904 -1 0 256;
#N canvas 168 312 826 437 auto 0;
#X obj 40 388 outlet;
#X obj 41 175 random 8;
#X obj 94 388 outlet;
#X obj 95 175 random 8;
#X obj 149 388 outlet;
#X obj 150 175 random 8;
#X obj 203 388 outlet;
#X obj 204 175 random 8;
#X obj 258 388 outlet;
#X obj 259 175 random 8;
#X obj 312 388 outlet;
#X obj 313 175 random 8;
#X obj 367 388 outlet;
#X obj 368 175 random 8;
#X obj 421 388 outlet;
#X obj 422 175 random 8;
#X obj 215 45 t b b b b b b b b;
#X obj 215 23 inlet;
#X obj 379 21 inlet;
#X msg 384 49 0 1 2 3 4 5 6 7;
#X obj 373 78 unpack f f f f f f f f;
#X obj 489 18 inlet;
#X obj 602 19 inlet;
#X msg 627 76 0 0 0 0 0 0 0 0;
#X msg 494 46 7 6 5 4 3 2 1 0;
#X obj 688 26 inlet;
#X connect 1 0 0 0;
#X connect 3 0 2 0;
#X connect 5 0 4 0;
#X connect 7 0 6 0;
#X connect 9 0 8 0;
#X connect 11 0 10 0;
#X connect 13 0 12 0;
#X connect 15 0 14 0;
#X connect 16 0 1 0;
#X connect 16 1 3 0;
#X connect 16 2 5 0;
#X connect 16 3 7 0;
#X connect 16 4 9 0;
#X connect 16 5 11 0;
#X connect 16 6 13 0;
#X connect 16 7 15 0;
#X connect 17 0 16 0;
#X connect 18 0 19 0;
#X connect 19 0 20 0;
#X connect 20 0 0 0;
#X connect 20 1 2 0;
#X connect 20 2 4 0;
#X connect 20 3 6 0;
#X connect 20 4 8 0;
#X connect 20 5 10 0;
#X connect 20 6 12 0;
#X connect 20 7 14 0;
#X connect 21 0 24 0;
#X connect 22 0 23 0;
#X connect 23 0 20 0;
#X connect 24 0 20 0;
#X connect 25 0 20 0;
#X restore 140 27 pd auto --------------------------------------------
;
#X msg 589 384 color -8.28992e+06 -1 -1;
#X obj 592 362 loadbang;
#X floatatom 162 105 5 1 16 0 - - -;
#X msg 23 137 8;
#X floatatom 200 106 5 0 16 0 - - -;
#N canvas 26 347 940 315 guts 0;
#X obj 627 391 soundfiler;
#X obj 623 224 openpanel;
#X obj 627 344 pack s \$0;
#X obj 790 264 s \$0-selectarea;
#X msg 627 369 read -resize \$1 \$2-L \$2-R;
#X obj 745 122 s \$0-L;
#X obj 789 122 s \$0-R;
#X msg 750 86 resize 100;
#X obj 5 123 * 800;
#X obj 786 201 loadbang;
#X obj 3 186 s \$0-selectarea;
#X obj 595 92 s \$0-selectarea;
#X msg 594 71 label \$1;
#X obj 595 50 makefilename %d;
#X obj 4 103 r \$0-start;
#X obj 183 256 s \$0-end-r;
#X obj 185 51 r \$0-start;
#X obj 200 164 r \$0-len;
#X obj 186 188 +;
#X obj 185 134 spigot;
#X obj 374 177 tabplay~ \$0-L;
#X obj 419 108 r \$0-len;
#X obj 374 156 pack 0 0;
#X obj 362 66 f;
#X obj 377 41 r \$0-start;
#X obj 362 89 *;
#X obj 390 65 r \$0-samples;
#X obj 420 133 *;
#X obj 446 132 t b f;
#X obj 362 18 r \$0-play;
#X obj 476 31 key;
#X obj 478 53 sel 32;
#X obj 479 76 s \$0-play;
#X obj 627 413 s \$0-samples;
#X obj 596 28 r \$0-slice;
#X obj 407 196 tabplay~ \$0-R;
#X obj 185 83 spigot 1;
#X obj 251 51 r \$0-spigot;
#N canvas 149 114 779 472 datasaving 0;
#X obj 649 151 s \$0-slices-start;
#X obj 649 129 pack 0 0;
#X obj 649 106 f;
#X obj 650 66 t b f;
#X obj 757 128 pack 0 0;
#X obj 757 105 f;
#X obj 758 65 t b f;
#X obj 757 150 s \$0-slices-end;
#X obj 555 40 r \$0-slice;
#X obj 574 324 tabread \$0-slices-start;
#X obj 555 64 t f f f;
#X obj 575 348 s \$0-start-r;
#X obj 477 137 tabread \$0-slices-end;
#X obj 478 161 s \$0-end-r;
#X obj 853 265 f;
#X obj 880 265 f;
#X obj 866 228 r \$0-start;
#X obj 934 227 r \$0-end;
#X obj 879 189 t b b;
#X obj 834 302 f;
#X obj 859 302 f;
#X obj 893 22 r \$0-save;
#X obj 835 325 s \$0-start-r;
#X obj 917 325 s \$0-end-r;
#X obj 668 7 r \$0-start;
#X obj 767 7 r \$0-end;
#X obj 652 41 f;
#X obj 755 40 f;
#X obj 843 122 t b b b b;
#X msg 893 69 1;
#X msg 923 72 0;
#X obj 911 112 s \$0-spigot;
#X obj 98 315 tabread \$0-slices-start;
#X obj 99 257 f;
#X obj 126 259 + 1;
#X obj 99 235 until;
#X msg 137 229 0;
#X obj 99 204 t f b;
#X obj 99 280 t f f;
#X msg 100 183 15;
#X obj 100 392 pack 0 0;
#X obj 100 444 s \$0-msgbox;
#X obj 346 433 s \$0-msgbox;
#X obj 337 222 list trim;
#X obj 299 158 symbol;
#X obj 333 132 r \$0-filename;
#X obj 337 242 s \$0-msgbox;
#X obj 334 108 s \$0-msgbox;
#X obj 93 500 table \$0-slices-start 100;
#X obj 93 520 table \$0-slices-end 100;
#X obj 101 371 swap;
#X obj 99 341 sel 0;
#X obj 259 232 f;
#X obj 286 234 + 1;
#X obj 259 210 until;
#X msg 297 204 0;
#X obj 259 179 t f b;
#X obj 259 255 t f f;
#X msg 260 158 15;
#X obj 260 367 pack 0 0;
#X obj 261 346 swap;
#X obj 259 316 sel 0;
#X obj 259 290 tabread \$0-slices-end;
#X msg 98 414 add2 start \, add2 \$1 \, add2 \$2 \, addcomma;
#X msg 336 198 add2 filename \, add2 \$1 \, addcomma;
#X obj 195 17 r \$0-savetomsg;
#X obj 193 37 t b b b b b b b;
#X msg 9 182 add done bang;
#X obj 10 202 s \$0-msgbox;
#X msg 332 84 set \, add2 reset bang \, addcomma;
#X msg 346 411 add2 end \, add2 \$1 \, add2 \$2 \, addcomma;
#X text 527 23 seleçao do preset;
#X obj 893 48 t b b b b;
#X text 96 480 memoria das seleções;
#X text 290 24 formata a mensagem do preset;
#X text 98 538 comment;
#X obj 663 193 r \$0-restore;
#X obj 666 221 route start end;
#X connect 1 0 0 0;
#X connect 2 0 1 0;
#X connect 3 0 2 0;
#X connect 3 1 1 1;
#X connect 4 0 7 0;
#X connect 5 0 4 0;
#X connect 6 0 5 0;
#X connect 6 1 4 1;
#X connect 8 0 10 0;
#X connect 9 0 11 0;
#X connect 10 0 12 0;
#X connect 10 1 9 0;
#X connect 10 2 5 1;
#X connect 10 2 2 1;
#X connect 12 0 13 0;
#X connect 14 0 19 1;
#X connect 15 0 20 1;
#X connect 16 0 14 1;
#X connect 17 0 15 1;
#X connect 18 0 14 0;
#X connect 18 1 15 0;
#X connect 19 0 22 0;
#X connect 20 0 23 0;
#X connect 21 0 72 0;
#X connect 24 0 26 1;
#X connect 25 0 27 1;
#X connect 26 0 3 0;
#X connect 27 0 6 0;
#X connect 28 0 26 0;
#X connect 28 1 27 0;
#X connect 28 2 19 0;
#X connect 28 3 20 0;
#X connect 29 0 31 0;
#X connect 30 0 31 0;
#X connect 32 0 51 0;
#X connect 33 0 34 0;
#X connect 33 0 38 0;
#X connect 34 0 33 1;
#X connect 35 0 33 0;
#X connect 36 0 33 1;
#X connect 37 0 35 0;
#X connect 37 1 36 0;
#X connect 38 0 32 0;
#X connect 38 1 50 1;
#X connect 39 0 37 0;
#X connect 40 0 63 0;
#X connect 43 0 46 0;
#X connect 44 0 64 0;
#X connect 45 0 44 1;
#X connect 50 0 40 0;
#X connect 50 1 40 1;
#X connect 51 1 50 0;
#X connect 52 0 53 0;
#X connect 52 0 57 0;
#X connect 53 0 52 1;
#X connect 54 0 52 0;
#X connect 55 0 52 1;
#X connect 56 0 54 0;
#X connect 56 1 55 0;
#X connect 57 0 62 0;
#X connect 57 1 60 1;
#X connect 58 0 56 0;
#X connect 59 0 70 0;
#X connect 60 0 59 0;
#X connect 60 1 59 1;
#X connect 61 1 60 0;
#X connect 62 0 61 0;
#X connect 63 0 41 0;
#X connect 64 0 43 0;
#X connect 65 0 66 0;
#X connect 66 1 67 0;
#X connect 66 3 39 0;
#X connect 66 4 58 0;
#X connect 66 5 44 0;
#X connect 66 6 69 0;
#X connect 67 0 68 0;
#X connect 69 0 47 0;
#X connect 70 0 42 0;
#X connect 72 0 29 0;
#X connect 72 1 28 0;
#X connect 72 2 30 0;
#X connect 72 3 18 0;
#X connect 76 0 77 0;
#X connect 77 0 0 0;
#X connect 77 1 7 0;
#X restore 465 507 pd datasaving;
#X obj 624 246 s \$0-filename;
#X obj 627 298 r \$0-filename;
#X obj 624 204 r \$0-open;
#X obj 748 65 loadbang;
#X obj 230 107 r \$0-spigoot;
#X obj 727 424 s \$0-slices-start;
#X obj 835 423 s \$0-slices-end;
#X msg 726 401 const 0;
#X obj 717 478 s \$0-slice-1s-r;
#X msg 719 456 0;
#X obj 817 478 s \$0-slice-10s-r;
#X obj 627 319 t a b b;
#X msg 413 443 1;
#X obj 412 421 loadbang;
#X obj 412 464 s \$0-spigoot-r;
#X obj 375 234 *~;
#X obj 408 287 *~;
#X obj 467 267 vline~;
#X msg 467 237 0 5 \, 1 5 5;
#X obj 360 109 t f b;
#X obj 361 133 pipe 5;
#X obj 374 388 dac~;
#N canvas 0 0 800 493 rack_de_efeitos 0;
#X obj 86 29 inlet~;
#X obj 152 31 inlet~;
#X obj 87 263 outlet~;
#X obj 138 263 outlet~;
#X text 364 42 usar fx.vocoder~ fica massa;
#X obj 151 163 fx.pitch.shift~;
#X obj 53 133 fx.pitch.shift~;
#X obj 240 57 r \$0-pshift;
#X obj 358 244 fiddle~;
#N canvas 0 0 664 495 nomesnotas 0;
#X obj 80 47 inlet;
#X obj 79 436 outlet;
#X obj 58 182 % 12;
#X obj 136 202 sel 0 1 2 3 4 5 6 7 8 9 10 11;
#X obj 59 303 t a;
#X msg 58 260 Do;
#X msg 89 260 Do_sustenido;
#X msg 174 262 Re;
#X msg 207 262 Re_sustenido;
#X msg 292 263 Mi;
#X msg 321 264 Fa;
#X msg 349 264 Fa_sustenido;
#X msg 441 263 Sol;
#X msg 473 265 Sol_sustenido;
#X msg 565 268 La;
#X msg 600 271 Si_bemol;
#X msg 666 269 Si;
#X obj 233 129 / 12;
#X obj 226 153 int;
#X obj 187 410 - 1;
#X obj 190 436 outlet;
#X connect 0 0 2 0;
#X connect 0 0 17 0;
#X connect 2 0 3 0;
#X connect 3 0 5 0;
#X connect 3 1 6 0;
#X connect 3 2 7 0;
#X connect 3 3 8 0;
#X connect 3 4 9 0;
#X connect 3 5 10 0;
#X connect 3 6 11 0;
#X connect 3 7 12 0;
#X connect 3 8 13 0;
#X connect 3 9 14 0;
#X connect 3 10 15 0;
#X connect 3 11 16 0;
#X connect 4 0 1 0;
#X connect 5 0 4 0;
#X connect 6 0 4 0;
#X connect 7 0 4 0;
#X connect 8 0 4 0;
#X connect 9 0 4 0;
#X connect 10 0 4 0;
#X connect 11 0 4 0;
#X connect 12 0 4 0;
#X connect 13 0 4 0;
#X connect 14 0 4 0;
#X connect 15 0 4 0;
#X connect 16 0 4 0;
#X connect 17 0 18 0;
#X connect 18 0 19 0;
#X connect 19 0 20 0;
#X restore 287 337 pd nomesnotas;
#X obj 233 454 s \$0-defaultpitchlabel;
#X msg 233 429 label \$1;
#X obj 296 412 tosymbol;
#X obj 287 380 sprintf %s-%d;
#X obj 497 385 t b b;
#X obj 501 459 h_multimap glerm;
#X obj 644 416 list;
#X obj 597 142 r \$0-slice;
#X obj 597 172 makefilename notatrecho%d;
#X msg 597 201 add \$1;
#X msg 507 416 add notatrecho7;
#X obj 597 236 prepend set;
#X obj 507 308 bng 15 250 50 0 empty empty empty 17 7 0 10 -262144
-1 -1;
#X obj 579 361 list-extend;
#X obj 718 433 t b;
#X connect 0 0 6 0;
#X connect 1 0 5 0;
#X connect 5 0 3 0;
#X connect 5 0 8 0;
#X connect 6 0 2 0;
#X connect 6 0 8 0;
#X connect 7 0 5 1;
#X connect 7 0 6 1;
#X connect 8 0 9 0;
#X connect 8 0 23 0;
#X connect 9 0 13 0;
#X connect 9 1 13 1;
#X connect 11 0 10 0;
#X connect 12 0 11 0;
#X connect 13 0 12 0;
#X connect 14 0 20 0;
#X connect 14 1 16 0;
#X connect 16 0 15 1;
#X connect 16 0 24 0;
#X connect 17 0 18 0;
#X connect 18 0 19 0;
#X connect 19 0 21 0;
#X connect 20 0 15 0;
#X connect 21 0 20 0;
#X connect 22 0 14 0;
#X connect 23 0 16 1;
#X connect 24 0 23 1;
#X restore 375 354 pd rack_de_efeitos;
#X text 626 186 abre wav;
#X text 609 282 recebe caminho arq. wav;
#X msg 9 28 \; pd dsp \$1;
#X obj 9 1 r \$0-ligasom;
#X obj 14 234 align;
#X msg 3 164 pos \$1 -26;
#X obj 5 144 - 12;
#X msg 789 226 pos -12 -26 \, vis_size 1 148;
#X connect 0 0 33 0;
#X connect 1 0 39 0;
#X connect 2 0 4 0;
#X connect 4 0 0 0;
#X connect 7 0 5 0;
#X connect 7 0 6 0;
#X connect 8 0 68 0;
#X connect 9 0 69 0;
#X connect 12 0 11 0;
#X connect 13 0 12 0;
#X connect 14 0 8 0;
#X connect 16 0 36 0;
#X connect 17 0 18 1;
#X connect 18 0 15 0;
#X connect 19 0 18 0;
#X connect 20 0 54 0;
#X connect 21 0 27 0;
#X connect 22 0 20 0;
#X connect 22 0 35 0;
#X connect 23 0 25 0;
#X connect 24 0 23 1;
#X connect 25 0 58 0;
#X connect 26 0 25 1;
#X connect 26 0 28 0;
#X connect 27 0 22 1;
#X connect 28 0 27 0;
#X connect 28 1 27 1;
#X connect 29 0 23 0;
#X connect 30 0 31 0;
#X connect 31 0 32 0;
#X connect 34 0 13 0;
#X connect 35 0 55 0;
#X connect 36 0 19 0;
#X connect 37 0 36 1;
#X connect 40 0 50 0;
#X connect 41 0 1 0;
#X connect 42 0 7 0;
#X connect 43 0 19 1;
#X connect 46 0 44 0;
#X connect 46 0 45 0;
#X connect 48 0 47 0;
#X connect 48 0 49 0;
#X connect 50 0 2 0;
#X connect 50 1 48 0;
#X connect 50 2 46 0;
#X connect 51 0 53 0;
#X connect 52 0 51 0;
#X connect 54 0 61 0;
#X connect 55 0 61 1;
#X connect 56 0 54 1;
#X connect 56 0 55 1;
#X connect 57 0 56 0;
#X connect 58 0 59 0;
#X connect 58 1 57 0;
#X connect 59 0 22 0;
#X connect 61 0 60 0;
#X connect 61 1 60 1;
#X connect 65 0 64 0;
#X connect 67 0 10 0;
#X connect 68 0 67 0;
#X connect 69 0 3 0;
#X restore 808 -22 pd guts;
#X obj 688 524 bng 50 250 50 0 \$0-save \$0-enterR enter 0 -15 0 20
-13330 -262144 -258113;
#X obj 280 468 tgl 15 0 \$0-spigoot \$0-spigoot-r lock-length 17 7
0 14 -262144 -1 -1 1 1;
#X obj 631 524 bng 50 250 50 0 \$0-savetomsg eriyeiuyiueryiiiiiiiiipmx
ok! 0 -15 0 20 -4160 -262144 -258113;
#N canvas 331 301 450 300 selectarea 0;
#X obj 151 40 -;
#X obj 150 130 s \$0-selectarea;
#X msg 151 110 vis_size \$1 148;
#X obj 204 -5 r \$0-start;
#X obj 150 15 r \$0-end;
#X obj 204 15 t b f;
#X obj 151 88 max 1;
#X obj 152 66 * 800;
#X obj 245 80 s \$0-len;
#X floatatom 257 40 5 0 0 0 - - -;
#X text 110 -21 seleçao do trecho pra salvar;
#X obj 319 75 f;
#X msg 297 54 bang;
#X floatatom 335 53 3 0 2 0 - - -;
#X obj 319 98 pack 0 0;
#X text 363 53 font;
#X text 399 75 height;
#X msg 319 124 label_font \$1 \$2;
#X floatatom 395 100 5 0 0 0 - - -;
#X floatatom 104 39 5 0 0 0 - - -;
#X floatatom 281 16 5 0 0 0 - - -;
#X floatatom 382 32 5 0 0 0 - - -;
#X obj 40 9 color.rgbset;
#N canvas 118 215 682 385 ascii 0;
#X obj 75 62 key;
#X floatatom 174 51 5 0 0 0 - - -;
#X msg 40 133 0;
#X msg 69 133 1;
#X obj 158 303 outlet;
#X msg 97 135 2;
#X msg 158 135 4;
#X msg 190 134 5;
#X msg 222 136 6;
#X msg 253 137 7;
#X msg 125 134 3;
#X obj 77 102 sel 113 119 101 114 116 121 117 105 111 112;
#X obj 343 76 key;
#X obj 347 102 sel 97 115 100 102 103 104 106 107 108;
#X text 506 83 asdfg;
#X text 287 85 qwerty;
#X msg 306 147 8;
#X msg 335 147 9;
#X msg 363 149 10;
#X msg 391 148 11;
#X msg 423 149 12;
#X msg 456 148 13;
#X msg 488 150 14;
#X msg 518 152 15;
#X obj 227 28 sel 10;
#X obj 222 50 s \$0-enterR;
#X obj 357 267 sel 122 120 99 118 98 110 109 44 46 29;
#X msg 451 301 0;
#X msg 477 297 1;
#X msg 506 298 2;
#X msg 534 299 3;
#X msg 419 300 -1;
#X msg 391 299 -2;
#X msg 362 298 -3;
#X msg 335 297 -4;
#X msg 563 300 4;
#X obj 432 351 s \$0-tone;
#X obj 364 242 key;
#X obj 413 20 adc~;
#X obj 413 47 fiddle~;
#X floatatom 469 13 5 0 0 0 - - -;
#X obj 521 22 % 12;
#X floatatom 523 41 5 0 0 0 - - -;
#X obj 78 264 r seq;
#X connect 0 0 1 0;
#X connect 0 0 11 0;
#X connect 0 0 24 0;
#X connect 2 0 4 0;
#X connect 3 0 4 0;
#X connect 5 0 4 0;
#X connect 6 0 4 0;
#X connect 7 0 4 0;
#X connect 8 0 4 0;
#X connect 9 0 4 0;
#X connect 10 0 4 0;
#X connect 11 0 2 0;
#X connect 11 1 3 0;
#X connect 11 2 5 0;
#X connect 11 3 10 0;
#X connect 11 4 6 0;
#X connect 11 5 7 0;
#X connect 11 6 8 0;
#X connect 11 7 9 0;
#X connect 12 0 13 0;
#X connect 13 0 16 0;
#X connect 13 1 17 0;
#X connect 13 2 18 0;
#X connect 13 3 19 0;
#X connect 13 4 20 0;
#X connect 13 5 21 0;
#X connect 13 6 22 0;
#X connect 13 7 23 0;
#X connect 16 0 4 0;
#X connect 17 0 4 0;
#X connect 18 0 4 0;
#X connect 19 0 4 0;
#X connect 20 0 4 0;
#X connect 21 0 4 0;
#X connect 22 0 4 0;
#X connect 23 0 4 0;
#X connect 24 0 25 0;
#X connect 26 0 34 0;
#X connect 26 2 33 0;
#X connect 26 3 32 0;
#X connect 26 4 31 0;
#X connect 26 5 27 0;
#X connect 26 6 28 0;
#X connect 26 7 29 0;
#X connect 26 8 30 0;
#X connect 26 9 35 0;
#X connect 27 0 36 0;
#X connect 28 0 36 0;
#X connect 29 0 36 0;
#X connect 30 0 36 0;
#X connect 31 0 36 0;
#X connect 32 0 36 0;
#X connect 33 0 36 0;
#X connect 34 0 36 0;
#X connect 35 0 36 0;
#X connect 37 0 26 0;
#X connect 38 0 39 0;
#X connect 39 0 40 0;
#X connect 40 0 41 0;
#X connect 41 0 42 0;
#X connect 43 0 4 0;
#X restore 73 190 pd ascii;
#X obj 75 212 spigot;
#X obj 55 191 tgl 15 1 empty empty empty 17 7 0 10 -262144 -1 -1 1
1;
#X floatatom 28 212 5 0 0 0 - - -;
#X text -6 174 painel de slices(qwerty);
#X obj 27 235 s \$0-slicerpanel;
#X obj 142 238 s \$0-play;
#X obj 142 219 t b;
#X obj 230 194 s \$0-cnvtable;
#X text 229 209 fundo_da_tabela;
#X obj 246 131 loadbang;
#N canvas 105 468 854 116 mouseslices 0;
#X obj -779 27 hradio 50 1 0 16 \$0-slice \$0-slicerpanel empty 0 -8
0 10 -54277 -83269 -1 7;
#X obj -715 1 cnv 15 30 20 empty empty 1 0 10 1 30 -204786 -13330 0
;
#X obj -667 0 cnv 15 30 20 empty empty 2 0 12 1 30 -204786 -13330 0
;
#X obj -615 0 cnv 15 30 20 empty empty 3 0 12 1 30 -204786 -13330 0
;
#X obj -569 0 cnv 15 30 20 empty empty 4 0 12 1 30 -204786 -13330 0
;
#X obj -518 0 cnv 15 30 20 empty empty 5 0 12 1 30 -204786 -13330 0
;
#X obj -469 0 cnv 15 30 20 empty empty 6 0 12 1 30 -204786 -13330 0
;
#X obj -418 0 cnv 15 30 20 empty empty 7 0 12 1 30 -204786 -13330 0
;
#X obj -370 0 cnv 15 30 20 empty empty 8 0 12 1 30 -204786 -13330 0
;
#X obj -766 0 cnv 15 30 20 empty empty 0 0 11 1 30 -204786 -13330 0
;
#X obj -317 0 cnv 15 30 20 empty empty 9 0 12 1 30 -204786 -13330 0
;
#X obj -270 0 cnv 15 30 20 empty empty 10 0 12 1 30 -204786 -13330
0;
#X obj -219 0 cnv 15 30 20 empty empty 11 0 12 1 30 -204786 -13330
0;
#X obj -171 0 cnv 15 30 20 empty empty 12 0 12 1 30 -204786 -13330
0;
#X obj -120 0 cnv 15 30 20 empty empty 13 0 12 1 30 -204786 -13330
0;
#X obj -71 0 cnv 15 30 20 empty empty 14 0 12 1 30 -204786 -13330 0
;
#X obj -22 0 cnv 15 30 20 empty empty 15 0 12 1 30 -204786 -13330 0
;
#X restore 29 257 pd mouseslices;
#X msg 151 150 color -1.2573e+07 -1 -1.59465e+07;
#X msg 229 173 color -1.42133e+07 -1 -1;
#X connect 0 0 7 0;
#X connect 0 0 8 0;
#X connect 2 0 1 0;
#X connect 3 0 5 0;
#X connect 3 0 20 0;
#X connect 4 0 0 0;
#X connect 4 0 19 0;
#X connect 5 0 0 0;
#X connect 5 1 0 1;
#X connect 6 0 2 0;
#X connect 7 0 6 0;
#X connect 9 0 2 0;
#X connect 11 0 14 0;
#X connect 12 0 11 0;
#X connect 13 0 11 1;
#X connect 14 0 17 0;
#X connect 17 0 1 0;
#X connect 18 0 14 1;
#X connect 21 0 14 1;
#X connect 23 0 24 0;
#X connect 24 0 26 0;
#X connect 24 0 28 0;
#X connect 24 0 30 0;
#X connect 25 0 24 1;
#X connect 30 0 29 0;
#X connect 33 0 35 0;
#X connect 33 0 36 0;
#X connect 35 0 1 0;
#X connect 36 0 31 0;
#X restore 772 0 pd selectarea;
#X symbolatom 37 538 10 0 0 0 - #0-defaultpitch -;
#X obj 34 584 s \$0-defaultpitchlabel;
#X msg 35 564 label \$1;
#X obj 253 569 s \$0-pshift;
#X floatatom 199 584 5 0 0 0 - - -;
#X obj 219 534 hradio 12 1 0 24 empty empty empty 0 -8 0 10 -262144
-1 -1 0;
#X obj 203 561 - 12;
#X obj 599 593 r \$0-play;
#X msg 219 510 12;
#X floatatom 273 508 5 0 0 0 - - -;
#X obj 82 495 s \$0-L;
#X msg 86 459 normalize 1;
#X obj 130 482 s \$0-R;
#X obj 347 506 r \$0-tone;
#N canvas 0 0 450 300 counter 0;
#X obj 61 34 inlet;
#X obj 73 154 f 0;
#X obj 74 190 + 1;
#X msg 85 118 0;
#X obj 51 256 outlet;
#X obj 54 76 route reset;
#X msg 23 119 bang;
#X obj 171 30 inlet;
#X obj 108 154 mod;
#X connect 0 0 5 0;
#X connect 1 0 2 0;
#X connect 1 0 4 0;
#X connect 2 0 8 0;
#X connect 3 0 1 1;
#X connect 5 0 3 0;
#X connect 5 1 6 0;
#X connect 6 0 1 0;
#X connect 7 0 8 1;
#X connect 8 0 1 1;
#X restore 44 33 pd counter;
#X connect 1 0 13 1;
#X connect 2 0 11 1;
#X connect 3 0 12 1;
#X connect 4 0 10 1;
#X connect 5 0 17 1;
#X connect 6 0 15 1;
#X connect 7 0 16 1;
#X connect 8 0 14 1;
#X connect 9 0 18 0;
#X connect 10 0 24 0;
#X connect 10 0 32 0;
#X connect 11 0 24 1;
#X connect 11 0 32 0;
#X connect 12 0 24 2;
#X connect 12 0 32 0;
#X connect 13 0 24 3;
#X connect 13 0 32 0;
#X connect 14 0 24 4;
#X connect 14 0 32 0;
#X connect 15 0 24 5;
#X connect 15 0 32 0;
#X connect 16 0 24 6;
#X connect 16 0 32 0;
#X connect 17 0 24 7;
#X connect 17 0 32 0;
#X connect 18 0 10 0;
#X connect 18 1 11 0;
#X connect 18 2 12 0;
#X connect 18 3 13 0;
#X connect 18 4 14 0;
#X connect 18 5 15 0;
#X connect 18 6 16 0;
#X connect 18 7 17 0;
#X connect 19 0 44 0;
#X connect 20 0 44 1;
#X connect 21 0 44 2;
#X connect 22 0 44 3;
#X connect 23 0 33 1;
#X connect 24 0 23 0;
#X connect 25 0 69 0;
#X connect 26 0 25 0;
#X connect 27 0 25 1;
#X connect 28 0 44 4;
#X connect 29 0 28 0;
#X connect 30 0 31 0;
#X connect 30 0 48 0;
#X connect 31 0 27 0;
#X connect 35 0 34 0;
#X connect 35 1 45 0;
#X connect 44 0 4 0;
#X connect 44 1 2 0;
#X connect 44 2 3 0;
#X connect 44 3 1 0;
#X connect 44 4 8 0;
#X connect 44 5 6 0;
#X connect 44 6 7 0;
#X connect 44 7 5 0;
#X connect 45 0 34 0;
#X connect 46 0 45 0;
#X connect 47 0 69 1;
#X connect 48 0 47 0;
#X connect 49 0 28 0;
#X connect 55 0 57 0;
#X connect 57 0 56 0;
#X connect 59 0 58 0;
#X connect 60 0 61 0;
#X connect 61 0 59 0;
#X connect 63 0 60 0;
#X connect 64 0 58 0;
#X connect 66 0 65 0;
#X connect 66 0 67 0;
#X connect 68 0 64 0;
#X connect 69 0 9 0;
#X coords 0 -1 1 1 800 100 2 100 100;
#X restore -12 140 pd sequencer;
#X obj 756 -89 bng 30 250 50 0 \$0-open empty new_wavfile 0 40 0 20
-207463 -45076 -45076;
