#N canvas 0 0 991 622 10;
#X floatatom 633 52 0 0 0 0 - - -;
#X floatatom 625 75 0 0 0 0 - - -;
#X floatatom 618 98 0 0 0 0 - - -;
#X obj 629 17 time;
#X text 652 42 sec;
#X text 651 71 min;
#X text 647 103 hours;
#X obj 657 -6 date;
#X floatatom 705 75 0 0 0 0 - - -;
#X floatatom 751 80 0 0 0 0 - - -;
#X floatatom 788 99 0 0 0 0 - - -;
#X text 779 83 month;
#X text 809 120 year;
#X text 709 62 day of month;
#X symbolatom 605 326 40 0 0 0 - - -;
#X symbolatom 642 272 40 0 0 0 - - -;
#X obj 660 171 pack 0 0 0 0 0 0;
#X obj 470 -98 bng 15 250 50 0 empty empty empty 0 -6 0 8 -262144 -1
-1;
#X obj 642 247 l2s;
#X obj 682 197 loadbang;
#X msg 657 222 symbol _;
#X obj -68 -33 oggwrite~;
#X obj 2 3 cnv 15 115 145 empty canvasMAIN OK 20 12 0 14 -241291 -262144
0;
#X msg 150 290 \; recbutton color \$1;
#X floatatom 152 267 5 0 0 0 - - -;
#X obj -61 292 sel 0 1;
#X msg -38 319 15;
#X msg -67 319 14;
#X obj 10 26 cnv 15 50 100 empty continuecnv OGG_RECORDER 8 80 0 12
-260097 -45076 0;
#X msg -36 -141 start;
#X msg 54 -148 stop;
#X obj 45 34 tgl 50 0 empty recbutton empty 0 -6 0 8 -262144 -143491
-262144 0 13;
#X obj 149 23 sel 0 13;
#X symbolatom 160 -18 7 0 0 0 - - -;
#X obj 148 -49 l2s;
#X obj -69 -100 inlet~;
#X obj -11 -77 inlet~;
#X obj 238 64 bng 15 250 50 0 empty empty empty 0 -6 0 8 -262144 -1
-1;
#X obj -40 -162 delay 250;
#X obj 416 -122 bng 15 250 50 0 empty empty empty 0 -6 0 8 -262144
-1 -1;
#X msg 111 -120 OK;
#X msg -48 352 \; canvasMAIN color \$1;
#X msg 146 130 \; canvasMAIN label \$1;
#X text 76 120 Files;
#X text 28 133 this Session;
#X obj 28 113 nbx 3 20 -1e+37 1e+37 0 0 empty empty empty 0 -6 1 15
-260818 -1 -1 0 256;
#X floatatom 413 16 0 0 0 0 - - -;
#X obj 413 -9 + 1;
#X obj 356 -8 float;
#X obj -61 272 tgl 15 0 empty empty empty 0 -6 0 8 -262144 -1 -1 0
1;
#X obj -68 228 metro 100;
#X obj -60 250 spigot;
#X msg 61 210 0;
#X msg -30 166 1;
#X obj 26 176 t b b;
#X obj 754 -155 key;
#X floatatom 752 -134 5 0 0 0 - - -;
#X obj 752 -115 sel 82;
#X obj 754 -93 tgl 15 0 empty empty empty 0 -6 0 8 -262144 -1 -1 0
13;
#X obj 5 13 tgl 15 0 empty empty ok 0 -6 0 8 -241291 -143491 -260818
1 1;
#X obj 3 -23 loadbang;
#X obj 528 226 shell;
#X msg 527 207 echo $HOME;
#X obj 376 289 loadbang;
#X obj 524 353 pack s s;
#X msg 421 -145 open \$1;
#X msg 526 404 /root gambi_11_38_34_15_11_2006.ogg;
#X obj 530 433 l2s;
#X msg 376 356 symbol /;
#X symbolatom 382 457 40 0 0 0 - - -;
#X obj 685 302 makefilename gambi_%s.ogg;
#X obj 477 289 symbol;
#X obj 527 186 loadbang;
#X obj 616 -42 t b b b;
#X obj 430 237 t b b;
#X symbolatom 516 318 10 0 0 0 - - -;
#X obj 483 266 bng 15 250 50 0 empty empty empty 0 -6 0 8 -262144 -1
-1;
#X obj 526 252 l2s;
#X obj 526 379 prepend set;
#X obj 218 -58 switch~;
#X text 265 -59 dsp_OFF;
#X connect 0 0 16 2;
#X connect 1 0 16 1;
#X connect 2 0 16 0;
#X connect 3 0 2 0;
#X connect 3 1 1 0;
#X connect 3 2 0 0;
#X connect 7 0 10 0;
#X connect 7 1 9 0;
#X connect 7 2 8 0;
#X connect 8 0 16 3;
#X connect 9 0 16 4;
#X connect 10 0 16 5;
#X connect 14 0 64 1;
#X connect 15 0 70 0;
#X connect 16 0 18 0;
#X connect 17 0 73 0;
#X connect 18 0 15 0;
#X connect 19 0 20 0;
#X connect 20 0 18 1;
#X connect 21 0 50 0;
#X connect 24 0 23 0;
#X connect 25 0 27 0;
#X connect 25 1 26 0;
#X connect 26 0 41 0;
#X connect 27 0 41 0;
#X connect 29 0 34 0;
#X connect 29 0 21 0;
#X connect 30 0 34 0;
#X connect 30 0 21 0;
#X connect 31 0 24 0;
#X connect 31 0 32 0;
#X connect 32 0 30 0;
#X connect 32 0 54 0;
#X connect 32 1 37 0;
#X connect 32 1 38 0;
#X connect 32 1 17 0;
#X connect 33 0 42 0;
#X connect 34 0 33 0;
#X connect 35 0 21 0;
#X connect 36 0 21 1;
#X connect 38 0 29 0;
#X connect 38 0 53 0;
#X connect 39 0 40 0;
#X connect 39 0 48 0;
#X connect 40 0 34 0;
#X connect 46 0 45 0;
#X connect 47 0 46 0;
#X connect 47 0 48 1;
#X connect 48 0 47 0;
#X connect 49 0 25 0;
#X connect 50 0 51 0;
#X connect 51 0 49 0;
#X connect 52 0 51 1;
#X connect 53 0 51 1;
#X connect 54 0 26 0;
#X connect 54 1 52 0;
#X connect 55 0 56 0;
#X connect 56 0 57 0;
#X connect 57 0 58 0;
#X connect 58 0 31 0;
#X connect 59 0 79 0;
#X connect 60 0 59 0;
#X connect 61 0 77 0;
#X connect 62 0 61 0;
#X connect 63 0 68 0;
#X connect 64 0 78 0;
#X connect 65 0 21 0;
#X connect 65 0 39 0;
#X connect 66 0 67 0;
#X connect 67 0 69 0;
#X connect 68 0 67 1;
#X connect 69 0 65 0;
#X connect 70 0 14 0;
#X connect 71 0 64 0;
#X connect 71 0 75 0;
#X connect 72 0 62 0;
#X connect 73 0 74 0;
#X connect 73 1 3 0;
#X connect 73 2 7 0;
#X connect 74 0 66 0;
#X connect 74 1 71 0;
#X connect 76 0 71 0;
#X connect 77 0 71 1;
#X connect 78 0 66 0;
#X coords 0 -1 1 1 120 150 1 0 0;
