#N canvas 415 157 499 487 10;
#X obj 142 46 inlet;
#X obj 143 239 prepend add;
#X obj 165 106 timer;
#X obj 142 69 t f b;
#X obj 143 264 qlist;
#X obj 142 176 pack f f s;
#X msg 140 206 \$2 \$3 \$1;
#X obj 221 124 loadbang;
#X obj 226 267 r \$1;
#X obj 226 287 outlet;
#X obj 253 170 inlet;
#X obj 253 209 b;
#X obj 220 146 symbol \$1;
#X text 231 349 Copyleft Glerm Soares 2009;
#X obj 166 129 t f f;
#X obj 171 153 -;
#X obj 163 288 s \$0-end;
#X obj 320 224 r \$0-end;
#X obj 259 189 route bang loop;
#X obj 254 45 sel clear;
#X obj 321 245 spigot;
#X obj 311 93 tosymbol;
#X connect 0 0 3 0;
#X connect 1 0 4 0;
#X connect 2 0 14 0;
#X connect 3 0 5 0;
#X connect 3 1 2 1;
#X connect 4 1 16 0;
#X connect 5 0 6 0;
#X connect 6 0 1 0;
#X connect 7 0 12 0;
#X connect 8 0 9 0;
#X connect 10 0 18 0;
#X connect 11 0 4 0;
#X connect 12 0 5 2;
#X connect 14 0 15 1;
#X connect 14 1 15 0;
#X connect 15 0 5 1;
#X connect 17 0 20 0;
#X connect 18 0 11 0;
#X connect 18 1 20 1;
#X connect 18 2 4 0;
#X connect 18 2 21 0;
#X connect 19 0 2 0;
#X connect 20 0 4 0;
#X connect 21 0 19 0;
