#N canvas 0 26 1024 661 10;
#X obj -80 -45 hsl 128 15 0 127 0 0 empty empty empty -2 -8 0 10 -239581
-1 -1 0 1;
#X msg -6 -7 clear;
#X obj 52 -30 bng 15 250 50 0 empty empty empty 17 7 0 10 -262144 -1
-1;
#X msg -7 13 tempo 1;
#X msg -7 33 tempo 2;
#X msg -6 53 tempo 0.5;
#X obj -79 127 hsl 128 15 0 127 0 0 empty empty empty -2 -8 0 10 -239581
-1 -1 0 1;
#X msg -6 75 write qflux.txt;
#X msg -5 96 read qflux.txt;
#X obj 105 -39 hsl 128 15 0 1 0 0 empty empty empty -2 -8 0 10 -232157
-1 -1 12400 1;
#X obj 304 7 bng 20 250 50 0 empty empty play_flux 22 7 0 10 -262144
-1 -1;
#X msg 233 47 tempo 1;
#X msg 233 67 tempo 2;
#X msg 234 87 tempo 0.5;
#X obj 105 151 hsl 128 15 0 1 0 0 empty empty empty -2 -8 0 10 -232157
-1 -1 12400 1;
#X obj 102 9 qflux anyname;
#X msg 234 109 write qflux2.txt;
#X msg 235 130 read qflux2.txt;
#X msg 236 -40 clear;
#X text 274 -41 before start;
#X obj 412 63 osc~;
#X obj 422 126 dac~;
#X msg 395 208 \; pd dsp \$1;
#X obj 396 189 tgl 15 0 empty empty empty 17 7 0 10 -262144 -1 -1 1
1;
#X obj 102 172 s qfluxexample;
#X obj 420 -23 hsl 128 15 0 1 0 0 empty empty empty -2 -8 0 10 -232157
-1 -1 12400 1;
#X obj 110 -21 s qfluxexample;
#X obj 411 44 mtof;
#X obj 408 23 * 127;
#X obj 417 -45 r qfluxexample;
#X obj -82 -15 qflux id1;
#X msg 303 29 loop 1;
#X msg 304 48 loop 0;
#X obj 452 72 osc~;
#X obj 451 53 mtof;
#X obj 450 9 * 127;
#X obj 454 32 - 12;
#X obj 490 75 osc~;
#X obj 489 56 mtof;
#X obj 488 12 * 127;
#X obj 492 35 + 12;
#X connect 0 0 30 0;
#X connect 1 0 30 1;
#X connect 2 0 30 1;
#X connect 3 0 30 1;
#X connect 4 0 30 1;
#X connect 5 0 30 1;
#X connect 7 0 30 1;
#X connect 8 0 30 1;
#X connect 9 0 15 0;
#X connect 9 0 26 0;
#X connect 10 0 15 1;
#X connect 11 0 15 1;
#X connect 12 0 15 1;
#X connect 13 0 15 1;
#X connect 14 0 24 0;
#X connect 15 0 14 0;
#X connect 16 0 15 1;
#X connect 17 0 15 1;
#X connect 18 0 15 1;
#X connect 20 0 21 0;
#X connect 20 0 21 1;
#X connect 23 0 22 0;
#X connect 25 0 28 0;
#X connect 25 0 35 0;
#X connect 25 0 39 0;
#X connect 27 0 20 0;
#X connect 28 0 27 0;
#X connect 29 0 25 0;
#X connect 30 0 6 0;
#X connect 31 0 15 1;
#X connect 32 0 15 1;
#X connect 33 0 21 0;
#X connect 33 0 21 1;
#X connect 34 0 33 0;
#X connect 35 0 36 0;
#X connect 36 0 34 0;
#X connect 37 0 21 0;
#X connect 37 0 21 1;
#X connect 38 0 37 0;
#X connect 39 0 40 0;
#X connect 40 0 38 0;
