#N canvas 0 0 450 300 10;
#X obj 45 65 key;
#X obj 46 94 sel 113 119 101 114 116 121;
#X obj 27 154 outlet;
#X obj 74 155 outlet;
#X obj 119 156 outlet;
#X obj 166 157 outlet;
#X obj 211 157 outlet;
#X obj 258 158 outlet;
#X connect 0 0 1 0;
#X connect 1 0 2 0;
#X connect 1 1 3 0;
#X connect 1 2 4 0;
#X connect 1 3 5 0;
#X connect 1 4 6 0;
#X connect 1 5 7 0;
