#N canvas 346 489 624 346 10;
#X obj 92 182 textfile;
#X msg 124 153 rewind;
#X obj 105 99 t b a;
#X msg 192 147 0;
#X obj 162 215 f;
#X obj 83 259 outlet;
#X obj 162 239 outlet;
#X obj 103 56 list prepend read;
#X obj 103 77 list trim;
#X obj 107 123 t b b b b;
#X obj 102 33 list append cr;
#X obj 90 7 route bang;
#X obj 92 -18 inlet;
#X obj 92 207 t a b;
#X text 136 -16 input a filename \, bang to read a line after line.
;
#X text 124 263 outputs content of a line.;
#X text 80 291 \; artin 2009 \, (cc) share alike;
#N canvas 0 0 450 300 f+1 0;
#X obj 141 241 + 1;
#X obj 110 241 f;
#X obj 110 195 inlet;
#X obj 110 276 outlet;
#X obj 154 195 inlet;
#X connect 0 0 1 1;
#X connect 1 0 0 0;
#X connect 1 0 3 0;
#X connect 2 0 1 0;
#X connect 4 0 1 1;
#X restore 176 184 pd f+1;
#X text 201 241 outputs the amount of lines when finished \, 0 when
empty;
#X connect 0 0 13 0;
#X connect 0 1 4 0;
#X connect 1 0 0 0;
#X connect 2 0 9 0;
#X connect 2 1 0 0;
#X connect 3 0 17 0;
#X connect 4 0 6 0;
#X connect 7 0 8 0;
#X connect 8 0 2 0;
#X connect 9 1 1 0;
#X connect 9 2 3 0;
#X connect 10 0 7 0;
#X connect 11 0 0 0;
#X connect 11 1 10 0;
#X connect 12 0 11 0;
#X connect 13 0 5 0;
#X connect 13 1 17 0;
#X connect 17 0 4 1;
