#N canvas 362 261 662 422 10;
#X obj 105 190 textfile;
#X msg 145 152 rewind;
#X obj 105 150 until;
#X obj 105 99 t b a;
#X msg 217 136 0;
#X obj 180 225 f;
#X obj 103 56 list prepend read;
#X obj 103 77 list trim;
#X obj 105 121 t b b b b;
#X obj 102 33 list append cr;
#X text 260 249 outputs the amount of lines when finished;
#X text 139 275 all lines of a file \, one after an other.;
#N canvas 0 0 450 300 f+1 0;
#X obj 141 241 + 1;
#X obj 110 241 f;
#X obj 110 195 inlet;
#X obj 110 276 outlet;
#X obj 154 195 inlet;
#X connect 0 0 1 1;
#X connect 1 0 0 0;
#X connect 1 0 3 0;
#X connect 2 0 1 0;
#X connect 4 0 1 1;
#X restore 195 181 pd f+1;
#X text 142 10 filename. output of lines starts instantly;
#X obj 180 249 outlet;
#X obj 90 274 outlet;
#X obj 101 11 inlet;
#X obj 257 73 inlet;
#X text 89 309 based on [readlines] Martin Schied 2009 \, (cc) share
alike;
#X connect 0 0 15 0;
#X connect 0 1 2 1;
#X connect 0 1 5 0;
#X connect 1 0 0 0;
#X connect 2 0 0 0;
#X connect 2 0 12 0;
#X connect 3 0 8 0;
#X connect 3 1 0 0;
#X connect 4 0 12 0;
#X connect 5 0 14 0;
#X connect 6 0 7 0;
#X connect 7 0 3 0;
#X connect 8 0 2 0;
#X connect 8 1 1 0;
#X connect 8 2 4 0;
#X connect 9 0 6 0;
#X connect 12 0 5 1;
#X connect 16 0 9 0;
#X connect 17 0 0 0;
