#N canvas 343 131 476 492 10;
#X obj 72 70 pitch 0;
#X obj 38 154 s \$0-cel;
#X obj 76 412 s \$0-cnvcel;
#X obj 76 34 inlet;
#X msg 305 142 color -1.67117e+07 -1 -1;
#X msg 305 165 color -1.6777e+07 -1 -1;
#X msg 309 188 color -65536 -1 -1;
#X msg 309 211 color -256 -1 -1;
#X msg 309 233 color -1 -1 -1;
#X msg 308 257 color -9.06035e+06 -1 -1;
#X msg 310 279 color -9.06049e+06 -1 -1;
#X msg 308 301 color -9.09709e+06 -1 -1;
#X msg 295 351 color -1.64161e+07 -1 -1;
#X msg 291 376 color -1.67119e+07 -1 -1;
#X obj 126 11 sel 0 1 2 3 4 5 6 7 8 9 10 11;
#X floatatom 22 24 5 0 0 0 - - -;
#X msg 297 325 color -4.11233e+06 -1 -1;
#X obj 110 101 tgl 30 0 empty empty empty 17 7 0 10 -262144 -1 -1 0
1;
#X obj 100 101 cnv 15 50 30 empty \$0-cnvcel empty 20 12 0 14 -64 -1
0;
#X symbolatom 115 107 3 0 0 0 - #0-cel #0-cel_;
#X floatatom 109 145 5 0 0 0 - - -;
#X msg 304 121 color -65281 -1 -1;
#X msg 47 285 color 0 -1 -1;
#X obj 115 230 tgl 15 0 empty empty empty 17 7 0 10 -262144 -1 -1 0
1;
#X obj 128 63 int;
#X obj 62 258 sel 0;
#X obj 111 258 sel 1;
#X obj 56 210 metro 175;
#X obj 218 154 int;
#X obj 217 461 outlet;
#X obj 218 436 * 0;
#X obj 164 126 r picknote;
#X connect 0 1 1 0;
#X connect 0 2 14 0;
#X connect 0 2 24 1;
#X connect 3 0 0 0;
#X connect 3 0 28 1;
#X connect 4 0 2 0;
#X connect 5 0 2 0;
#X connect 6 0 2 0;
#X connect 7 0 2 0;
#X connect 8 0 2 0;
#X connect 9 0 2 0;
#X connect 10 0 2 0;
#X connect 11 0 2 0;
#X connect 12 0 2 0;
#X connect 13 0 2 0;
#X connect 14 0 21 0;
#X connect 14 1 4 0;
#X connect 14 2 5 0;
#X connect 14 3 6 0;
#X connect 14 4 7 0;
#X connect 14 5 8 0;
#X connect 14 6 9 0;
#X connect 14 7 10 0;
#X connect 14 8 11 0;
#X connect 14 9 16 0;
#X connect 14 10 12 0;
#X connect 14 11 13 0;
#X connect 15 0 0 0;
#X connect 16 0 2 0;
#X connect 17 0 20 0;
#X connect 20 0 23 0;
#X connect 20 0 27 0;
#X connect 20 0 30 1;
#X connect 21 0 2 0;
#X connect 22 0 2 0;
#X connect 23 0 25 0;
#X connect 23 0 26 0;
#X connect 24 0 14 0;
#X connect 25 0 24 0;
#X connect 26 0 22 0;
#X connect 27 0 23 0;
#X connect 28 0 30 0;
#X connect 30 0 29 0;
#X connect 31 0 28 0;
#X coords 0 -1 1 1 50 32 2 100 100;
