#N canvas 440 252 583 290 12;
#X text 328 257 updated for Pd version 0.37;
#X text 100 158 http://www.crca.ucsd.edu/~msp/techniques.htm;
#X text 87 6 INTRODUCAO AOS PATCHES DE EXEMPLO DO PD;
#X text 32 132 Estes patches vem acompanhados de um livro online:;
#X text 37 189 que desenvolve a teoria por baixo deles.;
#X text 34 45 Este e' o segundo das tres series de tutorial no Pd.
Este tutorial mostra as funcionalidades de processamento de audio no
dominio do tempo. (o primeiro mostrou como fazer computacoes simples
de "Controle" no pd \, e o terceiro ira mostrar tecnicas no dominio
da frequencia).;
