#N canvas 6 2 592 517 12;
#X obj 108 109 osc~ 440;
#X obj 108 168 dac~;
#X obj 108 138 *~ 0.05;
#X msg 98 239 \; pd dsp 1;
#X msg 202 239 \; pd dsp 0;
#X text 28 434 In general when you start a work session with Pd \,
you will want to choose "test audio and MIDI" from the help window
\, which opens a more comprehensive test patch than this one.;
#X text 342 490 updated for Pd version 0.36;
#X text 202 3 FAZENDO UMA ONDA SENOIDAL;
#X text 32 23 Computacao de audio no Pd e feita usando "objetos til"
como os tres abaixo. Eles usam fluxos de som continuos para comunicar
entre si \, e tambem comunicam com outros objetos de controle do Pd
usando mensagens comuns.;
#X text 187 111 <-- onda senoidal a 440 Hz. forca total;
#X text 187 139 <-- reduz amplitude para 0.05;
#X text 160 168 <----- manda para o dispositivo de saida de som;
#X text 32 195 Computacao de audio pode ser ligada e desligada mandando
mensagens para o objeto global "pd" como se segue:;
#X text 296 247 <-- clique aqui;
#X text 113 276 LIGAR;
#X text 203 276 DESLIGAR;
#X text 29 297 Voce deve ver a janela do Pd refletir a mudanca de audio
ligado ou desligado. Voce tbm pode ligar e desligar o audio usando
o menu audio ou atalhos de teclado \, mas estes botoes sao fornecidos
como um atalho.;
#X text 30 368 Quando o processamento de som (DSP) estiver ligado \,
voce vai ouvir um tom cujo tom e' A 400 e amplitude e' 0.05. Se ao
inves disso firar tudo em silencio \, voce pode querer ler a documentacao
sobre configuracao de audio.;
#X connect 0 0 2 0;
#X connect 2 0 1 0;
