#N canvas 174 45 651 602 12;
#X obj 56 79 osc~ 440;
#X obj 56 309 dac~;
#X msg 446 79 \; pd dsp 1;
#X msg 538 79 \; pd dsp 0;
#X text 467 112 ON;
#X text 555 112 OFF;
#X obj 56 269 *~;
#X obj 73 243 line~;
#X msg 103 103 0.1 2000;
#X msg 103 177 0 2000;
#X msg 103 125 0.1 50;
#X msg 103 199 0 50;
#X msg 103 147 0.1;
#X msg 103 221 0;
#X text 143 161 ----------------------;
#X text 386 557 updated for Pd version 0.36;
#X text 103 7 CONTROLANDO A AMPLITUDE USANDO "line~";
#X text 14 27 Neste patch \, o multiplicador esta configurado para
multiplicar dois sinais. A amplitude e' agora um sinal computado pelo
objeto "line~".;
#X text 132 78 <-- onda senoidal;
#X text 185 105 <-- devagar;
#X text 175 126 <-- rapido;
#X text 142 146 <-- instantaneo;
#X text 167 178 <-- devagar;
#X text 160 199 <-- rapido;
#X text 140 219 <-- instantaneo;
#X text 305 124 LIGAR;
#X text 302 197 DESLIGAR;
#X text 130 243 <--- gerador de rampas;
#X text 97 317 <-- saida;
#X text 97 265 <-- Multiplica a onda senoidal pela rampa. Nao tem mais
um argumento 0-- isso diz ao Pd para esperar um sinal aqui e nao uma
mensagem numerica.;
#X text 38 342 A entrada da esquerda do line e' um valor de destino
\; Ele chega ao destino no tempo especificado na sua entrada da direita
(em milissegundos).;
#X text 37 395 Neste exemplo \, as caixas de mensagens com dois numeros
estao conectadas a entrada da esquerda do line. Exceto com alguns casos
especiais \, objetos do Pd com mais de uma entrada vao automaticamente
distribuir listas de numeros por suas entradas. Neste caso \, "0 50"
vira "50 na direita e 0 na esquerda".;
#X text 34 492 O objeto "line~" (e seu irmao de controle \, "line")
tratam suas entradas da direita de forma especial. As entradas nao
retem valores do jeito que outras entradas da direita fazem \, mas
na verdade voltam pra zero toda vez que um valor e' recebido na esquerda.
;
#X connect 0 0 6 0;
#X connect 6 0 1 0;
#X connect 6 0 1 1;
#X connect 7 0 6 1;
#X connect 8 0 7 0;
#X connect 9 0 7 0;
#X connect 10 0 7 0;
#X connect 11 0 7 0;
#X connect 12 0 7 0;
#X connect 13 0 7 0;
