#N canvas 30 14 953 718 12;
#X obj 67 329 dac~;
#X obj 67 242 *~;
#X obj 86 180 line~;
#N canvas 0 0 450 300 graph1 0;
#X array produto 44100 float 0;
#X coords 0 1.02 44100 -1.02 200 130 1;
#X restore 631 350 graph;
#N canvas 0 0 450 300 graph1 0;
#X array saida-osc 44100 float 0;
#X coords 0 1.02 44100 -1.02 200 130 1;
#X restore 631 20 graph;
#N canvas 0 0 450 300 graph1 0;
#X array saida-line 44100 float 0;
#X coords 0 1.02 44100 -1.02 200 130 1;
#X restore 631 185 graph;
#X obj 67 299 *~ 0.1;
#X text 634 491 ------ 1 second ------;
#X text 662 727 updated for Pd version 0.33;
#X obj 67 77 osc~ 440;
#X text 124 9 GRAFICO DO LINE;
#X text 24 33 Aqui esta novamente um line~ controlando a amplitude
de um osc~ \, mas desta vez geramos graficos das saidas:;
#X obj 149 89 r gera-grafico;
#X obj 149 119 tabwrite~ saida-osc;
#X obj 151 179 r gera-grafico;
#X obj 151 209 tabwrite~ saida-line;
#X obj 151 276 tabwrite~ produto;
#X obj 86 149 r param-line;
#X obj 151 246 r gera-grafico;
#X msg 39 402 bang \; pd dsp 1 \; param-line 0 \, 1 500;
#X msg 210 402 bang \; pd dsp 1 \; param-line 1 \, 0 500;
#X obj 227 465 s gera-grafico;
#X msg 376 402 bang \; pd dsp 1 \; param-line 0.5 1000;
#X text 53 379 rampa subindo;
#X text 235 378 rampa descendo;
#X text 406 376 ate a metade;
#X text 116 330 <-- saida;
#X text 38 485 Clique nas caixas de mensagem acima para testar. Note
que nas duas primeiras caixas \, o objeto "line~" recebe duas mensagens.
A primeira \, sem o parametro de tempo \, causa o "line~" a pular imediatamente
para o valor. A terceira caixa considera como partida o valor atual
de "line~". O que voce vai ver na terceira caixa depende de qual voce
clicou antes \, e de quanto tempo passou.;
#X text 41 600 Na maioria das maquinas \, voce ouvira uma interrupcao
no som uum segundo apos o clique na priemira ou terceira caixa. Isso
e' verdade porque as atualizacaoes graficas provavelmente comem mais
tempo de CPU do que o seu audio "bufferizou". Voce pode evitar isso
mantendo seus graficos em subjanelas e abrindo apenas quando voce precisar
delas. Em uma versao futura do Pd isso sera melhorado \, mas ate la'
\, voce tera' que evitar graficos redesenhando durante a performance
musical.;
#X connect 1 0 6 0;
#X connect 1 0 16 0;
#X connect 2 0 1 1;
#X connect 2 0 15 0;
#X connect 6 0 0 0;
#X connect 9 0 1 0;
#X connect 9 0 13 0;
#X connect 12 0 13 0;
#X connect 14 0 15 0;
#X connect 17 0 2 0;
#X connect 18 0 16 0;
#X connect 19 0 21 0;
#X connect 20 0 21 0;
#X connect 22 0 21 0;
