#N canvas 8 17 697 646 12;
#N canvas 0 0 450 300 graph1 0;
#X array saida-osc 4410 float 0;
#X coords 0 1.02 4410 -1.02 200 130 1;
#X restore 473 167 graph;
#X msg 98 232 bang;
#X floatatom 280 66 0 0 0 0 - - -;
#X msg 280 37 set \$1;
#X floatatom 6 66 0 0 0 0 - - -;
#X msg 6 37 set \$1;
#X obj 19 90 s frequency;
#X obj 289 90 s pitch;
#X obj 280 116 mtof;
#X obj 6 116 ftom;
#X text 476 308 ---- 0.1 seconds ----;
#X obj 15 273 output~;
#X text 437 619 updated for Pd version 0.36;
#X obj 15 232 osc~;
#X obj 6 8 r frequencia;
#X text 447 6 FREQUENCIA E TOM;
#X obj 280 145 s frequencia;
#X obj 15 206 r frequencia;
#X text 87 291 <-- nivel de saida;
#X text 146 232 <-- clique para gerar grafico;
#X obj 98 261 tabwrite~ saida-osc;
#X text 16 363 O objeto osc~ \, se receber um argumento \, espera mensagens
"float" para mudar sua frequencia. Sem argumentos \, sua frequencia
e' controlada atraves da conexao de um sinal de audio a sua entrada..
;
#X text 15 429 Frequencia e tom sao convertidos usando os objetos ftom
e mtof. Nota e' 60 para do' central \, 61 para do' bemol \, 72 para
o proximo do' \, e assim por diante.;
#X text 373 65 <-- altere a nota midi;
#X text 69 53 <-- altere a frequencia;
#X obj 6 145 s nota;
#X obj 280 8 r nota;
#X text 14 489 Mtof e ftom funcionam bem para microtons (notas "MIDI"
nao integrais) e nao tem restricao de faixa do MIDI. Por exemplo \,
a nota MIDI -36 significa aproximadamente 1 Hz.;
#X text 15 553 Note as mensagens "set" indo para as caixas de numero
de forma que elas possam atualizar uma 'a outras sem trazer um loop
infinito. (peca ajuda nas caixas de numero para detalhes);
#X text 57 110 <-- converte frequencia para tom "MIDI";
#X text 333 111 <-- converte a nota "MIDI" para frequencia;
#X connect 1 0 20 0;
#X connect 2 0 7 0;
#X connect 2 0 8 0;
#X connect 3 0 2 0;
#X connect 4 0 6 0;
#X connect 4 0 9 0;
#X connect 5 0 4 0;
#X connect 8 0 16 0;
#X connect 9 0 25 0;
#X connect 13 0 11 0;
#X connect 13 0 20 0;
#X connect 14 0 5 0;
#X connect 17 0 13 0;
#X connect 26 0 3 0;
