#N canvas 0 0 623 586 12;
#X obj 353 490 t b;
#X obj 353 437 f;
#X obj 353 515 f;
#X msg 467 514 0;
#X obj 353 467 moses 1;
#X obj 467 486 t b f;
#X obj 433 447 moses 1;
#X obj 29 97 dbtorms;
#X obj 85 170 inlet~;
#X msg 229 306 \; pd dsp 1;
#X obj 29 170 line~;
#X obj 64 242 *~;
#X obj 64 272 dac~;
#X obj 29 127 pack 0 50;
#X floatatom 281 217 3 0 100 0 dB - -;
#X obj 415 420 bng 15 250 50 0 empty empty mudo -38 7 0 12 -262144
-1 -1;
#X obj 148 170 inlet~;
#X obj 154 241 *~;
#X obj 85 192 hip~ 3;
#X obj 147 192 hip~ 3;
#X text 15 16 Abstracao do controle de nivel \, usada em muitos exemplos
do Pd. Os controles "nivel" e "mudo" aparecem na janela pai \, na qual
este controle esta inserido.;
#X text 100 96 <-- converte de decibeis para unidades lineares;
#X text 118 126 <-- fazermos uma rampa para controlar cliques;
#X text 77 154 entradas de audio;
#X obj 29 71 r \$0-saida-mestre;
#X obj 323 174 r \$0-nivel-mestre;
#X obj 323 279 s \$0-saida-mestre;
#X text 373 378 logica do "mudo":;
#X obj 433 418 r \$0-saida-mestre;
#X obj 353 541 s \$0-nivel-mestre;
#X text -10 420 chama o ultimo valor de nivel-mestre --->;
#X text 75 466 testa se menor que 1 -->;
#X text -10 491 se verdadeiro \, converte para bang -->;
#X text 19 517 valor anterior de nivel-mestre -->;
#X text 9 302 Inicia o processamento digital de sinal (DSP) automaticamente
-->;
#X connect 0 0 2 0;
#X connect 1 0 4 0;
#X connect 2 0 29 0;
#X connect 3 0 29 0;
#X connect 4 0 0 0;
#X connect 4 1 5 0;
#X connect 5 0 3 0;
#X connect 6 1 2 1;
#X connect 7 0 13 0;
#X connect 8 0 18 0;
#X connect 10 0 17 0;
#X connect 10 0 11 0;
#X connect 11 0 12 0;
#X connect 13 0 10 0;
#X connect 14 0 9 0;
#X connect 14 0 26 0;
#X connect 15 0 1 0;
#X connect 16 0 19 0;
#X connect 17 0 12 1;
#X connect 18 0 11 1;
#X connect 19 0 17 1;
#X connect 24 0 7 0;
#X connect 25 0 14 0;
#X connect 28 0 1 1;
#X connect 28 0 6 0;
#X coords 0 0 1 1 65 55 1;
