#N canvas 0 26 1024 661 10;
#N canvas 0 0 664 495 nomesnotas 0;
#X obj 80 47 inlet;
#X obj 79 436 outlet;
#X obj 58 182 % 12;
#X obj 136 202 sel 0 1 2 3 4 5 6 7 8 9 10 11;
#X obj 59 303 t a;
#X msg 58 260 Do;
#X msg 89 260 Do_sustenido;
#X msg 174 262 Re;
#X msg 207 262 Re_sustenido;
#X msg 292 263 Mi;
#X msg 321 264 Fa;
#X msg 349 264 Fa_sustenido;
#X msg 441 263 Sol;
#X msg 473 265 Sol_sustenido;
#X msg 565 268 La;
#X msg 600 271 Si_bemol;
#X msg 666 269 Si;
#X obj 233 129 / 12;
#X obj 226 153 int;
#X obj 187 410 - 1;
#X obj 190 436 outlet;
#X connect 0 0 2 0;
#X connect 0 0 17 0;
#X connect 2 0 3 0;
#X connect 3 0 5 0;
#X connect 3 1 6 0;
#X connect 3 2 7 0;
#X connect 3 3 8 0;
#X connect 3 4 9 0;
#X connect 3 5 10 0;
#X connect 3 6 11 0;
#X connect 3 7 12 0;
#X connect 3 8 13 0;
#X connect 3 9 14 0;
#X connect 3 10 15 0;
#X connect 3 11 16 0;
#X connect 4 0 1 0;
#X connect 5 0 4 0;
#X connect 6 0 4 0;
#X connect 7 0 4 0;
#X connect 8 0 4 0;
#X connect 9 0 4 0;
#X connect 10 0 4 0;
#X connect 11 0 4 0;
#X connect 12 0 4 0;
#X connect 13 0 4 0;
#X connect 14 0 4 0;
#X connect 15 0 4 0;
#X connect 16 0 4 0;
#X connect 17 0 18 0;
#X connect 18 0 19 0;
#X connect 19 0 20 0;
#X restore 433 306 pd nomesnotas;
#X obj 442 381 tosymbol;
#X obj 105 102 cnv 15 895 70 \$0-basepianoC0_ \$0-basepianoC0 empty
0 30 0 50 -1 -262144 0;
#X obj 943 121 cnv 15 50 15 empty empty root 0 5 0 14 -128992 -262144
0;
#X floatatom 978 120 3 0 99 2 - #0-rootR #0-rootS;
#X obj 109 116 vsl 15 40 0 127 0 0 \$0-nota0S \$0-nota0R empty 0 -9
0 10 -262144 -262144 -262144 0 1;
#X obj 126 116 vsl 15 40 0 127 0 0 \$0-nota2S \$0-nota2R empty 0 -9
0 10 -262144 -262144 -262144 0 1;
#X obj 143 116 vsl 15 40 0 127 0 0 \$0-nota4S \$0-nota4R empty 0 -9
0 10 -262144 -262144 -262144 0 1;
#X obj 160 116 vsl 15 40 0 127 0 0 \$0-nota5S \$0-nota5R empty 0 -9
0 10 -262144 -262144 -262144 100 1;
#X obj 177 116 vsl 15 40 0 127 0 0 \$0-nota7S \$0-nota7R empty 0 -9
0 10 -262144 -262144 -262144 0 1;
#X obj 194 116 vsl 15 40 0 127 0 0 \$0-nota9S \$0-nota9R empty 0 -9
0 10 -262144 -262144 -262144 0 1;
#X obj 211 116 vsl 15 40 0 127 0 0 \$0-nota11S \$0-nota11R empty 0
-9 0 10 -262144 -262144 -262144 0 1;
#X obj 228 116 vsl 15 40 0 127 0 0 \$0-nota12S \$0-nota12R empty 0
-9 0 10 -262144 -262144 -262144 0 1;
#X obj 245 116 vsl 15 40 0 127 0 0 \$0-nota14S \$0-nota14R empty 0
-9 0 10 -262144 -262144 -262144 0 1;
#X obj 262 116 vsl 15 40 0 127 0 0 \$0-nota16S \$0-nota16R empty 0
-9 0 10 -262144 -262144 -262144 0 1;
#X obj 279 116 vsl 15 40 0 127 0 0 \$0-nota17S \$0-nota17R empty 0
-9 0 10 -262144 -262144 -262144 0 1;
#X obj 296 116 vsl 15 40 0 127 0 0 \$0-nota19S \$0-nota19R empty 0
-9 0 10 -262144 -262144 -262144 0 1;
#X obj 313 116 vsl 15 40 0 127 0 0 \$0-nota21S \$0-nota21R empty 0
-9 0 10 -262144 -262144 -262144 0 1;
#X obj 330 116 vsl 15 40 0 127 0 0 \$0-nota23S \$0-nota23R empty 0
-9 0 10 -262144 -262144 -262144 0 1;
#X obj 347 116 vsl 15 40 0 127 0 0 \$0-nota24S \$0-nota24R empty 0
-9 0 10 -262144 -262144 -262144 0 1;
#X obj 364 116 vsl 15 40 0 127 0 0 \$0-nota26S \$0-nota26R empty 0
-9 0 10 -262144 -262144 -262144 0 1;
#X obj 381 116 vsl 15 40 0 127 0 0 \$0-nota28S \$0-nota28R empty 0
-9 0 10 -262144 -262144 -262144 0 1;
#X obj 398 116 vsl 15 40 0 127 0 0 \$0-nota29S \$0-nota29R empty 0
-9 0 10 -262144 -262144 -262144 0 1;
#X obj 415 116 vsl 15 40 0 127 0 0 \$0-nota31S \$0-nota31R empty 0
-9 0 10 -262144 -262144 -262144 0 1;
#X obj 432 116 vsl 15 40 0 127 0 0 \$0-nota33S \$0-nota33R empty 0
-9 0 10 -262144 -262144 -262144 0 1;
#X obj 449 116 vsl 15 40 0 127 0 0 \$0-nota35S \$0-nota35R empty 0
-9 0 10 -262144 -262144 -262144 0 1;
#X obj 466 116 vsl 15 40 0 127 0 0 \$0-nota36S \$0-nota36R empty 0
-9 0 10 -262144 -262144 -262144 0 1;
#X obj 483 116 vsl 15 40 0 127 0 0 \$0-nota38S \$0-nota38R empty 0
-9 0 10 -262144 -262144 -262144 0 1;
#X obj 500 116 vsl 15 40 0 127 0 0 \$0-nota40S \$0-nota40R empty 0
-9 0 10 -262144 -262144 -262144 0 1;
#X obj 517 116 vsl 15 40 0 127 0 0 \$0-nota41S \$0-nota41R empty 0
-9 0 10 -262144 -262144 -262144 0 1;
#X obj 534 116 vsl 15 40 0 127 0 0 \$0-nota43S \$0-nota43R empty 0
-9 0 10 -262144 -262144 -262144 0 1;
#X obj 551 116 vsl 15 40 0 127 0 0 \$0-nota45S \$0-nota45R empty 0
-9 0 10 -262144 -262144 -262144 0 1;
#X obj 568 116 vsl 15 40 0 127 0 0 \$0-nota47S \$0-nota47R empty 0
-9 0 10 -262144 -262144 -262144 0 1;
#X obj 585 116 vsl 15 40 0 127 0 0 \$0-nota48S \$0-nota48R empty 0
-9 0 10 -262144 -262144 -262144 0 1;
#X obj 602 116 vsl 15 40 0 127 0 0 \$0-nota50S \$0-nota50R empty 0
-9 0 10 -262144 -262144 -262144 0 1;
#X obj 619 116 vsl 15 40 0 127 0 0 \$0-nota52S \$0-nota52R empty 0
-9 0 10 -262144 -262144 -262144 0 1;
#X obj 636 116 vsl 15 40 0 127 0 0 \$0-nota53S \$0-nota53R empty 0
-9 0 10 -262144 -262144 -262144 0 1;
#X obj 653 116 vsl 15 40 0 127 0 0 \$0-nota55S \$0-nota55R empty 0
-9 0 10 -262144 -262144 -262144 0 1;
#X obj 670 116 vsl 15 40 0 127 0 0 \$0-nota57S \$0-nota57R empty 0
-9 0 10 -262144 -262144 -262144 0 1;
#X obj 687 116 vsl 15 40 0 127 0 0 \$0-nota59S \$0-nota59R empty 0
-9 0 10 -262144 -262144 -262144 0 1;
#X obj 704 116 vsl 15 40 0 127 0 0 \$0-nota60S \$0-nota60R empty 0
-9 0 10 -262144 -262144 -262144 0 1;
#X obj 721 116 vsl 15 40 0 127 0 0 \$0-nota62S \$0-nota62R empty 0
-9 0 10 -262144 -262144 -262144 0 1;
#X obj 738 116 vsl 15 40 0 127 0 0 \$0-nota64S \$0-nota64R empty 0
-9 0 10 -262144 -262144 -262144 0 1;
#X obj 755 116 vsl 15 40 0 127 0 0 \$0-nota65S \$0-nota65R empty 0
-9 0 10 -262144 -262144 -262144 0 1;
#X obj 772 116 vsl 15 40 0 127 0 0 \$0-nota67S \$0-nota67R empty 0
-9 0 10 -262144 -262144 -262144 0 1;
#X obj 789 116 vsl 15 40 0 127 0 0 \$0-nota69S \$0-nota69R empty 0
-9 0 10 -262144 -262144 -262144 0 1;
#X obj 806 116 vsl 15 40 0 127 0 0 \$0-nota71S \$0-nota71R empty 0
-9 0 10 -262144 -262144 -262144 0 1;
#X obj 823 116 vsl 15 40 0 127 0 0 \$0-nota72S \$0-nota72R empty 0
-9 0 10 -262144 -262144 -262144 0 1;
#X obj 840 116 vsl 15 40 0 127 0 0 \$0-nota74S \$0-nota74R empty 0
-9 0 10 -262144 -262144 -262144 0 1;
#X obj 857 116 vsl 15 40 0 127 0 0 \$0-nota76S \$0-nota76R empty 0
-9 0 10 -262144 -262144 -262144 0 1;
#X obj 874 116 vsl 15 40 0 127 0 0 \$0-nota77S \$0-nota77R empty 0
-9 0 10 -262144 -262144 -262144 0 1;
#X obj 891 116 vsl 15 40 0 127 0 0 \$0-nota79S \$0-nota79R empty 0
-9 0 10 -262144 -262144 -262144 0 1;
#X obj 908 116 vsl 15 40 0 127 0 0 \$0-nota81S \$0-nota81R empty 0
-9 0 10 -262144 -262144 -262144 0 1;
#X obj 925 116 vsl 15 40 0 127 0 0 \$0-nota83S \$0-nota83R empty 0
-9 0 10 -262144 -262144 -262144 0 1;
#X obj 119 106 vsl 13 30 0 127 0 0 \$0-nota1S \$0-nota1R empty 0 -9
0 10 -1 -1 -1 0 1;
#X obj 137 106 vsl 13 30 0 127 0 0 \$0-nota3S \$0-nota3R empty 0 -9
0 10 -1 -1 -1 0 1;
#X obj 169 105 vsl 13 30 0 127 0 0 \$0-nota6S \$0-nota6R empty 0 -9
0 10 -1 -1 -1 0 1;
#X obj 187 105 vsl 13 30 0 127 0 0 \$0-nota8S \$0-nota8R empty 0 -9
0 10 -1 -1 -1 0 1;
#X obj 205 105 vsl 13 30 0 127 0 0 \$0-nota10S \$0-nota10R empty 0
-9 0 10 -1 -1 -1 100 1;
#X obj 237 105 vsl 13 30 0 127 0 0 \$0-nota13S \$0-nota13R empty 0
-9 0 10 -1 -1 -1 0 1;
#X obj 254 105 vsl 13 30 0 127 0 0 \$0-nota15S \$0-nota15R empty 0
-9 0 10 -1 -1 -1 0 1;
#X obj 286 105 vsl 13 30 0 127 0 0 \$0-nota18S \$0-nota18R empty 0
-9 0 10 -1 -1 -1 0 1;
#X obj 304 105 vsl 13 30 0 127 0 0 \$0-nota20S \$0-nota20R empty 0
-9 0 10 -1 -1 -1 0 1;
#X obj 322 105 vsl 13 30 0 127 0 0 \$0-nota22S \$0-nota22R empty 0
-9 0 10 -1 -1 -1 0 1;
#X obj 358 105 vsl 13 30 0 127 0 0 \$0-nota25S \$0-nota25R empty 0
-9 0 10 -1 -1 -1 0 1;
#X obj 375 105 vsl 13 30 0 127 0 0 \$0-nota27S \$0-nota27R empty 0
-9 0 10 -1 -1 -1 0 1;
#X obj 407 106 vsl 13 30 0 127 0 0 \$0-nota30S \$0-nota30R empty 0
-9 0 10 -1 -1 -1 0 1;
#X obj 425 106 vsl 13 30 0 127 0 0 \$0-nota32S \$0-nota32R empty 0
-9 0 10 -1 -1 -1 0 1;
#X obj 443 106 vsl 13 30 0 127 0 0 \$0-nota34S \$0-nota34R empty 0
-9 0 10 -1 -1 -1 0 1;
#X obj 477 106 vsl 13 30 0 127 0 0 \$0-nota37S \$0-nota37R empty 0
-9 0 10 -1 -1 -1 0 1;
#X obj 494 106 vsl 13 30 0 127 0 0 \$0-nota39S \$0-nota39R empty 0
-9 0 10 -1 -1 -1 0 1;
#X obj 526 105 vsl 13 30 0 127 0 0 \$0-nota42S \$0-nota42R empty 0
-9 0 10 -1 -1 -1 0 1;
#X obj 544 105 vsl 13 30 0 127 0 0 \$0-nota44S \$0-nota44R empty 0
-9 0 10 -1 -1 -1 0 1;
#X obj 562 105 vsl 13 30 0 127 0 0 \$0-nota46S \$0-nota46R empty 0
-9 0 10 -1 -1 -1 0 1;
#X obj 596 105 vsl 13 30 0 127 0 0 \$0-nota49S \$0-nota49R empty 0
-9 0 10 -1 -1 -1 0 1;
#X obj 613 105 vsl 13 30 0 127 0 0 \$0-nota51S \$0-nota51R empty 0
-9 0 10 -1 -1 -1 0 1;
#X obj 645 104 vsl 13 30 0 127 0 0 \$0-nota54S \$0-nota54R empty 0
-9 0 10 -1 -1 -1 0 1;
#X obj 663 104 vsl 13 30 0 127 0 0 \$0-nota56S \$0-nota56R empty 0
-9 0 10 -1 -1 -1 0 1;
#X obj 681 104 vsl 13 30 0 127 0 0 \$0-nota58S \$0-nota58R empty 0
-9 0 10 -1 -1 -1 0 1;
#X obj 715 104 vsl 13 30 0 127 0 0 \$0-nota61S \$0-nota61R empty 0
-9 0 10 -1 -1 -1 0 1;
#X obj 732 104 vsl 13 30 0 127 0 0 \$0-nota63S \$0-nota63R empty 0
-9 0 10 -1 -1 -1 0 1;
#X obj 764 104 vsl 13 30 0 127 0 0 \$0-nota66S \$0-nota66R empty 0
-9 0 10 -1 -1 -1 0 1;
#X obj 782 104 vsl 13 30 0 127 0 0 \$0-nota68S \$0-nota68R empty 0
-9 0 10 -1 -1 -1 0 1;
#X obj 800 104 vsl 13 30 0 127 0 0 \$0-nota70S \$0-nota70R empty 0
-9 0 10 -1 -1 -1 0 1;
#X obj 834 105 vsl 13 30 0 127 0 0 \$0-nota73S \$0-nota73R empty 0
-9 0 10 -1 -1 -1 0 1;
#X obj 851 105 vsl 13 30 0 127 0 0 \$0-nota75S \$0-nota75R empty 0
-9 0 10 -1 -1 -1 0 1;
#X obj 883 105 vsl 13 30 0 127 0 0 \$0-nota78S \$0-nota78R empty 0
-9 0 10 -1 -1 -1 0 1;
#X obj 901 105 vsl 13 30 0 127 0 0 \$0-nota80S \$0-nota80R empty 0
-9 0 10 -1 -1 -1 0 1;
#X obj 919 105 vsl 13 30 0 127 0 0 \$0-nota82S \$0-nota82R empty 0
-9 0 4 -1 -1 -1 0 1;
#X obj 943 144 cnv 15 50 15 empty empty midi 0 5 0 14 -128992 -262144
0;
#X floatatom 975 149 4 0 127 2 - #0-MIDI #0-MIDI_;
#X obj 945 103 hradio 12 1 0 4 xxxxxxxxxxx zzzzzzzzzzz empty 0 -8 0
10 -260097 -257985 -1 3;
#N canvas 0 0 859 417 colorkeys 0;
#N canvas 68 282 931 380 colorkeys0 0;
#X obj 18 4 s \$0-keyIN;
#X obj 18 -15 inlet;
#X obj 30 318 outlet;
#X obj 30 298 r \$0-notaN;
#X obj 17 96 sel 0 1;
#X obj 42 198 s \$0-nota0R;
#X msg 42 138 color 45 45 45;
#X msg 17 163 color 0 0 0;
#X obj 17 75 == 0;
#X obj 17 54 r \$0-keyIN;
#X msg 66 90 0;
#X obj 66 111 s \$0-notaN;
#X obj 139 99 sel 0 1;
#X obj 139 77 == 1;
#X msg 139 167 color 142 142 142;
#X obj 156 196 s \$0-nota1R;
#X msg 158 130 color 45 45 45;
#X obj 139 54 r \$0-keyIN;
#X obj 187 100 s \$0-notaN;
#X msg 187 79 1;
#X obj 262 99 sel 0 1;
#X msg 287 141 color 45 45 45;
#X msg 262 166 color 0 0 0;
#X obj 262 57 r \$0-keyIN;
#X obj 311 114 s \$0-notaN;
#X obj 287 201 s \$0-nota2R;
#X obj 262 77 == 2;
#X msg 311 93 2;
#X obj 384 101 sel 0 1;
#X msg 384 169 color 142 142 142;
#X msg 403 132 color 45 45 45;
#X obj 384 56 r \$0-keyIN;
#X obj 432 102 s \$0-notaN;
#X obj 409 204 s \$0-nota3R;
#X obj 384 79 == 3;
#X msg 432 81 3;
#X obj 507 101 sel 0 1;
#X msg 532 143 color 45 45 45;
#X msg 507 168 color 0 0 0;
#X obj 507 59 r \$0-keyIN;
#X obj 556 116 s \$0-notaN;
#X obj 507 79 == 4;
#X obj 532 202 s \$0-nota4R;
#X msg 556 95 4;
#X obj 635 103 sel 0 1;
#X msg 660 145 color 45 45 45;
#X msg 635 170 color 0 0 0;
#X obj 635 61 r \$0-keyIN;
#X obj 684 118 s \$0-notaN;
#X msg 684 97 5;
#X obj 635 81 == 5;
#X obj 660 204 s \$0-nota5R;
#X obj 766 104 sel 0 1;
#X msg 766 172 color 142 142 142;
#X msg 785 135 color 45 45 45;
#X obj 766 59 r \$0-keyIN;
#X obj 814 105 s \$0-notaN;
#X obj 766 82 == 6;
#X msg 814 84 6;
#X obj 789 208 s \$0-nota6R;
#X obj 898 102 sel 0 1;
#X msg 923 144 color 45 45 45;
#X msg 898 169 color 0 0 0;
#X obj 898 60 r \$0-keyIN;
#X obj 947 117 s \$0-notaN;
#X msg 948 96 7;
#X obj 923 202 s \$0-nota7R;
#X obj 898 80 == 7;
#X obj 1029 103 sel 0 1;
#X msg 1029 171 color 142 142 142;
#X msg 1048 134 color 45 45 45;
#X obj 1029 58 r \$0-keyIN;
#X obj 1077 104 s \$0-notaN;
#X msg 1077 83 8;
#X obj 1029 81 == 8;
#X obj 1053 207 s \$0-nota8R;
#X obj 1157 101 sel 0 1;
#X msg 1182 143 color 45 45 45;
#X msg 1157 168 color 0 0 0;
#X obj 1157 59 r \$0-keyIN;
#X obj 1206 116 s \$0-notaN;
#X msg 1207 95 9;
#X obj 1158 81 == 9;
#X obj 1182 201 s \$0-nota9R;
#X obj 1288 102 sel 0 1;
#X msg 1288 170 color 142 142 142;
#X msg 1307 133 color 45 45 45;
#X obj 1288 57 r \$0-keyIN;
#X obj 1336 103 s \$0-notaN;
#X obj 1312 206 s \$0-nota10R;
#X msg 1336 82 10;
#X obj 1288 80 == 10;
#X obj 1416 105 sel 0 1;
#X msg 1441 147 color 45 45 45;
#X msg 1416 172 color 0 0 0;
#X obj 1416 63 r \$0-keyIN;
#X obj 1465 120 s \$0-notaN;
#X msg 1466 99 11;
#X obj 1417 85 == 11;
#X obj 1441 205 s \$0-nota11R;
#X connect 1 0 0 0;
#X connect 3 0 2 0;
#X connect 4 0 7 0;
#X connect 4 1 6 0;
#X connect 4 1 10 0;
#X connect 6 0 5 0;
#X connect 7 0 5 0;
#X connect 8 0 4 0;
#X connect 9 0 8 0;
#X connect 10 0 11 0;
#X connect 12 0 14 0;
#X connect 12 1 16 0;
#X connect 12 1 19 0;
#X connect 13 0 12 0;
#X connect 14 0 15 0;
#X connect 16 0 15 0;
#X connect 17 0 13 0;
#X connect 19 0 18 0;
#X connect 20 0 22 0;
#X connect 20 1 21 0;
#X connect 20 1 27 0;
#X connect 21 0 25 0;
#X connect 22 0 25 0;
#X connect 23 0 26 0;
#X connect 26 0 20 0;
#X connect 27 0 24 0;
#X connect 28 0 29 0;
#X connect 28 1 30 0;
#X connect 28 1 35 0;
#X connect 29 0 33 0;
#X connect 30 0 33 0;
#X connect 31 0 34 0;
#X connect 34 0 28 0;
#X connect 35 0 32 0;
#X connect 36 0 38 0;
#X connect 36 1 37 0;
#X connect 36 1 43 0;
#X connect 37 0 42 0;
#X connect 38 0 42 0;
#X connect 39 0 41 0;
#X connect 41 0 36 0;
#X connect 43 0 40 0;
#X connect 44 0 46 0;
#X connect 44 1 45 0;
#X connect 44 1 49 0;
#X connect 45 0 51 0;
#X connect 46 0 51 0;
#X connect 47 0 50 0;
#X connect 49 0 48 0;
#X connect 50 0 44 0;
#X connect 52 0 53 0;
#X connect 52 1 54 0;
#X connect 52 1 58 0;
#X connect 53 0 59 0;
#X connect 54 0 59 0;
#X connect 55 0 57 0;
#X connect 57 0 52 0;
#X connect 58 0 56 0;
#X connect 60 0 62 0;
#X connect 60 1 61 0;
#X connect 60 1 65 0;
#X connect 61 0 66 0;
#X connect 62 0 66 0;
#X connect 63 0 67 0;
#X connect 65 0 64 0;
#X connect 67 0 60 0;
#X connect 68 0 69 0;
#X connect 68 1 70 0;
#X connect 68 1 73 0;
#X connect 69 0 75 0;
#X connect 70 0 75 0;
#X connect 71 0 74 0;
#X connect 73 0 72 0;
#X connect 74 0 68 0;
#X connect 76 0 78 0;
#X connect 76 1 77 0;
#X connect 76 1 81 0;
#X connect 77 0 83 0;
#X connect 78 0 83 0;
#X connect 79 0 82 0;
#X connect 81 0 80 0;
#X connect 82 0 76 0;
#X connect 84 0 85 0;
#X connect 84 1 86 0;
#X connect 84 1 90 0;
#X connect 85 0 89 0;
#X connect 86 0 89 0;
#X connect 87 0 91 0;
#X connect 90 0 88 0;
#X connect 91 0 84 0;
#X connect 92 0 94 0;
#X connect 92 1 93 0;
#X connect 92 1 97 0;
#X connect 93 0 99 0;
#X connect 94 0 99 0;
#X connect 95 0 98 0;
#X connect 97 0 96 0;
#X connect 98 0 92 0;
#X restore 28 132 pd colorkeys0;
#N canvas 68 282 931 380 colorkeys12 0;
#X obj 18 4 s \$0-keyIN;
#X obj 18 -15 inlet;
#X obj 30 318 outlet;
#X obj 30 298 r \$0-notaN;
#X obj 17 96 sel 0 1;
#X msg 42 138 color 45 45 45;
#X msg 17 163 color 0 0 0;
#X obj 17 54 r \$0-keyIN;
#X obj 66 111 s \$0-notaN;
#X obj 139 99 sel 0 1;
#X msg 139 167 color 142 142 142;
#X msg 158 130 color 45 45 45;
#X obj 139 54 r \$0-keyIN;
#X obj 187 100 s \$0-notaN;
#X obj 262 99 sel 0 1;
#X msg 287 141 color 45 45 45;
#X msg 262 166 color 0 0 0;
#X obj 262 57 r \$0-keyIN;
#X obj 311 114 s \$0-notaN;
#X obj 384 101 sel 0 1;
#X msg 384 169 color 142 142 142;
#X msg 403 132 color 45 45 45;
#X obj 384 56 r \$0-keyIN;
#X obj 432 102 s \$0-notaN;
#X obj 507 101 sel 0 1;
#X msg 532 143 color 45 45 45;
#X msg 507 168 color 0 0 0;
#X obj 507 59 r \$0-keyIN;
#X obj 556 116 s \$0-notaN;
#X obj 635 103 sel 0 1;
#X msg 660 145 color 45 45 45;
#X msg 635 170 color 0 0 0;
#X obj 635 61 r \$0-keyIN;
#X obj 684 118 s \$0-notaN;
#X obj 766 104 sel 0 1;
#X msg 766 172 color 142 142 142;
#X msg 785 135 color 45 45 45;
#X obj 766 59 r \$0-keyIN;
#X obj 814 105 s \$0-notaN;
#X obj 898 102 sel 0 1;
#X msg 923 144 color 45 45 45;
#X msg 898 169 color 0 0 0;
#X obj 898 60 r \$0-keyIN;
#X obj 947 117 s \$0-notaN;
#X obj 1029 103 sel 0 1;
#X msg 1029 171 color 142 142 142;
#X msg 1048 134 color 45 45 45;
#X obj 1029 58 r \$0-keyIN;
#X obj 1077 104 s \$0-notaN;
#X obj 1157 101 sel 0 1;
#X msg 1182 143 color 45 45 45;
#X msg 1157 168 color 0 0 0;
#X obj 1157 59 r \$0-keyIN;
#X obj 1206 116 s \$0-notaN;
#X obj 1288 102 sel 0 1;
#X msg 1288 170 color 142 142 142;
#X msg 1307 133 color 45 45 45;
#X obj 1288 57 r \$0-keyIN;
#X obj 1336 103 s \$0-notaN;
#X obj 1416 105 sel 0 1;
#X msg 1441 147 color 45 45 45;
#X msg 1416 172 color 0 0 0;
#X obj 1416 63 r \$0-keyIN;
#X obj 1465 120 s \$0-notaN;
#X msg 66 90 12;
#X msg 187 79 13;
#X msg 311 93 14;
#X msg 432 81 15;
#X msg 556 95 16;
#X msg 684 97 17;
#X msg 814 84 18;
#X msg 948 96 19;
#X msg 1077 83 20;
#X msg 1207 95 21;
#X msg 1336 82 22;
#X msg 1466 99 23;
#X obj 17 75 == 12;
#X obj 139 77 == 13;
#X obj 262 77 == 14;
#X obj 384 79 == 15;
#X obj 507 80 == 16;
#X obj 635 81 == 17;
#X obj 767 82 == 18;
#X obj 898 80 == 19;
#X obj 1029 82 == 20;
#X obj 1158 81 == 21;
#X obj 1290 80 == 22;
#X obj 1417 85 == 23;
#X obj 42 198 s \$0-nota12R;
#X obj 156 196 s \$0-nota13R;
#X obj 287 201 s \$0-nota14R;
#X obj 408 204 s \$0-nota15R;
#X obj 532 202 s \$0-nota16R;
#X obj 656 204 s \$0-nota17R;
#X obj 789 208 s \$0-nota18R;
#X obj 923 202 s \$0-nota19R;
#X obj 1053 207 s \$0-nota20R;
#X obj 1182 201 s \$0-nota21R;
#X obj 1312 206 s \$0-nota22R;
#X obj 1441 205 s \$0-nota23R;
#X connect 1 0 0 0;
#X connect 3 0 2 0;
#X connect 4 0 6 0;
#X connect 4 1 5 0;
#X connect 4 1 64 0;
#X connect 5 0 88 0;
#X connect 6 0 88 0;
#X connect 7 0 76 0;
#X connect 9 0 10 0;
#X connect 9 1 11 0;
#X connect 9 1 65 0;
#X connect 10 0 89 0;
#X connect 11 0 89 0;
#X connect 12 0 77 0;
#X connect 14 0 16 0;
#X connect 14 1 15 0;
#X connect 14 1 66 0;
#X connect 15 0 90 0;
#X connect 16 0 90 0;
#X connect 17 0 78 0;
#X connect 19 0 20 0;
#X connect 19 1 21 0;
#X connect 19 1 67 0;
#X connect 20 0 91 0;
#X connect 21 0 91 0;
#X connect 22 0 79 0;
#X connect 24 0 26 0;
#X connect 24 1 25 0;
#X connect 24 1 68 0;
#X connect 25 0 92 0;
#X connect 26 0 92 0;
#X connect 27 0 80 0;
#X connect 29 0 31 0;
#X connect 29 1 30 0;
#X connect 29 1 69 0;
#X connect 30 0 93 0;
#X connect 31 0 93 0;
#X connect 32 0 81 0;
#X connect 34 0 35 0;
#X connect 34 1 36 0;
#X connect 34 1 70 0;
#X connect 35 0 94 0;
#X connect 36 0 94 0;
#X connect 37 0 82 0;
#X connect 39 0 41 0;
#X connect 39 1 40 0;
#X connect 39 1 71 0;
#X connect 40 0 95 0;
#X connect 41 0 95 0;
#X connect 42 0 83 0;
#X connect 44 0 45 0;
#X connect 44 1 46 0;
#X connect 44 1 72 0;
#X connect 45 0 96 0;
#X connect 46 0 96 0;
#X connect 47 0 84 0;
#X connect 49 0 51 0;
#X connect 49 1 50 0;
#X connect 49 1 73 0;
#X connect 50 0 97 0;
#X connect 51 0 97 0;
#X connect 52 0 85 0;
#X connect 54 0 55 0;
#X connect 54 1 56 0;
#X connect 54 1 74 0;
#X connect 55 0 98 0;
#X connect 56 0 98 0;
#X connect 57 0 86 0;
#X connect 59 0 61 0;
#X connect 59 1 60 0;
#X connect 59 1 75 0;
#X connect 60 0 99 0;
#X connect 61 0 99 0;
#X connect 62 0 87 0;
#X connect 64 0 8 0;
#X connect 65 0 13 0;
#X connect 66 0 18 0;
#X connect 67 0 23 0;
#X connect 68 0 28 0;
#X connect 69 0 33 0;
#X connect 70 0 38 0;
#X connect 71 0 43 0;
#X connect 72 0 48 0;
#X connect 73 0 53 0;
#X connect 74 0 58 0;
#X connect 75 0 63 0;
#X connect 76 0 4 0;
#X connect 77 0 9 0;
#X connect 78 0 14 0;
#X connect 79 0 19 0;
#X connect 80 0 24 0;
#X connect 81 0 29 0;
#X connect 82 0 34 0;
#X connect 83 0 39 0;
#X connect 84 0 44 0;
#X connect 85 0 49 0;
#X connect 86 0 54 0;
#X connect 87 0 59 0;
#X restore 114 133 pd colorkeys12;
#N canvas 68 282 931 380 colorkeys24 0;
#X obj 18 4 s \$0-keyIN;
#X obj 18 -15 inlet;
#X obj 30 318 outlet;
#X obj 30 298 r \$0-notaN;
#X obj 17 96 sel 0 1;
#X msg 42 138 color 45 45 45;
#X msg 17 163 color 0 0 0;
#X obj 17 54 r \$0-keyIN;
#X obj 66 111 s \$0-notaN;
#X obj 139 99 sel 0 1;
#X msg 139 167 color 142 142 142;
#X msg 158 130 color 45 45 45;
#X obj 139 54 r \$0-keyIN;
#X obj 187 100 s \$0-notaN;
#X obj 262 99 sel 0 1;
#X msg 287 141 color 45 45 45;
#X msg 262 166 color 0 0 0;
#X obj 262 57 r \$0-keyIN;
#X obj 311 114 s \$0-notaN;
#X obj 384 101 sel 0 1;
#X msg 384 169 color 142 142 142;
#X msg 403 132 color 45 45 45;
#X obj 384 56 r \$0-keyIN;
#X obj 432 102 s \$0-notaN;
#X obj 507 101 sel 0 1;
#X msg 532 143 color 45 45 45;
#X msg 507 168 color 0 0 0;
#X obj 507 59 r \$0-keyIN;
#X obj 556 116 s \$0-notaN;
#X obj 635 103 sel 0 1;
#X msg 660 145 color 45 45 45;
#X msg 635 170 color 0 0 0;
#X obj 635 61 r \$0-keyIN;
#X obj 684 118 s \$0-notaN;
#X obj 766 104 sel 0 1;
#X msg 766 172 color 142 142 142;
#X msg 785 135 color 45 45 45;
#X obj 766 59 r \$0-keyIN;
#X obj 814 105 s \$0-notaN;
#X obj 898 102 sel 0 1;
#X msg 923 144 color 45 45 45;
#X msg 898 169 color 0 0 0;
#X obj 898 60 r \$0-keyIN;
#X obj 947 117 s \$0-notaN;
#X obj 1029 103 sel 0 1;
#X msg 1029 171 color 142 142 142;
#X msg 1048 134 color 45 45 45;
#X obj 1029 58 r \$0-keyIN;
#X obj 1077 104 s \$0-notaN;
#X obj 1157 101 sel 0 1;
#X msg 1182 143 color 45 45 45;
#X msg 1157 168 color 0 0 0;
#X obj 1157 59 r \$0-keyIN;
#X obj 1206 116 s \$0-notaN;
#X obj 1288 102 sel 0 1;
#X msg 1288 170 color 142 142 142;
#X msg 1307 133 color 45 45 45;
#X obj 1288 57 r \$0-keyIN;
#X obj 1336 103 s \$0-notaN;
#X obj 1416 105 sel 0 1;
#X msg 1441 147 color 45 45 45;
#X msg 1416 172 color 0 0 0;
#X obj 1416 63 r \$0-keyIN;
#X obj 1465 120 s \$0-notaN;
#X msg 66 90 24;
#X msg 187 79 25;
#X msg 311 93 26;
#X msg 432 81 27;
#X msg 556 95 28;
#X msg 684 97 29;
#X msg 814 84 30;
#X msg 948 96 31;
#X msg 1077 83 32;
#X msg 1207 95 33;
#X msg 1336 82 34;
#X msg 1466 99 35;
#X obj 17 75 == 24;
#X obj 139 77 == 25;
#X obj 262 76 == 26;
#X obj 384 79 == 27;
#X obj 506 79 == 28;
#X obj 635 80 == 29;
#X obj 765 82 == 30;
#X obj 898 80 == 31;
#X obj 1034 81 == 32;
#X obj 1157 81 == 33;
#X obj 1290 79 == 34;
#X obj 1417 84 == 35;
#X obj 42 198 s \$0-nota24R;
#X obj 156 196 s \$0-nota25R;
#X obj 287 201 s \$0-nota26R;
#X obj 409 204 s \$0-nota27R;
#X obj 532 202 s \$0-nota28R;
#X obj 660 204 s \$0-nota29R;
#X obj 788 207 s \$0-nota30R;
#X obj 923 202 s \$0-nota31R;
#X obj 1053 207 s \$0-nota32R;
#X obj 1182 201 s \$0-nota33R;
#X obj 1312 206 s \$0-nota34R;
#X obj 1441 205 s \$0-nota35R;
#X connect 1 0 0 0;
#X connect 3 0 2 0;
#X connect 4 0 6 0;
#X connect 4 1 5 0;
#X connect 4 1 64 0;
#X connect 5 0 88 0;
#X connect 6 0 88 0;
#X connect 7 0 76 0;
#X connect 9 0 10 0;
#X connect 9 1 11 0;
#X connect 9 1 65 0;
#X connect 10 0 89 0;
#X connect 11 0 89 0;
#X connect 12 0 77 0;
#X connect 14 0 16 0;
#X connect 14 1 15 0;
#X connect 14 1 66 0;
#X connect 15 0 90 0;
#X connect 16 0 90 0;
#X connect 17 0 78 0;
#X connect 19 0 20 0;
#X connect 19 1 21 0;
#X connect 19 1 67 0;
#X connect 20 0 91 0;
#X connect 21 0 91 0;
#X connect 22 0 79 0;
#X connect 24 0 26 0;
#X connect 24 1 25 0;
#X connect 24 1 68 0;
#X connect 25 0 92 0;
#X connect 26 0 92 0;
#X connect 27 0 80 0;
#X connect 29 0 31 0;
#X connect 29 1 30 0;
#X connect 29 1 69 0;
#X connect 30 0 93 0;
#X connect 31 0 93 0;
#X connect 32 0 81 0;
#X connect 34 0 35 0;
#X connect 34 1 36 0;
#X connect 34 1 70 0;
#X connect 35 0 94 0;
#X connect 36 0 94 0;
#X connect 37 0 82 0;
#X connect 39 0 41 0;
#X connect 39 1 40 0;
#X connect 39 1 71 0;
#X connect 40 0 95 0;
#X connect 41 0 95 0;
#X connect 42 0 83 0;
#X connect 44 0 45 0;
#X connect 44 1 46 0;
#X connect 44 1 72 0;
#X connect 45 0 96 0;
#X connect 46 0 96 0;
#X connect 47 0 84 0;
#X connect 49 0 51 0;
#X connect 49 1 50 0;
#X connect 49 1 73 0;
#X connect 50 0 97 0;
#X connect 51 0 97 0;
#X connect 52 0 85 0;
#X connect 54 0 55 0;
#X connect 54 1 56 0;
#X connect 54 1 74 0;
#X connect 55 0 98 0;
#X connect 56 0 98 0;
#X connect 57 0 86 0;
#X connect 59 0 61 0;
#X connect 59 1 60 0;
#X connect 59 1 75 0;
#X connect 60 0 99 0;
#X connect 61 0 99 0;
#X connect 62 0 87 0;
#X connect 64 0 8 0;
#X connect 65 0 13 0;
#X connect 66 0 18 0;
#X connect 67 0 23 0;
#X connect 68 0 28 0;
#X connect 69 0 33 0;
#X connect 70 0 38 0;
#X connect 71 0 43 0;
#X connect 72 0 48 0;
#X connect 73 0 53 0;
#X connect 74 0 58 0;
#X connect 75 0 63 0;
#X connect 76 0 4 0;
#X connect 77 0 9 0;
#X connect 78 0 14 0;
#X connect 79 0 19 0;
#X connect 80 0 24 0;
#X connect 81 0 29 0;
#X connect 82 0 34 0;
#X connect 83 0 39 0;
#X connect 84 0 44 0;
#X connect 85 0 49 0;
#X connect 86 0 54 0;
#X connect 87 0 59 0;
#X restore 206 133 pd colorkeys24;
#N canvas 68 282 931 380 colorkeys48 0;
#X obj 18 4 s \$0-keyIN;
#X obj 18 -15 inlet;
#X obj 30 318 outlet;
#X obj 30 298 r \$0-notaN;
#X obj 17 96 sel 0 1;
#X msg 42 138 color 45 45 45;
#X msg 17 163 color 0 0 0;
#X obj 17 54 r \$0-keyIN;
#X obj 66 111 s \$0-notaN;
#X obj 139 99 sel 0 1;
#X msg 139 167 color 142 142 142;
#X msg 158 130 color 45 45 45;
#X obj 139 54 r \$0-keyIN;
#X obj 187 100 s \$0-notaN;
#X obj 262 99 sel 0 1;
#X msg 287 141 color 45 45 45;
#X msg 262 166 color 0 0 0;
#X obj 262 57 r \$0-keyIN;
#X obj 311 114 s \$0-notaN;
#X obj 384 101 sel 0 1;
#X msg 384 169 color 142 142 142;
#X msg 403 132 color 45 45 45;
#X obj 384 56 r \$0-keyIN;
#X obj 432 102 s \$0-notaN;
#X obj 507 101 sel 0 1;
#X msg 532 143 color 45 45 45;
#X msg 507 168 color 0 0 0;
#X obj 507 59 r \$0-keyIN;
#X obj 556 116 s \$0-notaN;
#X obj 635 103 sel 0 1;
#X msg 660 145 color 45 45 45;
#X msg 635 170 color 0 0 0;
#X obj 635 61 r \$0-keyIN;
#X obj 684 118 s \$0-notaN;
#X obj 766 104 sel 0 1;
#X msg 766 172 color 142 142 142;
#X msg 785 135 color 45 45 45;
#X obj 766 59 r \$0-keyIN;
#X obj 814 105 s \$0-notaN;
#X obj 898 102 sel 0 1;
#X msg 923 144 color 45 45 45;
#X msg 898 169 color 0 0 0;
#X obj 898 60 r \$0-keyIN;
#X obj 947 117 s \$0-notaN;
#X obj 1029 103 sel 0 1;
#X msg 1029 171 color 142 142 142;
#X msg 1048 134 color 45 45 45;
#X obj 1029 58 r \$0-keyIN;
#X obj 1077 104 s \$0-notaN;
#X obj 1157 101 sel 0 1;
#X msg 1182 143 color 45 45 45;
#X msg 1157 168 color 0 0 0;
#X obj 1157 59 r \$0-keyIN;
#X obj 1206 116 s \$0-notaN;
#X obj 1288 102 sel 0 1;
#X msg 1288 170 color 142 142 142;
#X msg 1307 133 color 45 45 45;
#X obj 1288 57 r \$0-keyIN;
#X obj 1336 103 s \$0-notaN;
#X obj 1416 105 sel 0 1;
#X msg 1441 147 color 45 45 45;
#X msg 1416 172 color 0 0 0;
#X obj 1416 63 r \$0-keyIN;
#X obj 1465 120 s \$0-notaN;
#X msg 66 90 48;
#X msg 187 79 49;
#X msg 311 93 50;
#X msg 432 81 51;
#X msg 556 95 52;
#X msg 684 97 53;
#X msg 814 84 54;
#X msg 948 96 55;
#X msg 1077 83 56;
#X msg 1207 95 57;
#X msg 1336 82 58;
#X msg 1466 99 59;
#X obj 17 75 == 48;
#X obj 139 77 == 49;
#X obj 262 77 == 50;
#X obj 384 79 == 51;
#X obj 507 79 == 52;
#X obj 635 81 == 53;
#X obj 766 82 == 54;
#X obj 898 80 == 55;
#X obj 1029 81 == 56;
#X obj 1158 81 == 57;
#X obj 1288 80 == 58;
#X obj 1417 85 == 59;
#X obj 42 198 s \$0-nota48R;
#X obj 156 196 s \$0-nota49R;
#X obj 287 201 s \$0-nota50R;
#X obj 409 204 s \$0-nota51R;
#X obj 532 202 s \$0-nota52R;
#X obj 660 204 s \$0-nota53R;
#X obj 789 208 s \$0-nota54R;
#X obj 923 202 s \$0-nota55R;
#X obj 1053 207 s \$0-nota56R;
#X obj 1182 201 s \$0-nota57R;
#X obj 1312 206 s \$0-nota58R;
#X obj 1441 205 s \$0-nota59R;
#X connect 1 0 0 0;
#X connect 3 0 2 0;
#X connect 4 0 6 0;
#X connect 4 1 5 0;
#X connect 4 1 64 0;
#X connect 5 0 88 0;
#X connect 6 0 88 0;
#X connect 7 0 76 0;
#X connect 9 0 10 0;
#X connect 9 1 11 0;
#X connect 9 1 65 0;
#X connect 10 0 89 0;
#X connect 11 0 89 0;
#X connect 12 0 77 0;
#X connect 14 0 16 0;
#X connect 14 1 15 0;
#X connect 14 1 66 0;
#X connect 15 0 90 0;
#X connect 16 0 90 0;
#X connect 17 0 78 0;
#X connect 19 0 20 0;
#X connect 19 1 21 0;
#X connect 19 1 67 0;
#X connect 20 0 91 0;
#X connect 21 0 91 0;
#X connect 22 0 79 0;
#X connect 24 0 26 0;
#X connect 24 1 25 0;
#X connect 24 1 68 0;
#X connect 25 0 92 0;
#X connect 26 0 92 0;
#X connect 27 0 80 0;
#X connect 29 0 31 0;
#X connect 29 1 30 0;
#X connect 29 1 69 0;
#X connect 30 0 93 0;
#X connect 31 0 93 0;
#X connect 32 0 81 0;
#X connect 34 0 35 0;
#X connect 34 1 36 0;
#X connect 34 1 70 0;
#X connect 35 0 94 0;
#X connect 36 0 94 0;
#X connect 37 0 82 0;
#X connect 39 0 41 0;
#X connect 39 1 40 0;
#X connect 39 1 71 0;
#X connect 40 0 95 0;
#X connect 41 0 95 0;
#X connect 42 0 83 0;
#X connect 44 0 45 0;
#X connect 44 1 46 0;
#X connect 44 1 72 0;
#X connect 45 0 96 0;
#X connect 46 0 96 0;
#X connect 47 0 84 0;
#X connect 49 0 51 0;
#X connect 49 1 50 0;
#X connect 49 1 73 0;
#X connect 50 0 97 0;
#X connect 51 0 97 0;
#X connect 52 0 85 0;
#X connect 54 0 55 0;
#X connect 54 1 56 0;
#X connect 54 1 74 0;
#X connect 55 0 98 0;
#X connect 56 0 98 0;
#X connect 57 0 86 0;
#X connect 59 0 61 0;
#X connect 59 1 60 0;
#X connect 59 1 75 0;
#X connect 60 0 99 0;
#X connect 61 0 99 0;
#X connect 62 0 87 0;
#X connect 64 0 8 0;
#X connect 65 0 13 0;
#X connect 66 0 18 0;
#X connect 67 0 23 0;
#X connect 68 0 28 0;
#X connect 69 0 33 0;
#X connect 70 0 38 0;
#X connect 71 0 43 0;
#X connect 72 0 48 0;
#X connect 73 0 53 0;
#X connect 74 0 58 0;
#X connect 75 0 63 0;
#X connect 76 0 4 0;
#X connect 77 0 9 0;
#X connect 78 0 14 0;
#X connect 79 0 19 0;
#X connect 80 0 24 0;
#X connect 81 0 29 0;
#X connect 82 0 34 0;
#X connect 83 0 39 0;
#X connect 84 0 44 0;
#X connect 85 0 49 0;
#X connect 86 0 54 0;
#X connect 87 0 59 0;
#X restore 389 132 pd colorkeys48;
#N canvas 68 282 931 380 colorkeys60 0;
#X obj 18 4 s \$0-keyIN;
#X obj 18 -15 inlet;
#X obj 30 318 outlet;
#X obj 30 298 r \$0-notaN;
#X obj 17 96 sel 0 1;
#X msg 42 138 color 45 45 45;
#X msg 17 163 color 0 0 0;
#X obj 17 54 r \$0-keyIN;
#X obj 66 111 s \$0-notaN;
#X obj 139 99 sel 0 1;
#X msg 139 167 color 142 142 142;
#X msg 158 130 color 45 45 45;
#X obj 139 54 r \$0-keyIN;
#X obj 187 100 s \$0-notaN;
#X obj 262 99 sel 0 1;
#X msg 287 141 color 45 45 45;
#X msg 262 166 color 0 0 0;
#X obj 262 57 r \$0-keyIN;
#X obj 311 114 s \$0-notaN;
#X obj 384 101 sel 0 1;
#X msg 384 169 color 142 142 142;
#X msg 403 132 color 45 45 45;
#X obj 384 56 r \$0-keyIN;
#X obj 432 102 s \$0-notaN;
#X obj 507 101 sel 0 1;
#X msg 532 143 color 45 45 45;
#X msg 507 168 color 0 0 0;
#X obj 507 59 r \$0-keyIN;
#X obj 556 116 s \$0-notaN;
#X obj 635 103 sel 0 1;
#X msg 660 145 color 45 45 45;
#X msg 635 170 color 0 0 0;
#X obj 635 61 r \$0-keyIN;
#X obj 684 118 s \$0-notaN;
#X obj 766 104 sel 0 1;
#X msg 766 172 color 142 142 142;
#X msg 785 135 color 45 45 45;
#X obj 766 59 r \$0-keyIN;
#X obj 814 105 s \$0-notaN;
#X obj 898 102 sel 0 1;
#X msg 923 144 color 45 45 45;
#X msg 898 169 color 0 0 0;
#X obj 898 60 r \$0-keyIN;
#X obj 947 117 s \$0-notaN;
#X obj 1029 103 sel 0 1;
#X msg 1029 171 color 142 142 142;
#X msg 1048 134 color 45 45 45;
#X obj 1029 58 r \$0-keyIN;
#X obj 1077 104 s \$0-notaN;
#X obj 1157 101 sel 0 1;
#X msg 1182 143 color 45 45 45;
#X msg 1157 168 color 0 0 0;
#X obj 1157 59 r \$0-keyIN;
#X obj 1206 116 s \$0-notaN;
#X obj 1288 102 sel 0 1;
#X msg 1288 170 color 142 142 142;
#X msg 1307 133 color 45 45 45;
#X obj 1288 57 r \$0-keyIN;
#X obj 1336 103 s \$0-notaN;
#X obj 1416 105 sel 0 1;
#X msg 1441 147 color 45 45 45;
#X msg 1416 172 color 0 0 0;
#X obj 1416 63 r \$0-keyIN;
#X obj 1465 120 s \$0-notaN;
#X msg 66 90 60;
#X msg 187 79 61;
#X msg 311 93 62;
#X msg 432 81 63;
#X msg 556 95 64;
#X msg 684 97 65;
#X msg 814 84 66;
#X msg 948 96 67;
#X msg 1077 83 68;
#X msg 1207 95 69;
#X msg 1336 82 70;
#X msg 1466 99 71;
#X obj 17 75 == 60;
#X obj 139 77 == 61;
#X obj 262 77 == 62;
#X obj 384 79 == 63;
#X obj 507 79 == 64;
#X obj 635 81 == 65;
#X obj 766 82 == 66;
#X obj 898 80 == 67;
#X obj 1030 82 == 68;
#X obj 1158 81 == 69;
#X obj 1288 80 == 70;
#X obj 1417 85 == 71;
#X obj 43 198 s \$0-nota60R;
#X obj 156 196 s \$0-nota61R;
#X obj 287 201 s \$0-nota62R;
#X obj 409 204 s \$0-nota63R;
#X obj 532 202 s \$0-nota64R;
#X obj 659 204 s \$0-nota65R;
#X obj 789 208 s \$0-nota66R;
#X obj 923 202 s \$0-nota67R;
#X obj 1053 207 s \$0-nota68R;
#X obj 1182 201 s \$0-nota69R;
#X obj 1312 206 s \$0-nota70R;
#X obj 1441 205 s \$0-nota71R;
#X connect 1 0 0 0;
#X connect 3 0 2 0;
#X connect 4 0 6 0;
#X connect 4 1 5 0;
#X connect 4 1 64 0;
#X connect 5 0 88 0;
#X connect 6 0 88 0;
#X connect 7 0 76 0;
#X connect 9 0 10 0;
#X connect 9 1 11 0;
#X connect 9 1 65 0;
#X connect 10 0 89 0;
#X connect 11 0 89 0;
#X connect 12 0 77 0;
#X connect 14 0 16 0;
#X connect 14 1 15 0;
#X connect 14 1 66 0;
#X connect 15 0 90 0;
#X connect 16 0 90 0;
#X connect 17 0 78 0;
#X connect 19 0 20 0;
#X connect 19 1 21 0;
#X connect 19 1 67 0;
#X connect 20 0 91 0;
#X connect 21 0 91 0;
#X connect 22 0 79 0;
#X connect 24 0 26 0;
#X connect 24 1 25 0;
#X connect 24 1 68 0;
#X connect 25 0 92 0;
#X connect 26 0 92 0;
#X connect 27 0 80 0;
#X connect 29 0 31 0;
#X connect 29 1 30 0;
#X connect 29 1 69 0;
#X connect 30 0 93 0;
#X connect 31 0 93 0;
#X connect 32 0 81 0;
#X connect 34 0 35 0;
#X connect 34 1 36 0;
#X connect 34 1 70 0;
#X connect 35 0 94 0;
#X connect 36 0 94 0;
#X connect 37 0 82 0;
#X connect 39 0 41 0;
#X connect 39 1 40 0;
#X connect 39 1 71 0;
#X connect 40 0 95 0;
#X connect 41 0 95 0;
#X connect 42 0 83 0;
#X connect 44 0 45 0;
#X connect 44 1 46 0;
#X connect 44 1 72 0;
#X connect 45 0 96 0;
#X connect 46 0 96 0;
#X connect 47 0 84 0;
#X connect 49 0 51 0;
#X connect 49 1 50 0;
#X connect 49 1 73 0;
#X connect 50 0 97 0;
#X connect 51 0 97 0;
#X connect 52 0 85 0;
#X connect 54 0 55 0;
#X connect 54 1 56 0;
#X connect 54 1 74 0;
#X connect 55 0 98 0;
#X connect 56 0 98 0;
#X connect 57 0 86 0;
#X connect 59 0 61 0;
#X connect 59 1 60 0;
#X connect 59 1 75 0;
#X connect 60 0 99 0;
#X connect 61 0 99 0;
#X connect 62 0 87 0;
#X connect 64 0 8 0;
#X connect 65 0 13 0;
#X connect 66 0 18 0;
#X connect 67 0 23 0;
#X connect 68 0 28 0;
#X connect 69 0 33 0;
#X connect 70 0 38 0;
#X connect 71 0 43 0;
#X connect 72 0 48 0;
#X connect 73 0 53 0;
#X connect 74 0 58 0;
#X connect 75 0 63 0;
#X connect 76 0 4 0;
#X connect 77 0 9 0;
#X connect 78 0 14 0;
#X connect 79 0 19 0;
#X connect 80 0 24 0;
#X connect 81 0 29 0;
#X connect 82 0 34 0;
#X connect 83 0 39 0;
#X connect 84 0 44 0;
#X connect 85 0 49 0;
#X connect 86 0 54 0;
#X connect 87 0 59 0;
#X restore 481 131 pd colorkeys60;
#N canvas 68 282 931 380 colorkeys72 0;
#X obj 18 4 s \$0-keyIN;
#X obj 18 -15 inlet;
#X obj 30 318 outlet;
#X obj 30 298 r \$0-notaN;
#X obj 17 96 sel 0 1;
#X msg 42 138 color 45 45 45;
#X msg 17 163 color 0 0 0;
#X obj 17 54 r \$0-keyIN;
#X obj 66 111 s \$0-notaN;
#X obj 139 99 sel 0 1;
#X msg 139 167 color 142 142 142;
#X msg 158 130 color 45 45 45;
#X obj 139 54 r \$0-keyIN;
#X obj 187 100 s \$0-notaN;
#X obj 262 99 sel 0 1;
#X msg 287 141 color 45 45 45;
#X msg 262 166 color 0 0 0;
#X obj 262 57 r \$0-keyIN;
#X obj 311 114 s \$0-notaN;
#X obj 384 101 sel 0 1;
#X msg 384 169 color 142 142 142;
#X msg 403 132 color 45 45 45;
#X obj 384 56 r \$0-keyIN;
#X obj 432 102 s \$0-notaN;
#X obj 507 101 sel 0 1;
#X msg 532 143 color 45 45 45;
#X msg 507 168 color 0 0 0;
#X obj 507 59 r \$0-keyIN;
#X obj 556 116 s \$0-notaN;
#X obj 635 103 sel 0 1;
#X msg 660 145 color 45 45 45;
#X msg 635 170 color 0 0 0;
#X obj 635 61 r \$0-keyIN;
#X obj 684 118 s \$0-notaN;
#X obj 766 104 sel 0 1;
#X msg 766 172 color 142 142 142;
#X msg 785 135 color 45 45 45;
#X obj 766 59 r \$0-keyIN;
#X obj 814 105 s \$0-notaN;
#X obj 898 102 sel 0 1;
#X msg 923 144 color 45 45 45;
#X msg 898 169 color 0 0 0;
#X obj 898 60 r \$0-keyIN;
#X obj 947 117 s \$0-notaN;
#X obj 1029 103 sel 0 1;
#X msg 1029 171 color 142 142 142;
#X msg 1048 134 color 45 45 45;
#X obj 1029 58 r \$0-keyIN;
#X obj 1077 104 s \$0-notaN;
#X obj 1157 101 sel 0 1;
#X msg 1182 143 color 45 45 45;
#X msg 1157 168 color 0 0 0;
#X obj 1157 59 r \$0-keyIN;
#X obj 1206 116 s \$0-notaN;
#X obj 1288 102 sel 0 1;
#X msg 1288 170 color 142 142 142;
#X msg 1307 133 color 45 45 45;
#X obj 1288 57 r \$0-keyIN;
#X obj 1336 103 s \$0-notaN;
#X obj 1416 105 sel 0 1;
#X msg 1441 147 color 45 45 45;
#X msg 1416 172 color 0 0 0;
#X obj 1416 63 r \$0-keyIN;
#X obj 1465 120 s \$0-notaN;
#X msg 66 90 72;
#X msg 187 79 73;
#X msg 311 93 74;
#X msg 432 81 75;
#X msg 556 95 76;
#X msg 684 97 77;
#X msg 814 84 78;
#X msg 948 96 79;
#X msg 1077 83 80;
#X msg 1209 97 81;
#X msg 1336 82 82;
#X msg 1466 99 83;
#X obj 17 75 == 72;
#X obj 139 77 == 73;
#X obj 262 77 == 74;
#X obj 384 79 == 75;
#X obj 507 79 == 76;
#X obj 634 81 == 77;
#X obj 766 82 == 78;
#X obj 898 80 == 79;
#X obj 1029 81 == 80;
#X obj 1158 81 == 81;
#X obj 1288 80 == 82;
#X obj 1417 85 == 83;
#X obj 42 197 s \$0-nota72R;
#X obj 156 196 s \$0-nota73R;
#X obj 287 201 s \$0-nota74R;
#X obj 409 204 s \$0-nota75R;
#X obj 532 202 s \$0-nota76R;
#X obj 660 204 s \$0-nota77R;
#X obj 789 208 s \$0-nota78R;
#X obj 923 202 s \$0-nota79R;
#X obj 1053 208 s \$0-nota80R;
#X obj 1182 201 s \$0-nota81R;
#X obj 1312 206 s \$0-nota82R;
#X obj 1441 205 s \$0-nota83R;
#X connect 1 0 0 0;
#X connect 3 0 2 0;
#X connect 4 0 6 0;
#X connect 4 1 5 0;
#X connect 4 1 64 0;
#X connect 5 0 88 0;
#X connect 6 0 88 0;
#X connect 7 0 76 0;
#X connect 9 0 10 0;
#X connect 9 1 11 0;
#X connect 9 1 65 0;
#X connect 10 0 89 0;
#X connect 11 0 89 0;
#X connect 12 0 77 0;
#X connect 14 0 16 0;
#X connect 14 1 15 0;
#X connect 14 1 66 0;
#X connect 15 0 90 0;
#X connect 16 0 90 0;
#X connect 17 0 78 0;
#X connect 19 0 20 0;
#X connect 19 1 21 0;
#X connect 19 1 67 0;
#X connect 20 0 91 0;
#X connect 21 0 91 0;
#X connect 22 0 79 0;
#X connect 24 0 26 0;
#X connect 24 1 25 0;
#X connect 24 1 68 0;
#X connect 25 0 92 0;
#X connect 26 0 92 0;
#X connect 27 0 80 0;
#X connect 29 0 31 0;
#X connect 29 1 30 0;
#X connect 29 1 69 0;
#X connect 30 0 93 0;
#X connect 31 0 93 0;
#X connect 32 0 81 0;
#X connect 34 0 35 0;
#X connect 34 1 36 0;
#X connect 34 1 70 0;
#X connect 35 0 94 0;
#X connect 36 0 94 0;
#X connect 37 0 82 0;
#X connect 39 0 41 0;
#X connect 39 1 40 0;
#X connect 39 1 71 0;
#X connect 40 0 95 0;
#X connect 41 0 95 0;
#X connect 42 0 83 0;
#X connect 44 0 45 0;
#X connect 44 1 46 0;
#X connect 44 1 72 0;
#X connect 45 0 96 0;
#X connect 46 0 96 0;
#X connect 47 0 84 0;
#X connect 49 0 51 0;
#X connect 49 1 50 0;
#X connect 49 1 73 0;
#X connect 50 0 97 0;
#X connect 51 0 97 0;
#X connect 52 0 85 0;
#X connect 54 0 55 0;
#X connect 54 1 56 0;
#X connect 54 1 74 0;
#X connect 55 0 98 0;
#X connect 56 0 98 0;
#X connect 57 0 86 0;
#X connect 59 0 61 0;
#X connect 59 1 60 0;
#X connect 59 1 75 0;
#X connect 60 0 99 0;
#X connect 61 0 99 0;
#X connect 62 0 87 0;
#X connect 64 0 8 0;
#X connect 65 0 13 0;
#X connect 66 0 18 0;
#X connect 67 0 23 0;
#X connect 68 0 28 0;
#X connect 69 0 33 0;
#X connect 70 0 38 0;
#X connect 71 0 43 0;
#X connect 72 0 48 0;
#X connect 73 0 53 0;
#X connect 74 0 58 0;
#X connect 75 0 63 0;
#X connect 76 0 4 0;
#X connect 77 0 9 0;
#X connect 78 0 14 0;
#X connect 79 0 19 0;
#X connect 80 0 24 0;
#X connect 81 0 29 0;
#X connect 82 0 34 0;
#X connect 83 0 39 0;
#X connect 84 0 44 0;
#X connect 85 0 49 0;
#X connect 86 0 54 0;
#X connect 87 0 59 0;
#X restore 571 132 pd colorkeys72;
#X obj 222 11 inlet;
#X obj 47 200 outlet;
#N canvas 68 282 931 380 colorkeys36 0;
#X obj 18 4 s \$0-keyIN;
#X obj 18 -15 inlet;
#X obj 30 318 outlet;
#X obj 30 298 r \$0-notaN;
#X obj 17 96 sel 0 1;
#X msg 42 138 color 45 45 45;
#X msg 17 163 color 0 0 0;
#X obj 17 54 r \$0-keyIN;
#X obj 66 111 s \$0-notaN;
#X obj 139 99 sel 0 1;
#X msg 139 167 color 142 142 142;
#X msg 158 130 color 45 45 45;
#X obj 139 54 r \$0-keyIN;
#X obj 187 100 s \$0-notaN;
#X obj 262 99 sel 0 1;
#X msg 287 141 color 45 45 45;
#X msg 262 166 color 0 0 0;
#X obj 262 57 r \$0-keyIN;
#X obj 311 114 s \$0-notaN;
#X obj 384 101 sel 0 1;
#X msg 384 169 color 142 142 142;
#X msg 403 132 color 45 45 45;
#X obj 384 56 r \$0-keyIN;
#X obj 432 102 s \$0-notaN;
#X obj 507 101 sel 0 1;
#X msg 532 143 color 45 45 45;
#X msg 507 168 color 0 0 0;
#X obj 507 59 r \$0-keyIN;
#X obj 556 116 s \$0-notaN;
#X obj 635 103 sel 0 1;
#X msg 660 145 color 45 45 45;
#X msg 635 170 color 0 0 0;
#X obj 635 61 r \$0-keyIN;
#X obj 684 118 s \$0-notaN;
#X obj 766 104 sel 0 1;
#X msg 766 172 color 142 142 142;
#X msg 785 135 color 45 45 45;
#X obj 766 59 r \$0-keyIN;
#X obj 814 105 s \$0-notaN;
#X obj 898 102 sel 0 1;
#X msg 923 144 color 45 45 45;
#X msg 898 169 color 0 0 0;
#X obj 898 60 r \$0-keyIN;
#X obj 947 117 s \$0-notaN;
#X obj 1029 103 sel 0 1;
#X msg 1029 171 color 142 142 142;
#X msg 1048 134 color 45 45 45;
#X obj 1029 58 r \$0-keyIN;
#X obj 1077 104 s \$0-notaN;
#X obj 1157 101 sel 0 1;
#X msg 1182 143 color 45 45 45;
#X msg 1157 168 color 0 0 0;
#X obj 1157 59 r \$0-keyIN;
#X obj 1206 116 s \$0-notaN;
#X obj 1288 102 sel 0 1;
#X msg 1288 170 color 142 142 142;
#X msg 1307 133 color 45 45 45;
#X obj 1288 57 r \$0-keyIN;
#X obj 1336 103 s \$0-notaN;
#X obj 1416 105 sel 0 1;
#X msg 1441 147 color 45 45 45;
#X msg 1416 172 color 0 0 0;
#X obj 1416 63 r \$0-keyIN;
#X obj 1465 120 s \$0-notaN;
#X msg 66 90 36;
#X msg 187 79 37;
#X msg 311 93 38;
#X msg 432 81 39;
#X msg 556 95 40;
#X msg 684 97 41;
#X msg 814 84 42;
#X msg 948 96 43;
#X msg 1077 83 44;
#X msg 1207 95 45;
#X msg 1336 82 46;
#X msg 1466 99 47;
#X obj 42 198 s \$0-nota36R;
#X obj 156 196 s \$0-nota37R;
#X obj 287 201 s \$0-nota38R;
#X obj 409 204 s \$0-nota39R;
#X obj 533 202 s \$0-nota40R;
#X obj 660 204 s \$0-nota41R;
#X obj 789 208 s \$0-nota42R;
#X obj 923 202 s \$0-nota43R;
#X obj 1053 207 s \$0-nota44R;
#X obj 1182 201 s \$0-nota45R;
#X obj 1311 206 s \$0-nota46R;
#X obj 1441 205 s \$0-nota47R;
#X obj 17 75 == 36;
#X obj 139 77 == 37;
#X obj 262 77 == 38;
#X obj 507 79 == 40;
#X obj 636 81 == 41;
#X obj 766 82 == 42;
#X obj 898 80 == 43;
#X obj 1029 81 == 44;
#X obj 1158 81 == 45;
#X obj 1288 80 == 46;
#X obj 1418 85 == 47;
#X obj 384 79 == 39;
#X connect 1 0 0 0;
#X connect 3 0 2 0;
#X connect 4 0 6 0;
#X connect 4 1 5 0;
#X connect 4 1 64 0;
#X connect 5 0 76 0;
#X connect 6 0 76 0;
#X connect 7 0 88 0;
#X connect 9 0 10 0;
#X connect 9 1 11 0;
#X connect 9 1 65 0;
#X connect 10 0 77 0;
#X connect 11 0 77 0;
#X connect 12 0 89 0;
#X connect 14 0 16 0;
#X connect 14 1 15 0;
#X connect 14 1 66 0;
#X connect 15 0 78 0;
#X connect 16 0 78 0;
#X connect 17 0 90 0;
#X connect 19 0 20 0;
#X connect 19 1 21 0;
#X connect 19 1 67 0;
#X connect 20 0 79 0;
#X connect 21 0 79 0;
#X connect 22 0 99 0;
#X connect 24 0 26 0;
#X connect 24 1 25 0;
#X connect 24 1 68 0;
#X connect 25 0 80 0;
#X connect 26 0 80 0;
#X connect 27 0 91 0;
#X connect 29 0 31 0;
#X connect 29 1 30 0;
#X connect 29 1 69 0;
#X connect 30 0 81 0;
#X connect 31 0 81 0;
#X connect 32 0 92 0;
#X connect 34 0 35 0;
#X connect 34 1 36 0;
#X connect 34 1 70 0;
#X connect 35 0 82 0;
#X connect 36 0 82 0;
#X connect 37 0 93 0;
#X connect 39 0 41 0;
#X connect 39 1 40 0;
#X connect 39 1 71 0;
#X connect 40 0 83 0;
#X connect 41 0 83 0;
#X connect 42 0 94 0;
#X connect 44 0 45 0;
#X connect 44 1 46 0;
#X connect 44 1 72 0;
#X connect 45 0 84 0;
#X connect 46 0 84 0;
#X connect 47 0 95 0;
#X connect 49 0 51 0;
#X connect 49 1 50 0;
#X connect 49 1 73 0;
#X connect 50 0 85 0;
#X connect 51 0 85 0;
#X connect 52 0 96 0;
#X connect 54 0 55 0;
#X connect 54 1 56 0;
#X connect 54 1 74 0;
#X connect 55 0 86 0;
#X connect 56 0 86 0;
#X connect 57 0 97 0;
#X connect 59 0 61 0;
#X connect 59 1 60 0;
#X connect 59 1 75 0;
#X connect 60 0 87 0;
#X connect 61 0 87 0;
#X connect 62 0 98 0;
#X connect 64 0 8 0;
#X connect 65 0 13 0;
#X connect 66 0 18 0;
#X connect 67 0 23 0;
#X connect 68 0 28 0;
#X connect 69 0 33 0;
#X connect 70 0 38 0;
#X connect 71 0 43 0;
#X connect 72 0 48 0;
#X connect 73 0 53 0;
#X connect 74 0 58 0;
#X connect 75 0 63 0;
#X connect 88 0 4 0;
#X connect 89 0 9 0;
#X connect 90 0 14 0;
#X connect 91 0 24 0;
#X connect 92 0 29 0;
#X connect 93 0 34 0;
#X connect 94 0 39 0;
#X connect 95 0 44 0;
#X connect 96 0 49 0;
#X connect 97 0 54 0;
#X connect 98 0 59 0;
#X connect 99 0 19 0;
#X restore 297 132 pd colorkeys36;
#X connect 0 0 7 0;
#X connect 1 0 7 0;
#X connect 2 0 7 0;
#X connect 3 0 7 0;
#X connect 4 0 7 0;
#X connect 5 0 7 0;
#X connect 6 0 0 0;
#X connect 6 0 1 0;
#X connect 6 0 2 0;
#X connect 6 0 8 0;
#X connect 6 0 3 0;
#X connect 6 0 4 0;
#X connect 6 0 5 0;
#X connect 8 0 7 0;
#X restore 114 212 pd colorkeys;
#N canvas 0 107 1024 661 notetouch 0;
#X obj 7 629 outlet;
#X obj 7 605 r \$0-touch;
#X obj 15 10 r \$0-nota0S;
#X msg 16 34 0;
#X obj 15 54 s \$0-touch;
#X msg 89 31 1;
#X obj 89 10 r \$0-nota1S;
#X obj 89 55 s \$0-touch;
#X obj 165 10 r \$0-nota2S;
#X msg 165 32 2;
#X obj 165 55 s \$0-touch;
#X obj 316 52 s \$0-touch;
#X obj 390 53 s \$0-touch;
#X obj 466 53 s \$0-touch;
#X msg 315 30 4;
#X msg 390 29 5;
#X msg 465 30 6;
#X obj 316 8 r \$0-nota4S;
#X obj 390 8 r \$0-nota5S;
#X obj 466 8 r \$0-nota6S;
#X obj 540 52 s \$0-touch;
#X obj 614 53 s \$0-touch;
#X obj 690 53 s \$0-touch;
#X obj 764 52 s \$0-touch;
#X obj 844 53 s \$0-touch;
#X obj 924 53 s \$0-touch;
#X msg 540 29 7;
#X msg 614 29 8;
#X msg 690 30 9;
#X msg 764 29 10;
#X msg 844 30 11;
#X msg 923 30 12;
#X obj 540 8 r \$0-nota7S;
#X obj 614 8 r \$0-nota8S;
#X obj 764 8 r \$0-nota10S;
#X obj 844 8 r \$0-nota11S;
#X obj 923 7 r \$0-nota12S;
#X obj 15 129 s \$0-touch;
#X obj 89 130 s \$0-touch;
#X obj 165 130 s \$0-touch;
#X obj 239 129 s \$0-touch;
#X obj 313 130 s \$0-touch;
#X obj 389 130 s \$0-touch;
#X obj 463 129 s \$0-touch;
#X obj 537 130 s \$0-touch;
#X obj 613 130 s \$0-touch;
#X obj 687 129 s \$0-touch;
#X obj 767 130 s \$0-touch;
#X obj 847 130 s \$0-touch;
#X msg 15 109 13;
#X msg 89 106 14;
#X msg 239 106 16;
#X msg 313 106 17;
#X msg 388 107 18;
#X msg 463 106 19;
#X msg 537 106 20;
#X msg 613 106 21;
#X msg 687 106 22;
#X msg 767 107 23;
#X msg 846 107 24;
#X obj 15 85 r \$0-nota13S;
#X obj 89 85 r \$0-nota14S;
#X obj 165 85 r \$0-nota15S;
#X obj 239 85 r \$0-nota16S;
#X obj 313 85 r \$0-nota17S;
#X obj 389 85 r \$0-nota18S;
#X obj 463 85 r \$0-nota19S;
#X obj 537 85 r \$0-nota20S;
#X obj 613 85 r \$0-nota21S;
#X obj 687 85 r \$0-nota22S;
#X obj 767 85 r \$0-nota23S;
#X obj 846 84 r \$0-nota24S;
#X obj 239 53 s \$0-touch;
#X obj 239 8 r \$0-nota3S;
#X msg 239 30 3;
#X obj 691 8 r \$0-nota9S;
#X msg 165 107 15;
#X obj 14 199 s \$0-touch;
#X obj 88 200 s \$0-touch;
#X obj 164 200 s \$0-touch;
#X obj 238 199 s \$0-touch;
#X obj 312 200 s \$0-touch;
#X obj 388 200 s \$0-touch;
#X obj 462 199 s \$0-touch;
#X obj 536 200 s \$0-touch;
#X obj 612 200 s \$0-touch;
#X obj 686 199 s \$0-touch;
#X obj 766 200 s \$0-touch;
#X obj 846 200 s \$0-touch;
#X msg 14 179 25;
#X msg 88 176 26;
#X msg 164 177 27;
#X msg 238 176 28;
#X msg 312 176 29;
#X msg 387 177 30;
#X msg 462 176 31;
#X msg 536 176 32;
#X msg 612 176 33;
#X msg 686 176 34;
#X msg 766 177 35;
#X msg 845 177 36;
#X obj 14 155 r \$0-nota25S;
#X obj 88 155 r \$0-nota26S;
#X obj 164 155 r \$0-nota27S;
#X obj 238 155 r \$0-nota28S;
#X obj 312 156 r \$0-nota29S;
#X obj 388 155 r \$0-nota30S;
#X obj 462 155 r \$0-nota31S;
#X obj 536 155 r \$0-nota32S;
#X obj 612 155 r \$0-nota33S;
#X obj 686 155 r \$0-nota34S;
#X obj 765 155 r \$0-nota35S;
#X obj 845 154 r \$0-nota36S;
#X obj 14 266 s \$0-touch;
#X obj 88 267 s \$0-touch;
#X obj 164 267 s \$0-touch;
#X obj 238 266 s \$0-touch;
#X obj 312 267 s \$0-touch;
#X obj 388 267 s \$0-touch;
#X obj 462 266 s \$0-touch;
#X obj 536 267 s \$0-touch;
#X obj 612 267 s \$0-touch;
#X obj 686 266 s \$0-touch;
#X obj 766 267 s \$0-touch;
#X obj 846 267 s \$0-touch;
#X msg 15 247 37;
#X msg 88 243 38;
#X msg 165 244 39;
#X msg 238 243 40;
#X msg 312 243 41;
#X msg 387 244 42;
#X msg 462 243 43;
#X msg 536 243 44;
#X msg 612 243 45;
#X msg 686 243 46;
#X msg 766 244 47;
#X msg 845 244 48;
#X obj 14 222 r \$0-nota37S;
#X obj 88 222 r \$0-nota38S;
#X obj 164 222 r \$0-nota39S;
#X obj 238 222 r \$0-nota40S;
#X obj 312 223 r \$0-nota41S;
#X obj 388 222 r \$0-nota42S;
#X obj 462 222 r \$0-nota43S;
#X obj 536 222 r \$0-nota44S;
#X obj 612 222 r \$0-nota45S;
#X obj 686 222 r \$0-nota46S;
#X obj 765 222 r \$0-nota47S;
#X obj 845 221 r \$0-nota48S;
#X obj 16 335 s \$0-touch;
#X obj 90 336 s \$0-touch;
#X obj 166 336 s \$0-touch;
#X obj 240 335 s \$0-touch;
#X obj 314 336 s \$0-touch;
#X obj 390 336 s \$0-touch;
#X obj 464 335 s \$0-touch;
#X obj 538 336 s \$0-touch;
#X obj 614 336 s \$0-touch;
#X obj 688 335 s \$0-touch;
#X obj 768 336 s \$0-touch;
#X obj 848 336 s \$0-touch;
#X msg 17 316 49;
#X msg 90 312 50;
#X msg 167 313 51;
#X msg 240 312 52;
#X msg 314 312 53;
#X msg 389 313 54;
#X msg 464 312 55;
#X msg 538 312 56;
#X msg 614 312 57;
#X msg 688 313 58;
#X msg 768 313 59;
#X msg 847 313 60;
#X obj 16 291 r \$0-nota49S;
#X obj 90 291 r \$0-nota50S;
#X obj 166 291 r \$0-nota51S;
#X obj 240 291 r \$0-nota52S;
#X obj 314 292 r \$0-nota53S;
#X obj 390 291 r \$0-nota54S;
#X obj 464 291 r \$0-nota55S;
#X obj 538 291 r \$0-nota56S;
#X obj 614 291 r \$0-nota57S;
#X obj 688 292 r \$0-nota58S;
#X obj 768 291 r \$0-nota59S;
#X obj 847 290 r \$0-nota60S;
#X obj 17 403 s \$0-touch;
#X obj 91 404 s \$0-touch;
#X obj 167 404 s \$0-touch;
#X obj 241 403 s \$0-touch;
#X obj 315 404 s \$0-touch;
#X obj 391 404 s \$0-touch;
#X obj 465 403 s \$0-touch;
#X obj 539 404 s \$0-touch;
#X obj 615 404 s \$0-touch;
#X obj 689 403 s \$0-touch;
#X obj 769 404 s \$0-touch;
#X obj 849 404 s \$0-touch;
#X msg 18 384 61;
#X msg 91 380 62;
#X msg 168 381 63;
#X msg 241 380 64;
#X msg 315 380 65;
#X msg 390 381 66;
#X msg 465 380 67;
#X msg 538 380 68;
#X msg 615 380 69;
#X msg 689 381 70;
#X msg 769 381 71;
#X msg 848 381 72;
#X obj 17 359 r \$0-nota61S;
#X obj 91 359 r \$0-nota62S;
#X obj 167 359 r \$0-nota63S;
#X obj 241 359 r \$0-nota64S;
#X obj 315 360 r \$0-nota65S;
#X obj 391 359 r \$0-nota66S;
#X obj 465 359 r \$0-nota67S;
#X obj 539 359 r \$0-nota68S;
#X obj 615 359 r \$0-nota69S;
#X obj 689 360 r \$0-nota70S;
#X obj 769 359 r \$0-nota71S;
#X obj 848 358 r \$0-nota72S;
#X obj 14 472 s \$0-touch;
#X obj 88 473 s \$0-touch;
#X obj 164 473 s \$0-touch;
#X obj 238 472 s \$0-touch;
#X obj 312 473 s \$0-touch;
#X obj 388 473 s \$0-touch;
#X obj 462 472 s \$0-touch;
#X obj 536 473 s \$0-touch;
#X obj 612 473 s \$0-touch;
#X obj 686 472 s \$0-touch;
#X obj 766 473 s \$0-touch;
#X msg 15 453 73;
#X msg 88 449 74;
#X msg 165 451 75;
#X msg 238 449 76;
#X msg 312 449 77;
#X msg 387 450 78;
#X msg 462 449 79;
#X msg 535 451 80;
#X msg 612 449 81;
#X msg 686 450 82;
#X msg 766 450 83;
#X obj 14 428 r \$0-nota73S;
#X obj 88 428 r \$0-nota74S;
#X obj 164 428 r \$0-nota75S;
#X obj 238 428 r \$0-nota76S;
#X obj 312 429 r \$0-nota77S;
#X obj 387 428 r \$0-nota78S;
#X obj 462 428 r \$0-nota79S;
#X obj 536 428 r \$0-nota80S;
#X obj 611 428 r \$0-nota81S;
#X obj 686 429 r \$0-nota82S;
#X obj 766 428 r \$0-nota83S;
#X connect 1 0 0 0;
#X connect 2 0 3 0;
#X connect 3 0 4 0;
#X connect 5 0 7 0;
#X connect 6 0 5 0;
#X connect 8 0 9 0;
#X connect 9 0 10 0;
#X connect 14 0 11 0;
#X connect 15 0 12 0;
#X connect 16 0 13 0;
#X connect 17 0 14 0;
#X connect 18 0 15 0;
#X connect 19 0 16 0;
#X connect 26 0 20 0;
#X connect 27 0 21 0;
#X connect 28 0 22 0;
#X connect 29 0 23 0;
#X connect 30 0 24 0;
#X connect 31 0 25 0;
#X connect 32 0 26 0;
#X connect 33 0 27 0;
#X connect 34 0 29 0;
#X connect 35 0 30 0;
#X connect 36 0 31 0;
#X connect 49 0 37 0;
#X connect 50 0 38 0;
#X connect 51 0 40 0;
#X connect 52 0 41 0;
#X connect 53 0 42 0;
#X connect 54 0 43 0;
#X connect 55 0 44 0;
#X connect 56 0 45 0;
#X connect 57 0 46 0;
#X connect 58 0 47 0;
#X connect 59 0 48 0;
#X connect 60 0 49 0;
#X connect 61 0 50 0;
#X connect 62 0 76 0;
#X connect 63 0 51 0;
#X connect 64 0 52 0;
#X connect 65 0 53 0;
#X connect 66 0 54 0;
#X connect 67 0 55 0;
#X connect 68 0 56 0;
#X connect 69 0 57 0;
#X connect 70 0 58 0;
#X connect 71 0 59 0;
#X connect 73 0 74 0;
#X connect 74 0 72 0;
#X connect 75 0 28 0;
#X connect 76 0 39 0;
#X connect 89 0 77 0;
#X connect 90 0 78 0;
#X connect 91 0 79 0;
#X connect 92 0 80 0;
#X connect 93 0 81 0;
#X connect 94 0 82 0;
#X connect 95 0 83 0;
#X connect 96 0 84 0;
#X connect 97 0 85 0;
#X connect 98 0 86 0;
#X connect 99 0 87 0;
#X connect 100 0 88 0;
#X connect 101 0 89 0;
#X connect 102 0 90 0;
#X connect 103 0 91 0;
#X connect 104 0 92 0;
#X connect 105 0 93 0;
#X connect 106 0 94 0;
#X connect 107 0 95 0;
#X connect 108 0 96 0;
#X connect 109 0 97 0;
#X connect 110 0 98 0;
#X connect 111 0 99 0;
#X connect 112 0 100 0;
#X connect 125 0 113 0;
#X connect 126 0 114 0;
#X connect 127 0 115 0;
#X connect 128 0 116 0;
#X connect 129 0 117 0;
#X connect 130 0 118 0;
#X connect 131 0 119 0;
#X connect 132 0 120 0;
#X connect 133 0 121 0;
#X connect 134 0 122 0;
#X connect 135 0 123 0;
#X connect 136 0 124 0;
#X connect 137 0 125 0;
#X connect 138 0 126 0;
#X connect 139 0 127 0;
#X connect 140 0 128 0;
#X connect 141 0 129 0;
#X connect 142 0 130 0;
#X connect 143 0 131 0;
#X connect 144 0 132 0;
#X connect 145 0 133 0;
#X connect 146 0 134 0;
#X connect 147 0 135 0;
#X connect 148 0 136 0;
#X connect 161 0 149 0;
#X connect 162 0 150 0;
#X connect 163 0 151 0;
#X connect 164 0 152 0;
#X connect 165 0 153 0;
#X connect 166 0 154 0;
#X connect 167 0 155 0;
#X connect 168 0 156 0;
#X connect 169 0 157 0;
#X connect 170 0 158 0;
#X connect 171 0 159 0;
#X connect 172 0 160 0;
#X connect 173 0 161 0;
#X connect 174 0 162 0;
#X connect 175 0 163 0;
#X connect 176 0 164 0;
#X connect 177 0 165 0;
#X connect 178 0 166 0;
#X connect 179 0 167 0;
#X connect 180 0 168 0;
#X connect 181 0 169 0;
#X connect 182 0 170 0;
#X connect 183 0 171 0;
#X connect 184 0 172 0;
#X connect 197 0 185 0;
#X connect 198 0 186 0;
#X connect 199 0 187 0;
#X connect 200 0 188 0;
#X connect 201 0 189 0;
#X connect 202 0 190 0;
#X connect 203 0 191 0;
#X connect 204 0 192 0;
#X connect 205 0 193 0;
#X connect 206 0 194 0;
#X connect 207 0 195 0;
#X connect 208 0 196 0;
#X connect 209 0 197 0;
#X connect 210 0 198 0;
#X connect 211 0 199 0;
#X connect 212 0 200 0;
#X connect 213 0 201 0;
#X connect 214 0 202 0;
#X connect 215 0 203 0;
#X connect 216 0 204 0;
#X connect 217 0 205 0;
#X connect 218 0 206 0;
#X connect 219 0 207 0;
#X connect 220 0 208 0;
#X connect 232 0 221 0;
#X connect 233 0 222 0;
#X connect 234 0 223 0;
#X connect 235 0 224 0;
#X connect 236 0 225 0;
#X connect 237 0 226 0;
#X connect 238 0 227 0;
#X connect 239 0 228 0;
#X connect 240 0 229 0;
#X connect 241 0 230 0;
#X connect 242 0 231 0;
#X connect 243 0 232 0;
#X connect 244 0 233 0;
#X connect 245 0 234 0;
#X connect 246 0 235 0;
#X connect 247 0 236 0;
#X connect 248 0 237 0;
#X connect 249 0 238 0;
#X connect 250 0 239 0;
#X connect 251 0 240 0;
#X connect 252 0 241 0;
#X connect 253 0 242 0;
#X restore 114 188 pd notetouch;
#X obj 444 406 outlet;
#X obj 215 410 s \$0-MIDI;
#X obj 169 412 outlet;
#X obj 870 201 - 1;
#X obj 242 209 * 12;
#X obj 243 232 + 12;
#X obj 176 249 + 0;
#X obj 433 347 sprintf %s(%d);
#X obj 862 227 s \$0-root_;
#X obj 257 254 s \$0-rootR;
#X obj 246 182 r \$0-root_;
#X obj 34 139 inlet;
#N canvas 0 0 859 417 colorkeys 0;
#N canvas 68 282 931 380 colorkeys0 0;
#X obj 18 4 s \$0-keyIN;
#X obj 18 -15 inlet;
#X obj 30 318 outlet;
#X obj 30 298 r \$0-notaN;
#X obj 17 96 sel 0 1;
#X obj 42 198 s \$0-nota0R;
#X msg 42 138 color 45 45 45;
#X msg 17 163 color 0 0 0;
#X obj 17 75 == 0;
#X obj 17 54 r \$0-keyIN;
#X msg 66 90 0;
#X obj 66 111 s \$0-notaN;
#X obj 139 99 sel 0 1;
#X obj 139 77 == 1;
#X msg 139 167 color 142 142 142;
#X obj 156 196 s \$0-nota1R;
#X msg 158 130 color 45 45 45;
#X obj 139 54 r \$0-keyIN;
#X obj 187 100 s \$0-notaN;
#X msg 187 79 1;
#X obj 262 99 sel 0 1;
#X msg 287 141 color 45 45 45;
#X msg 262 166 color 0 0 0;
#X obj 262 57 r \$0-keyIN;
#X obj 311 114 s \$0-notaN;
#X obj 287 201 s \$0-nota2R;
#X obj 262 77 == 2;
#X msg 311 93 2;
#X obj 384 101 sel 0 1;
#X msg 384 169 color 142 142 142;
#X msg 403 132 color 45 45 45;
#X obj 384 56 r \$0-keyIN;
#X obj 432 102 s \$0-notaN;
#X obj 409 204 s \$0-nota3R;
#X obj 384 79 == 3;
#X msg 432 81 3;
#X obj 507 101 sel 0 1;
#X msg 532 143 color 45 45 45;
#X msg 507 168 color 0 0 0;
#X obj 507 59 r \$0-keyIN;
#X obj 556 116 s \$0-notaN;
#X obj 507 79 == 4;
#X obj 532 202 s \$0-nota4R;
#X msg 556 95 4;
#X obj 635 103 sel 0 1;
#X msg 660 145 color 45 45 45;
#X msg 635 170 color 0 0 0;
#X obj 635 61 r \$0-keyIN;
#X obj 684 118 s \$0-notaN;
#X msg 684 97 5;
#X obj 635 81 == 5;
#X obj 660 204 s \$0-nota5R;
#X obj 766 104 sel 0 1;
#X msg 766 172 color 142 142 142;
#X msg 785 135 color 45 45 45;
#X obj 766 59 r \$0-keyIN;
#X obj 814 105 s \$0-notaN;
#X obj 766 82 == 6;
#X msg 814 84 6;
#X obj 789 208 s \$0-nota6R;
#X obj 898 102 sel 0 1;
#X msg 923 144 color 45 45 45;
#X msg 898 169 color 0 0 0;
#X obj 898 60 r \$0-keyIN;
#X obj 947 117 s \$0-notaN;
#X msg 948 96 7;
#X obj 923 202 s \$0-nota7R;
#X obj 898 80 == 7;
#X obj 1029 103 sel 0 1;
#X msg 1029 171 color 142 142 142;
#X msg 1048 134 color 45 45 45;
#X obj 1029 58 r \$0-keyIN;
#X obj 1077 104 s \$0-notaN;
#X msg 1077 83 8;
#X obj 1029 81 == 8;
#X obj 1053 207 s \$0-nota8R;
#X obj 1157 101 sel 0 1;
#X msg 1182 143 color 45 45 45;
#X msg 1157 168 color 0 0 0;
#X obj 1157 59 r \$0-keyIN;
#X obj 1206 116 s \$0-notaN;
#X msg 1207 95 9;
#X obj 1158 81 == 9;
#X obj 1182 201 s \$0-nota9R;
#X obj 1288 102 sel 0 1;
#X msg 1288 170 color 142 142 142;
#X msg 1307 133 color 45 45 45;
#X obj 1288 57 r \$0-keyIN;
#X obj 1336 103 s \$0-notaN;
#X obj 1312 206 s \$0-nota10R;
#X msg 1336 82 10;
#X obj 1288 80 == 10;
#X obj 1416 105 sel 0 1;
#X msg 1441 147 color 45 45 45;
#X msg 1416 172 color 0 0 0;
#X obj 1416 63 r \$0-keyIN;
#X obj 1465 120 s \$0-notaN;
#X msg 1466 99 11;
#X obj 1417 85 == 11;
#X obj 1441 205 s \$0-nota11R;
#X connect 1 0 0 0;
#X connect 3 0 2 0;
#X connect 4 0 7 0;
#X connect 4 1 6 0;
#X connect 4 1 10 0;
#X connect 6 0 5 0;
#X connect 7 0 5 0;
#X connect 8 0 4 0;
#X connect 9 0 8 0;
#X connect 10 0 11 0;
#X connect 12 0 14 0;
#X connect 12 1 16 0;
#X connect 12 1 19 0;
#X connect 13 0 12 0;
#X connect 14 0 15 0;
#X connect 16 0 15 0;
#X connect 17 0 13 0;
#X connect 19 0 18 0;
#X connect 20 0 22 0;
#X connect 20 1 21 0;
#X connect 20 1 27 0;
#X connect 21 0 25 0;
#X connect 22 0 25 0;
#X connect 23 0 26 0;
#X connect 26 0 20 0;
#X connect 27 0 24 0;
#X connect 28 0 29 0;
#X connect 28 1 30 0;
#X connect 28 1 35 0;
#X connect 29 0 33 0;
#X connect 30 0 33 0;
#X connect 31 0 34 0;
#X connect 34 0 28 0;
#X connect 35 0 32 0;
#X connect 36 0 38 0;
#X connect 36 1 37 0;
#X connect 36 1 43 0;
#X connect 37 0 42 0;
#X connect 38 0 42 0;
#X connect 39 0 41 0;
#X connect 41 0 36 0;
#X connect 43 0 40 0;
#X connect 44 0 46 0;
#X connect 44 1 45 0;
#X connect 44 1 49 0;
#X connect 45 0 51 0;
#X connect 46 0 51 0;
#X connect 47 0 50 0;
#X connect 49 0 48 0;
#X connect 50 0 44 0;
#X connect 52 0 53 0;
#X connect 52 1 54 0;
#X connect 52 1 58 0;
#X connect 53 0 59 0;
#X connect 54 0 59 0;
#X connect 55 0 57 0;
#X connect 57 0 52 0;
#X connect 58 0 56 0;
#X connect 60 0 62 0;
#X connect 60 1 61 0;
#X connect 60 1 65 0;
#X connect 61 0 66 0;
#X connect 62 0 66 0;
#X connect 63 0 67 0;
#X connect 65 0 64 0;
#X connect 67 0 60 0;
#X connect 68 0 69 0;
#X connect 68 1 70 0;
#X connect 68 1 73 0;
#X connect 69 0 75 0;
#X connect 70 0 75 0;
#X connect 71 0 74 0;
#X connect 73 0 72 0;
#X connect 74 0 68 0;
#X connect 76 0 78 0;
#X connect 76 1 77 0;
#X connect 76 1 81 0;
#X connect 77 0 83 0;
#X connect 78 0 83 0;
#X connect 79 0 82 0;
#X connect 81 0 80 0;
#X connect 82 0 76 0;
#X connect 84 0 85 0;
#X connect 84 1 86 0;
#X connect 84 1 90 0;
#X connect 85 0 89 0;
#X connect 86 0 89 0;
#X connect 87 0 91 0;
#X connect 90 0 88 0;
#X connect 91 0 84 0;
#X connect 92 0 94 0;
#X connect 92 1 93 0;
#X connect 92 1 97 0;
#X connect 93 0 99 0;
#X connect 94 0 99 0;
#X connect 95 0 98 0;
#X connect 97 0 96 0;
#X connect 98 0 92 0;
#X restore 28 132 pd colorkeys0;
#N canvas 68 282 931 380 colorkeys12 0;
#X obj 18 4 s \$0-keyIN;
#X obj 18 -15 inlet;
#X obj 30 318 outlet;
#X obj 30 298 r \$0-notaN;
#X obj 17 96 sel 0 1;
#X msg 42 138 color 45 45 45;
#X msg 17 163 color 0 0 0;
#X obj 17 54 r \$0-keyIN;
#X obj 66 111 s \$0-notaN;
#X obj 139 99 sel 0 1;
#X msg 139 167 color 142 142 142;
#X msg 158 130 color 45 45 45;
#X obj 139 54 r \$0-keyIN;
#X obj 187 100 s \$0-notaN;
#X obj 262 99 sel 0 1;
#X msg 287 141 color 45 45 45;
#X msg 262 166 color 0 0 0;
#X obj 262 57 r \$0-keyIN;
#X obj 311 114 s \$0-notaN;
#X obj 384 101 sel 0 1;
#X msg 384 169 color 142 142 142;
#X msg 403 132 color 45 45 45;
#X obj 384 56 r \$0-keyIN;
#X obj 432 102 s \$0-notaN;
#X obj 507 101 sel 0 1;
#X msg 532 143 color 45 45 45;
#X msg 507 168 color 0 0 0;
#X obj 507 59 r \$0-keyIN;
#X obj 556 116 s \$0-notaN;
#X obj 635 103 sel 0 1;
#X msg 660 145 color 45 45 45;
#X msg 635 170 color 0 0 0;
#X obj 635 61 r \$0-keyIN;
#X obj 684 118 s \$0-notaN;
#X obj 766 104 sel 0 1;
#X msg 766 172 color 142 142 142;
#X msg 785 135 color 45 45 45;
#X obj 766 59 r \$0-keyIN;
#X obj 814 105 s \$0-notaN;
#X obj 898 102 sel 0 1;
#X msg 923 144 color 45 45 45;
#X msg 898 169 color 0 0 0;
#X obj 898 60 r \$0-keyIN;
#X obj 947 117 s \$0-notaN;
#X obj 1029 103 sel 0 1;
#X msg 1029 171 color 142 142 142;
#X msg 1048 134 color 45 45 45;
#X obj 1029 58 r \$0-keyIN;
#X obj 1077 104 s \$0-notaN;
#X obj 1157 101 sel 0 1;
#X msg 1182 143 color 45 45 45;
#X msg 1157 168 color 0 0 0;
#X obj 1157 59 r \$0-keyIN;
#X obj 1206 116 s \$0-notaN;
#X obj 1288 102 sel 0 1;
#X msg 1288 170 color 142 142 142;
#X msg 1307 133 color 45 45 45;
#X obj 1288 57 r \$0-keyIN;
#X obj 1336 103 s \$0-notaN;
#X obj 1416 105 sel 0 1;
#X msg 1441 147 color 45 45 45;
#X msg 1416 172 color 0 0 0;
#X obj 1416 63 r \$0-keyIN;
#X obj 1465 120 s \$0-notaN;
#X msg 66 90 12;
#X msg 187 79 13;
#X msg 311 93 14;
#X msg 432 81 15;
#X msg 556 95 16;
#X msg 684 97 17;
#X msg 814 84 18;
#X msg 948 96 19;
#X msg 1077 83 20;
#X msg 1207 95 21;
#X msg 1336 82 22;
#X msg 1466 99 23;
#X obj 17 75 == 12;
#X obj 139 77 == 13;
#X obj 262 77 == 14;
#X obj 384 79 == 15;
#X obj 507 80 == 16;
#X obj 635 81 == 17;
#X obj 767 82 == 18;
#X obj 898 80 == 19;
#X obj 1029 82 == 20;
#X obj 1158 81 == 21;
#X obj 1290 80 == 22;
#X obj 1417 85 == 23;
#X obj 42 198 s \$0-nota12R;
#X obj 156 196 s \$0-nota13R;
#X obj 287 201 s \$0-nota14R;
#X obj 408 204 s \$0-nota15R;
#X obj 532 202 s \$0-nota16R;
#X obj 656 204 s \$0-nota17R;
#X obj 789 208 s \$0-nota18R;
#X obj 923 202 s \$0-nota19R;
#X obj 1053 207 s \$0-nota20R;
#X obj 1182 201 s \$0-nota21R;
#X obj 1312 206 s \$0-nota22R;
#X obj 1441 205 s \$0-nota23R;
#X connect 1 0 0 0;
#X connect 3 0 2 0;
#X connect 4 0 6 0;
#X connect 4 1 5 0;
#X connect 4 1 64 0;
#X connect 5 0 88 0;
#X connect 6 0 88 0;
#X connect 7 0 76 0;
#X connect 9 0 10 0;
#X connect 9 1 11 0;
#X connect 9 1 65 0;
#X connect 10 0 89 0;
#X connect 11 0 89 0;
#X connect 12 0 77 0;
#X connect 14 0 16 0;
#X connect 14 1 15 0;
#X connect 14 1 66 0;
#X connect 15 0 90 0;
#X connect 16 0 90 0;
#X connect 17 0 78 0;
#X connect 19 0 20 0;
#X connect 19 1 21 0;
#X connect 19 1 67 0;
#X connect 20 0 91 0;
#X connect 21 0 91 0;
#X connect 22 0 79 0;
#X connect 24 0 26 0;
#X connect 24 1 25 0;
#X connect 24 1 68 0;
#X connect 25 0 92 0;
#X connect 26 0 92 0;
#X connect 27 0 80 0;
#X connect 29 0 31 0;
#X connect 29 1 30 0;
#X connect 29 1 69 0;
#X connect 30 0 93 0;
#X connect 31 0 93 0;
#X connect 32 0 81 0;
#X connect 34 0 35 0;
#X connect 34 1 36 0;
#X connect 34 1 70 0;
#X connect 35 0 94 0;
#X connect 36 0 94 0;
#X connect 37 0 82 0;
#X connect 39 0 41 0;
#X connect 39 1 40 0;
#X connect 39 1 71 0;
#X connect 40 0 95 0;
#X connect 41 0 95 0;
#X connect 42 0 83 0;
#X connect 44 0 45 0;
#X connect 44 1 46 0;
#X connect 44 1 72 0;
#X connect 45 0 96 0;
#X connect 46 0 96 0;
#X connect 47 0 84 0;
#X connect 49 0 51 0;
#X connect 49 1 50 0;
#X connect 49 1 73 0;
#X connect 50 0 97 0;
#X connect 51 0 97 0;
#X connect 52 0 85 0;
#X connect 54 0 55 0;
#X connect 54 1 56 0;
#X connect 54 1 74 0;
#X connect 55 0 98 0;
#X connect 56 0 98 0;
#X connect 57 0 86 0;
#X connect 59 0 61 0;
#X connect 59 1 60 0;
#X connect 59 1 75 0;
#X connect 60 0 99 0;
#X connect 61 0 99 0;
#X connect 62 0 87 0;
#X connect 64 0 8 0;
#X connect 65 0 13 0;
#X connect 66 0 18 0;
#X connect 67 0 23 0;
#X connect 68 0 28 0;
#X connect 69 0 33 0;
#X connect 70 0 38 0;
#X connect 71 0 43 0;
#X connect 72 0 48 0;
#X connect 73 0 53 0;
#X connect 74 0 58 0;
#X connect 75 0 63 0;
#X connect 76 0 4 0;
#X connect 77 0 9 0;
#X connect 78 0 14 0;
#X connect 79 0 19 0;
#X connect 80 0 24 0;
#X connect 81 0 29 0;
#X connect 82 0 34 0;
#X connect 83 0 39 0;
#X connect 84 0 44 0;
#X connect 85 0 49 0;
#X connect 86 0 54 0;
#X connect 87 0 59 0;
#X restore 114 133 pd colorkeys12;
#N canvas 68 282 931 380 colorkeys24 0;
#X obj 18 4 s \$0-keyIN;
#X obj 18 -15 inlet;
#X obj 30 318 outlet;
#X obj 30 298 r \$0-notaN;
#X obj 17 96 sel 0 1;
#X msg 42 138 color 45 45 45;
#X msg 17 163 color 0 0 0;
#X obj 17 54 r \$0-keyIN;
#X obj 66 111 s \$0-notaN;
#X obj 139 99 sel 0 1;
#X msg 139 167 color 142 142 142;
#X msg 158 130 color 45 45 45;
#X obj 139 54 r \$0-keyIN;
#X obj 187 100 s \$0-notaN;
#X obj 262 99 sel 0 1;
#X msg 287 141 color 45 45 45;
#X msg 262 166 color 0 0 0;
#X obj 262 57 r \$0-keyIN;
#X obj 311 114 s \$0-notaN;
#X obj 384 101 sel 0 1;
#X msg 384 169 color 142 142 142;
#X msg 403 132 color 45 45 45;
#X obj 384 56 r \$0-keyIN;
#X obj 432 102 s \$0-notaN;
#X obj 507 101 sel 0 1;
#X msg 532 143 color 45 45 45;
#X msg 507 168 color 0 0 0;
#X obj 507 59 r \$0-keyIN;
#X obj 556 116 s \$0-notaN;
#X obj 635 103 sel 0 1;
#X msg 660 145 color 45 45 45;
#X msg 635 170 color 0 0 0;
#X obj 635 61 r \$0-keyIN;
#X obj 684 118 s \$0-notaN;
#X obj 766 104 sel 0 1;
#X msg 766 172 color 142 142 142;
#X msg 785 135 color 45 45 45;
#X obj 766 59 r \$0-keyIN;
#X obj 814 105 s \$0-notaN;
#X obj 898 102 sel 0 1;
#X msg 923 144 color 45 45 45;
#X msg 898 169 color 0 0 0;
#X obj 898 60 r \$0-keyIN;
#X obj 947 117 s \$0-notaN;
#X obj 1029 103 sel 0 1;
#X msg 1029 171 color 142 142 142;
#X msg 1048 134 color 45 45 45;
#X obj 1029 58 r \$0-keyIN;
#X obj 1077 104 s \$0-notaN;
#X obj 1157 101 sel 0 1;
#X msg 1182 143 color 45 45 45;
#X msg 1157 168 color 0 0 0;
#X obj 1157 59 r \$0-keyIN;
#X obj 1206 116 s \$0-notaN;
#X obj 1288 102 sel 0 1;
#X msg 1288 170 color 142 142 142;
#X msg 1307 133 color 45 45 45;
#X obj 1288 57 r \$0-keyIN;
#X obj 1336 103 s \$0-notaN;
#X obj 1416 105 sel 0 1;
#X msg 1441 147 color 45 45 45;
#X msg 1416 172 color 0 0 0;
#X obj 1416 63 r \$0-keyIN;
#X obj 1465 120 s \$0-notaN;
#X msg 66 90 24;
#X msg 187 79 25;
#X msg 311 93 26;
#X msg 432 81 27;
#X msg 556 95 28;
#X msg 684 97 29;
#X msg 814 84 30;
#X msg 948 96 31;
#X msg 1077 83 32;
#X msg 1207 95 33;
#X msg 1336 82 34;
#X msg 1466 99 35;
#X obj 17 75 == 24;
#X obj 139 77 == 25;
#X obj 262 76 == 26;
#X obj 384 79 == 27;
#X obj 506 79 == 28;
#X obj 635 80 == 29;
#X obj 765 82 == 30;
#X obj 898 80 == 31;
#X obj 1034 81 == 32;
#X obj 1157 81 == 33;
#X obj 1290 79 == 34;
#X obj 1417 84 == 35;
#X obj 42 198 s \$0-nota24R;
#X obj 156 196 s \$0-nota25R;
#X obj 287 201 s \$0-nota26R;
#X obj 409 204 s \$0-nota27R;
#X obj 532 202 s \$0-nota28R;
#X obj 660 204 s \$0-nota29R;
#X obj 788 207 s \$0-nota30R;
#X obj 923 202 s \$0-nota31R;
#X obj 1053 207 s \$0-nota32R;
#X obj 1182 201 s \$0-nota33R;
#X obj 1312 206 s \$0-nota34R;
#X obj 1441 205 s \$0-nota35R;
#X connect 1 0 0 0;
#X connect 3 0 2 0;
#X connect 4 0 6 0;
#X connect 4 1 5 0;
#X connect 4 1 64 0;
#X connect 5 0 88 0;
#X connect 6 0 88 0;
#X connect 7 0 76 0;
#X connect 9 0 10 0;
#X connect 9 1 11 0;
#X connect 9 1 65 0;
#X connect 10 0 89 0;
#X connect 11 0 89 0;
#X connect 12 0 77 0;
#X connect 14 0 16 0;
#X connect 14 1 15 0;
#X connect 14 1 66 0;
#X connect 15 0 90 0;
#X connect 16 0 90 0;
#X connect 17 0 78 0;
#X connect 19 0 20 0;
#X connect 19 1 21 0;
#X connect 19 1 67 0;
#X connect 20 0 91 0;
#X connect 21 0 91 0;
#X connect 22 0 79 0;
#X connect 24 0 26 0;
#X connect 24 1 25 0;
#X connect 24 1 68 0;
#X connect 25 0 92 0;
#X connect 26 0 92 0;
#X connect 27 0 80 0;
#X connect 29 0 31 0;
#X connect 29 1 30 0;
#X connect 29 1 69 0;
#X connect 30 0 93 0;
#X connect 31 0 93 0;
#X connect 32 0 81 0;
#X connect 34 0 35 0;
#X connect 34 1 36 0;
#X connect 34 1 70 0;
#X connect 35 0 94 0;
#X connect 36 0 94 0;
#X connect 37 0 82 0;
#X connect 39 0 41 0;
#X connect 39 1 40 0;
#X connect 39 1 71 0;
#X connect 40 0 95 0;
#X connect 41 0 95 0;
#X connect 42 0 83 0;
#X connect 44 0 45 0;
#X connect 44 1 46 0;
#X connect 44 1 72 0;
#X connect 45 0 96 0;
#X connect 46 0 96 0;
#X connect 47 0 84 0;
#X connect 49 0 51 0;
#X connect 49 1 50 0;
#X connect 49 1 73 0;
#X connect 50 0 97 0;
#X connect 51 0 97 0;
#X connect 52 0 85 0;
#X connect 54 0 55 0;
#X connect 54 1 56 0;
#X connect 54 1 74 0;
#X connect 55 0 98 0;
#X connect 56 0 98 0;
#X connect 57 0 86 0;
#X connect 59 0 61 0;
#X connect 59 1 60 0;
#X connect 59 1 75 0;
#X connect 60 0 99 0;
#X connect 61 0 99 0;
#X connect 62 0 87 0;
#X connect 64 0 8 0;
#X connect 65 0 13 0;
#X connect 66 0 18 0;
#X connect 67 0 23 0;
#X connect 68 0 28 0;
#X connect 69 0 33 0;
#X connect 70 0 38 0;
#X connect 71 0 43 0;
#X connect 72 0 48 0;
#X connect 73 0 53 0;
#X connect 74 0 58 0;
#X connect 75 0 63 0;
#X connect 76 0 4 0;
#X connect 77 0 9 0;
#X connect 78 0 14 0;
#X connect 79 0 19 0;
#X connect 80 0 24 0;
#X connect 81 0 29 0;
#X connect 82 0 34 0;
#X connect 83 0 39 0;
#X connect 84 0 44 0;
#X connect 85 0 49 0;
#X connect 86 0 54 0;
#X connect 87 0 59 0;
#X restore 206 133 pd colorkeys24;
#N canvas 68 282 931 380 colorkeys48 0;
#X obj 18 4 s \$0-keyIN;
#X obj 18 -15 inlet;
#X obj 30 318 outlet;
#X obj 30 298 r \$0-notaN;
#X obj 17 96 sel 0 1;
#X msg 42 138 color 45 45 45;
#X msg 17 163 color 0 0 0;
#X obj 17 54 r \$0-keyIN;
#X obj 66 111 s \$0-notaN;
#X obj 139 99 sel 0 1;
#X msg 139 167 color 142 142 142;
#X msg 158 130 color 45 45 45;
#X obj 139 54 r \$0-keyIN;
#X obj 187 100 s \$0-notaN;
#X obj 262 99 sel 0 1;
#X msg 287 141 color 45 45 45;
#X msg 262 166 color 0 0 0;
#X obj 262 57 r \$0-keyIN;
#X obj 311 114 s \$0-notaN;
#X obj 384 101 sel 0 1;
#X msg 384 169 color 142 142 142;
#X msg 403 132 color 45 45 45;
#X obj 384 56 r \$0-keyIN;
#X obj 432 102 s \$0-notaN;
#X obj 507 101 sel 0 1;
#X msg 532 143 color 45 45 45;
#X msg 507 168 color 0 0 0;
#X obj 507 59 r \$0-keyIN;
#X obj 556 116 s \$0-notaN;
#X obj 635 103 sel 0 1;
#X msg 660 145 color 45 45 45;
#X msg 635 170 color 0 0 0;
#X obj 635 61 r \$0-keyIN;
#X obj 684 118 s \$0-notaN;
#X obj 766 104 sel 0 1;
#X msg 766 172 color 142 142 142;
#X msg 785 135 color 45 45 45;
#X obj 766 59 r \$0-keyIN;
#X obj 814 105 s \$0-notaN;
#X obj 898 102 sel 0 1;
#X msg 923 144 color 45 45 45;
#X msg 898 169 color 0 0 0;
#X obj 898 60 r \$0-keyIN;
#X obj 947 117 s \$0-notaN;
#X obj 1029 103 sel 0 1;
#X msg 1029 171 color 142 142 142;
#X msg 1048 134 color 45 45 45;
#X obj 1029 58 r \$0-keyIN;
#X obj 1077 104 s \$0-notaN;
#X obj 1157 101 sel 0 1;
#X msg 1182 143 color 45 45 45;
#X msg 1157 168 color 0 0 0;
#X obj 1157 59 r \$0-keyIN;
#X obj 1206 116 s \$0-notaN;
#X obj 1288 102 sel 0 1;
#X msg 1288 170 color 142 142 142;
#X msg 1307 133 color 45 45 45;
#X obj 1288 57 r \$0-keyIN;
#X obj 1336 103 s \$0-notaN;
#X obj 1416 105 sel 0 1;
#X msg 1441 147 color 45 45 45;
#X msg 1416 172 color 0 0 0;
#X obj 1416 63 r \$0-keyIN;
#X obj 1465 120 s \$0-notaN;
#X msg 66 90 48;
#X msg 187 79 49;
#X msg 311 93 50;
#X msg 432 81 51;
#X msg 556 95 52;
#X msg 684 97 53;
#X msg 814 84 54;
#X msg 948 96 55;
#X msg 1077 83 56;
#X msg 1207 95 57;
#X msg 1336 82 58;
#X msg 1466 99 59;
#X obj 17 75 == 48;
#X obj 139 77 == 49;
#X obj 262 77 == 50;
#X obj 384 79 == 51;
#X obj 507 79 == 52;
#X obj 635 81 == 53;
#X obj 766 82 == 54;
#X obj 898 80 == 55;
#X obj 1029 81 == 56;
#X obj 1158 81 == 57;
#X obj 1288 80 == 58;
#X obj 1417 85 == 59;
#X obj 42 198 s \$0-nota48R;
#X obj 156 196 s \$0-nota49R;
#X obj 287 201 s \$0-nota50R;
#X obj 409 204 s \$0-nota51R;
#X obj 532 202 s \$0-nota52R;
#X obj 660 204 s \$0-nota53R;
#X obj 789 208 s \$0-nota54R;
#X obj 923 202 s \$0-nota55R;
#X obj 1053 207 s \$0-nota56R;
#X obj 1182 201 s \$0-nota57R;
#X obj 1312 206 s \$0-nota58R;
#X obj 1441 205 s \$0-nota59R;
#X connect 1 0 0 0;
#X connect 3 0 2 0;
#X connect 4 0 6 0;
#X connect 4 1 5 0;
#X connect 4 1 64 0;
#X connect 5 0 88 0;
#X connect 6 0 88 0;
#X connect 7 0 76 0;
#X connect 9 0 10 0;
#X connect 9 1 11 0;
#X connect 9 1 65 0;
#X connect 10 0 89 0;
#X connect 11 0 89 0;
#X connect 12 0 77 0;
#X connect 14 0 16 0;
#X connect 14 1 15 0;
#X connect 14 1 66 0;
#X connect 15 0 90 0;
#X connect 16 0 90 0;
#X connect 17 0 78 0;
#X connect 19 0 20 0;
#X connect 19 1 21 0;
#X connect 19 1 67 0;
#X connect 20 0 91 0;
#X connect 21 0 91 0;
#X connect 22 0 79 0;
#X connect 24 0 26 0;
#X connect 24 1 25 0;
#X connect 24 1 68 0;
#X connect 25 0 92 0;
#X connect 26 0 92 0;
#X connect 27 0 80 0;
#X connect 29 0 31 0;
#X connect 29 1 30 0;
#X connect 29 1 69 0;
#X connect 30 0 93 0;
#X connect 31 0 93 0;
#X connect 32 0 81 0;
#X connect 34 0 35 0;
#X connect 34 1 36 0;
#X connect 34 1 70 0;
#X connect 35 0 94 0;
#X connect 36 0 94 0;
#X connect 37 0 82 0;
#X connect 39 0 41 0;
#X connect 39 1 40 0;
#X connect 39 1 71 0;
#X connect 40 0 95 0;
#X connect 41 0 95 0;
#X connect 42 0 83 0;
#X connect 44 0 45 0;
#X connect 44 1 46 0;
#X connect 44 1 72 0;
#X connect 45 0 96 0;
#X connect 46 0 96 0;
#X connect 47 0 84 0;
#X connect 49 0 51 0;
#X connect 49 1 50 0;
#X connect 49 1 73 0;
#X connect 50 0 97 0;
#X connect 51 0 97 0;
#X connect 52 0 85 0;
#X connect 54 0 55 0;
#X connect 54 1 56 0;
#X connect 54 1 74 0;
#X connect 55 0 98 0;
#X connect 56 0 98 0;
#X connect 57 0 86 0;
#X connect 59 0 61 0;
#X connect 59 1 60 0;
#X connect 59 1 75 0;
#X connect 60 0 99 0;
#X connect 61 0 99 0;
#X connect 62 0 87 0;
#X connect 64 0 8 0;
#X connect 65 0 13 0;
#X connect 66 0 18 0;
#X connect 67 0 23 0;
#X connect 68 0 28 0;
#X connect 69 0 33 0;
#X connect 70 0 38 0;
#X connect 71 0 43 0;
#X connect 72 0 48 0;
#X connect 73 0 53 0;
#X connect 74 0 58 0;
#X connect 75 0 63 0;
#X connect 76 0 4 0;
#X connect 77 0 9 0;
#X connect 78 0 14 0;
#X connect 79 0 19 0;
#X connect 80 0 24 0;
#X connect 81 0 29 0;
#X connect 82 0 34 0;
#X connect 83 0 39 0;
#X connect 84 0 44 0;
#X connect 85 0 49 0;
#X connect 86 0 54 0;
#X connect 87 0 59 0;
#X restore 389 132 pd colorkeys48;
#N canvas 68 282 931 380 colorkeys60 0;
#X obj 18 4 s \$0-keyIN;
#X obj 18 -15 inlet;
#X obj 30 318 outlet;
#X obj 30 298 r \$0-notaN;
#X obj 17 96 sel 0 1;
#X msg 42 138 color 45 45 45;
#X msg 17 163 color 0 0 0;
#X obj 17 54 r \$0-keyIN;
#X obj 66 111 s \$0-notaN;
#X obj 139 99 sel 0 1;
#X msg 139 167 color 142 142 142;
#X msg 158 130 color 45 45 45;
#X obj 139 54 r \$0-keyIN;
#X obj 187 100 s \$0-notaN;
#X obj 262 99 sel 0 1;
#X msg 287 141 color 45 45 45;
#X msg 262 166 color 0 0 0;
#X obj 262 57 r \$0-keyIN;
#X obj 311 114 s \$0-notaN;
#X obj 384 101 sel 0 1;
#X msg 384 169 color 142 142 142;
#X msg 403 132 color 45 45 45;
#X obj 384 56 r \$0-keyIN;
#X obj 432 102 s \$0-notaN;
#X obj 507 101 sel 0 1;
#X msg 532 143 color 45 45 45;
#X msg 507 168 color 0 0 0;
#X obj 507 59 r \$0-keyIN;
#X obj 556 116 s \$0-notaN;
#X obj 635 103 sel 0 1;
#X msg 660 145 color 45 45 45;
#X msg 635 170 color 0 0 0;
#X obj 635 61 r \$0-keyIN;
#X obj 684 118 s \$0-notaN;
#X obj 766 104 sel 0 1;
#X msg 766 172 color 142 142 142;
#X msg 785 135 color 45 45 45;
#X obj 766 59 r \$0-keyIN;
#X obj 814 105 s \$0-notaN;
#X obj 898 102 sel 0 1;
#X msg 923 144 color 45 45 45;
#X msg 898 169 color 0 0 0;
#X obj 898 60 r \$0-keyIN;
#X obj 947 117 s \$0-notaN;
#X obj 1029 103 sel 0 1;
#X msg 1029 171 color 142 142 142;
#X msg 1048 134 color 45 45 45;
#X obj 1029 58 r \$0-keyIN;
#X obj 1077 104 s \$0-notaN;
#X obj 1157 101 sel 0 1;
#X msg 1182 143 color 45 45 45;
#X msg 1157 168 color 0 0 0;
#X obj 1157 59 r \$0-keyIN;
#X obj 1206 116 s \$0-notaN;
#X obj 1288 102 sel 0 1;
#X msg 1288 170 color 142 142 142;
#X msg 1307 133 color 45 45 45;
#X obj 1288 57 r \$0-keyIN;
#X obj 1336 103 s \$0-notaN;
#X obj 1416 105 sel 0 1;
#X msg 1441 147 color 45 45 45;
#X msg 1416 172 color 0 0 0;
#X obj 1416 63 r \$0-keyIN;
#X obj 1465 120 s \$0-notaN;
#X msg 66 90 60;
#X msg 187 79 61;
#X msg 311 93 62;
#X msg 432 81 63;
#X msg 556 95 64;
#X msg 684 97 65;
#X msg 814 84 66;
#X msg 948 96 67;
#X msg 1077 83 68;
#X msg 1207 95 69;
#X msg 1336 82 70;
#X msg 1466 99 71;
#X obj 17 75 == 60;
#X obj 139 77 == 61;
#X obj 262 77 == 62;
#X obj 384 79 == 63;
#X obj 507 79 == 64;
#X obj 635 81 == 65;
#X obj 766 82 == 66;
#X obj 898 80 == 67;
#X obj 1030 82 == 68;
#X obj 1158 81 == 69;
#X obj 1288 80 == 70;
#X obj 1417 85 == 71;
#X obj 43 198 s \$0-nota60R;
#X obj 156 196 s \$0-nota61R;
#X obj 287 201 s \$0-nota62R;
#X obj 409 204 s \$0-nota63R;
#X obj 532 202 s \$0-nota64R;
#X obj 659 204 s \$0-nota65R;
#X obj 789 208 s \$0-nota66R;
#X obj 923 202 s \$0-nota67R;
#X obj 1053 207 s \$0-nota68R;
#X obj 1182 201 s \$0-nota69R;
#X obj 1312 206 s \$0-nota70R;
#X obj 1441 205 s \$0-nota71R;
#X connect 1 0 0 0;
#X connect 3 0 2 0;
#X connect 4 0 6 0;
#X connect 4 1 5 0;
#X connect 4 1 64 0;
#X connect 5 0 88 0;
#X connect 6 0 88 0;
#X connect 7 0 76 0;
#X connect 9 0 10 0;
#X connect 9 1 11 0;
#X connect 9 1 65 0;
#X connect 10 0 89 0;
#X connect 11 0 89 0;
#X connect 12 0 77 0;
#X connect 14 0 16 0;
#X connect 14 1 15 0;
#X connect 14 1 66 0;
#X connect 15 0 90 0;
#X connect 16 0 90 0;
#X connect 17 0 78 0;
#X connect 19 0 20 0;
#X connect 19 1 21 0;
#X connect 19 1 67 0;
#X connect 20 0 91 0;
#X connect 21 0 91 0;
#X connect 22 0 79 0;
#X connect 24 0 26 0;
#X connect 24 1 25 0;
#X connect 24 1 68 0;
#X connect 25 0 92 0;
#X connect 26 0 92 0;
#X connect 27 0 80 0;
#X connect 29 0 31 0;
#X connect 29 1 30 0;
#X connect 29 1 69 0;
#X connect 30 0 93 0;
#X connect 31 0 93 0;
#X connect 32 0 81 0;
#X connect 34 0 35 0;
#X connect 34 1 36 0;
#X connect 34 1 70 0;
#X connect 35 0 94 0;
#X connect 36 0 94 0;
#X connect 37 0 82 0;
#X connect 39 0 41 0;
#X connect 39 1 40 0;
#X connect 39 1 71 0;
#X connect 40 0 95 0;
#X connect 41 0 95 0;
#X connect 42 0 83 0;
#X connect 44 0 45 0;
#X connect 44 1 46 0;
#X connect 44 1 72 0;
#X connect 45 0 96 0;
#X connect 46 0 96 0;
#X connect 47 0 84 0;
#X connect 49 0 51 0;
#X connect 49 1 50 0;
#X connect 49 1 73 0;
#X connect 50 0 97 0;
#X connect 51 0 97 0;
#X connect 52 0 85 0;
#X connect 54 0 55 0;
#X connect 54 1 56 0;
#X connect 54 1 74 0;
#X connect 55 0 98 0;
#X connect 56 0 98 0;
#X connect 57 0 86 0;
#X connect 59 0 61 0;
#X connect 59 1 60 0;
#X connect 59 1 75 0;
#X connect 60 0 99 0;
#X connect 61 0 99 0;
#X connect 62 0 87 0;
#X connect 64 0 8 0;
#X connect 65 0 13 0;
#X connect 66 0 18 0;
#X connect 67 0 23 0;
#X connect 68 0 28 0;
#X connect 69 0 33 0;
#X connect 70 0 38 0;
#X connect 71 0 43 0;
#X connect 72 0 48 0;
#X connect 73 0 53 0;
#X connect 74 0 58 0;
#X connect 75 0 63 0;
#X connect 76 0 4 0;
#X connect 77 0 9 0;
#X connect 78 0 14 0;
#X connect 79 0 19 0;
#X connect 80 0 24 0;
#X connect 81 0 29 0;
#X connect 82 0 34 0;
#X connect 83 0 39 0;
#X connect 84 0 44 0;
#X connect 85 0 49 0;
#X connect 86 0 54 0;
#X connect 87 0 59 0;
#X restore 481 131 pd colorkeys60;
#N canvas 68 282 931 380 colorkeys72 0;
#X obj 18 4 s \$0-keyIN;
#X obj 18 -15 inlet;
#X obj 30 318 outlet;
#X obj 30 298 r \$0-notaN;
#X obj 17 96 sel 0 1;
#X msg 42 138 color 45 45 45;
#X msg 17 163 color 0 0 0;
#X obj 17 54 r \$0-keyIN;
#X obj 66 111 s \$0-notaN;
#X obj 139 99 sel 0 1;
#X msg 139 167 color 142 142 142;
#X msg 158 130 color 45 45 45;
#X obj 139 54 r \$0-keyIN;
#X obj 187 100 s \$0-notaN;
#X obj 262 99 sel 0 1;
#X msg 287 141 color 45 45 45;
#X msg 262 166 color 0 0 0;
#X obj 262 57 r \$0-keyIN;
#X obj 311 114 s \$0-notaN;
#X obj 384 101 sel 0 1;
#X msg 384 169 color 142 142 142;
#X msg 403 132 color 45 45 45;
#X obj 384 56 r \$0-keyIN;
#X obj 432 102 s \$0-notaN;
#X obj 507 101 sel 0 1;
#X msg 532 143 color 45 45 45;
#X msg 507 168 color 0 0 0;
#X obj 507 59 r \$0-keyIN;
#X obj 556 116 s \$0-notaN;
#X obj 635 103 sel 0 1;
#X msg 660 145 color 45 45 45;
#X msg 635 170 color 0 0 0;
#X obj 635 61 r \$0-keyIN;
#X obj 684 118 s \$0-notaN;
#X obj 766 104 sel 0 1;
#X msg 766 172 color 142 142 142;
#X msg 785 135 color 45 45 45;
#X obj 766 59 r \$0-keyIN;
#X obj 814 105 s \$0-notaN;
#X obj 898 102 sel 0 1;
#X msg 923 144 color 45 45 45;
#X msg 898 169 color 0 0 0;
#X obj 898 60 r \$0-keyIN;
#X obj 947 117 s \$0-notaN;
#X obj 1029 103 sel 0 1;
#X msg 1029 171 color 142 142 142;
#X msg 1048 134 color 45 45 45;
#X obj 1029 58 r \$0-keyIN;
#X obj 1077 104 s \$0-notaN;
#X obj 1157 101 sel 0 1;
#X msg 1182 143 color 45 45 45;
#X msg 1157 168 color 0 0 0;
#X obj 1157 59 r \$0-keyIN;
#X obj 1206 116 s \$0-notaN;
#X obj 1288 102 sel 0 1;
#X msg 1288 170 color 142 142 142;
#X msg 1307 133 color 45 45 45;
#X obj 1288 57 r \$0-keyIN;
#X obj 1336 103 s \$0-notaN;
#X obj 1416 105 sel 0 1;
#X msg 1441 147 color 45 45 45;
#X msg 1416 172 color 0 0 0;
#X obj 1416 63 r \$0-keyIN;
#X obj 1465 120 s \$0-notaN;
#X msg 66 90 72;
#X msg 187 79 73;
#X msg 311 93 74;
#X msg 432 81 75;
#X msg 556 95 76;
#X msg 684 97 77;
#X msg 814 84 78;
#X msg 948 96 79;
#X msg 1077 83 80;
#X msg 1209 97 81;
#X msg 1336 82 82;
#X msg 1466 99 83;
#X obj 17 75 == 72;
#X obj 139 77 == 73;
#X obj 262 77 == 74;
#X obj 384 79 == 75;
#X obj 507 79 == 76;
#X obj 634 81 == 77;
#X obj 766 82 == 78;
#X obj 898 80 == 79;
#X obj 1029 81 == 80;
#X obj 1158 81 == 81;
#X obj 1288 80 == 82;
#X obj 1417 85 == 83;
#X obj 42 197 s \$0-nota72R;
#X obj 156 196 s \$0-nota73R;
#X obj 287 201 s \$0-nota74R;
#X obj 409 204 s \$0-nota75R;
#X obj 532 202 s \$0-nota76R;
#X obj 660 204 s \$0-nota77R;
#X obj 789 208 s \$0-nota78R;
#X obj 923 202 s \$0-nota79R;
#X obj 1053 208 s \$0-nota80R;
#X obj 1182 201 s \$0-nota81R;
#X obj 1312 206 s \$0-nota82R;
#X obj 1441 205 s \$0-nota83R;
#X connect 1 0 0 0;
#X connect 3 0 2 0;
#X connect 4 0 6 0;
#X connect 4 1 5 0;
#X connect 4 1 64 0;
#X connect 5 0 88 0;
#X connect 6 0 88 0;
#X connect 7 0 76 0;
#X connect 9 0 10 0;
#X connect 9 1 11 0;
#X connect 9 1 65 0;
#X connect 10 0 89 0;
#X connect 11 0 89 0;
#X connect 12 0 77 0;
#X connect 14 0 16 0;
#X connect 14 1 15 0;
#X connect 14 1 66 0;
#X connect 15 0 90 0;
#X connect 16 0 90 0;
#X connect 17 0 78 0;
#X connect 19 0 20 0;
#X connect 19 1 21 0;
#X connect 19 1 67 0;
#X connect 20 0 91 0;
#X connect 21 0 91 0;
#X connect 22 0 79 0;
#X connect 24 0 26 0;
#X connect 24 1 25 0;
#X connect 24 1 68 0;
#X connect 25 0 92 0;
#X connect 26 0 92 0;
#X connect 27 0 80 0;
#X connect 29 0 31 0;
#X connect 29 1 30 0;
#X connect 29 1 69 0;
#X connect 30 0 93 0;
#X connect 31 0 93 0;
#X connect 32 0 81 0;
#X connect 34 0 35 0;
#X connect 34 1 36 0;
#X connect 34 1 70 0;
#X connect 35 0 94 0;
#X connect 36 0 94 0;
#X connect 37 0 82 0;
#X connect 39 0 41 0;
#X connect 39 1 40 0;
#X connect 39 1 71 0;
#X connect 40 0 95 0;
#X connect 41 0 95 0;
#X connect 42 0 83 0;
#X connect 44 0 45 0;
#X connect 44 1 46 0;
#X connect 44 1 72 0;
#X connect 45 0 96 0;
#X connect 46 0 96 0;
#X connect 47 0 84 0;
#X connect 49 0 51 0;
#X connect 49 1 50 0;
#X connect 49 1 73 0;
#X connect 50 0 97 0;
#X connect 51 0 97 0;
#X connect 52 0 85 0;
#X connect 54 0 55 0;
#X connect 54 1 56 0;
#X connect 54 1 74 0;
#X connect 55 0 98 0;
#X connect 56 0 98 0;
#X connect 57 0 86 0;
#X connect 59 0 61 0;
#X connect 59 1 60 0;
#X connect 59 1 75 0;
#X connect 60 0 99 0;
#X connect 61 0 99 0;
#X connect 62 0 87 0;
#X connect 64 0 8 0;
#X connect 65 0 13 0;
#X connect 66 0 18 0;
#X connect 67 0 23 0;
#X connect 68 0 28 0;
#X connect 69 0 33 0;
#X connect 70 0 38 0;
#X connect 71 0 43 0;
#X connect 72 0 48 0;
#X connect 73 0 53 0;
#X connect 74 0 58 0;
#X connect 75 0 63 0;
#X connect 76 0 4 0;
#X connect 77 0 9 0;
#X connect 78 0 14 0;
#X connect 79 0 19 0;
#X connect 80 0 24 0;
#X connect 81 0 29 0;
#X connect 82 0 34 0;
#X connect 83 0 39 0;
#X connect 84 0 44 0;
#X connect 85 0 49 0;
#X connect 86 0 54 0;
#X connect 87 0 59 0;
#X restore 571 132 pd colorkeys72;
#X obj 222 11 inlet;
#X obj 47 200 outlet;
#N canvas 68 282 931 380 colorkeys36 0;
#X obj 18 4 s \$0-keyIN;
#X obj 18 -15 inlet;
#X obj 30 318 outlet;
#X obj 30 298 r \$0-notaN;
#X obj 17 96 sel 0 1;
#X msg 42 138 color 45 45 45;
#X msg 17 163 color 0 0 0;
#X obj 17 54 r \$0-keyIN;
#X obj 66 111 s \$0-notaN;
#X obj 139 99 sel 0 1;
#X msg 139 167 color 142 142 142;
#X msg 158 130 color 45 45 45;
#X obj 139 54 r \$0-keyIN;
#X obj 187 100 s \$0-notaN;
#X obj 262 99 sel 0 1;
#X msg 287 141 color 45 45 45;
#X msg 262 166 color 0 0 0;
#X obj 262 57 r \$0-keyIN;
#X obj 311 114 s \$0-notaN;
#X obj 384 101 sel 0 1;
#X msg 384 169 color 142 142 142;
#X msg 403 132 color 45 45 45;
#X obj 384 56 r \$0-keyIN;
#X obj 432 102 s \$0-notaN;
#X obj 507 101 sel 0 1;
#X msg 532 143 color 45 45 45;
#X msg 507 168 color 0 0 0;
#X obj 507 59 r \$0-keyIN;
#X obj 556 116 s \$0-notaN;
#X obj 635 103 sel 0 1;
#X msg 660 145 color 45 45 45;
#X msg 635 170 color 0 0 0;
#X obj 635 61 r \$0-keyIN;
#X obj 684 118 s \$0-notaN;
#X obj 766 104 sel 0 1;
#X msg 766 172 color 142 142 142;
#X msg 785 135 color 45 45 45;
#X obj 766 59 r \$0-keyIN;
#X obj 814 105 s \$0-notaN;
#X obj 898 102 sel 0 1;
#X msg 923 144 color 45 45 45;
#X msg 898 169 color 0 0 0;
#X obj 898 60 r \$0-keyIN;
#X obj 947 117 s \$0-notaN;
#X obj 1029 103 sel 0 1;
#X msg 1029 171 color 142 142 142;
#X msg 1048 134 color 45 45 45;
#X obj 1029 58 r \$0-keyIN;
#X obj 1077 104 s \$0-notaN;
#X obj 1157 101 sel 0 1;
#X msg 1182 143 color 45 45 45;
#X msg 1157 168 color 0 0 0;
#X obj 1157 59 r \$0-keyIN;
#X obj 1206 116 s \$0-notaN;
#X obj 1288 102 sel 0 1;
#X msg 1288 170 color 142 142 142;
#X msg 1307 133 color 45 45 45;
#X obj 1288 57 r \$0-keyIN;
#X obj 1336 103 s \$0-notaN;
#X obj 1416 105 sel 0 1;
#X msg 1441 147 color 45 45 45;
#X msg 1416 172 color 0 0 0;
#X obj 1416 63 r \$0-keyIN;
#X obj 1465 120 s \$0-notaN;
#X msg 66 90 36;
#X msg 187 79 37;
#X msg 311 93 38;
#X msg 432 81 39;
#X msg 556 95 40;
#X msg 684 97 41;
#X msg 814 84 42;
#X msg 948 96 43;
#X msg 1077 83 44;
#X msg 1207 95 45;
#X msg 1336 82 46;
#X msg 1466 99 47;
#X obj 42 198 s \$0-nota36R;
#X obj 156 196 s \$0-nota37R;
#X obj 287 201 s \$0-nota38R;
#X obj 409 204 s \$0-nota39R;
#X obj 533 202 s \$0-nota40R;
#X obj 660 204 s \$0-nota41R;
#X obj 789 208 s \$0-nota42R;
#X obj 923 202 s \$0-nota43R;
#X obj 1053 207 s \$0-nota44R;
#X obj 1182 201 s \$0-nota45R;
#X obj 1311 206 s \$0-nota46R;
#X obj 1441 205 s \$0-nota47R;
#X obj 17 75 == 36;
#X obj 139 77 == 37;
#X obj 262 77 == 38;
#X obj 507 79 == 40;
#X obj 636 81 == 41;
#X obj 766 82 == 42;
#X obj 898 80 == 43;
#X obj 1029 81 == 44;
#X obj 1158 81 == 45;
#X obj 1288 80 == 46;
#X obj 1418 85 == 47;
#X obj 384 79 == 39;
#X connect 1 0 0 0;
#X connect 3 0 2 0;
#X connect 4 0 6 0;
#X connect 4 1 5 0;
#X connect 4 1 64 0;
#X connect 5 0 76 0;
#X connect 6 0 76 0;
#X connect 7 0 88 0;
#X connect 9 0 10 0;
#X connect 9 1 11 0;
#X connect 9 1 65 0;
#X connect 10 0 77 0;
#X connect 11 0 77 0;
#X connect 12 0 89 0;
#X connect 14 0 16 0;
#X connect 14 1 15 0;
#X connect 14 1 66 0;
#X connect 15 0 78 0;
#X connect 16 0 78 0;
#X connect 17 0 90 0;
#X connect 19 0 20 0;
#X connect 19 1 21 0;
#X connect 19 1 67 0;
#X connect 20 0 79 0;
#X connect 21 0 79 0;
#X connect 22 0 99 0;
#X connect 24 0 26 0;
#X connect 24 1 25 0;
#X connect 24 1 68 0;
#X connect 25 0 80 0;
#X connect 26 0 80 0;
#X connect 27 0 91 0;
#X connect 29 0 31 0;
#X connect 29 1 30 0;
#X connect 29 1 69 0;
#X connect 30 0 81 0;
#X connect 31 0 81 0;
#X connect 32 0 92 0;
#X connect 34 0 35 0;
#X connect 34 1 36 0;
#X connect 34 1 70 0;
#X connect 35 0 82 0;
#X connect 36 0 82 0;
#X connect 37 0 93 0;
#X connect 39 0 41 0;
#X connect 39 1 40 0;
#X connect 39 1 71 0;
#X connect 40 0 83 0;
#X connect 41 0 83 0;
#X connect 42 0 94 0;
#X connect 44 0 45 0;
#X connect 44 1 46 0;
#X connect 44 1 72 0;
#X connect 45 0 84 0;
#X connect 46 0 84 0;
#X connect 47 0 95 0;
#X connect 49 0 51 0;
#X connect 49 1 50 0;
#X connect 49 1 73 0;
#X connect 50 0 85 0;
#X connect 51 0 85 0;
#X connect 52 0 96 0;
#X connect 54 0 55 0;
#X connect 54 1 56 0;
#X connect 54 1 74 0;
#X connect 55 0 86 0;
#X connect 56 0 86 0;
#X connect 57 0 97 0;
#X connect 59 0 61 0;
#X connect 59 1 60 0;
#X connect 59 1 75 0;
#X connect 60 0 87 0;
#X connect 61 0 87 0;
#X connect 62 0 98 0;
#X connect 64 0 8 0;
#X connect 65 0 13 0;
#X connect 66 0 18 0;
#X connect 67 0 23 0;
#X connect 68 0 28 0;
#X connect 69 0 33 0;
#X connect 70 0 38 0;
#X connect 71 0 43 0;
#X connect 72 0 48 0;
#X connect 73 0 53 0;
#X connect 74 0 58 0;
#X connect 75 0 63 0;
#X connect 88 0 4 0;
#X connect 89 0 9 0;
#X connect 90 0 14 0;
#X connect 91 0 24 0;
#X connect 92 0 29 0;
#X connect 93 0 34 0;
#X connect 94 0 39 0;
#X connect 95 0 44 0;
#X connect 96 0 49 0;
#X connect 97 0 54 0;
#X connect 98 0 59 0;
#X connect 99 0 19 0;
#X restore 297 132 pd colorkeys36;
#X connect 0 0 7 0;
#X connect 1 0 7 0;
#X connect 2 0 7 0;
#X connect 3 0 7 0;
#X connect 4 0 7 0;
#X connect 5 0 7 0;
#X connect 6 0 0 0;
#X connect 6 0 1 0;
#X connect 6 0 2 0;
#X connect 6 0 8 0;
#X connect 6 0 3 0;
#X connect 6 0 4 0;
#X connect 6 0 5 0;
#X connect 8 0 7 0;
#X restore 43 406 pd colorkeys;
#X obj 59 374 - 0;
#X obj 73 315 * 12;
#X obj 74 338 + 12;
#X obj 77 288 r \$0-root_;
#X connect 0 0 101 0;
#X connect 0 1 101 1;
#X connect 1 0 94 0;
#X connect 91 0 97 0;
#X connect 92 0 100 0;
#X connect 93 0 92 0;
#X connect 97 0 102 0;
#X connect 98 0 99 0;
#X connect 99 0 100 1;
#X connect 99 0 103 0;
#X connect 100 0 0 0;
#X connect 100 0 95 0;
#X connect 100 0 96 0;
#X connect 101 0 1 0;
#X connect 104 0 98 0;
#X connect 105 0 96 0;
#X connect 105 0 95 0;
#X connect 105 0 107 0;
#X connect 107 0 106 0;
#X connect 108 0 109 0;
#X connect 109 0 107 1;
#X connect 110 0 108 0;
#X coords 0 -1 1 1 905 75 2 100 100;
