#N canvas 53 51 794 397 10;
#N canvas 401 228 450 300 teclado_asdf 0;
#X obj 51 22 key;
#X obj 50 194 outlet;
#X obj 96 194 outlet;
#X obj 142 194 outlet;
#X obj 188 194 outlet;
#X obj 234 194 outlet;
#X obj 280 194 outlet;
#X obj 326 194 outlet;
#X obj 372 194 outlet;
#X obj 4 194 outlet;
#X floatatom 67 50 5 0 0 0 - - -;
#X obj 59 96 select 97 115 100 102 103 104 106 107 108;
#X connect 0 0 10 0;
#X connect 0 0 11 0;
#X connect 11 0 9 0;
#X connect 11 1 1 0;
#X connect 11 2 2 0;
#X connect 11 3 3 0;
#X connect 11 4 4 0;
#X connect 11 5 5 0;
#X connect 11 6 6 0;
#X connect 11 7 7 0;
#X connect 11 8 8 0;
#X restore 62 135 pd teclado_asdf;
#X obj 34 163 bng 15 250 50 0 empty empty empty 0 -6 0 8 -262144 -1
-1;
#X obj 54 163 bng 15 250 50 0 empty empty empty 0 -6 0 8 -262144 -1
-1;
#X obj 72 163 bng 15 250 50 0 empty empty empty 0 -6 0 8 -262144 -1
-1;
#X obj 92 163 bng 15 250 50 0 empty empty empty 0 -6 0 8 -262144 -1
-1;
#X obj 110 163 bng 15 250 50 0 empty empty empty 0 -6 0 8 -262144 -1
-1;
#X obj 130 163 bng 15 250 50 0 empty empty empty 0 -6 0 8 -262144 -1
-1;
#X obj 148 163 bng 15 250 50 0 empty empty empty 0 -6 0 8 -262144 -1
-1;
#X obj 168 163 bng 15 250 50 0 empty empty empty 0 -6 0 8 -262144 -1
-1;
#X obj 188 163 bng 15 250 50 0 empty empty empty 0 -6 0 8 -262144 -1
-1;
#X obj 32 229 bng 15 250 50 0 empty empty empty 0 -6 0 8 -262144 -1
-1;
#X obj 52 229 bng 15 250 50 0 empty empty empty 0 -6 0 8 -262144 -1
-1;
#X obj 70 229 bng 15 250 50 0 empty empty empty 0 -6 0 8 -262144 -1
-1;
#X obj 90 229 bng 15 250 50 0 empty empty empty 0 -6 0 8 -262144 -1
-1;
#X obj 108 229 bng 15 250 50 0 empty empty empty 0 -6 0 8 -262144 -1
-1;
#X obj 128 229 bng 15 250 50 0 empty empty empty 0 -6 0 8 -262144 -1
-1;
#X obj 146 229 bng 15 250 50 0 empty empty empty 0 -6 0 8 -262144 -1
-1;
#X obj 166 229 bng 15 250 50 0 empty empty empty 0 -6 0 8 -262144 -1
-1;
#X obj 186 229 bng 15 250 50 0 empty empty empty 0 -6 0 8 -262144 -1
-1;
#N canvas 401 228 450 300 teclado_zxcv 0;
#X obj 51 22 key;
#X obj 50 194 outlet;
#X obj 96 194 outlet;
#X obj 142 194 outlet;
#X obj 188 194 outlet;
#X obj 234 194 outlet;
#X obj 280 194 outlet;
#X obj 326 194 outlet;
#X obj 372 194 outlet;
#X obj 4 194 outlet;
#X floatatom 67 50 5 0 0 0 - - -;
#X obj 59 96 select 122 120 99 118 98 110 109 44 46;
#X connect 0 0 10 0;
#X connect 0 0 11 0;
#X connect 11 0 9 0;
#X connect 11 1 1 0;
#X connect 11 2 2 0;
#X connect 11 3 3 0;
#X connect 11 4 4 0;
#X connect 11 5 5 0;
#X connect 11 6 6 0;
#X connect 11 7 7 0;
#X connect 11 8 8 0;
#X restore 70 201 pd teclado_zxcv;
#X obj 30 105 bng 15 250 50 0 empty empty empty 0 -6 0 8 -262144 -1
-1;
#X obj 50 105 bng 15 250 50 0 empty empty empty 0 -6 0 8 -262144 -1
-1;
#X obj 68 105 bng 15 250 50 0 empty empty empty 0 -6 0 8 -262144 -1
-1;
#X obj 88 105 bng 15 250 50 0 empty empty empty 0 -6 0 8 -262144 -1
-1;
#X obj 106 105 bng 15 250 50 0 empty empty empty 0 -6 0 8 -262144 -1
-1;
#X obj 126 105 bng 15 250 50 0 empty empty empty 0 -6 0 8 -262144 -1
-1;
#X obj 144 105 bng 15 250 50 0 empty empty empty 0 -6 0 8 -262144 -1
-1;
#X obj 164 105 bng 15 250 50 0 empty empty empty 0 -6 0 8 -262144 -1
-1;
#X obj 184 105 bng 15 250 50 0 empty empty empty 0 -6 0 8 -262144 -1
-1;
#N canvas 401 228 450 300 teclado_qwer 0;
#X obj 51 22 key;
#X obj 50 194 outlet;
#X obj 96 194 outlet;
#X obj 142 194 outlet;
#X obj 188 194 outlet;
#X obj 234 194 outlet;
#X obj 280 194 outlet;
#X obj 326 194 outlet;
#X obj 372 194 outlet;
#X obj 4 194 outlet;
#X floatatom 67 50 5 0 0 0 - - -;
#X obj 59 96 select 113 119 101 114 116 121 117 105 111 112;
#X obj 418 194 outlet;
#X connect 0 0 10 0;
#X connect 0 0 11 0;
#X connect 11 0 9 0;
#X connect 11 1 1 0;
#X connect 11 2 2 0;
#X connect 11 3 3 0;
#X connect 11 4 4 0;
#X connect 11 5 5 0;
#X connect 11 6 6 0;
#X connect 11 7 7 0;
#X connect 11 8 8 0;
#X connect 11 9 12 0;
#X restore 58 73 pd teclado_qwer;
#X obj 204 105 bng 15 250 50 0 empty empty empty 0 -6 0 8 -262144 -1
-1;
#X connect 0 0 1 0;
#X connect 0 1 2 0;
#X connect 0 2 3 0;
#X connect 0 3 4 0;
#X connect 0 4 5 0;
#X connect 0 5 6 0;
#X connect 0 6 7 0;
#X connect 0 7 8 0;
#X connect 0 8 9 0;
#X connect 19 0 10 0;
#X connect 19 1 11 0;
#X connect 19 2 12 0;
#X connect 19 3 13 0;
#X connect 19 4 14 0;
#X connect 19 5 15 0;
#X connect 19 6 16 0;
#X connect 19 7 17 0;
#X connect 19 8 18 0;
#X connect 29 0 20 0;
#X connect 29 1 21 0;
#X connect 29 2 22 0;
#X connect 29 3 23 0;
#X connect 29 4 24 0;
#X connect 29 5 25 0;
#X connect 29 6 26 0;
#X connect 29 7 27 0;
#X connect 29 8 28 0;
#X connect 29 9 30 0;
