#N canvas 156 77 869 727 10;
#X declare -lib aubio;
#X obj 590 26 declare -lib aubio;
#X obj 556 421 bng 20 250 50 0 empty empty analyse_sample 25 7 0 10
-262144 -1 -1;
#X obj 109 250 tabread attacks;
#X obj 109 413 * 44.1;
#X floatatom 233 124 5 0 0 0 - - -;
#X obj 109 178 t a a;
#X obj 109 441 pack 0 0;
#X obj 253 270 tabread attacks;
#X obj 253 247 + 1;
#X obj 109 80 hradio 15 1 0 12 empty empty slices 0 -8 0 10 -262144
-1 -1 7;
#X msg 109 484 1 samp10 1 \$1 \$2;
#X floatatom 306 343 5 0 0 3 next_att - -;
#X obj 109 375 t a a;
#X floatatom 127 336 5 0 0 3 cur_att - -;
#X obj 160 400 expr $f2 - $f1;
#X floatatom 133 104 5 0 0 0 - - -;
#X obj 396 41 tgl 15 0 empty empty loop 17 7 0 10 -262144 -1 -1 0 1
;
#X obj 359 128 random 10;
#X obj 252 439 t b a;
#X obj 324 21 bng 32 250 50 0 empty empty play_slices_randomly 35 7
0 10 -24198 -1 -1;
#X obj 109 515 samp10-start~;
#X obj 554 392 table samp10;
#X obj 554 322 openpanel;
#X obj 554 370 soundfiler;
#X msg 554 345 read -resize \$1 samp10;
#X obj 554 296 bng 20 250 50 0 empty empty load_sample 25 7 0 10 -262144
-1 -1;
#X obj 417 99 r \$0-numslices;
#N canvas 0 0 611 798 analyse-sample 0;
#X obj 171 241 aubioonset~;
#X obj 141 290 timer;
#X obj 141 498 table attacks 100;
#X msg 279 151 const 0;
#X obj 279 179 s attacks;
#X msg 289 387 0;
#X obj 273 413 f 0;
#X obj 307 412 + 1;
#X obj 141 471 tabwrite attacks;
#X obj 141 317 t a b;
#X floatatom 289 441 5 0 0 0 - - -;
#X msg 58 157 1 samp10 1;
#X obj 58 181 play-samp-start~;
#X obj 122 106 t b b b b;
#X obj 57 641 dac~;
#X obj 287 469 s \$0-numslices;
#X obj 171 268 b;
#X text 293 367 count onsets;
#X obj 122 81 inlet;
#X obj 328 612 line;
#X obj 385 568 hsl 128 15 0 100 0 0 empty empty vol -2 -8 0 10 -262144
-1 -1 0 1;
#X obj 328 591 pack 0 10;
#X obj 328 568 dbtorms;
#X obj 328 540 inlet;
#X obj 58 606 *~ 0.5;
#X obj 273 500 outlet;
#X obj 243 84 inlet;
#X connect 0 0 16 0;
#X connect 1 0 9 0;
#X connect 3 0 4 0;
#X connect 5 0 6 1;
#X connect 6 0 7 0;
#X connect 6 0 8 1;
#X connect 6 0 10 0;
#X connect 6 0 15 0;
#X connect 6 0 25 0;
#X connect 7 0 6 1;
#X connect 9 0 8 0;
#X connect 9 1 6 0;
#X connect 11 0 12 0;
#X connect 12 0 0 0;
#X connect 12 0 24 0;
#X connect 13 0 11 0;
#X connect 13 1 1 0;
#X connect 13 2 5 0;
#X connect 13 3 3 0;
#X connect 16 0 1 1;
#X connect 18 0 13 0;
#X connect 19 0 24 1;
#X connect 20 0 22 0;
#X connect 21 0 19 0;
#X connect 22 0 21 0;
#X connect 23 0 22 0;
#X connect 24 0 14 0;
#X connect 24 0 14 1;
#X connect 26 0 0 1;
#X restore 556 496 pd analyse-sample;
#X obj 110 628 *~ 1;
#X obj 133 601 line;
#X obj 133 580 pack 0 10;
#X obj 133 557 dbtorms;
#X obj 110 649 dac~;
#X floatatom 173 426 5 0 0 3 duration - -;
#X obj 359 65 spigot;
#X text 516 297 1:;
#X text 521 424 2:;
#X floatatom 437 130 5 0 0 3 num_slices - -;
#X obj 690 499 hsl 64 15 0 100 0 0 empty empty vol -2 -8 0 10 -262144
-1 -1 6300 1;
#X obj 193 558 hsl 128 15 0 100 0 0 empty empty vol -2 -8 0 10 -262144
-1 -1 12100 1;
#X floatatom 556 519 5 0 0 3 num_slices - -;
#X obj 252 515 del 200;
#X obj 616 459 hsl 100 15 0 10 0 0 empty empty sensitivity -2 -8 0
10 -262144 -1 -1 2000 1;
#X floatatom 625 476 5 0 0 0 - - -;
#X obj 296 470 spigot 1;
#X obj 347 448 tgl 15 0 empty empty empty 17 7 0 10 -262144 -1 -1 1
1;
#X floatatom 320 493 5 0 0 0 - - -;
#X obj 253 318 + 0;
#X obj 269 291 r \$0-del;
#X obj 109 312 + 0;
#X obj 125 285 r \$0-del;
#X obj 548 165 cnv 15 100 60 empty empty empty 20 12 0 14 -233017 -66577
0;
#X floatatom 570 181 5 0 0 2 delay - -;
#X obj 570 203 s \$0-del;
#X text 435 240 Use the delay to correct aubio's onset detection offset.
Values around 57 seem to be quite successful.;
#X connect 1 0 27 0;
#X connect 2 0 49 0;
#X connect 3 0 6 0;
#X connect 4 0 5 0;
#X connect 5 0 2 0;
#X connect 5 1 8 0;
#X connect 6 0 10 0;
#X connect 7 0 47 0;
#X connect 8 0 7 0;
#X connect 9 0 5 0;
#X connect 9 0 15 0;
#X connect 10 0 20 0;
#X connect 12 0 3 0;
#X connect 12 1 14 0;
#X connect 14 0 6 1;
#X connect 14 0 18 0;
#X connect 14 0 33 0;
#X connect 16 0 34 1;
#X connect 17 0 5 0;
#X connect 18 0 41 0;
#X connect 18 1 44 0;
#X connect 19 0 17 0;
#X connect 20 0 28 0;
#X connect 22 0 24 0;
#X connect 24 0 23 0;
#X connect 25 0 22 0;
#X connect 26 0 17 1;
#X connect 26 0 37 0;
#X connect 27 0 40 0;
#X connect 28 0 32 0;
#X connect 28 0 32 1;
#X connect 29 0 28 1;
#X connect 30 0 29 0;
#X connect 31 0 30 0;
#X connect 34 0 17 0;
#X connect 38 0 27 2;
#X connect 39 0 31 0;
#X connect 41 0 34 0;
#X connect 42 0 27 1;
#X connect 42 0 43 0;
#X connect 44 0 46 0;
#X connect 45 0 44 1;
#X connect 46 0 41 1;
#X connect 47 0 11 0;
#X connect 47 0 14 1;
#X connect 48 0 47 1;
#X connect 49 0 12 0;
#X connect 49 0 13 0;
#X connect 50 0 49 1;
#X connect 52 0 53 0;
