#N canvas 626 13 595 446 12;
#X floatatom 225 110 0 0 0 0 - - -;
#X floatatom 184 109 0 0 0 0 - - -;
#X msg 184 56 5 6;
#X floatatom 132 108 0 0 0 0 - - -;
#X floatatom 64 105 0 0 0 0 - - -;
#X msg 64 55 5;
#X obj 64 80 + 9;
#X obj 132 83 +;
#X obj 184 84 unpack;
#X msg 288 55 5;
#X obj 288 107 print;
#X obj 288 81 pack 34 78;
#X msg 132 55 5 6;
#X floatatom 195 335 0 0 0 0 - - -;
#X obj 195 310 +;
#X msg 195 261 1.2 3.4;
#X msg 205 284 5 6;
#X text 329 409 updated for Pd release 0.33;
#X text 34 149 Se voce manda uma lista para um objeto com mais de uma
entrada \, os itens da lista sao espalhados pela entrada \, como podemos
ver no exemplo 5+6 acima.;
#X text 30 11 A maioria das mensagens do Pd sao apenas numeros ou pequenas
listas de numeros:;
#X text 36 206 Ao contrario do Max \, no Pd todos os numeros sao ponto
flutuante. Numeros cujos valores sao inteiros \, serao exibidos sem
pontos decimais.;
#X text 31 363 Para mais informacoes sobre mensagens \, clique com
o botao da direita em qualquer caixa de mensagem para obter ajuda.
;
#X connect 2 0 8 0;
#X connect 5 0 6 0;
#X connect 6 0 4 0;
#X connect 7 0 3 0;
#X connect 8 0 1 0;
#X connect 8 1 0 0;
#X connect 9 0 11 0;
#X connect 11 0 10 0;
#X connect 12 0 7 0;
#X connect 14 0 13 0;
#X connect 15 0 14 0;
#X connect 16 0 14 0;
