#N canvas 479 157 699 514 12;
#X floatatom 106 441 0 0 0 0 - - -;
#X msg 52 361 bang;
#X obj 106 416 + 1;
#X obj 450 270 + 1;
#X floatatom 152 197 0 0 0 0 - - -;
#X floatatom 108 245 0 0 0 0 - - -;
#X msg 108 196 bang;
#X floatatom 169 107 0 0 0 0 - - -;
#X msg 112 58 bang;
#X obj 169 82 + 1;
#X obj 52 390 metro 500;
#X msg 98 361 stop;
#X obj 112 83 float;
#X obj 108 221 float;
#X obj 52 416 float;
#X text 384 462 updated for Pd version 0.34;
#X text 24 302 O valor incrementado e' armazenado para que o proximo
"bang" mande-o para fora.;
#X text 143 390 <-- novo objeto: metronomo. O "500" significa "a cada
500 milisegundos" \, ou seja \, duas vezes por segundo. O metronomo
manda um "bang" no tempo indicado. receber um "bang" liga o metronomo
\, receber um "stop" o interrompe.;
#X text 31 21 Aqui esta um exemplo de um simples contador. Clique repetidamente
na mensagem "bang" para ve-lo funcionando:;
#X text 30 128 A caixa "float" e' um elemento que armazena um valor
de ponto flutuante. A entrada fria (da direita) armazena numeros. Enviando
a mensagem "bang" para a entrada quente \, voce recupera o numero armazenado.
;
#X text 487 269;
#X text 23 269 A saida do objeto float acima e' conectada via a sua
propria entrada fria.;
#X text 27 339 Abaixo \, um contador temporizado. Aperte "bang" para
iniciar.;
#X connect 1 0 10 0;
#X connect 2 0 0 0;
#X connect 2 0 14 1;
#X connect 4 0 13 1;
#X connect 6 0 13 0;
#X connect 8 0 12 0;
#X connect 9 0 7 0;
#X connect 9 0 12 1;
#X connect 10 0 14 0;
#X connect 11 0 10 0;
#X connect 11 0 10 0;
#X connect 12 0 9 0;
#X connect 13 0 5 0;
#X connect 14 0 2 0;
