#N canvas 626 57 663 491 12;
#X floatatom 147 177 0 0 0 0 - - -;
#X obj 147 151 + 1;
#X msg 147 47 bang;
#X obj 147 99 metro 500;
#X msg 56 105 stop;
#X obj 147 125 float;
#X obj 147 73 trigger bang bang;
#X msg 261 105 0;
#X obj 56 79 select 10;
#X floatatom 85 289 0 0 0 0 - - -;
#X obj 85 315 >= 0;
#X obj 85 341 select 0 1;
#X obj 85 393 float;
#X floatatom 139 420 0 0 0 0 - - -;
#X msg 119 367 bang;
#X obj 139 394 + 1;
#X msg 85 367 -1;
#X text 392 452 updated for Pd version 0.34;
#X text 32 11 Aqui esta um contador que conta de 1 ate 10:;
#X text 131 314 <-- somos 0 ou positivos? (1 se verdadeiro \, 0 se
falso);
#X text 180 340 <-- manda bang para a primeira ou segunda saida;
#X text 168 363 <-- como resultado \, limpa ou incrementa o contador
;
#X text 184 46 <--- clique aqui para iniciar;
#X text 312 69 a inicializacao e' realizada em dois passos: o primeiro
e' alterar o valor de float para zero antes de iniciar o metronomo
;
#X text 8 126 parada condicional do metronomo;
#X text 32 200 Estamos usando um novo objeto \, "select" \, que solta
um bang quando recebe um valor que coincida com o seu. Ele e' util
para fazer computacoes condicionais \, como este exemplo que conta
enquanto sua entrada for 0 ou positiva \, mas limpa quando for negativa:
;
#X connect 1 0 0 0;
#X connect 1 0 5 1;
#X connect 1 0 8 0;
#X connect 2 0 6 0;
#X connect 3 0 5 0;
#X connect 4 0 3 0;
#X connect 5 0 1 0;
#X connect 6 0 3 0;
#X connect 6 1 7 0;
#X connect 7 0 5 1;
#X connect 8 0 4 0;
#X connect 9 0 10 0;
#X connect 10 0 11 0;
#X connect 11 0 16 0;
#X connect 11 1 14 0;
#X connect 12 0 15 0;
#X connect 14 0 12 0;
#X connect 15 0 12 1;
#X connect 15 0 13 0;
#X connect 16 0 12 0;
