#N canvas 377 177 728 478 12;
#X obj 64 117 print;
#X msg 64 59 bang;
#X msg 110 61 stop;
#X obj 64 89 delay 2000;
#X msg 76 190 bang;
#X obj 76 237 timer;
#X obj 106 212 delay 123.45;
#X floatatom 76 262 0 0 0 0 - - -;
#X obj 74 385 pipe 2000;
#X floatatom 74 358 0 0 0 0 - - -;
#X floatatom 74 411 0 0 0 0 - - -;
#X text 442 440 updated for Pd version 0.34;
#X text 162 42 O "delay" agenda um evento para um tempo futuro expressado
em milisegundos. Diferente do Max \, os valores de tempo nao precisam
ser inteiros. Se um "delay" esta agendado e voce "bang"ea-lo novamente
\, ele sera reagendado (e a saida agendada anteriormente sera cancelada).
A entrada da direita e' usada para mudar o tempo sem agendar nada.
;
#X text 35 156 O "timer" mostrado abaixo \, mede o tempo passado entre
suas entradas da esquerda e da direita:;
#X text 33 13 Alem do metronomo \, existem tres objetos para lidar
com tempo:;
#X text 29 287 Note que todos os calculos de tempo sao idealizados
\; Eles nao mostram os efeitos do tempo de computacao ou lentidao do
sistema operacional. Dessa maneira voce pode escrever algoritmos deterministicos
que lidem com o tempo.;
#X text 166 359 O objeto "pipe" e' como o delay \, porem aloca memoria
dinamicamente para agendar qualquer numero de eventos que ocorram.
Os eventos podem ser qualquer colecao de dados (como sempre \, voce
pode consultar a janela de ajuda para mais detalhes).;
#X connect 1 0 3 0;
#X connect 2 0 3 0;
#X connect 3 0 0 0;
#X connect 4 0 5 0;
#X connect 4 0 6 0;
#X connect 5 0 7 0;
#X connect 6 0 5 1;
#X connect 8 0 10 0;
#X connect 9 0 8 0;
