#N canvas 399 112 640 559 12;
#X msg 64 51 1;
#X obj 89 150 + 1;
#X obj 209 187 print x1;
#X obj 64 209 print x3;
#X obj 114 122 print x2;
#X obj 209 100 + 1;
#X obj 209 129 + 1;
#X obj 209 158 + 1;
#X obj 64 80 t f f f f;
#X obj 89 179 print x2;
#X obj 115 334 + 1;
#X obj 76 333 f;
#X floatatom 76 365 0 0 0 0 - - -;
#X text 377 520 updated for Pd version 0.34;
#X obj 114 483 + 1;
#X obj 75 482 f;
#X floatatom 75 514 0 0 0 0 - - -;
#X text 34 13 No PD \, a passagem de mensagens vai ate o fundo primeiro
\, de forma que neste patch:;
#X text 104 51 <-- clique aqui;
#X text 17 243 ... voce vai receber o x1 primeiro \, mesmo que x2 e
x3 parecem estar mais proximos da fonte dos dados. Isso significa que
voce nao deve fazer isso:;
#X text 116 304 <-- talvez voce nao deva clicar aqui;
#X msg 75 454 bang;
#X msg 76 304 bang;
#X text 115 453 <-- melhor;
#X text 35 392 ... porque aqui a "profundidade" e' infinita. Os contadores
que voce viu sempre tem a corrente de mensagem terminadas em algum
momento numa entrada "fria":;
#X connect 0 0 8 0;
#X connect 1 0 9 0;
#X connect 5 0 6 0;
#X connect 6 0 7 0;
#X connect 7 0 2 0;
#X connect 8 0 3 0;
#X connect 8 1 1 0;
#X connect 8 2 4 0;
#X connect 8 3 5 0;
#X connect 10 0 11 0;
#X connect 11 0 12 0;
#X connect 11 0 10 0;
#X connect 14 0 15 1;
#X connect 15 0 16 0;
#X connect 15 0 14 0;
#X connect 21 0 15 0;
#X connect 22 0 11 0;
