#N canvas 378 177 679 543 12;
#X obj 211 341 print;
#X msg 52 89 3 \, 4 \, 5;
#X msg 44 62 3 4 5;
#X msg 57 313 3 \$1 5;
#X floatatom 57 286 4 0 0 0 - - -;
#X msg 211 315 \$2 \$1 5;
#X msg 211 290 45 67;
#X msg 289 290 45 67;
#X floatatom 28 425 4 0 0 0 - - -;
#X floatatom 76 425 4 0 0 0 - - -;
#X floatatom 332 179 4 0 0 0 - - -;
#X floatatom 186 182 4 0 0 0 - - -;
#X obj 332 155 receive 9bis;
#X obj 44 178 print;
#X text 406 511 updated for Pd version 0.34;
#X obj 57 339 print;
#X obj 28 507 print;
#X obj 28 455 pack 0 0 0;
#X floatatom 124 425 4 0 0 0 - - -;
#X msg 28 481 cis \$1 \, boom \$2 \, bah \$3;
#X text 109 58 <-- uma unica mensagem \, a lista "3 4 5";
#X text 126 89 <-- tres mensagens separadas;
#X text 167 114 <-- tres mensagens separadas com tres destinos diferentes
;
#X msg 65 116 3 \; numero9 5 \; 9bis 45;
#X obj 186 155 receive numero9;
#X text 14 204 Voce pode usar \$1 \, \$2 \, etc como variaveis em mensagens.
Mande uma lista para a caixa de mensagem cujos elementos serao colocaods
nessas variaveis. Um numero e' uma lista de um elemento:;
#X text 51 265 uma variavel;
#X text 216 263 duas variaveis;
#X msg 289 315 \; numero9 \$1 \; 9bis \$2;
#X text 0 367 Mas para realmente explorar as possibilidades de usar
multiplas variaveis \, voce vai precisar do objeto "pack" para receber
dois ou mais valores na mesma mensagem.;
#X text 124 455 o argumento de criacao do "pack" define o numero de
entradas;
#X text 26 5 Alem de usar ponto-e-virgula para separar as mensagens
\, pode-se usar virgulas \, que continuam um fluxo de mensagens para
o mesmo destino. Entao:;
#X connect 1 0 13 0;
#X connect 2 0 13 0;
#X connect 3 0 15 0;
#X connect 4 0 3 0;
#X connect 5 0 0 0;
#X connect 6 0 5 0;
#X connect 7 0 28 0;
#X connect 8 0 17 0;
#X connect 9 0 17 1;
#X connect 12 0 10 0;
#X connect 17 0 19 0;
#X connect 18 0 17 2;
#X connect 19 0 16 0;
#X connect 23 0 13 0;
#X connect 24 0 11 0;
