#N canvas 233 212 610 301 12;
#X floatatom 38 223 0 0 0 0 - - -;
#X floatatom 191 221 0 0 0 0 - - -;
#X text 356 264 updated for Pd version 0.34;
#X floatatom 110 225 0 0 0 0 - - -;
#X floatatom 264 220 0 0 0 0 - - -;
#X floatatom 29 59 0 0 0 0 - - -;
#X floatatom 124 58 0 0 0 0 - - -;
#X floatatom 167 60 0 0 0 0 - - -;
#X floatatom 264 58 0 0 0 0 - - -;
#X text 32 14 Voce pode usar os parametros $ em abstracoes para conseguir
sends e receives locais.;
#X text 26 112 Abra ambas as copias para saber o que esta acontecendo...
;
#X obj 29 84 dollarsign um;
#X obj 38 196 r um-a;
#X obj 110 197 r um-b;
#X obj 191 194 r dois-a;
#X obj 264 191 r dois-b;
#X obj 166 86 dollarsign dois;
#X connect 5 0 11 0;
#X connect 6 0 11 1;
#X connect 7 0 16 0;
#X connect 8 0 16 1;
#X connect 12 0 0 0;
#X connect 13 0 3 0;
#X connect 14 0 1 0;
#X connect 15 0 4 0;
