#N canvas 0 24 1012 718 12;
#N canvas 0 0 450 300 graph1 0;
#X array vetor99 100 float 0;
#X coords 0 1 99 -1 400 300 1;
#X restore 614 49 graph;
#X floatatom 179 292 0 0 0 0 - - -;
#X floatatom 21 260 0 0 0 0 - - -;
#X obj 21 294 / 100;
#X obj 104 714 tabread;
#X obj 255 714 tabwrite;
#X obj 602 654 tabread4~;
#X obj 602 679 tabwrite~;
#X obj 695 654 tabreceive~;
#X text 593 601 ...and audio signals:;
#X obj 695 630 tabsend~;
#X obj 266 537 soundfiler;
#X obj 812 631 tabosc4~;
#X text 735 698 last updated for release 0.34;
#X obj 175 715 tabread4;
#X obj 602 628 tabread~;
#X obj 26 581 bng 15 250 50 0 empty empty empty 0 -6 0 8 -262144 -1
-1;
#X obj 26 600 savepanel;
#X obj 270 577 bng 15 250 50 0 empty empty empty 0 -6 0 8 -262144 -1
-1;
#X obj 270 596 savepanel;
#X obj 270 642 soundfiler;
#X text 205 17 VETORES (arrays);
#X text 19 47 Vetores no Pd fornecem uma maneira unificada de se lidar
com listas de numeros \, usando-as tanto como audio quanto como "controle".
Para fazer um \, escolha "array" no menu "Put". Janelas aparecerao
para ajuda-lo a escolher o nome \, numero de elementos e outras coisas.
;
#X text 19 134 Voce pode mudar o tamanho do vetor usando a mensagem
"resize" como mostrado abaixo. Vetores moram em graficos (graphs) e
graficos podem ter mais de um vetor--Porem graficos contendo mais de
um vetor nao sabem como se reajustar automaticamente quando os vetores
sao redimensionados.;
#X text 18 235 Voce pode mandar mensagens para um objeto vetor:;
#X text 64 262 <-- colocar o mesmo valor constante em todo o vetor
;
#X text 221 291 redimensionar;
#X text 347 292 imprimir o tamanho;
#X msg 21 324 \; vetor99 const \$1;
#X msg 179 325 \; vetor99 resize \$1;
#X msg 342 325 \; vetor99 print;
#X text 23 378 Sintese de Fourier (redimensiona o vetor);
#X text 375 378 normaliza para 1 ou outro tamanho;
#X msg 19 403 \; vetor99 sinesum 64 0.2 0.2 0.2 0.2;
#X msg 19 444 \; vetor99 cosinesum 64 0.2 0.2 0.2 0.2;
#X msg 381 400 \; vetor99 normalize;
#X msg 382 442 \; vetor99 normalize 0.5;
#X text 22 487 le um arquivo texto;
#X msg 15 505 \; vetor99 read 15.file.txt;
#X text 257 484 le um arquivo de som;
#X msg 267 511 read -resize ../sound/voice2.wav vetor99;
#X text 22 558 grava um arquivo texto;
#X msg 26 623 \; vetor99 write \$1;
#X text 270 559 grava um arquivo de som em formato WAV;
#X msg 268 619 write \$1 vetor99;
#X text 20 665 Existem objetos para ler e gravar o conteudo dos vetores
via mensagens de controle:;
#X connect 1 0 29 0;
#X connect 2 0 3 0;
#X connect 3 0 28 0;
#X connect 16 0 17 0;
#X connect 17 0 42 0;
#X connect 18 0 19 0;
#X connect 19 0 44 0;
#X connect 40 0 11 0;
#X connect 44 0 20 0;
