#N canvas 19 83 834 605 12;
#N canvas 0 0 450 300 graph1 0;
#X array vetor99 5 float 0;
#X array vetor98 7 float 0;
#X coords 0 -1 5 1 200 150 1;
#X restore 569 154 graph;
#X text 556 575 last updated for release 0.33;
#X text 136 16 MAIS SOBRE VETORES;
#X text 13 32 Vetores tem metodos para alterar seus valores explicitamente
\; Para mudar seu retangulo de contorno \, para renomea-los (mas se
voce tiver dois com o mesmo nome \, isso nao vai necessariamente funcionar
da forma que voce imagina) e para colocar marcas. Para alterar valores
por mensagem mande uma lista cujo primeiro elemento da o indice a iniciar
a alteracao. O segundo exemplo muda dois valores comecando no indice
3 O primeiro indice e' o zero.;
#X msg 17 167 \; vetor98 0 -1 1 -1 1 -1 1 -1 1 -1;
#X msg 319 167 \; vetor99 3 -0.5 0.5;
#X text 17 207 renomeando um vetor:;
#X msg 18 228 \; vetor99 rename nosklo;
#X msg 221 229 \; nosklo rename vetor99;
#X msg 18 296 \; vetor99 bounds 0 -2 10 2;
#X msg 245 294 \; vetor99 bounds 0 -1 5 1;
#X text 16 276 mudando o retangulo de limite:;
#X msg 19 395 \; vetor99 xticks 0 1 1;
#X msg 212 394 \; vetor99 yticks 0 0.1 5;
#X text 12 436 adicionando rotulos. De um valor a y junto com uma serie
de valores x \, ou vice-versa.;
#X msg 14 472 \; vetor99 xlabel -1.1 0 1 2 3 4 5;
#X msg 305 472 \; vetor99 ylabel 5.15 -1 0 1;
#X text 16 342 adicionando escalas x e y. Fale um ponto onde deve ter
um traco \, o intervalo entre tracos \, e o numero de tracos para cada
traco grande.;
#X text 14 516 Voce pode tambem mudar a faixa e tamanho x e y no dialogo
de propriedades do vetor. Note que as informacoes de tamanho e faixas
e' salvo \, mas escalas \, rotulos \, e os dados do vetor sao perdidos
entre sessoes do Pd.;
