#N canvas 47 52 726 453 12;
#X text 460 422 updated for Pd version 0.26;
#X obj 103 121 random 5;
#X msg 103 95 bang;
#X floatatom 103 147 0 0 0 0 - - -;
#X text 137 147 outputs from 0 to 4;
#X msg 337 87 bang;
#X floatatom 336 165 0 0 0 0 - - -;
#X obj 337 113 random 1000;
#X obj 336 141 / 1000;
#X text 402 166 from 0 to 0.999;
#X obj 71 324 random 5;
#X msg 162 255 bang;
#X floatatom 71 350 0 0 0 0 - - -;
#X obj 71 244 loadbang;
#X obj 71 274 timer;
#X msg 71 299 seed \$1;
#X msg 163 299 bang;
#X text 35 28 Use o objeto "random" para fazer numeros inteiros pseudo-randomicos.
Para conseguir numeros continuamente variantes \, pegue um numero randomico
em uma grande faixa \, e o divida.;
#X text 34 190 Se voce nao quer o mesmo comportamento todas as vezes
que voce rodar o patch \, use o tempo desde a carga do arquivo ate
o primeiro clique como semente dos dados.;
#X text 202 255 <-- clique para definir a semente;
#X text 204 300 <-- clique para pegar numeros randomicos;
#X text 25 381 Se voce der a dois "random"s a mesma semente \, eles
darao a mesma sequencia. Se voce nunca der semente \, voce vai ter
sequencias diferentes de cada um.;
#X connect 1 0 3 0;
#X connect 2 0 1 0;
#X connect 5 0 7 0;
#X connect 7 0 8 0;
#X connect 8 0 6 0;
#X connect 10 0 12 0;
#X connect 11 0 14 1;
#X connect 13 0 14 0;
#X connect 14 0 15 0;
#X connect 15 0 10 0;
#X connect 16 0 10 0;
