#N canvas 161 46 664 445 12;
#X msg 103 95 bang;
#X text 389 414 updated for Pd version 0.35;
#X obj 103 121 random 100;
#X obj 102 174 bng 20 250 50 0 empty empty empty 0 -6 0 8 -262144 -1
-1;
#X obj 169 174 bng 20 250 50 0 empty empty empty 0 -6 0 8 -262144 -1
-1;
#X floatatom 205 148 3 0 100 0 - - -;
#X obj 103 149 moses 80;
#X msg 106 305 bang;
#X obj 106 331 random 100;
#X obj 105 384 bng 20 250 50 0 empty empty empty 0 -6 0 8 -262144 -1
-1;
#X obj 195 387 bng 20 250 50 0 empty empty empty 0 -6 0 8 -262144 -1
-1;
#X text 155 303 <-- click to test;
#X obj 106 359 moses 10;
#X obj 196 360 moses 30;
#X obj 263 387 bng 20 250 50 0 empty empty empty 0 -6 0 8 -262144 -1
-1;
#X text 103 409 10%;
#X text 193 410 20%;
#X text 265 409 70%;
#X text 44 19 Voce pode gerar numeros randomicos balanceados a partir
de numeros distribuidos de maneira uniforme. Se voce quer duas possibilidades
com uma probabilidade variavel em cada \, faca assim:;
#X text 152 93 <-- clique para testar;
#X text 249 148 <-- mudar a probabilidade;
#X text 61 219 Isso manda um numero para a esquerda 80% das vezes \,
a nao ser que voce substitua o 80 usando a caixa de numeros. Voce pode
extender isso para permitir mais de duas instancias \, como por exemplo
isso aqui:;
#X connect 0 0 2 0;
#X connect 2 0 6 0;
#X connect 5 0 6 1;
#X connect 6 0 3 0;
#X connect 6 1 4 0;
#X connect 7 0 8 0;
#X connect 8 0 12 0;
#X connect 12 0 9 0;
#X connect 12 1 13 0;
#X connect 13 0 10 0;
#X connect 13 1 14 0;
