#N canvas 296 90 666 446 12;
#X obj 84 251 bng 15 250 50 0 empty empty empty 20 8 0 8 -262144 -1
-1;
#X obj 81 336 bng 15 250 50 0 empty empty empty 20 8 0 8 -262144 -1
-1;
#X obj 162 335 bng 15 250 50 0 empty empty empty 20 8 0 8 -262144 -1
-1;
#X obj 199 337 bng 15 250 50 0 empty empty empty 20 8 0 8 -262144 -1
-1;
#X msg 81 358 1;
#X msg 162 360 2;
#X msg 199 361 3;
#X obj 66 173 bng 20 250 50 0 empty empty empty 20 8 0 8 -262144 -1
-1;
#X obj 83 225 sel 1 2 3;
#X obj 255 253 bng 15 250 50 0 empty empty empty 20 8 0 8 -262144 -1
-1;
#X obj 252 338 bng 15 250 50 0 empty empty empty 20 8 0 8 -262144 -1
-1;
#X obj 334 340 bng 15 250 50 0 empty empty empty 20 8 0 8 -262144 -1
-1;
#X obj 373 343 bng 15 250 50 0 empty empty empty 20 8 0 8 -262144 -1
-1;
#X msg 252 361 1;
#X msg 329 366 2;
#X msg 373 367 3;
#X obj 419 254 bng 15 250 50 0 empty empty empty 20 8 0 8 -262144 -1
-1;
#X obj 419 339 bng 15 250 50 0 empty empty empty 20 8 0 8 -262144 -1
-1;
#X obj 499 338 bng 15 250 50 0 empty empty empty 20 8 0 8 -262144 -1
-1;
#X obj 538 341 bng 15 250 50 0 empty empty empty 20 8 0 8 -262144 -1
-1;
#X msg 419 362 1;
#X msg 499 363 2;
#X msg 538 364 3;
#X obj 83 199 f 1;
#X obj 84 279 random 100;
#X obj 83 308 moses 30;
#X obj 162 309 moses 60;
#X obj 255 280 random 100;
#X obj 255 310 moses 10;
#X obj 334 311 moses 60;
#X obj 419 281 random 100;
#X obj 419 310 moses 70;
#X obj 499 310 moses 80;
#X floatatom 134 188 3 0 0 0 - - -;
#X text 408 422 updated for Pd version 0.35;
#X text 37 17 Aqui esta como construir uma corrente de Markov simples
de tres valores usando "random". Cada vez que voce clicar no "passo"
a saida anterior "estado" determina qual das tres redes de numeros
aleatorios invocar \, cada uma tendo uma distribuicao de probabilidade
diferente para o proximo valor de "estado". Por exemplo se o estado
foi 3 \, o proximo estado vai ser 1 70% das vezes \, 2 10% e continuara
como 3 20% das vezes.;
#X text 236 166 resetar;
#X text 49 152 PASSO;
#X obj 105 164 r estado;
#X obj 82 386 s estado;
#X obj 253 393 s estado;
#X obj 418 395 s estado;
#X msg 236 186 \; estado 1;
#X connect 0 0 24 0;
#X connect 1 0 4 0;
#X connect 2 0 5 0;
#X connect 3 0 6 0;
#X connect 4 0 39 0;
#X connect 5 0 39 0;
#X connect 6 0 39 0;
#X connect 7 0 23 0;
#X connect 8 0 0 0;
#X connect 8 1 9 0;
#X connect 8 2 16 0;
#X connect 9 0 27 0;
#X connect 10 0 13 0;
#X connect 11 0 14 0;
#X connect 12 0 15 0;
#X connect 13 0 40 0;
#X connect 14 0 40 0;
#X connect 15 0 40 0;
#X connect 16 0 30 0;
#X connect 17 0 20 0;
#X connect 18 0 21 0;
#X connect 19 0 22 0;
#X connect 20 0 41 0;
#X connect 21 0 41 0;
#X connect 22 0 41 0;
#X connect 23 0 8 0;
#X connect 24 0 25 0;
#X connect 25 0 1 0;
#X connect 25 1 26 0;
#X connect 26 0 2 0;
#X connect 26 1 3 0;
#X connect 27 0 28 0;
#X connect 28 0 10 0;
#X connect 28 1 29 0;
#X connect 29 0 11 0;
#X connect 29 1 12 0;
#X connect 30 0 31 0;
#X connect 31 0 17 0;
#X connect 31 1 32 0;
#X connect 32 0 18 0;
#X connect 32 1 19 0;
#X connect 38 0 23 1;
#X connect 38 0 33 0;
