#N canvas 0 0 608 515 12;
#X floatatom 113 218 5 0 0 0 - - -;
#X obj 123 113 f;
#X obj 104 198 random 4;
#X obj 26 197 random 2;
#X floatatom 35 219 5 0 0 0 - - -;
#X obj 123 138 t b b f;
#X obj 26 253 sel 0 1;
#X obj 159 328 +;
#X obj 123 87 metro 100;
#X obj 123 65 tgl 15 0 empty empty empty 0 -6 0 8 -262144 -1 -1 0 1
;
#X obj 104 252 + 1;
#X floatatom 242 153 5 0 0 0 - - -;
#X obj 82 309 *;
#X msg 26 282 -1;
#X obj 242 83 moses 0;
#X obj 316 83 moses 100;
#X obj 242 107 * -1;
#X obj 407 86 * -1;
#X obj 407 111 + 200;
#X msg 60 282 1;
#X text 323 492 updated for Pd version 0.37-1;
#X text 39 9 Caminhada aleatoria;
#X text 244 21 coercao da faixa 0-100 \; Se estiver fora da faixa \,
reflete de volta.;
#X text 298 152 saida;
#X text 35 235 sinal;
#X text 113 234 magnitude;
#X text 143 64 liga/desliga;
#X text 200 320 adiciona o valor anterior ao incremento aleatorio;
#X text 23 367 Uma caminhada aleatoria e' um caso especial da cadeia
de Markov \, onde os estados sao inteiros e as transicoes adicionam
ou subtraem uma pequena quantidade do estado anterior para conseguir
um novo. Aqui o "f" tem o estado. Quando ele recebe um bang \, o estado
anterior e adiciona a um numero aleatorio de 1 a 4 com um sinal aleatorio
de 1 a -1 O novo valor e' entao forcado na faixa de 0 a 100;
#X connect 1 0 5 0;
#X connect 2 0 0 0;
#X connect 2 0 10 0;
#X connect 3 0 4 0;
#X connect 3 0 6 0;
#X connect 5 0 3 0;
#X connect 5 1 2 0;
#X connect 5 2 7 1;
#X connect 6 0 13 0;
#X connect 6 1 19 0;
#X connect 7 0 14 0;
#X connect 8 0 1 0;
#X connect 9 0 8 0;
#X connect 10 0 12 1;
#X connect 11 0 1 1;
#X connect 12 0 7 0;
#X connect 13 0 12 0;
#X connect 14 0 16 0;
#X connect 14 1 15 0;
#X connect 15 0 11 0;
#X connect 15 1 17 0;
#X connect 16 0 11 0;
#X connect 17 0 18 0;
#X connect 18 0 11 0;
#X connect 19 0 12 0;
