#N canvas 119 26 720 608 10;
#X obj 13 82 soundfiler;
#X obj 11 37 openpanel;
#X obj 10 17 bng 15 250 50 0 empty empty empty 0 -6 0 10 -262144 -1
-1;
#X obj 12 277 line~;
#X msg 12 255 0 \, \$1 \$2;
#X obj 58 211 / 44.1;
#X obj 12 235 pack f f;
#X obj 13 184 t f f;
#X obj 95 168 samplerate~;
#X obj 94 188 / 1000;
#X obj 94 145 loadbang;
#X msg 12 61 read -resize \$1 sample;
#X obj 82 83 table sample;
#X obj 23 299 tabread4~ sample;
#X obj 24 332 bonk~;
#X obj 22 353 unpack f f f;
#X obj 20 381 t b;
#X obj 8 405 snapshot~;
#X obj 11 438 t a b;
#X obj 37 460 int 0;
#X msg 56 434 0;
#X obj 71 407 r init;
#X obj 40 144 s init;
#X obj 74 460 + 1;
#X obj 8 506 table index;
#X obj 11 485 tabwrite index;
#X obj 13 122 t a b;
#X obj 417 197 tabread index;
#X floatatom 419 118 5 0 0 0 - - -;
#X obj 474 313 / 44.1;
#X obj 501 290 r smplrt;
#X obj 104 210 s smplrt;
#X obj 413 361 pack f f f;
#X obj 411 494 dac~;
#X obj 415 409 line~;
#X msg 413 385 \$1 \, \$2 \$3;
#X obj 416 435 tabread4~ sample;
#X obj 419 146 t f f;
#X obj 504 198 tabread index;
#X obj 504 177 + 1;
#X floatatom 520 157 5 0 0 0 - - -;
#X obj 417 226 t f f;
#X obj 506 224 t f f;
#X obj 473 292 -;
#X obj 415 174 pipe;
#X obj 472 272 swap;
#X floatatom 104 486 5 0 0 0 - - -;
#X text 141 486 #of slices;
#X text 33 15 Open a sample;
#X text 58 122 Uses sample length to initiate Processing;
#X text 59 280 Play sample once;
#X text 104 447 Evey bonk message writes to table;
#X text 111 459 and advances counter;
#X text 63 329 Adjusting bonk with templates \, thresholds;
#X text 101 345 gives better results.;
#X text 458 114 Slice to start at;
#X text 558 153 no of slices to;
#X text 559 167 play @once.;
#X obj 418 54 metro 200;
#X obj 418 78 random 16;
#X obj 383 14 tgl 40 0 empty empty empty 17 7 0 10 -203904 -16662 -1
1 1;
#X floatatom 519 64 5 0 0 0 - - -;
#X floatatom 498 28 5 0 0 0 - - -;
#X text 508 12 tempo;
#X text 423 10 play;
#X text 555 56 #of slices;
#X connect 0 0 26 0;
#X connect 1 0 11 0;
#X connect 2 0 1 0;
#X connect 3 0 13 0;
#X connect 3 0 17 0;
#X connect 4 0 3 0;
#X connect 5 0 6 1;
#X connect 6 0 4 0;
#X connect 7 0 6 0;
#X connect 7 1 5 0;
#X connect 8 0 9 0;
#X connect 9 0 5 1;
#X connect 9 0 31 0;
#X connect 10 0 8 0;
#X connect 11 0 0 0;
#X connect 13 0 14 0;
#X connect 14 1 15 0;
#X connect 15 2 16 0;
#X connect 16 0 17 0;
#X connect 17 0 18 0;
#X connect 18 0 25 0;
#X connect 18 1 19 0;
#X connect 19 0 23 0;
#X connect 19 0 25 1;
#X connect 19 0 46 0;
#X connect 20 0 19 0;
#X connect 21 0 20 0;
#X connect 23 0 19 1;
#X connect 26 0 7 0;
#X connect 26 1 22 0;
#X connect 27 0 41 0;
#X connect 28 0 37 0;
#X connect 29 0 32 2;
#X connect 30 0 29 1;
#X connect 32 0 35 0;
#X connect 34 0 36 0;
#X connect 35 0 34 0;
#X connect 36 0 33 0;
#X connect 36 0 33 1;
#X connect 37 0 44 0;
#X connect 37 1 39 0;
#X connect 38 0 42 0;
#X connect 39 0 38 0;
#X connect 40 0 39 1;
#X connect 41 0 32 0;
#X connect 41 1 45 0;
#X connect 42 0 32 1;
#X connect 42 1 45 1;
#X connect 43 0 29 0;
#X connect 44 0 27 0;
#X connect 45 0 43 0;
#X connect 45 1 43 1;
#X connect 58 0 59 0;
#X connect 59 0 28 0;
#X connect 60 0 58 0;
#X connect 61 0 59 1;
#X connect 62 0 58 1;
