#N canvas 0 139 1075 523 10;
#X obj 139 100 cnv 5 10 58 empty \$0-selectarea empty 20 12 0 14 -44926
-262144 0;
#N canvas 0 22 450 300 (subpatch) 0;
#X array \$0-L 112107 float 2;
#X coords 0 1 112107 -1 200 30 1;
#X restore 100 99 graph;
#N canvas 0 22 450 300 (subpatch) 0;
#X array \$0-R 112107 float 2;
#X coords 0 1 112107 -1 200 30 1;
#X restore 100 129 graph;
#X obj 950 481 s \$0-selectarea;
#X msg 950 459 pos \$1 100;
#X obj 946 417 + 100;
#X obj 844 486 s \$0-selectarea;
#X obj 847 420 max 1;
#X obj 842 342 s \$0-len;
#X obj 412 457 soundfiler;
#X obj 407 410 pack s \$0;
#X msg 412 435 read -resize \$1 \$2-L \$2-R;
#X obj 414 479 s \$0-samples;
#X obj 407 385 r \$0-filename;
#X obj 358 279 s \$0-selectarea;
#X obj 602 484 table \$0-slices-end 100;
#X obj 602 464 table \$0-slices-start 100;
#X obj 259 315 s \$0-slices-start;
#X obj 266 335 s \$0-slices-end;
#X msg 272 288 const 0;
#X msg 846 465 vis_size \$1 58;
#X msg 357 242 pos 100 100 \, vis_size 1 58;
#X obj 844 398 * 200;
#X obj 945 396 * 200;
#X obj 99 20 inlet slice-number;
#X obj 98 40 s \$0-slicenumber;
#X obj 842 270 tabread \$0-slices-start;
#X obj 799 237 tabread \$0-slices-end;
#X obj 800 298 -;
#X obj 799 215 t f f;
#X obj 809 7 r \$0-play-1s;
#X obj 889 7 r \$0-play-10s;
#X obj 833 108 +;
#X obj 890 27 * 10;
#X obj 891 48 t b f;
#X obj 834 131 s \$0-slicenumber;
#X obj 801 322 t f f;
#X obj 187 392 s \$0-slices-start;
#X obj 130 415 s \$0-slices-end;
#X obj 224 369 s \$0-filename;
#X obj 554 59 f;
#X obj 569 34 r \$0-start;
#X obj 554 82 *;
#X obj 582 58 r \$0-samples;
#X obj 600 104 *;
#X obj 626 103 t b f;
#X obj 554 11 r \$0-play;
#X obj 771 165 r \$0-slicenumber;
#X obj 773 191 t b f;
#X obj 954 319 s \$0-start;
#X obj 842 292 t f f f;
#X obj 777 459 s \$0-play;
#X obj 847 440 change;
#X obj 948 437 change;
#X obj 506 334 tabread4~ \$0-L;
#X obj 598 334 tabread4~ \$0-R;
#X obj 599 79 r \$0-end;
#X obj 839 320 s \$0-end;
#X obj 799 259 t f f;
#X obj 686 57 r \$0-len;
#X obj 684 129 samplerate~;
#X obj 684 107 loadbang;
#X obj 627 175 * 1000;
#X obj 556 231 pack 0 0 0;
#X obj 627 196 *;
#X obj 244 83 nbx 4 14 0.5 2 1 0 \$0-pitch \$0-pitch-r pitch 0 -7 0
13 -262144 -1 -1 1.25978 256;
#X obj 685 152 r \$0-pitch;
#X obj 686 172 expr 1/$f1;
#X obj 215 20 inlet pitch;
#X obj 216 43 s \$0-pitch-r;
#X msg 555 252 \$1 \, \$2 \$3;
#X obj 556 285 vline~;
#X obj 229 83 bng 14 250 50 0 \$0-resetpitch rhiuytreiuyrteiyertiyyyyy
empty 17 7 0 10 -262144 -1 -1;
#X obj 401 56 r \$0-resetpitch;
#X msg 402 80 1;
#X obj 402 103 s \$0-pitch-r;
#X obj 432 78 loadbang;
#X obj 626 152 /;
#X obj 625 131 *;
#X obj 651 130 t b f;
#X obj 297 19 inlet data;
#X msg 76 263 0;
#X obj 76 284 s \$0-sliceset;
#X obj 817 190 r \$0-sliceset;
#X obj 273 266 t b;
#X obj 77 240 route done end start filename reset;
#X obj 525 393 outlet~;
#X obj 620 387 outlet~;
#X obj 147 83 tgl 12 0 \$0-show \$0-show-r show_beat 17 7 0 10 -262144
-1 -1 1 1;
#X obj 969 341 r \$0-show;
#X obj 403 132 s \$0-show-r;
#X obj 810 372 spigot;
#X obj 943 375 spigot;
#X obj 359 217 s \$0-L;
#X obj 403 217 s \$0-R;
#X msg 364 181 resize 100;
#X obj 509 362 *~;
#X obj 603 360 *~;
#X obj 623 285 vline~;
#X msg 623 255 0 5 \, 1 5 5;
#X obj 559 171 pipe 5;
#X obj 559 149 t f b;
#N canvas 302 197 450 300 4colors 0;
#X obj -38 -24 s \$0-selectarea;
#X floatatom -84 -206 5 0 0 0 - #0-slicenumber -;
#X msg -38 -46 color \$1;
#X msg 55 -99 15;
#X msg 27 -98 16;
#X obj 11 -147 sel 0 1 2 3;
#X msg -1 -98 14;
#X msg -30 -98 17;
#X obj -85 -155 % 4;
#X connect 1 0 8 0;
#X connect 2 0 0 0;
#X connect 3 0 2 0;
#X connect 4 0 2 0;
#X connect 5 0 7 0;
#X connect 5 1 6 0;
#X connect 5 2 4 0;
#X connect 5 3 3 0;
#X connect 6 0 2 0;
#X connect 7 0 2 0;
#X connect 8 0 5 0;
#X restore 47 340 pd 4colors;
#X connect 4 0 3 0;
#X connect 5 0 53 0;
#X connect 7 0 52 0;
#X connect 9 0 12 0;
#X connect 10 0 11 0;
#X connect 11 0 9 0;
#X connect 13 0 10 0;
#X connect 19 0 17 0;
#X connect 19 0 18 0;
#X connect 20 0 6 0;
#X connect 21 0 14 0;
#X connect 22 0 7 0;
#X connect 23 0 5 0;
#X connect 24 0 25 0;
#X connect 26 0 50 0;
#X connect 27 0 58 0;
#X connect 28 0 36 0;
#X connect 29 0 27 0;
#X connect 29 1 26 0;
#X connect 30 0 32 0;
#X connect 31 0 33 0;
#X connect 32 0 35 0;
#X connect 33 0 34 0;
#X connect 34 0 32 0;
#X connect 34 1 32 1;
#X connect 36 0 91 0;
#X connect 36 1 8 0;
#X connect 40 0 42 0;
#X connect 41 0 40 1;
#X connect 42 0 101 0;
#X connect 43 0 42 1;
#X connect 43 0 45 0;
#X connect 43 0 79 0;
#X connect 44 0 63 1;
#X connect 45 0 44 0;
#X connect 45 1 44 1;
#X connect 46 0 40 0;
#X connect 47 0 48 0;
#X connect 48 0 51 0;
#X connect 48 1 29 0;
#X connect 50 0 28 1;
#X connect 50 1 92 0;
#X connect 50 2 49 0;
#X connect 52 0 20 0;
#X connect 53 0 4 0;
#X connect 54 0 96 0;
#X connect 55 0 97 0;
#X connect 56 0 44 0;
#X connect 58 0 28 0;
#X connect 58 1 57 0;
#X connect 59 0 78 0;
#X connect 60 0 77 1;
#X connect 61 0 60 0;
#X connect 62 0 64 0;
#X connect 63 0 70 0;
#X connect 64 0 63 2;
#X connect 66 0 67 0;
#X connect 67 0 64 1;
#X connect 68 0 69 0;
#X connect 70 0 71 0;
#X connect 71 0 54 0;
#X connect 71 0 55 0;
#X connect 73 0 74 0;
#X connect 74 0 75 0;
#X connect 74 0 90 0;
#X connect 76 0 74 0;
#X connect 77 0 62 0;
#X connect 78 0 77 0;
#X connect 79 0 78 0;
#X connect 79 1 78 1;
#X connect 80 0 85 0;
#X connect 81 0 82 0;
#X connect 83 0 29 0;
#X connect 84 0 19 0;
#X connect 85 0 81 0;
#X connect 85 1 38 0;
#X connect 85 2 37 0;
#X connect 85 3 39 0;
#X connect 85 4 84 0;
#X connect 89 0 91 1;
#X connect 89 0 92 1;
#X connect 91 0 22 0;
#X connect 92 0 23 0;
#X connect 95 0 93 0;
#X connect 95 0 94 0;
#X connect 96 0 86 0;
#X connect 97 0 87 0;
#X connect 98 0 96 1;
#X connect 98 0 97 1;
#X connect 99 0 98 0;
#X connect 100 0 63 0;
#X connect 101 0 100 0;
#X connect 101 1 99 0;
#X coords 0 -1 1 1 230 100 1 96 65;
