#N canvas 34 140 866 403 10;
#X floatatom 136 19 5 0 0 0 - - -;
#X obj 59 30 tgl 15 0 empty empty empty 17 7 0 10 -262144 -1 -1 0 1
;
#X obj 151 184 smp-slice;
#X obj 197 324 dac~;
#X obj 62 52 metro 100;
#X text 465 264 ^ | cut and paste the message box created in the breakpoint
maker here \, then click to load;
#X obj 358 92 vsl 15 70 0.5 2 0 0 empty empty empty 0 -9 0 10 -262144
-1 -1 0 1;
#X text 225 140 external pitch input;
#X obj 67 83 random 9;
#X text 139 91 sequence with something;
#X text 140 105 better than this \; );
#X text 121 79 <- probably a good idea to;
#X text 466 295 (may be a good idea to put the message box in a subpatch)
;
#X msg 398 174 reset bang \, filename ../loops/1-offspring.aif \, end
0 0.097622 \, end 1 0.180225 \, end 2 0.299124 \, end 3 0.486859 \,
end 4 0.571965 \, end 5 0.628285 \, end 6 0.749687 \, end 7 0.853567
\, end 8 0.934919 \, start 1 0.12015 \, start 2 0.239049 \, start 3
0.377972 \, start 4 0.490613 \, start 5 0.603254 \, start 6 0.630789
\, start 7 0.75219 \, start 8 0.867334 \, done bang \;;
#X connect 0 0 4 1;
#X connect 1 0 4 0;
#X connect 2 0 3 0;
#X connect 2 1 3 1;
#X connect 4 0 8 0;
#X connect 6 0 2 1;
#X connect 8 0 2 0;
#X connect 13 0 2 2;
