#N canvas 39 82 612 543 12;
#X obj 263 270 mtof;
#X obj 443 -106 tgl 60 0 liga lb liga/desliga 0 -6 0 8 -257472 -250685
-1 1 1;
#X obj 6 214 s b;
#X obj 5 -32 cnv 15 250 70 empty empty empty 20 12 1 14 -261681 -66577
0;
#X obj 20 -24 nbx 7 40 -1e+37 1e+37 0 0 empty hz Hz 185 20 1 30 -257427
-262131 -1 112.854 256;
#X obj 214 215 + 48;
#X obj 266 242 s midi;
#X obj 5 192 metro 200;
#X obj 345 10 cnv 20 150 100 empty empty Gauss 40 -20 1 40 -233017
-143491 0;
#X obj 389 22 r sgm;
#X obj 441 22 r mu;
#X obj 355 74 s gss;
#X obj 357 22 r b;
#X obj 11 80 cnv 20 150 100 empty empty empty 20 12 0 14 -233017 -66577
0;
#X obj 21 71 nbx 7 40 -1e+37 1e+37 0 0 sgm empty Sigma 185 20 1 30
-261689 -123526 -1 0 256;
#X obj 21 115 nbx 7 40 -1e+37 1e+37 0 0 mu empty Mu 185 20 1 30 -225271
-42246 -1 0 256;
#X text 24 156 media;
#X text 20 53 desvio padrao;
#X text -2 -177 GAUSS :: Distribuicao randomica usando Gauss;
#X obj 3 240 cnv 20 250 100 empty empty empty 20 12 0 14 -233017 -66577
0;
#X obj 263 293 s hz;
#X obj 11 297 makenote 120 500;
#X obj 11 319 noteout;
#X obj 140 273 random 250;
#X obj 44 273 random 100;
#X obj 123 252 r b;
#X obj 23 250 r midi;
#X obj 81 320 cnv 15 300 30 empty empty <-Conecte_em_um_piano_MIDI
7 15 1 14 -225280 -66577 0;
#X obj 216 191 nbx 7 20 -1e+37 1e+37 0 0 empty gss gauss 30 -12 1 15
-225280 -123526 -1 -2.55652 256;
#X obj 262 217 nbx 3 20 -1e+37 1e+37 0 0 sgm empty empty 25 20 1 15
-44926 -123526 -1 45.4435 256;
#X obj 105 24 nbx 7 20 -1e+37 1e+37 0 0 empty midi nota_MIDI 55 20
1 15 -44926 -250685 -123526 45.4435 256;
#X text 316 -14 volume;
#X obj 351 136 cnv 20 150 100 empty empty Oscilador 40 -5 1 20 -233017
-143491 0;
#X obj 366 196 osc~ 440;
#X obj 373 240 dac~;
#X obj 373 220 *~ 0;
#X obj 441 201 dbtorms;
#X obj 369 174 r hz;
#X obj 371 151 hsl 128 20 0 100 0 0 vol empty volume -2 -6 0 8 -128992
-262144 -1 0 1;
#X obj 444 178 r vol;
#X obj 418 221 nbx 3 40 -1e+37 1e+37 0 0 sgm empty empty 25 20 1 30
-257472 -250685 -1 65 256;
#X text 350 104 comment;
#X text 0 -159 Probabilidades que geram escalas dentro de uma curva
de Gauss. Configure Mu para obter maior ou menor espectro.;
#X obj 291 -106 nbx 3 60 -1e+37 1e+37 0 0 andamento empty Tempo-> -250
20 1 50 -241291 -260818 -1 0 256;
#X obj 88 190 r andamento;
#X obj 38 212 r liga;
#X obj 354 52 gauss 1 0;
#N canvas 290 41 595 486 on_off 1;
#X msg 17 117 \; pd dsp 0;
#X msg 206 114 \; pd dsp 1;
#X obj 25 176 loadbang;
#X msg 126 220 65;
#X obj 191 249 s vol;
#X obj 41 243 s lb;
#X obj 63 46 r liga;
#X obj 64 74 sel 0;
#X connect 2 0 1 0;
#X connect 2 0 3 0;
#X connect 2 0 5 0;
#X connect 3 0 4 0;
#X connect 6 0 7 0;
#X connect 7 0 0 0;
#X connect 7 1 1 0;
#X restore 374 275 pd on_off;
#X connect 0 0 20 0;
#X connect 5 0 29 0;
#X connect 7 0 2 0;
#X connect 9 0 46 1;
#X connect 10 0 46 2;
#X connect 12 0 46 0;
#X connect 21 0 22 0;
#X connect 21 1 22 1;
#X connect 23 0 21 2;
#X connect 24 0 21 1;
#X connect 25 0 24 0;
#X connect 25 0 23 0;
#X connect 26 0 21 0;
#X connect 28 0 5 0;
#X connect 29 0 6 0;
#X connect 29 0 0 0;
#X connect 33 0 35 0;
#X connect 35 0 34 0;
#X connect 35 0 34 1;
#X connect 36 0 35 1;
#X connect 37 0 33 0;
#X connect 39 0 36 0;
#X connect 39 0 40 0;
#X connect 44 0 7 1;
#X connect 45 0 7 0;
#X connect 46 0 11 0;
