#N canvas 401 76 575 478 12;
#X floatatom 15 276 5 0 0 0 - - -;
#X symbolatom 44 212 48 0 0 0 - - -;
#X floatatom 74 149 5 0 0 0 - - -;
#X floatatom 131 149 5 0 0 0 - - -;
#X floatatom 189 149 5 0 0 0 - - -;
#X floatatom 248 149 5 0 0 0 - - -;
#X floatatom 59 182 5 0 0 0 - - -;
#X floatatom 29 249 5 0 0 0 - - -;
#X obj 15 51 notein;
#X obj 15 86 chord 59;
#X obj 74 118 unpack f f f f f f;
#X floatatom 303 149 5 0 0 0 - - -;
#X floatatom 362 149 5 0 0 0 - - -;
#X text 15 9 chord :: Tenta detectar acordes;
#X text 89 26 escrito por Olaf Matthes <olaf.matthes@gmx.de>;
#X text 89 44 baeado no codigo de Rober Rowe;
#X text 90 86 <-- notas mais altas que 59 sao ignoradas;
#X text 245 118 listas de notas do acorde;
#X text 116 175 posicao raiz (0) \, 1a inversao (1);
#X text 115 188 ou 2a inversao (2);
#X text 203 230 Notas do acorde: Nome do acorde;
#X text 69 278 nota MIDI fundamental;
#X obj 69 306 r midi;
#X floatatom 69 332 5 0 0 0 - - -;
#X msg 20 361 set \$1;
#X symbolatom 17 386 10 0 0 0 - - -;
#X obj 135 311 bng 15 250 50 0 empty empty empty 0 -6 0 8 -262144 -1
-1;
#X obj 125 377 pack 0 0;
#X obj 135 329 random 28;
#X obj 142 350 + 100;
#X text 78 255 classe da nota fundamental;
#X obj 63 442 print noteon;
#X connect 8 0 9 0;
#X connect 8 1 9 1;
#X connect 9 0 0 0;
#X connect 9 1 7 0;
#X connect 9 2 1 0;
#X connect 9 3 6 0;
#X connect 9 4 10 0;
#X connect 10 0 2 0;
#X connect 10 1 3 0;
#X connect 10 2 4 0;
#X connect 10 3 5 0;
#X connect 10 4 11 0;
#X connect 10 5 12 0;
#X connect 22 0 23 0;
#X connect 22 0 26 0;
#X connect 23 0 24 0;
#X connect 23 0 27 0;
#X connect 24 0 25 0;
#X connect 26 0 28 0;
#X connect 27 0 31 0;
#X connect 28 0 29 0;
#X connect 29 0 27 1;
