#N canvas 0 25 990 631 12;
#X obj 427 -6 tgl 100 0 liga lb liga/desliga 0 -6 0 8 -257472 -250685
-1 1 1;
#X obj 5 108 cnv 15 250 70 empty empty empty 20 12 1 14 -261681 -66577
0;
#X obj 20 102 nbx 10 40 -1e+37 1e+37 0 0 empty hz Hz 185 20 1 30 -257427
-262131 -1 24.4997 256;
#X obj 23 232 cnv 20 150 100 empty empty empty 20 12 0 14 -233017 -66577
0;
#X obj 33 223 nbx 7 40 -1e+37 1e+37 0 0 sgm rsgm Sigma 185 20 1 30
-261689 -123526 -1 5 256;
#X obj 33 301 nbx 7 40 -1e+37 1e+37 0 0 mu rmu Mu 185 20 1 30 -225271
-42246 -1 4.84925 256;
#X text 220 290 media;
#X text 220 211 desvio padrao;
#X obj 365 126 cnv 20 150 100 empty empty Oscilador 40 -5 1 20 -233017
-143491 0;
#X obj 376 141 hsl 128 20 0 100 0 0 vol empty volume -2 -6 0 8 -128992
-262144 -1 8400 1;
#X obj 412 179 nbx 3 40 -1e+37 1e+37 0 0 sgm vol empty 25 20 1 30 -257472
-250685 -1 66.1417 256;
#X obj 251 32 nbx 3 60 -1e+37 1e+37 0 0 andamento dedos Tempo::: -250
20 1 50 -241291 -260818 -1 182 256;
#N canvas 290 167 468 384 on_off 0;
#X msg 33 165 \; pd dsp 0;
#X msg 114 164 \; pd dsp 1;
#X obj 131 80 loadbang;
#X obj 229 133 s vol;
#X obj 149 109 s lb;
#X obj 65 80 r liga;
#X obj 66 108 sel 0;
#X obj 47 246 key;
#X obj 51 293 s lb;
#X floatatom 81 250 5 0 0 0 - - -;
#X obj 51 270 sel 46;
#X text 89 227 (.) liga e deliga;
#X msg 234 110 50;
#X connect 2 0 1 0;
#X connect 2 0 12 0;
#X connect 2 0 4 0;
#X connect 5 0 6 0;
#X connect 6 0 0 0;
#X connect 6 1 1 0;
#X connect 7 0 9 0;
#X connect 7 0 10 0;
#X connect 10 0 8 0;
#X connect 12 0 3 0;
#X restore 366 364 pd on_off;
#N canvas 0 0 330 150 percussao 0;
#X obj 13 15 key;
#X obj 14 37 sel 10;
#X obj 14 59 s prc;
#X text 12 82 percussao- desligue o metronome e use tecla enter.;
#X connect 0 0 1 0;
#X connect 1 0 2 0;
#X restore 143 372 pd percussao;
#N canvas 188 195 242 195 metronomo 0;
#X obj 34 127 s b;
#X obj 33 105 metro 200;
#X obj 110 83 r andamento;
#X obj 108 61 r liga;
#X connect 1 0 0 0;
#X connect 2 0 1 1;
#X connect 3 0 1 0;
#X restore 30 372 pd metronomo;
#N canvas 0 25 990 631 piano 1;
#X obj 7 190 makenote 120 500;
#X obj 180 68 random 250;
#X obj 80 66 random 100;
#X obj 145 33 r b;
#X obj 47 39 r midi;
#X floatatom 201 38 5 0 0 0 - - -;
#X text 609 30 Use as conexoes do JACK ou ALSA_seq conforme;
#X text 608 49 sua configuracao.;
#X text 608 15 Conecte um piano MIDI (ou softsynth) na saida MIDI do
PD.;
#X obj 296 80 pgmout 1;
#X floatatom 300 59 5 0 0 0 - - -;
#X obj 11 222 noteout 1;
#X obj 316 5 loadbang;
#X msg 301 34 33;
#X floatatom 375 63 5 0 0 0 - - -;
#X obj 377 90 pgmout 2;
#X msg 376 39 1;
#X obj 154 295 makenote 120 500;
#X obj 86 109 moses 65;
#X obj 166 333 noteout 2;
#X obj 417 254 sync 4;
#X obj 194 179 moses 24;
#X obj 396 179 moses 60;
#X floatatom 463 214 5 0 0 0 - - -;
#X floatatom 396 213 5 0 0 0 - - -;
#X floatatom 197 211 5 0 0 0 - - -;
#X obj 568 180 moses 72;
#X floatatom 586 214 5 0 0 0 - - -;
#X floatatom 418 284 5 0 0 0 - - -;
#X floatatom 468 286 5 0 0 0 - - -;
#X floatatom 518 286 5 0 0 0 - - -;
#X floatatom 570 284 5 0 0 0 - - -;
#X floatatom 435 670 5 0 0 0 - - -;
#X symbolatom 464 606 48 0 0 0 - - -;
#X floatatom 494 543 5 0 0 0 - - -;
#X floatatom 551 543 5 0 0 0 - - -;
#X floatatom 615 543 5 0 0 0 - - -;
#X floatatom 674 543 5 0 0 0 - - -;
#X floatatom 479 576 5 0 0 0 - - -;
#X floatatom 449 643 5 0 0 0 - - -;
#X obj 494 512 unpack f f f f f f;
#X floatatom 729 543 5 0 0 0 - - -;
#X text 671 512 listas de notas do acorde;
#X text 536 569 posicao raiz (0) \, 1a inversao (1);
#X text 535 582 ou 2a inversao (2);
#X text 485 622 Notas do acorde: Nome do acorde;
#X text 504 645 calsse da nota fundamental;
#X text 489 672 nota MIDI fundamental;
#N canvas 0 25 990 631 tetradacorde 0;
#X obj 334 214 makenote 120 500;
#X obj 453 162 random 2000;
#X obj 453 187 + 1000;
#X obj -192 13 inlet;
#X obj 128 218 makenote 120 500;
#X obj 269 138 random 2000;
#X obj 271 179 + 1000;
#X obj -86 214 makenote 120 500;
#X obj 45 162 random 2000;
#X obj 51 187 + 1000;
#X obj 511 219 makenote 120 500;
#X obj 644 168 random 2000;
#X obj 646 185 + 1000;
#X obj -191 40 s cordebang;
#X obj 8 119 r cordebang;
#X obj 209 115 r cordebang;
#X obj 398 127 r cordebang;
#X obj 398 127 r cordebang;
#X obj 599 141 r cordebang;
#X obj -68 14 inlet;
#X obj 160 11 inlet;
#X obj 398 11 inlet;
#X obj 574 11 inlet;
#X obj -84 282 outlet;
#X obj 14 284 outlet;
#X obj 128 282 outlet;
#X obj 226 284 outlet;
#X obj 334 282 outlet;
#X obj 432 284 outlet;
#X obj 516 282 outlet;
#X obj 614 284 outlet;
#X obj -59 160 random 12;
#X obj 177 180 random 12;
#X obj 367 170 random 12;
#X obj 536 188 random 12;
#X connect 0 0 27 0;
#X connect 0 1 28 0;
#X connect 1 0 2 0;
#X connect 2 0 0 2;
#X connect 3 0 13 0;
#X connect 4 0 25 0;
#X connect 4 1 26 0;
#X connect 5 0 6 0;
#X connect 6 0 4 2;
#X connect 7 0 23 0;
#X connect 7 1 24 0;
#X connect 8 0 9 0;
#X connect 9 0 7 2;
#X connect 10 0 29 0;
#X connect 10 1 30 0;
#X connect 11 0 12 0;
#X connect 12 0 10 2;
#X connect 14 0 8 0;
#X connect 14 0 31 0;
#X connect 15 0 5 0;
#X connect 15 0 32 0;
#X connect 16 0 1 0;
#X connect 16 0 33 0;
#X connect 18 0 11 0;
#X connect 18 0 34 0;
#X connect 19 0 7 0;
#X connect 20 0 4 0;
#X connect 21 0 0 0;
#X connect 22 0 10 0;
#X connect 31 0 7 1;
#X connect 32 0 4 1;
#X connect 33 0 0 1;
#X connect 34 0 10 1;
#X restore 420 307 pd tetradacorde;
#X obj 385 269 bng 15 250 50 0 empty empty empty 0 -6 0 8 -262144 -1
-1;
#X obj 637 445 noteout 3;
#X obj 809 409 pgmout 3;
#X floatatom 837 365 5 0 0 0 - - -;
#X obj 622 411 makenote 64 5000;
#N canvas 0 0 450 300 acordedura 0;
#X obj 29 133 random 2000;
#X obj 35 162 + 3000;
#X obj 136 133 random 2000;
#X obj 142 162 + 3000;
#X obj 243 133 random 2000;
#X obj 249 162 + 3000;
#X obj 350 133 random 2000;
#X obj 356 162 + 3000;
#X obj 237 59 bng 15 250 50 0 empty empty empty 0 -6 0 8 -262144 -1
-1;
#X obj 35 187 outlet;
#X obj 141 191 outlet;
#X obj 245 191 outlet;
#X obj 357 189 outlet;
#X obj 241 23 inlet;
#X connect 0 0 1 0;
#X connect 1 0 9 0;
#X connect 2 0 3 0;
#X connect 3 0 10 0;
#X connect 4 0 5 0;
#X connect 5 0 11 0;
#X connect 6 0 7 0;
#X connect 7 0 12 0;
#X connect 8 0 0 0;
#X connect 8 0 2 0;
#X connect 8 0 4 0;
#X connect 8 0 6 0;
#X connect 13 0 8 0;
#X restore 622 281 pd acordedura;
#X floatatom 551 121 5 0 0 0 - - -;
#X obj 517 183 + 48;
#X floatatom 521 213 5 0 0 0 - - -;
#X obj 804 148 div 12;
#X floatatom 802 176 5 0 0 0 - - -;
#X obj 732 154 div 12;
#X floatatom 738 180 5 0 0 0 - - -;
#X obj 786 214 ==;
#X obj 788 238 sel 1;
#X obj 479 175 i;
#X obj 481 143 + 24;
#X obj 54 402 r midi;
#X floatatom 54 426 5 0 0 0 - - -;
#X floatatom 59 618 5 0 0 0 - - -;
#X floatatom 125 537 5 0 0 0 - - -;
#X floatatom 140 512 5 0 0 0 - - -;
#X symbolatom 73 594 7 0 0 0 - - -;
#X text 195 512 registro;
#X text 179 537 intervalo para a ultima nota;
#X text 137 603 nome da nota (symbol);
#X text 107 627 numero MIDI;
#X obj 52 473 pitch 0;
#X obj 27 717 s nota_mais_tocada;
#X obj 25 692 split 1 10;
#X text 126 691 classe do pitch;
#X text 15 740 ** (o split e' gambi);
#X obj 435 480 chord;
#X text 510 480;
#X text 11 760;
#N canvas 0 0 450 300 gambiarras_pra_consertar 0;
#X text 20 8 Gambiarras para consertar:;
#X text 19 34 1 O probalizer nao ta setando propriedades;
#X text 45 52 por isso eu cortei a nota de classe zero e a 11;
#X restore 17 759 pd gambiarras_pra_consertar;
#X msg 554 731 \; acorde_sugerido label \$1;
#X obj 807 653 cnv 20 200 50 empty acorde_sugerido empty 20 12 1 14
-233017 -66577 0;
#X connect 0 0 11 0;
#X connect 0 1 11 1;
#X connect 1 0 0 2;
#X connect 2 0 0 1;
#X connect 3 0 2 0;
#X connect 3 0 1 0;
#X connect 4 0 18 0;
#X connect 5 0 1 1;
#X connect 10 0 9 0;
#X connect 12 0 13 0;
#X connect 12 0 16 0;
#X connect 13 0 10 0;
#X connect 14 0 15 0;
#X connect 16 0 14 0;
#X connect 17 0 19 0;
#X connect 17 1 19 1;
#X connect 18 0 0 0;
#X connect 18 0 21 0;
#X connect 18 0 55 0;
#X connect 18 1 17 0;
#X connect 18 1 26 0;
#X connect 20 0 28 0;
#X connect 20 0 49 0;
#X connect 20 1 29 0;
#X connect 20 2 30 0;
#X connect 20 3 31 0;
#X connect 21 0 25 0;
#X connect 21 1 22 0;
#X connect 22 0 24 0;
#X connect 23 0 20 1;
#X connect 24 0 20 0;
#X connect 24 0 60 0;
#X connect 26 1 27 0;
#X connect 27 0 20 3;
#X connect 28 0 48 1;
#X connect 29 0 48 2;
#X connect 30 0 48 3;
#X connect 31 0 48 4;
#X connect 40 0 34 0;
#X connect 40 1 35 0;
#X connect 40 2 36 0;
#X connect 40 3 37 0;
#X connect 40 4 41 0;
#X connect 48 0 53 0;
#X connect 48 0 81 0;
#X connect 48 1 53 1;
#X connect 48 1 81 1;
#X connect 48 2 53 0;
#X connect 48 2 81 0;
#X connect 48 3 53 1;
#X connect 48 3 81 1;
#X connect 48 4 53 0;
#X connect 48 4 81 0;
#X connect 48 5 53 1;
#X connect 48 5 81 1;
#X connect 48 6 53 0;
#X connect 48 6 81 0;
#X connect 48 7 53 1;
#X connect 48 7 81 0;
#X connect 49 0 48 0;
#X connect 49 0 54 0;
#X connect 52 0 51 0;
#X connect 53 0 50 0;
#X connect 53 1 50 1;
#X connect 54 0 53 2;
#X connect 54 1 53 2;
#X connect 54 2 53 2;
#X connect 54 3 53 2;
#X connect 55 0 56 0;
#X connect 55 0 58 0;
#X connect 55 0 65 0;
#X connect 56 0 57 0;
#X connect 57 0 20 2;
#X connect 58 0 59 0;
#X connect 59 0 62 1;
#X connect 60 0 61 0;
#X connect 61 0 62 0;
#X connect 62 0 63 0;
#X connect 63 0 64 0;
#X connect 64 0 23 0;
#X connect 65 0 64 1;
#X connect 66 0 67 0;
#X connect 67 0 76 0;
#X connect 76 0 68 0;
#X connect 76 1 71 0;
#X connect 76 2 78 0;
#X connect 76 3 69 0;
#X connect 76 4 70 0;
#X connect 78 0 77 0;
#X connect 81 0 32 0;
#X connect 81 1 39 0;
#X connect 81 2 33 0;
#X connect 81 3 38 0;
#X connect 81 4 40 0;
#X restore 367 337 pd piano;
#N canvas 405 256 483 388 meta_hertz 0;
#X obj 27 150 mtof;
#X obj 24 77 + 48;
#X obj 96 186 s midi;
#X obj 22 29 nbx 7 20 -1e+37 1e+37 0 0 empty mhz escala 30 -12 1 15
-225280 -123526 -1 -28.4027 256;
#X obj 95 153 nbx 5 20 -1e+37 1e+37 0 0 sgm empty MIDI 60 20 1 15 -44926
-123526 -1 19 256;
#X obj 90 69 i;
#X obj 88 93 moses 12;
#X obj 96 129 moses 127;
#X floatatom 157 65 5 0 0 0 - - -;
#X text 156 47 limite inferior;
#X floatatom 181 105 5 0 0 0 - - -;
#X text 180 87 limite superior;
#X obj 33 229 nbx 10 20 -1e+37 1e+37 0 0 hz empty Hz 100 20 1 15 -261330
-262131 -1 24.4997 256;
#X msg 198 310 \; nota_atual label \$1;
#X obj 208 269 pitch;
#X connect 0 0 12 0;
#X connect 1 0 5 0;
#X connect 3 0 1 0;
#X connect 4 0 2 0;
#X connect 4 0 14 0;
#X connect 5 0 6 0;
#X connect 6 1 7 0;
#X connect 7 0 4 0;
#X connect 7 0 0 0;
#X connect 8 0 6 1;
#X connect 10 0 7 1;
#X connect 14 1 13 0;
#X restore 365 287 pd meta_hertz;
#X obj 35 267 hsl 200 20 -5 5 0 0 rsgm empty empty -2 -6 0 8 -261305
-123526 -1 19900 1;
#X obj 35 345 hsl 200 20 -5 5 0 0 rmu empty empty -2 -6 0 8 -24198
-42246 -1 19600 1;
#N canvas 0 0 848 566 osciladores 0;
#X obj 98 359 cos~;
#X floatatom 141 198 10 0 200 0 - - -;
#X obj 143 219 / 10;
#X floatatom 180 270 4 0 0 0 - - -;
#X text 227 186 index;
#X floatatom 227 227 4 0 500 0 - - -;
#X obj 227 296 line~;
#X obj 177 316 *~;
#X obj 227 250 / 100;
#X obj 227 273 pack 0 50;
#X obj 98 336 +~;
#X text 180 342 modulating;
#X text 185 359 oscillator;
#X obj 98 406 hip~;
#N canvas 122 211 558 609 fft 0;
#X obj 23 55 inlet~;
#X obj 210 303 inlet;
#X obj 27 215 rfft~;
#X obj 27 248 *~;
#X obj 58 248 *~;
#X obj 27 278 sqrt~;
#X obj 334 200 block~ 4096 1;
#X obj 27 304 biquad~ 0 0 0 0 1;
#X text 91 216 Fourier series;
#X text 96 269 magnitude;
#X text 94 254 calculate;
#X text 21 3 This subpatch computes the spectrum of the incoming signal
with a (rectangular windowed) FFT. FFTs aren't properly introduced
until much later.;
#X text 83 61 signal to analyze;
#X text 195 255 delay two samples;
#X text 193 273 for better graphing;
#X obj 292 79 samplerate~;
#X obj 240 352 metro 500;
#X obj 240 329 inlet;
#X text 293 327 toggle to graph repeatedly;
#X text 264 303 bang to graph once;
#X obj 27 328 /~ 4096;
#X obj 292 54 bang~;
#X msg 211 413 \; pd dsp 1;
#X obj 292 102 / 4096;
#X obj 58 135 osc~;
#X obj 58 163 +~ 1;
#X obj 28 188 *~;
#X text 113 138 hanning window;
#X obj 254 79 0.5;
#X obj 240 390 tabwrite~ F11-spectrum;
#X connect 0 0 26 0;
#X connect 1 0 22 0;
#X connect 1 0 29 0;
#X connect 2 0 3 0;
#X connect 2 0 3 1;
#X connect 2 1 4 0;
#X connect 2 1 4 1;
#X connect 3 0 5 0;
#X connect 4 0 5 0;
#X connect 5 0 7 0;
#X connect 7 0 20 0;
#X connect 15 0 23 0;
#X connect 16 0 29 0;
#X connect 17 0 16 0;
#X connect 17 0 22 0;
#X connect 20 0 29 0;
#X connect 21 0 15 0;
#X connect 21 0 28 0;
#X connect 23 0 24 0;
#X connect 24 0 25 0;
#X connect 25 0 26 1;
#X connect 26 0 2 0;
#X connect 28 0 24 1;
#X restore 152 406 pd fft;
#X obj 212 406 tgl 18 0 empty empty empty 0 -6 0 8 -262144 -1 -1 1
1;
#X obj 143 268 *;
#X obj 143 245 t b f;
#X obj 177 293 osc~;
#X obj 98 300 phasor~;
#X obj 39 1 r hz;
#X floatatom 46 72 5 0 0 0 - - -;
#X floatatom 166 14 20 0 0 0 - - -;
#X floatatom 208 80 5 0 0 0 - - -;
#X floatatom 29 142 5 0 0 0 - - -;
#X floatatom 2 164 5 0 0 0 - - -;
#X obj 8 102 moses 20;
#X obj 39 28 moses 2200;
#X obj 103 552 dac~;
#X obj 101 517 *~ 0;
#X obj 259 477 dbtorms;
#X obj 260 453 r vol;
#X obj 311 190 loadbang;
#X msg 237 205 440;
#X obj 213 56 / 100;
#X obj 215 376 loadbang;
#X obj 160 169 switch 2;
#X obj 153 66 / 1000;
#X msg 283 115 1;
#X msg 323 115 2;
#X obj 280 44 key;
#X obj 282 82 sel 49 50;
#X connect 0 0 13 0;
#X connect 0 0 14 0;
#X connect 1 0 2 0;
#X connect 2 0 17 0;
#X connect 3 0 16 0;
#X connect 3 0 18 0;
#X connect 5 0 8 0;
#X connect 6 0 7 1;
#X connect 7 0 10 1;
#X connect 8 0 9 0;
#X connect 9 0 6 0;
#X connect 10 0 0 0;
#X connect 13 0 29 0;
#X connect 15 0 14 2;
#X connect 16 0 19 0;
#X connect 17 0 16 0;
#X connect 17 1 16 1;
#X connect 18 0 7 0;
#X connect 19 0 10 0;
#X connect 20 0 27 0;
#X connect 21 0 26 0;
#X connect 22 0 34 0;
#X connect 22 0 37 0;
#X connect 23 0 36 2;
#X connect 24 0 1 0;
#X connect 26 0 25 0;
#X connect 26 1 24 0;
#X connect 27 0 21 0;
#X connect 27 1 22 0;
#X connect 29 0 28 0;
#X connect 29 0 28 1;
#X connect 30 0 29 1;
#X connect 31 0 30 0;
#X connect 32 0 33 0;
#X connect 32 0 38 0;
#X connect 33 0 5 0;
#X connect 34 0 23 0;
#X connect 35 0 15 0;
#X connect 36 0 3 0;
#X connect 37 0 36 1;
#X connect 38 0 36 0;
#X connect 39 0 36 0;
#X connect 40 0 41 0;
#X connect 41 0 38 0;
#X connect 41 1 39 0;
#X restore 366 263 pd osciladores;
#X obj 59 -49 bng 50 250 50 0 x empty X 0 -15 1 20 -241291 -1 -1;
#N canvas 104 123 450 260 metros 0;
#X restore 367 313 pd metros;
#X obj 113 -49 bng 50 250 50 0 c empty C 0 -15 1 20 -260818 -1 -1;
#X obj 169 -49 bng 50 250 50 0 v empty V 0 -15 1 20 -258699 -1 -1;
#X obj 225 -49 bng 50 250 50 0 letra_b empty B 0 -15 1 20 -162216 -262144
-66577;
#X obj 5 -49 bng 50 250 50 0 z empty Z 0 -15 1 20 -233017 -1 -1;
#N canvas 28 74 450 300 andamentos 0;
#X obj 93 -97 key;
#X msg 134 63 100;
#X msg 176 67 200;
#X msg 401 60 2;
#X obj 189 154 s dedos;
#X msg 108 -31 122;
#X msg 150 -31 120;
#X msg 188 -31 99;
#X msg 226 -31 118;
#X floatatom 18 -53 5 0 0 0 - - -;
#X msg 264 -31 98;
#X obj 108 -56 r z;
#X obj 150 -56 r x;
#X obj 188 -56 r c;
#X obj 228 -56 r v;
#X obj 266 -58 r letra_b;
#X obj 93 15 select 122 120 99 118 98 39;
#X floatatom 392 96 5 0 0 0 - - -;
#X obj 214 54 random 20;
#X obj 216 76 + 390;
#X obj 306 54 random 5;
#X obj 308 76 + 146;
#X obj 38 62 random 25;
#X obj 40 84 + 50;
#X connect 0 0 9 0;
#X connect 0 0 16 0;
#X connect 1 0 4 0;
#X connect 2 0 4 0;
#X connect 3 0 4 0;
#X connect 5 0 16 0;
#X connect 6 0 16 0;
#X connect 7 0 16 0;
#X connect 8 0 16 0;
#X connect 10 0 16 0;
#X connect 11 0 5 0;
#X connect 12 0 6 0;
#X connect 13 0 7 0;
#X connect 14 0 8 0;
#X connect 15 0 10 0;
#X connect 16 0 22 0;
#X connect 16 1 1 0;
#X connect 16 2 2 0;
#X connect 16 3 18 0;
#X connect 16 4 20 0;
#X connect 16 5 3 0;
#X connect 18 0 19 0;
#X connect 19 0 4 0;
#X connect 20 0 21 0;
#X connect 21 0 4 0;
#X connect 22 0 23 0;
#X connect 23 0 4 0;
#X restore 29 396 pd andamentos;
#N canvas 0 0 450 300 graph1 0;
#X array F11-spectrum 259 float 4;
#X coords 0 0.51 258 -0.008 256 130 1;
#X restore 564 -89 graph;
#X obj 566 -90 cnv 15 256 130 empty empty empty 20 12 0 14 -36398 -66577
0;
#X obj 566 148 probalizer 200 200 10 100 1 0 42 1 66 2 86 3 67 4 36
5 40 6 2 7 53 8 63 9 14;
#X obj 590 127 r nota_mais_tocada;
#X msg 757 416 zero;
#X obj 572 129 bng 15 250 50 0 empty doissegundos empty 0 -6 0 8 -262144
-1 -1;
#N canvas 326 113 502 414 probabiliade 0;
#X obj 156 63 inlet;
#X floatatom 156 101 5 0 0 0 - - -;
#X obj 156 147 pitch;
#X obj 156 123 + 12;
#X obj 164 193 s maistocada;
#X obj 250 118 tgl 15 0 empty empty empty 0 -6 0 8 -262144 -1 -1 1
1;
#X obj 252 159 s doissegundos;
#X msg 150 234 \; nome_da_nota label \$1;
#X floatatom 346 91 5 0 0 0 - andamento -;
#X obj 366 117 * 4;
#X obj 252 139 metro 200;
#X obj 250 93 r lb;
#X connect 0 0 1 0;
#X connect 1 0 3 0;
#X connect 2 1 4 0;
#X connect 2 1 7 0;
#X connect 3 0 2 0;
#X connect 5 0 10 0;
#X connect 8 0 9 0;
#X connect 9 0 10 1;
#X connect 10 0 6 0;
#X connect 11 0 5 0;
#X restore 591 353 pd probabiliade;
#X obj 652 63 cnv 15 100 60 empty nome_da_nota F0 20 12 1 60 -225271
-66577 0;
#X obj 5 146 cnv 15 100 30 empty nota_atual G0 20 12 1 20 -261681 -143491
0;
#X obj 81 160 nbx 7 20 -1e+37 1e+37 0 0 empty midi nota_MIDI 55 20
1 15 -44926 -250685 -123526 19 256;
#N canvas 0 0 450 300 gauss 0;
#X obj 89 48 cnv 20 150 100 empty empty Gauss 40 -20 1 40 -233017 -143491
0;
#X obj 152 56 r sgm;
#X obj 204 56 r mu;
#X obj 120 56 r b;
#X obj 98 90 gauss 1 0;
#X obj 69 56 r prc;
#X obj 99 112 s mhz;
#X connect 1 0 4 1;
#X connect 2 0 4 2;
#X connect 3 0 4 0;
#X connect 4 0 6 0;
#X connect 5 0 4 0;
#X restore 368 239 pd gauss;
#X text 75 2 controles de andamento;
#X text 570 110 No ultimo compasso esta foi;
#X obj 754 387 sel 1;
#X obj 760 367 tgl 15 0 empty empty empty 0 -6 0 8 -262144 -1 -1 1
1;
#X obj 792 359 bng 15 250 50 0 empty empty empty 0 -6 0 8 -262144 -1
-1;
#X connect 29 0 33 0;
#X connect 29 1 42 0;
#X connect 30 0 29 0;
#X connect 31 0 29 0;
#X connect 32 0 29 0;
#X connect 40 0 31 0;
#X connect 41 0 40 0;
#X connect 42 0 41 0;
