#N canvas 334 43 606 478 12;
#X obj 443 -106 tgl 60 0 liga lb liga/desliga 0 -6 0 8 -257472 -250685
-1 1 1;
#X obj 5 -32 cnv 15 250 70 empty empty empty 20 12 1 14 -261681 -66577
0;
#X obj 20 -24 nbx 10 40 -1e+37 1e+37 0 0 empty hz Hz 185 20 1 30 -257427
-262131 -1 164.814 256;
#X obj 345 10 cnv 20 150 100 empty empty Poisson 20 -10 1 40 -233017
-143491 0;
#X obj 11 88 cnv 20 150 100 empty empty empty 20 12 0 14 -233017 -66577
0;
#X obj 11 105 nbx 6 40 12 127 0 0 lbd rlbd Lambda 160 20 1 30 -228992
-62784 -1 45.5176 256;
#X obj 105 24 nbx 7 20 -1e+37 1e+37 0 0 empty midi nota_MIDI 55 20
1 15 -44926 -250685 -123526 52 256;
#X obj 351 136 cnv 20 150 100 empty empty Oscilador 40 -5 1 20 -233017
-143491 0;
#X obj 366 196 osc~ 440;
#X obj 373 240 dac~;
#X obj 373 220 *~ 0;
#X obj 441 201 dbtorms;
#X obj 369 174 r hz;
#X obj 362 151 hsl 128 20 0 100 0 0 vol empty volume -2 -6 0 8 -128992
-262144 -1 0 1;
#X obj 444 178 r vol;
#X obj 418 221 nbx 3 40 -1e+37 1e+37 0 0 sgm empty empty 25 20 1 30
-257472 -250685 -1 65 256;
#X obj 291 -106 nbx 3 60 -1e+37 1e+37 0 0 andamento empty Tempo:::
-250 20 1 50 -241291 -260818 -1 200 256;
#N canvas 290 167 468 384 on_off 0;
#X msg 33 165 \; pd dsp 0;
#X msg 114 164 \; pd dsp 1;
#X obj 131 80 loadbang;
#X msg 234 110 65;
#X obj 229 133 s vol;
#X obj 149 109 s lb;
#X obj 65 80 r liga;
#X obj 66 108 sel 0;
#X obj 47 246 key;
#X obj 51 293 s lb;
#X floatatom 81 250 5 0 0 0 - - -;
#X obj 51 270 sel 46;
#X text 89 227 (.) liga e deliga;
#X connect 2 0 1 0;
#X connect 2 0 3 0;
#X connect 2 0 5 0;
#X connect 3 0 4 0;
#X connect 6 0 7 0;
#X connect 7 0 0 0;
#X connect 7 1 1 0;
#X connect 8 0 10 0;
#X connect 8 0 11 0;
#X connect 11 0 9 0;
#X restore 126 194 pd on_off;
#N canvas 0 0 330 150 percussao 0;
#X obj 13 15 key;
#X obj 14 37 sel 10;
#X obj 14 59 s prc;
#X text 12 82 percussao- desligue o metronome e use tecla enter.;
#X connect 0 0 1 0;
#X connect 1 0 2 0;
#X restore 11 218 pd percussao;
#N canvas 0 0 450 300 metronomo 0;
#X obj 34 127 s b;
#X obj 33 105 metro 200;
#X obj 110 83 r andamento;
#X obj 108 61 r liga;
#X connect 1 0 0 0;
#X connect 2 0 1 1;
#X connect 3 0 1 0;
#X restore 12 194 pd metronomo;
#N canvas 68 333 523 352 piano 0;
#X obj 127 96 makenote 120 500;
#X obj 256 62 random 250;
#X obj 156 62 random 100;
#X obj 237 33 r b;
#X obj 139 39 r midi;
#X floatatom 293 38 5 0 0 0 - - -;
#X text 81 142 Use as conexoes do JACK ou ALSA_seq conforme;
#X text 82 161 sua configuracao.;
#X text 8 17 Conecte um piano MIDI (ou softsynth) na saida MIDI do
PD.;
#X obj 354 111 pgmout 1;
#X floatatom 354 83 5 0 0 0 - - -;
#X obj 131 118 noteout 1;
#X obj 50 54 notein;
#X obj 63 230 nbx 7 20 -1e+37 1e+37 0 0 instrumental empty instrumental
55 20 1 15 -24198 -62784 -123526 0 256;
#X connect 0 0 11 0;
#X connect 0 1 11 1;
#X connect 1 0 0 2;
#X connect 2 0 0 1;
#X connect 3 0 2 0;
#X connect 3 0 1 0;
#X connect 4 0 0 0;
#X connect 5 0 1 1;
#X connect 10 0 9 0;
#X connect 12 0 0 0;
#X connect 12 0 13 0;
#X connect 12 1 0 1;
#X connect 12 2 0 2;
#X restore 213 195 pd piano;
#X obj 13 149 hsl 200 20 12 127 0 0 rlbd instrumental empty -2 -6 0
8 -62784 -44926 -1 5800 1;
#X obj 356 55 poisson 2.2;
#X text 795 91 aparecer;
#X obj 405 31 r lbd;
#X obj 357 32 r b;
#X text 172 89 num. predominante;
#X obj 357 88 s mpss;
#N canvas 58 65 450 300 meta_poisson 0;
#X obj 27 150 mtof;
#X obj 22 29 nbx 7 20 -1e+37 1e+37 0 0 empty mpss escala 30 -12 1 15
-225280 -123526 -1 52 256;
#X obj 93 205 nbx 5 20 -1e+37 1e+37 0 0 midi empty MIDI 60 20 1 15
-44926 -123526 -1 52 256;
#X obj 90 69 i;
#X obj 88 93 moses 12;
#X obj 92 131 moses 127;
#X floatatom 157 65 5 0 0 0 - - -;
#X text 156 47 limite inferior;
#X floatatom 181 105 5 0 0 0 - - -;
#X text 180 87 limite superior;
#X obj 27 235 nbx 10 20 -1e+37 1e+37 0 0 hz empty Hz 100 20 1 15 -261330
-262131 -1 164.814 256;
#X connect 0 0 10 0;
#X connect 1 0 3 0;
#X connect 1 0 0 0;
#X connect 3 0 4 0;
#X connect 4 1 5 0;
#X connect 5 0 2 0;
#X connect 6 0 4 1;
#X connect 8 0 5 1;
#X restore 124 217 pd meta_poisson;
#X text -2 -177 POISSON :: Distribuicao probabilistica em curva de
Poisson;
#X text -1 -159 comment;
#X connect 8 0 10 0;
#X connect 10 0 9 0;
#X connect 10 0 9 1;
#X connect 11 0 10 1;
#X connect 12 0 8 0;
#X connect 14 0 11 0;
#X connect 14 0 15 0;
#X connect 22 0 27 0;
#X connect 24 0 22 1;
#X connect 25 0 22 0;
