#N canvas 46 25 844 594 10;
#X msg 730 142 \; pd dsp 1;
#X msg 728 174 \; pd dsp 0;
#X obj 729 401 savepanel;
#X obj 422 67 bng 60 250 50 0 abre_arquivo empty Abra_o_arquivo!!!!
0 -6 0 8 -241291 -258699 -1;
#X obj 664 487 oggwrite~;
#X msg 455 523 start;
#X msg 499 524 stop;
#X msg 535 524 append;
#X msg 584 523 truncate;
#X msg 729 247 print;
#X symbolatom 499 12 30 0 0 0 TITULO_DA_MUSICA - tit;
#X obj 425 143 tgl 50 0 empty rec gravando 0 -6 0 8 -258699 -143491
-1 1 1;
#X obj -9 435 dac~;
#X floatatom 39 436 8 0 0 0 - - -;
#X obj 0 367 oggread~;
#X msg 35 194 start;
#X msg 74 250 stop;
#X msg 82 311 resume;
#X text 83 192 play file from beginning;
#X text 116 250 stop (pause) playing;
#X text 116 435 position in file (seconds);
#X msg 90 274 0;
#X msg 59 219 1;
#X obj 59 399 bng 15 250 50 0 empty empty empty 0 -6 0 8 -262144 -1
-1;
#X text 85 399 bang at end of file;
#X obj 19 126 openpanel;
#X msg 19 106 bang;
#X msg 19 143 open \$1;
#X obj 728 123 sel 1;
#X obj 728 48 tgl 70 0 empty empty Audio_liga/desliga 0 -6 0 8 -262144
-1 -1 1 1;
#X obj 388 41 vradio 30 1 0 5 menu_grava empty gravador 0 -6 0 8 -261689
-258699 -1 1;
#X obj 729 355 r titulo;
#X text 499 28 digite o titulo;
#X obj 729 203 loadbang;
#N canvas 312 139 413 289 label 0;
#X msg 210 22 TITLE \$1;
#X obj 12 22 bng 15 250 50 0 empty empty empty 0 -6 0 8 -262144 -1
-1;
#X msg 74 55 DATE \$1;
#X obj 72 36 date;
#X msg 75 98 LOCATION http://www.purosdados.organismo.art.br;
#X msg 47 154 ARTIST Orquestra_Organismo;
#X msg -6 210 DESCRIPTION Cozinhando_Puros_Dados;
#X obj 210 40 s titulo;
#X obj 210 4 r tit;
#X obj 13 0 loadbang;
#X obj 75 74 s data;
#X obj 75 118 s site;
#X obj 47 174 s artista;
#X obj -5 234 s descreve;
#X connect 0 0 7 0;
#X connect 1 0 3 0;
#X connect 1 0 4 0;
#X connect 1 0 5 0;
#X connect 1 0 6 0;
#X connect 2 0 10 0;
#X connect 3 0 2 0;
#X connect 4 0 11 0;
#X connect 5 0 12 0;
#X connect 6 0 13 0;
#X connect 8 0 0 0;
#X connect 9 0 1 0;
#X restore 725 226 pd label;
#X obj 730 312 r data;
#X obj 730 290 r site;
#X obj 730 268 r artista;
#X obj 730 334 r descreve;
#X obj 664 508 s rec;
#X msg 772 426 open \$1;
#X obj 729 379 r abre_arquivo;
#X msg 10 76 open \$1;
#X symbolatom 9 37 30 0 0 0 - - -;
#X obj 453 410 r menu_grava;
#X floatatom 453 434 5 0 0 0 - - -;
#X floatatom 718 521 5 0 0 0 - - tempo;
#X obj 724 430 s nom;
#X obj 10 12 r nom;
#X obj 588 408 r~ esq;
#X obj 636 408 r~ dir;
#X text 337 109 emenda;
#X text 349 80 para;
#X msg 446 286 open ~/Destop/purodado.ogg;
#X obj 452 453 route 0 1 2 3 4;
#X obj 474 475 bng 15 250 50 0 empty empty empty 0 -6 0 8 -262144 -1
-1;
#X obj 454 475 bng 15 250 50 0 empty empty empty 0 -6 0 8 -262144 -1
-1;
#X obj 496 475 bng 15 250 50 0 empty empty empty 0 -6 0 8 -262144 -1
-1;
#X obj 516 475 bng 15 250 50 0 empty empty empty 0 -6 0 8 -262144 -1
-1;
#X obj 589 475 bng 15 250 50 0 empty empty empty 0 -6 0 8 -262144 -1
-1;
#X msg 139 353 seek \$1;
#X obj 479 142 nbx 3 50 -1e+37 1e+37 0 0 empty tempo empty 0 -6 1 30
-227331 -261689 -1 71 256;
#X obj 147 310 hsl 128 15 0 480 0 0 empty empty empty -2 -6 0 8 -262144
-1 -1 0 1;
#X floatatom 143 334 5 0 0 0 - - -;
#X connect 2 0 40 0;
#X connect 2 0 47 0;
#X connect 4 0 39 0;
#X connect 4 1 46 0;
#X connect 5 0 4 0;
#X connect 6 0 4 0;
#X connect 7 0 4 0;
#X connect 8 0 4 0;
#X connect 9 0 4 0;
#X connect 14 0 12 0;
#X connect 14 1 12 1;
#X connect 14 2 13 0;
#X connect 14 3 23 0;
#X connect 15 0 14 0;
#X connect 16 0 14 0;
#X connect 17 0 14 0;
#X connect 21 0 14 0;
#X connect 22 0 14 0;
#X connect 25 0 27 0;
#X connect 26 0 25 0;
#X connect 27 0 14 0;
#X connect 28 0 0 0;
#X connect 28 1 1 0;
#X connect 29 0 28 0;
#X connect 31 0 4 0;
#X connect 33 0 29 0;
#X connect 35 0 4 0;
#X connect 36 0 4 0;
#X connect 37 0 4 0;
#X connect 38 0 4 0;
#X connect 40 0 4 0;
#X connect 41 0 2 0;
#X connect 42 0 14 0;
#X connect 44 0 45 0;
#X connect 45 0 54 0;
#X connect 48 0 43 0;
#X connect 49 0 4 0;
#X connect 50 0 4 1;
#X connect 54 0 56 0;
#X connect 54 1 55 0;
#X connect 54 2 57 0;
#X connect 54 3 58 0;
#X connect 54 4 59 0;
#X connect 55 0 6 0;
#X connect 56 0 5 0;
#X connect 57 0 7 0;
#X connect 58 0 8 0;
#X connect 60 0 14 0;
#X connect 62 0 63 0;
#X connect 63 0 60 0;
