#N canvas 175 173 620 436 10;
#X obj 35 133 cnv 15 100 60 empty \$0-tela sol 20 12 0 40 -261682 -66577
0;
#X obj 143 55 tgl 15 0 empty empty empty 17 7 0 10 -262144 -1 -1 0
1;
#X obj 103 96 hsl 128 15 0 127 0 0 empty empty sss -2 -8 0 10 -262144
-1 -1 0 1;
#X obj 191 283 s \$0-tela;
#X msg 164 231 label \$1;
#X symbolatom 185 190 10 0 0 0 - - -;
#X obj 296 184 f;
#X msg 274 163 bang;
#X floatatom 312 162 3 20 60 0 - - -;
#X floatatom 347 184 3 150 200 0 - - -;
#X obj 293 211 pack 0 0;
#X text 340 162 x-position;
#X text 374 184 y-position;
#X obj 420 224 pack f f;
#X msg 271 236 pos \$1 \$2;
#X floatatom 317 98 5 0 0 0 - - -;
#X floatatom 358 123 5 0 0 0 - - -;
#X connect 4 0 3 0;
#X connect 5 0 4 0;
#X connect 6 0 10 0;
#X connect 7 0 6 0;
#X connect 8 0 6 1;
#X connect 8 0 7 0;
#X connect 9 0 10 1;
#X connect 9 0 7 0;
#X connect 10 0 14 0;
#X connect 14 0 3 0;
#X connect 15 0 6 1;
#X connect 15 0 7 0;
#X connect 16 0 10 1;
#X connect 16 0 7 0;
