#N canvas 126 26 874 395 10;
#X declare -lib iem_tab;
#X declare -lib tof;
#X declare -lib iem_tab;
#X declare -lib tof;
#X declare -lib iem_tab;
#X declare -lib tof;
#X declare -lib iem_tab;
#X declare -lib tof;
#X obj 34 64 mimosa-sampler;
#X obj 64 256 ezdac~;
#X obj 103 225 mixer~ 4 --------------------------------------------
;
#X obj 155 64 mimosa-sampler;
#X obj 285 64 mimosa-sampler;
#X obj 409 63 mimosa-sampler;
#X obj 140 -90 r wii;
#N canvas 0 0 450 300 a 0;
#X obj 33 64 autoscale -12 12;
#X obj 34 39 inlet;
#X obj 36 92 outlet;
#X connect 0 0 2 0;
#X connect 1 0 0 0;
#X restore 66 -2 pd a;
#N canvas 0 0 450 300 a 0;
#X obj 33 64 autoscale -12 12;
#X obj 34 39 inlet;
#X obj 36 92 outlet;
#X connect 0 0 2 0;
#X connect 1 0 0 0;
#X restore 170 -10 pd a;
#N canvas 0 0 450 300 a 0;
#X obj 33 64 autoscale -12 12;
#X obj 34 39 inlet;
#X obj 36 92 outlet;
#X connect 0 0 2 0;
#X connect 1 0 0 0;
#X restore 290 3 pd a;
#X obj 126 -62 unpack f f f f f f f;
#X obj 53 27 i;
#X obj 46 -42 sel 1;
#X obj 28 -7 bng 15 250 50 0 empty empty empty 17 7 0 10 -262144 -1
-1;
#X obj 158 38 i;
#X obj 113 -16 sel 1;
#X obj 100 9 bng 15 250 50 0 empty empty empty 17 7 0 10 -262144 -1
-1;
#X obj 717 -83 comport 4 19200;
#X msg 716 50 180 123 152 0 0 132 128;
#X obj 718 0 prepend set;
#X obj 806 21 s wii;
#X obj 722 -46 serialize 7;
#X connect 0 0 2 0;
#X connect 2 0 1 0;
#X connect 2 0 1 1;
#X connect 3 0 2 1;
#X connect 4 0 2 2;
#X connect 5 0 2 3;
#X connect 6 0 10 0;
#X connect 7 0 11 1;
#X connect 8 0 14 1;
#X connect 10 0 7 0;
#X connect 10 1 8 0;
#X connect 10 2 9 0;
#X connect 10 3 12 0;
#X connect 10 4 15 0;
#X connect 11 0 0 0;
#X connect 12 0 13 0;
#X connect 12 0 11 0;
#X connect 14 0 3 0;
#X connect 15 0 16 0;
#X connect 15 0 14 0;
#X connect 17 0 21 0;
#X connect 19 0 18 0;
#X connect 21 0 19 0;
#X connect 21 0 20 0;
