#N canvas 441 44 642 517 10;
#X floatatom 155 17 5 0 0 0 - - -;
#X obj 101 74 / 16;
#X obj 64 112 int;
#X floatatom 64 138 5 0 0 0 - - -;
#X obj 101 111 -;
#X obj 161 78 / 16;
#X obj 152 114 int;
#X obj 179 114 -;
#X floatatom 202 356 10 0 0 0 - - -;
#N canvas 0 0 450 300 hexabit 0;
#X obj 126 97 sel 10 11 12 13 14 15;
#X msg 126 130 a;
#X obj 59 75 moses 10;
#X msg 153 130 b;
#X msg 180 130 c;
#X msg 207 130 d;
#X msg 235 130 e;
#X msg 262 131 f;
#X obj 88 180 list;
#X obj 60 9 inlet;
#X obj 89 231 outlet;
#X obj 89 203 prepend set;
#X obj 60 33 split 0 16;
#X connect 0 0 1 0;
#X connect 0 1 3 0;
#X connect 0 2 4 0;
#X connect 0 3 5 0;
#X connect 0 4 6 0;
#X connect 0 5 7 0;
#X connect 1 0 8 0;
#X connect 2 0 8 0;
#X connect 2 1 0 0;
#X connect 3 0 8 0;
#X connect 4 0 8 0;
#X connect 5 0 8 0;
#X connect 6 0 8 0;
#X connect 7 0 8 0;
#X connect 8 0 11 0;
#X connect 9 0 12 0;
#X connect 11 0 10 0;
#X connect 12 0 2 0;
#X restore 112 255 pd hexabit;
#X msg 112 277 0;
#X obj 112 183 * 16;
#X msg 76 28 1985;
#X obj 187 172 * 16;
#N canvas 0 0 450 300 hexabit 0;
#X obj 126 97 sel 10 11 12 13 14 15;
#X msg 126 130 a;
#X obj 59 75 moses 10;
#X msg 153 130 b;
#X msg 180 130 c;
#X msg 207 130 d;
#X msg 235 130 e;
#X msg 262 131 f;
#X obj 88 180 list;
#X obj 60 9 inlet;
#X obj 89 231 outlet;
#X obj 89 203 prepend set;
#X obj 60 33 split 0 16;
#X connect 0 0 1 0;
#X connect 0 1 3 0;
#X connect 0 2 4 0;
#X connect 0 3 5 0;
#X connect 0 4 6 0;
#X connect 0 5 7 0;
#X connect 1 0 8 0;
#X connect 2 0 8 0;
#X connect 2 1 0 0;
#X connect 3 0 8 0;
#X connect 4 0 8 0;
#X connect 5 0 8 0;
#X connect 6 0 8 0;
#X connect 7 0 8 0;
#X connect 8 0 11 0;
#X connect 9 0 12 0;
#X connect 11 0 10 0;
#X connect 12 0 2 0;
#X restore 199 255 pd hexabit;
#X msg 199 277 0;
#N canvas 0 0 450 300 hexabit 0;
#X obj 126 97 sel 10 11 12 13 14 15;
#X msg 126 130 a;
#X obj 59 75 moses 10;
#X msg 153 130 b;
#X msg 180 130 c;
#X msg 207 130 d;
#X msg 235 130 e;
#X msg 262 131 f;
#X obj 88 180 list;
#X obj 60 9 inlet;
#X obj 89 231 outlet;
#X obj 89 203 prepend set;
#X obj 60 33 split 0 16;
#X connect 0 0 1 0;
#X connect 0 1 3 0;
#X connect 0 2 4 0;
#X connect 0 3 5 0;
#X connect 0 4 6 0;
#X connect 0 5 7 0;
#X connect 1 0 8 0;
#X connect 2 0 8 0;
#X connect 2 1 0 0;
#X connect 3 0 8 0;
#X connect 4 0 8 0;
#X connect 5 0 8 0;
#X connect 6 0 8 0;
#X connect 7 0 8 0;
#X connect 8 0 11 0;
#X connect 9 0 12 0;
#X connect 11 0 10 0;
#X connect 12 0 2 0;
#X restore 359 189 pd hexabit;
#X msg 359 211 4;
#X obj 321 67 / 16;
#X obj 312 103 int;
#X obj 339 103 -;
#X obj 347 161 * 16;
#X connect 0 0 1 0;
#X connect 1 0 2 0;
#X connect 1 0 4 0;
#X connect 2 0 3 0;
#X connect 2 0 4 1;
#X connect 2 0 5 0;
#X connect 4 0 11 0;
#X connect 5 0 6 0;
#X connect 5 0 7 0;
#X connect 6 0 7 1;
#X connect 6 0 8 0;
#X connect 6 0 18 0;
#X connect 7 0 13 0;
#X connect 9 0 10 0;
#X connect 11 0 9 0;
#X connect 12 0 1 0;
#X connect 13 0 14 0;
#X connect 14 0 15 0;
#X connect 16 0 17 0;
#X connect 18 0 19 0;
#X connect 18 0 20 0;
#X connect 19 0 20 1;
#X connect 20 0 21 0;
#X connect 21 0 16 0;
