#N canvas 121 26 874 395 10;
#X declare -lib iem_tab;
#X declare -lib tof;
#X declare -lib iem_tab;
#X declare -lib tof;
#X declare -lib iem_tab;
#X declare -lib tof;
#X declare -lib iem_tab;
#X declare -lib tof;
#X obj 34 64 mimosa-sampler;
#X obj 64 256 ezdac~;
#X obj 103 225 mixer~ 4 --------------------------------------------
;
#X obj 155 64 mimosa-sampler;
#X obj 285 64 mimosa-sampler;
#X obj 409 63 mimosa-sampler;
#X obj 140 -90 r wii;
#N canvas 0 0 450 300 a 0;
#X obj 33 64 autoscale -12 12;
#X obj 34 39 inlet;
#X obj 36 92 outlet;
#X connect 0 0 2 0;
#X connect 1 0 0 0;
#X restore 74 -53 pd a;
#N canvas 0 0 450 300 a 0;
#X obj 33 64 autoscale -12 12;
#X obj 34 39 inlet;
#X obj 36 92 outlet;
#X connect 0 0 2 0;
#X connect 1 0 0 0;
#X restore 163 -31 pd a;
#N canvas 0 0 450 300 a 0;
#X obj 33 64 autoscale -12 12;
#X obj 34 39 inlet;
#X obj 36 92 outlet;
#X connect 0 0 2 0;
#X connect 1 0 0 0;
#X restore 273 -20 pd a;
#X obj 126 -62 unpack f f f f f f f;
#X obj 49 -47 i;
#X obj 46 -42 sel 1;
#X obj 28 -7 bng 15 250 50 0 empty empty empty 17 7 0 10 -262144 -1
-1;
#X obj 198 -34 i;
#X obj 115 -32 sel 1;
#X obj 93 -29 bng 15 250 50 0 empty empty empty 17 7 0 10 -262144 -1
-1;
#X obj 717 -83 comport 4 19200;
#X msg 716 50 180 123 152 0 0 132 128;
#X obj 718 0 prepend set;
#X obj 806 21 s wii;
#X obj 722 -46 serialize 7;
#X obj 406 -59 metro 250;
#X obj 407 -82 tgl 15 0 empty empty empty 17 7 0 10 -262144 -1 -1 1
1;
#X floatatom 479 -79 5 0 0 0 - - -;
#X msg 72 42 0;
#X msg 204 44 0;
#X msg 305 40 0;
#X msg 408 28 0;
#X obj 341 -2 sel 0 1 2 3;
#X obj 563 37 osc~ 440;
#X floatatom 573 6 5 0 0 0 - - -;
#X obj 566 86 vol~;
#X floatatom 613 66 5 0 0 0 - - -;
#X obj 342 -36 count 4;
#X connect 0 0 2 0;
#X connect 2 0 1 0;
#X connect 2 0 1 1;
#X connect 3 0 2 1;
#X connect 4 0 2 2;
#X connect 5 0 2 3;
#X connect 6 0 10 0;
#X connect 7 0 11 1;
#X connect 8 0 14 1;
#X connect 10 0 7 0;
#X connect 10 1 8 0;
#X connect 10 2 9 0;
#X connect 10 3 12 0;
#X connect 10 4 15 0;
#X connect 12 0 13 0;
#X connect 12 0 11 0;
#X connect 15 0 16 0;
#X connect 15 0 14 0;
#X connect 17 0 21 0;
#X connect 19 0 18 0;
#X connect 21 0 19 0;
#X connect 21 0 20 0;
#X connect 22 0 34 0;
#X connect 23 0 22 0;
#X connect 24 0 22 1;
#X connect 25 0 0 0;
#X connect 26 0 3 0;
#X connect 27 0 4 0;
#X connect 28 0 5 0;
#X connect 29 0 25 0;
#X connect 29 1 26 0;
#X connect 29 2 27 0;
#X connect 29 3 28 0;
#X connect 30 0 32 0;
#X connect 31 0 30 0;
#X connect 33 0 32 1;
#X connect 34 0 29 0;
