#N canvas 0 26 1024 661 10;
#X obj 415 175 bng 20 250 50 0 empty empty AllNotesOff 0 -6 0 10 -262144
-1 -1;
#X obj 155 23 loadometer;
#X obj 105 423 dac~;
#X obj 27 50 notein;
#X text 69 50 MIDI in;
#X obj 27 77 mtof;
#X obj 101 77 / 127;
#X obj 441 14 loadbang;
#X msg 441 41 \; pd dsp 1;
#X obj 291 42 sssadpanel;
#X text 270 22 Save and load presets:;
#X text 31 93 frequency;
#X msg 441 77 \; pd dsp 0;
#X text 14 -1 Uses MIDI for demonstration purposes \, but that can
easily be changed!;
#N canvas 454 179 217 230 pitchbend 0;
#X obj 24 22 nbx 2 14 0 99 0 1 empty empty semitones 32 8 0 10 -232576
-1 -1 2 256;
#X text 2 21 +/-;
#X obj 4 47 bendin;
#X obj 5 89 / 8192;
#X obj 5 125 * 1200;
#X obj 54 89 * 100;
#X text 47 123 convert to cents;
#X obj 4 68 - 8192;
#X obj 5 182 s \$0-OSC;
#X msg 5 153 /*/global/pitchbend \$1;
#X connect 0 0 5 0;
#X connect 2 0 7 0;
#X connect 3 0 4 0;
#X connect 4 0 9 0;
#X connect 5 0 4 1;
#X connect 7 0 3 0;
#X connect 9 0 8 0;
#X coords 0 -1 1 1 110 40 1 0 0;
#X restore 276 175 pd pitchbend;
#X text 200 428 Phil Stone - http://pkstonemusic.com;
#X obj 261 397 s \$0-OSC;
#X obj 220 77 r \$0-OSC;
#X text 119 92 ampl. (0.0-1.0);
#N canvas 0 22 225 129 allNotesOff 0;
#X obj 6 8 inlet;
#X obj 6 72 s \$0-OSC;
#X msg 6 33 /*/global/allNotesOff 1;
#X connect 0 0 2 0;
#X connect 2 0 1 0;
#X restore 415 200 pd allNotesOff;
#X obj 27 110 polywavesynth example 32 1;
#X msg 280 306 /example/note/amp 1 \, /example/note/freq 440;
#X msg 289 373 /example/note/amp 0 \, /example/note/freq 440;
#X obj 289 350 delay 200;
#X obj 289 329 b;
#X msg 262 264 /example/osc/carrier/wave 3;
#X text 279 288 Play a note via OSC;
#X text 273 139 These two send to all voices \, at any moment;
#X text 271 152 (not just at attacks).;
#X text 261 244 Change oscillator carrier wave to pulse via OSC;
#X text 328 227 OSC ADDRESSING EXAMPLES;
#X floatatom 91 35 5 0 0 0 - - -;
#X obj 648 364 makenote 127 100;
#X floatatom 648 337 5 0 0 0 - - -;
#X obj 579 96 pianoroll pianoroll1 400 192 -12 12 24 16 0 0 1 -12 0.391304
-9.91304 1 -7.82609 0.73913 -1.56522 0.521739 -7.82609 1 -6.78261 0.478261
-1.56522 0.391304 -8.86957 1 -1.56522 1 2.6087 1 -6.78261 0.521739
-2.6087 1 -2.6087 1 -6.78261 1 -5.73913 1 -5.73913 0.217391;
#X obj 576 40 timing.tempo_;
#X obj 627 299 + 24;
#X floatatom 947 333 5 0 0 0 - - -;
#X obj 761 326 autoscale 0 127;
#X obj 678 308 int;
#X connect 0 0 19 0;
#X connect 3 0 5 0;
#X connect 5 0 20 0;
#X connect 6 0 20 1;
#X connect 7 0 8 0;
#X connect 17 0 20 2;
#X connect 20 0 2 0;
#X connect 20 1 2 1;
#X connect 21 0 16 0;
#X connect 21 0 24 0;
#X connect 22 0 16 0;
#X connect 23 0 22 0;
#X connect 24 0 23 0;
#X connect 25 0 16 0;
#X connect 31 0 5 0;
#X connect 32 0 5 0;
#X connect 32 1 6 0;
#X connect 33 0 32 0;
#X connect 34 0 36 0;
#X connect 34 1 37 0;
#X connect 34 1 38 0;
#X connect 35 0 34 0;
#X connect 36 0 39 0;
#X connect 38 0 32 1;
#X connect 39 0 33 0;
