#N canvas 0 26 1024 661 10;
#X obj 34 472 nbx 5 25 -1e+37 1e+37 0 0 empty empty X: -20 14 1 16
-241655 -1 -1 0 256;
#X obj 40 248 gcanvas 200 200;
#X obj 136 471 nbx 5 25 -1e+37 1e+37 0 0 empty empty Y: -20 14 1 16
-241655 -1 -1 0 256;
#X text 18 3 [gcanvas];
#X text 69 505 mouse values;
#X obj 241 486 bng 15 250 50 0 empty empty empty 17 7 0 10 -262144
-1 -1;
#X text 261 487 mouse clicked in box;
#N canvas 0 22 441 440 resize 0;
#X obj 132 192 gcanvas 49 49;
#X msg 132 172 size 49 49;
#X obj 37 193 vsl 20 200 200 5 0 0 empty empty Y 0 -8 1 11 -241655
-1 -1 15308 0;
#X obj 135 72 hsl 200 20 5 200 0 0 empty empty X -2 -6 1 11 -241655
-1 -1 4592 0;
#X obj 20 62 loadbang;
#X msg 37 85 50;
#N canvas 526 29 466 316 guts 0;
#X obj 141 36 inlet;
#X obj 184 271 outlet;
#X obj 154 160 pack f f;
#X obj 175 135 t b f;
#X obj 154 181 t b a;
#X obj 208 37 inlet;
#X text 130 36 Y;
#X text 253 38 X;
#X obj 208 76 int;
#X obj 141 78 int;
#X msg 184 200 set size \$1 \$2;
#X connect 0 0 9 0;
#X connect 2 0 4 0;
#X connect 3 0 2 0;
#X connect 3 1 2 1;
#X connect 4 0 1 0;
#X connect 4 1 10 0;
#X connect 5 0 8 0;
#X connect 8 0 2 0;
#X connect 9 0 3 0;
#X connect 10 0 1 0;
#X restore 132 118 pd guts;
#X obj 246 274 bng 15 250 50 0 empty empty empty 17 7 0 10 -262144
-1 -1;
#X text 266 275 mouse clicked in box;
#X connect 0 2 7 0;
#X connect 1 0 0 0;
#X connect 2 0 6 0;
#X connect 3 0 6 1;
#X connect 4 0 5 0;
#X connect 5 0 3 0;
#X connect 5 0 2 0;
#X connect 6 0 1 0;
#X restore 331 343 pd resize;
#X floatatom 241 466 5 0 0 0 - - -;
#X msg 11 42 color grey 0;
#X msg 142 211 delete 1;
#X msg 22 63 line green 25 50 50 50;
#X msg 76 132 move 2 50 50 50 50;
#X msg 79 210 reset;
#X msg 83 172 move 2 50 \$1 50 50;
#X obj 86 153 hsl 128 15 0 127 0 0 empty empty empty -2 -8 0 10 -262144
-1 -1 0 1;
#X obj 423 235 input.color.grid_;
#X msg 380 451 color #ffeeaa 0;
#X obj 456 352 prepend set;
#X msg 508 385 0.1 1 0.211236;
#X msg 299 267 size 200 200;
#X obj 628 130 colorgrid colorgrid1 256 0 256 50 0 50 0 1 1 10 10 733
150;
#X obj 582 446 convert.hex2dec;
#X msg 32 83 rect purple 125 150 9 50;
#X obj 478 482 grid grid1 100 0 199 100 0 199 0 1 1 10 10 510 516;
#X obj 657 363 cursor;
#X obj 769 485 mknob 54 100 0 127 0 0 empty empty empty -2 -6 0 8 -24094
-1 -1 0 1;
#X floatatom 583 1 5 0 0 0 - - -;
#X obj 788 331 color.rgbset;
#X obj 765 248 pack f f f;
#X msg 582 34 size \$1;
#X obj 750 566 nbx 1 60 -1e+37 1e+37 0 0 empty empty empty 0 -8 1 50
-24094 -1 -1 0 256;
#X floatatom 693 447 5 0 0 0 - - -;
#X msg 692 480 size \$1;
#X floatatom 657 507 5 0 0 0 - - -;
#X floatatom 606 510 5 0 0 0 - - -;
#N canvas 0 0 450 300 nbxfont 0;
#X obj 75 79 f;
#X msg 53 58 bang;
#X obj 75 102 pack 0 0;
#X text 106 14 font;
#X text 152 36 height;
#X obj 76 151 outlet;
#X floatatom 124 82 5 0 0 0 - - -;
#X floatatom 95 53 5 0 0 0 - - -;
#X obj 95 28 inlet;
#X obj 154 56 inlet;
#X msg 76 127 label_font \$1 \$2;
#X connect 0 0 2 0;
#X connect 1 0 0 0;
#X connect 2 0 10 0;
#X connect 6 0 2 1;
#X connect 6 0 1 0;
#X connect 7 0 0 1;
#X connect 7 0 1 0;
#X connect 8 0 7 0;
#X connect 9 0 6 0;
#X connect 10 0 5 0;
#X restore 632 600 pd nbxfont;
#X floatatom 653 569 5 0 0 0 - - -;
#X floatatom 602 572 5 0 0 0 - - -;
#N canvas 0 0 450 300 nbxsize 0;
#X obj 75 79 f;
#X msg 53 58 bang;
#X obj 75 102 pack 0 0;
#X text 106 14 font;
#X text 152 36 height;
#X obj 76 151 outlet;
#X floatatom 124 82 5 0 0 0 - - -;
#X floatatom 95 53 5 0 0 0 - - -;
#X obj 95 28 inlet;
#X obj 154 56 inlet;
#X msg 76 127 size \$1 \$2;
#X connect 0 0 2 0;
#X connect 1 0 0 0;
#X connect 2 0 10 0;
#X connect 6 0 2 1;
#X connect 6 0 1 0;
#X connect 7 0 0 1;
#X connect 7 0 1 0;
#X connect 8 0 7 0;
#X connect 9 0 6 0;
#X connect 10 0 5 0;
#X restore 636 538 pd nbxsize;
#X obj 681 12 gamme 90 40 0 0 0 0 0 0 0 0 0 0 0 0;
#X obj 234 160 webcolors;
#X obj 192 34 colorgrid colorgrid1 256 0 256 50 0 50 0 1 1 10 10 379
66;
#X floatatom 199 124 5 0 255 0 - - -;
#X floatatom 299 123 5 0 255 0 - - -;
#X floatatom 401 123 5 0 255 0 - - -;
#X obj 205 98 clip 0 255;
#X obj 323 100 clip 0 255;
#X obj 438 99 clip 0 255;
#X msg 237 215 color \$1 0;
#X obj 110 553 breakpoints 300 70;
#X symbolatom 296 182 10 0 0 0 - - -;
#X connect 1 0 0 0;
#X connect 1 1 2 0;
#X connect 1 2 8 0;
#X connect 8 0 5 0;
#X connect 9 0 1 0;
#X connect 10 0 1 0;
#X connect 11 0 1 0;
#X connect 12 0 1 0;
#X connect 13 0 1 0;
#X connect 14 0 1 0;
#X connect 15 0 14 0;
#X connect 16 0 18 0;
#X connect 17 0 1 0;
#X connect 18 0 19 0;
#X connect 20 0 1 0;
#X connect 21 0 29 0;
#X connect 21 1 29 1;
#X connect 21 2 29 2;
#X connect 23 0 1 0;
#X connect 27 0 30 0;
#X connect 28 0 26 0;
#X connect 28 0 31 0;
#X connect 29 0 28 0;
#X connect 30 0 26 0;
#X connect 32 0 33 0;
#X connect 33 0 31 0;
#X connect 34 0 39 1;
#X connect 35 0 39 0;
#X connect 36 0 31 0;
#X connect 37 0 36 1;
#X connect 38 0 36 0;
#X connect 39 0 31 0;
#X connect 41 1 49 0;
#X connect 41 1 51 0;
#X connect 42 0 46 0;
#X connect 42 1 47 0;
#X connect 42 2 48 0;
#X connect 43 0 41 0;
#X connect 44 0 41 1;
#X connect 45 0 41 2;
#X connect 46 0 43 0;
#X connect 47 0 44 0;
#X connect 48 0 45 0;
#X connect 49 0 1 0;
#X connect 49 0 24 0;
