#N canvas 107 93 538 519 10;
#X obj 169 112 text 227 97 1;
#X msg 174 40 bang;
#X msg 289 83 key \$1;
#X msg 273 48 123;
#X msg 305 48 124;
#X msg 335 48 125;
#X msg 242 49 10;
#X msg 368 47 92;
#X obj 177 367 text 200 60 0;
#X obj 190 283 loadbang;
#X msg 182 319 set blah blah blah;
#X msg 425 48 59;
#X msg 397 47 44;
#X obj 169 219 pddp/print;
#X obj 150 291 bng 15 250 50 0 empty empty empty 17 7 0 10 -262144
-1 -1;
#X obj 98 452 prepend set;
#X msg 101 475 caralhera da porra;
#X obj 135 329 t b b;
#X obj 52 349 delay 10;
#X msg 51 383 set ok;
#X msg 99 405 set;
#X obj 100 371 delay 250;
#X connect 0 0 13 0;
#X connect 1 0 0 0;
#X connect 2 0 0 0;
#X connect 3 0 2 0;
#X connect 4 0 2 0;
#X connect 5 0 2 0;
#X connect 6 0 2 0;
#X connect 7 0 2 0;
#X connect 8 0 15 0;
#X connect 9 0 10 0;
#X connect 10 0 8 0;
#X connect 11 0 2 0;
#X connect 12 0 2 0;
#X connect 14 0 17 0;
#X connect 15 0 16 0;
#X connect 17 0 18 0;
#X connect 17 0 21 0;
#X connect 17 1 8 0;
#X connect 18 0 19 0;
#X connect 19 0 8 0;
#X connect 20 0 8 0;
#X connect 21 0 20 0;
