#N canvas 290 93 642 517 10;
#X obj 101 74 / 16;
#X obj 64 112 int;
#X floatatom 64 138 5 0 0 0 - - -;
#X obj 101 111 -;
#X obj 161 78 / 16;
#X obj 152 114 int;
#X obj 179 114 -;
#N canvas 0 0 450 300 hexabit 0;
#X obj 126 97 sel 10 11 12 13 14 15;
#X msg 126 130 a;
#X obj 59 75 moses 10;
#X msg 153 130 b;
#X msg 180 130 c;
#X msg 207 130 d;
#X msg 235 130 e;
#X msg 262 131 f;
#X obj 88 180 list;
#X obj 60 9 inlet;
#X obj 88 204 outlet;
#X obj 60 33 split 0 16;
#X connect 0 0 1 0;
#X connect 0 1 3 0;
#X connect 0 2 4 0;
#X connect 0 3 5 0;
#X connect 0 4 6 0;
#X connect 0 5 7 0;
#X connect 1 0 8 0;
#X connect 2 0 8 0;
#X connect 2 1 0 0;
#X connect 3 0 8 0;
#X connect 4 0 8 0;
#X connect 5 0 8 0;
#X connect 6 0 8 0;
#X connect 7 0 8 0;
#X connect 8 0 10 0;
#X connect 9 0 11 0;
#X connect 11 0 2 0;
#X restore 112 255 pd hexabit;
#X obj 112 183 * 16;
#X obj 187 172 * 16;
#N canvas 0 0 450 300 hexabit 0;
#X obj 126 97 sel 10 11 12 13 14 15;
#X msg 126 130 a;
#X obj 59 75 moses 10;
#X msg 153 130 b;
#X msg 180 130 c;
#X msg 207 130 d;
#X msg 235 130 e;
#X msg 262 131 f;
#X obj 88 180 list;
#X obj 60 9 inlet;
#X obj 88 204 outlet;
#X obj 60 33 split 0 16;
#X connect 0 0 1 0;
#X connect 0 1 3 0;
#X connect 0 2 4 0;
#X connect 0 3 5 0;
#X connect 0 4 6 0;
#X connect 0 5 7 0;
#X connect 1 0 8 0;
#X connect 2 0 8 0;
#X connect 2 1 0 0;
#X connect 3 0 8 0;
#X connect 4 0 8 0;
#X connect 5 0 8 0;
#X connect 6 0 8 0;
#X connect 7 0 8 0;
#X connect 8 0 10 0;
#X connect 9 0 11 0;
#X connect 11 0 2 0;
#X restore 187 251 pd hexabit;
#X obj 112 278 tosymbol;
#X symbolatom 112 303 10 0 0 0 - - -;
#X obj 187 279 tosymbol;
#X symbolatom 187 304 10 0 0 0 - - -;
#X obj 258 75 / 16;
#X obj 221 113 int;
#X floatatom 221 139 5 0 0 0 - - -;
#X obj 258 112 -;
#X obj 318 79 / 16;
#X obj 309 115 int;
#X obj 336 115 -;
#N canvas 0 0 450 300 hexabit 0;
#X obj 126 97 sel 10 11 12 13 14 15;
#X msg 126 130 a;
#X obj 59 75 moses 10;
#X msg 153 130 b;
#X msg 180 130 c;
#X msg 207 130 d;
#X msg 235 130 e;
#X msg 262 131 f;
#X obj 88 180 list;
#X obj 60 9 inlet;
#X obj 88 204 outlet;
#X obj 60 33 split 0 16;
#X connect 0 0 1 0;
#X connect 0 1 3 0;
#X connect 0 2 4 0;
#X connect 0 3 5 0;
#X connect 0 4 6 0;
#X connect 0 5 7 0;
#X connect 1 0 8 0;
#X connect 2 0 8 0;
#X connect 2 1 0 0;
#X connect 3 0 8 0;
#X connect 4 0 8 0;
#X connect 5 0 8 0;
#X connect 6 0 8 0;
#X connect 7 0 8 0;
#X connect 8 0 10 0;
#X connect 9 0 11 0;
#X connect 11 0 2 0;
#X restore 269 256 pd hexabit;
#X obj 269 184 * 16;
#X obj 344 173 * 16;
#N canvas 0 0 450 300 hexabit 0;
#X obj 126 97 sel 10 11 12 13 14 15;
#X msg 126 130 a;
#X obj 59 75 moses 10;
#X msg 153 130 b;
#X msg 180 130 c;
#X msg 207 130 d;
#X msg 235 130 e;
#X msg 262 131 f;
#X obj 88 180 list;
#X obj 60 9 inlet;
#X obj 88 204 outlet;
#X obj 60 33 split 0 16;
#X connect 0 0 1 0;
#X connect 0 1 3 0;
#X connect 0 2 4 0;
#X connect 0 3 5 0;
#X connect 0 4 6 0;
#X connect 0 5 7 0;
#X connect 1 0 8 0;
#X connect 2 0 8 0;
#X connect 2 1 0 0;
#X connect 3 0 8 0;
#X connect 4 0 8 0;
#X connect 5 0 8 0;
#X connect 6 0 8 0;
#X connect 7 0 8 0;
#X connect 8 0 10 0;
#X connect 9 0 11 0;
#X connect 11 0 2 0;
#X restore 344 252 pd hexabit;
#X obj 269 279 tosymbol;
#X symbolatom 269 304 10 0 0 0 - - -;
#X obj 344 280 tosymbol;
#X symbolatom 344 305 10 0 0 0 - - -;
#X obj 408 75 / 16;
#X obj 371 113 int;
#X floatatom 371 139 5 0 0 0 - - -;
#X obj 408 112 -;
#X obj 468 79 / 16;
#X obj 459 115 int;
#X obj 486 115 -;
#N canvas 0 0 450 300 hexabit 0;
#X obj 126 97 sel 10 11 12 13 14 15;
#X msg 126 130 a;
#X obj 59 75 moses 10;
#X msg 153 130 b;
#X msg 180 130 c;
#X msg 207 130 d;
#X msg 235 130 e;
#X msg 262 131 f;
#X obj 88 180 list;
#X obj 60 9 inlet;
#X obj 88 204 outlet;
#X obj 60 33 split 0 16;
#X connect 0 0 1 0;
#X connect 0 1 3 0;
#X connect 0 2 4 0;
#X connect 0 3 5 0;
#X connect 0 4 6 0;
#X connect 0 5 7 0;
#X connect 1 0 8 0;
#X connect 2 0 8 0;
#X connect 2 1 0 0;
#X connect 3 0 8 0;
#X connect 4 0 8 0;
#X connect 5 0 8 0;
#X connect 6 0 8 0;
#X connect 7 0 8 0;
#X connect 8 0 10 0;
#X connect 9 0 11 0;
#X connect 11 0 2 0;
#X restore 419 256 pd hexabit;
#X obj 419 184 * 16;
#X obj 494 173 * 16;
#N canvas 0 0 450 300 hexabit 0;
#X obj 126 97 sel 10 11 12 13 14 15;
#X msg 126 130 a;
#X obj 59 75 moses 10;
#X msg 153 130 b;
#X msg 180 130 c;
#X msg 207 130 d;
#X msg 235 130 e;
#X msg 262 131 f;
#X obj 88 180 list;
#X obj 60 9 inlet;
#X obj 88 204 outlet;
#X obj 60 33 split 0 16;
#X connect 0 0 1 0;
#X connect 0 1 3 0;
#X connect 0 2 4 0;
#X connect 0 3 5 0;
#X connect 0 4 6 0;
#X connect 0 5 7 0;
#X connect 1 0 8 0;
#X connect 2 0 8 0;
#X connect 2 1 0 0;
#X connect 3 0 8 0;
#X connect 4 0 8 0;
#X connect 5 0 8 0;
#X connect 6 0 8 0;
#X connect 7 0 8 0;
#X connect 8 0 10 0;
#X connect 9 0 11 0;
#X connect 11 0 2 0;
#X restore 494 252 pd hexabit;
#X obj 419 279 tosymbol;
#X symbolatom 419 304 10 0 0 0 - - -;
#X obj 494 280 tosymbol;
#X symbolatom 494 305 10 0 0 0 - - -;
#X obj 272 347 pack s s s s s s;
#X msg 174 364 #\$2\$1\$4\$3\$6\$5;
#X msg 169 40 bang;
#X obj 174 393 outlet;
#X obj 163 10 inlet;
#X obj 321 3 inlet;
#X obj 473 5 inlet;
#X obj 321 403 tosymbol;
#X obj 325 426 outlet;
#X connect 0 0 1 0;
#X connect 0 0 3 0;
#X connect 1 0 2 0;
#X connect 1 0 3 1;
#X connect 1 0 4 0;
#X connect 3 0 8 0;
#X connect 4 0 5 0;
#X connect 4 0 6 0;
#X connect 5 0 6 1;
#X connect 6 0 9 0;
#X connect 7 0 11 0;
#X connect 8 0 7 0;
#X connect 9 0 10 0;
#X connect 10 0 13 0;
#X connect 11 0 12 0;
#X connect 12 0 45 0;
#X connect 13 0 14 0;
#X connect 14 0 45 1;
#X connect 15 0 16 0;
#X connect 15 0 18 0;
#X connect 16 0 17 0;
#X connect 16 0 18 1;
#X connect 16 0 19 0;
#X connect 18 0 23 0;
#X connect 19 0 20 0;
#X connect 19 0 21 0;
#X connect 20 0 21 1;
#X connect 21 0 24 0;
#X connect 22 0 26 0;
#X connect 23 0 22 0;
#X connect 24 0 25 0;
#X connect 25 0 28 0;
#X connect 26 0 27 0;
#X connect 27 0 45 2;
#X connect 28 0 29 0;
#X connect 29 0 45 3;
#X connect 30 0 31 0;
#X connect 30 0 33 0;
#X connect 31 0 32 0;
#X connect 31 0 33 1;
#X connect 31 0 34 0;
#X connect 33 0 38 0;
#X connect 34 0 35 0;
#X connect 34 0 36 0;
#X connect 35 0 36 1;
#X connect 36 0 39 0;
#X connect 37 0 41 0;
#X connect 38 0 37 0;
#X connect 39 0 40 0;
#X connect 40 0 43 0;
#X connect 41 0 42 0;
#X connect 42 0 45 4;
#X connect 43 0 44 0;
#X connect 44 0 45 5;
#X connect 45 0 46 0;
#X connect 46 0 48 0;
#X connect 46 0 52 0;
#X connect 47 0 0 0;
#X connect 49 0 0 0;
#X connect 50 0 15 0;
#X connect 50 0 47 0;
#X connect 51 0 30 0;
#X connect 51 0 47 0;
#X connect 52 0 53 0;
