#N canvas 0 0 833 556 10;
#X declare -lib pdvjtools;
#X declare -lib ggee;
#X obj 169 205 webcolors;
#X obj 127 79 colorgrid colorgrid1 256 0 256 50 0 50 0 1 1 10 10 308
126;
#X floatatom 134 169 5 0 255 0 - - -;
#X floatatom 234 168 5 0 255 0 - - -;
#X floatatom 336 168 5 0 255 0 - - -;
#X obj 140 143 clip 0 255;
#X obj 258 145 clip 0 255;
#X obj 373 144 clip 0 255;
#X obj 378 285 gcanvas 80 80;
#X obj 533 235 hsl 128 15 0 127 0 0 empty empty empty -2 -8 0 10 -262144
-1 -1 0 1;
#X msg 264 267 reset;
#X msg 378 242 rect blue 0 10 50 10;
#X msg 530 253 move 1 0 10 \$1 10;
#X msg 293 229 color \$1 0;
#X obj 563 44 declare -lib pdvjtools;
#X obj 564 68 declare -lib ggee;
#X obj 182 285 prepend set;
#X msg 182 319 #e4ddf8;
#X connect 0 1 13 0;
#X connect 0 1 16 0;
#X connect 1 0 5 0;
#X connect 1 1 6 0;
#X connect 1 2 7 0;
#X connect 2 0 0 0;
#X connect 3 0 0 1;
#X connect 4 0 0 2;
#X connect 5 0 2 0;
#X connect 6 0 3 0;
#X connect 7 0 4 0;
#X connect 9 0 12 0;
#X connect 10 0 8 0;
#X connect 11 0 8 0;
#X connect 12 0 8 0;
#X connect 13 0 8 0;
#X connect 16 0 17 0;
