#N canvas 17 107 511 385 10;
#X obj 85 37 comport 4 19200;
#X msg 84 170 179 128 151 0 0 131 128;
#X obj 86 120 prepend set;
#X obj 174 141 s wii;
#X obj 90 74 serialize 7;
#X obj 340 201 cnv 15 100 60 empty empty empty 20 12 0 14 -195568 -66577
0;
#N canvas 0 0 450 300 gemwin 0;
#X obj 132 136 gemwin;
#X obj 67 89 outlet;
#X obj 67 10 inlet;
#X obj 67 41 route create;
#X msg 67 70 set destroy;
#X msg 142 68 set create;
#X msg 198 112 destroy;
#X msg 132 112 create \, 1;
#X connect 2 0 3 0;
#X connect 3 0 4 0;
#X connect 3 0 7 0;
#X connect 3 1 5 0;
#X connect 3 1 6 0;
#X connect 4 0 1 0;
#X connect 5 0 1 0;
#X connect 6 0 0 0;
#X connect 7 0 0 0;
#X restore 345 240 pd gemwin;
#X msg 345 221 create;
#X text 341 200 Create window:;
#X obj 383 54 gemhead;
#X msg 311 88 draw line;
#X obj 125 235 unpack f f f f f f;
#X floatatom 66 348 5 0 0 0 - - -;
#X obj 387 115 rotateXYZ;
#X obj 300 285 changemorethan 5;
#X obj 387 145 cube;
#X obj 193 288 changemorethan 2;
#X obj 87 300 changemorethan 2;
#X obj 93 317 autoscale 180 0;
#X msg 394 82 0;
#X msg 423 82 0;
#X msg 455 82 0;
#X floatatom 386 22 5 0 0 0 - - -;
#X floatatom 297 20 5 0 0 0 - - -;
#X obj 309 304 autoscale 0 180;
#X floatatom 217 328 5 0 0 0 - - -;
#X obj 206 307 autoscale 180 0;
#X floatatom 339 18 5 0 0 0 - - -;
#X floatatom 333 332 5 0 0 0 - - -;
#X obj 455 36 bng 15 250 50 0 empty empty empty 17 7 0 10 -262144 -1
-1;
#X connect 0 0 4 0;
#X connect 2 0 1 0;
#X connect 4 0 2 0;
#X connect 4 0 3 0;
#X connect 4 0 11 0;
#X connect 6 0 7 0;
#X connect 7 0 6 0;
#X connect 9 0 13 0;
#X connect 10 0 15 0;
#X connect 11 0 17 0;
#X connect 11 1 16 0;
#X connect 11 2 14 0;
#X connect 13 0 15 0;
#X connect 14 0 24 0;
#X connect 16 0 26 0;
#X connect 17 0 18 0;
#X connect 18 0 12 0;
#X connect 18 0 13 3;
#X connect 19 0 13 1;
#X connect 20 0 13 2;
#X connect 21 0 13 3;
#X connect 22 0 13 3;
#X connect 23 0 13 1;
#X connect 24 0 28 0;
#X connect 26 0 25 0;
#X connect 26 0 13 1;
#X connect 27 0 13 2;
#X connect 29 0 21 0;
#X connect 29 0 20 0;
#X connect 29 0 19 0;
