#N canvas 0 0 800 472 24;
#X declare -lib moonlib;
#X obj 234 95 adc~;
#X obj 243 371 dac~;
#X obj 242 206 st-pitchshifter;
#X msg 342 142 0 \$1;
#X obj 339 78 hsl 128 15 0 1 0 0 empty empty empty -2 -8 0 10 -262144
-1 -1 0 1;
#X floatatom 455 116 5 0 0 0 - - -;
#X obj 558 192 gamme 90 40 1 0 0 0 1 1 0 0 0 0 0 0;
#X floatatom 533 279 5 0 0 0 - - -;
#X obj 564 138 random 24;
#X obj 569 89 metro 100;
#X obj 566 58 tgl 15 0 empty empty empty 17 7 0 10 -262144 -1 -1 0
1;
#X obj 527 341 autoscale 0 1;
#X msg 634 279 24;
#X obj 728 33 import moonlib;
#X connect 0 0 2 0;
#X connect 0 1 2 1;
#X connect 2 0 1 0;
#X connect 2 1 1 1;
#X connect 3 0 2 2;
#X connect 4 0 3 0;
#X connect 4 0 5 0;
#X connect 6 0 7 0;
#X connect 6 0 11 0;
#X connect 8 0 6 0;
#X connect 9 0 8 0;
#X connect 10 0 9 0;
#X connect 11 0 4 0;
#X connect 12 0 11 0;
