#N canvas 0 26 1024 661 10;
#N canvas 0 0 450 300 (subpatch) 0;
#X array sample 109083 float 0;
#X coords 0 1 109082 -1 200 64 1;
#X restore 441 412 graph;
#X obj 480 341 soundfiler;
#X msg 480 315 read -resize \$1 sample;
#X obj 480 289 openpanel;
#X obj 480 267 bng 15 250 50 0 empty empty empty 20 8 0 8 -262144 -1
-1;
#X obj 8 513 dac~;
#X floatatom 69 489 5 0 0 0 - - -;
#X obj 69 513 / 100;
#X obj 8 450 tabread4~ sample;
#X obj 8 481 *~;
#X floatatom 127 272 5 0 0 0 - - -;
#X obj 127 310 mtosr 44100;
#X msg 17 271 type 0;
#X msg 17 299 type 1;
#X msg 176 272 44100;
#X floatatom 322 380 5 0 0 0 - - -;
#X floatatom 179 380 6 0 0 0 - - -;
#X floatatom 245 380 6 0 0 0 - - -;
#X obj 88 271 bng 15 250 50 0 empty empty empty 20 8 0 8 -262144 -1
-1;
#X text 514 265 <- load a sample;
#X text 421 230 Ben Saylor - bsaylor@macalester.edu;
#X msg 124 489 70;
#X obj 156 489 loadbang;
#X text 172 336 loopstart;
#X text 242 337 loopend;
#X text 319 338 startpos;
#X obj 127 414 susloop~ 4000 12000;
#X floatatom 480 366 5 0 0 0 - - -;
#X obj 442 480 hsl 200 15 0 1 0 0 empty empty loop_start 10 8 0 8 -195568
-33289 -33289 4776 0;
#X obj 442 499 hsl 200 15 0 1 0 0 empty empty loop_end 10 8 0 8 -233017
-1 -1 6766 0;
#X obj 250 565 *;
#X obj 293 565 *;
#X obj 293 589 int;
#X obj 250 589 int;
#X obj 531 366 s filesize;
#X obj 266 501 r filesize;
#X obj 229 616 s lstart;
#X obj 293 615 s lend;
#X obj 245 356 r lend;
#X obj 179 358 r lstart;
#X obj 442 516 hsl 200 15 0 1 0 0 empty empty start 10 8 0 8 -262144
-1 -1 0 0;
#X obj 346 567 *;
#X obj 346 591 int;
#X obj 346 616 s start;
#X obj 322 356 r start;
#X msg 458 174 \; sample normalize \$1;
#X floatatom 431 108 5 0 0 0 - - -;
#X obj 295 285 random 100;
#X obj 345 453 + 0.1;
#X obj 382 308 / 100;
#X obj 288 232 tgl 15 0 empty empty empty 17 7 0 10 -262144 -1 -1 1
1;
#X floatatom 352 231 5 0 0 0 - - -;
#X obj 121 235 list-dripslow;
#X msg 499 53 1.5;
#X floatatom 256 154 5 0 0 0 - - -;
#X msg 198 107 58 60 66 67 63 60;
#X obj 684 133 bonk~;
#X obj 689 173 bng 15 250 50 0 empty empty empty 17 7 0 10 -262144
-1 -1;
#X obj 700 255 fiddle~;
#X obj 690 295 int;
#X floatatom 690 317 5 0 0 0 - - -;
#X msg 535 52 read -resize /home/glerm/samples/y2.wav sample;
#X obj 500 -13 loadbang;
#X obj 500 5 t b b b b b;
#X obj 191 190 metro 400;
#X obj 286 258 metro 400;
#X obj 67 183 list-add;
#X msg 90 6 12 12 12 12 12 12;
#X msg 109 59 -12 -12 -12 -12 -12 -12;
#X msg 107 34 0 0 0 0 0 0;
#X msg 123 85 -24 -24 -24 -24 -24 -24;
#X connect 1 0 27 0;
#X connect 1 0 34 0;
#X connect 2 0 1 0;
#X connect 3 0 2 0;
#X connect 4 0 3 0;
#X connect 6 0 7 0;
#X connect 7 0 9 1;
#X connect 8 0 9 0;
#X connect 9 0 5 0;
#X connect 9 0 5 1;
#X connect 9 0 56 0;
#X connect 9 0 58 0;
#X connect 10 0 11 0;
#X connect 11 0 26 0;
#X connect 12 0 26 0;
#X connect 13 0 26 0;
#X connect 14 0 26 0;
#X connect 15 0 26 3;
#X connect 16 0 26 1;
#X connect 17 0 26 2;
#X connect 18 0 26 0;
#X connect 21 0 7 0;
#X connect 22 0 21 0;
#X connect 26 0 8 0;
#X connect 28 0 30 0;
#X connect 29 0 31 0;
#X connect 30 0 33 0;
#X connect 31 0 32 0;
#X connect 32 0 37 0;
#X connect 33 0 36 0;
#X connect 35 0 30 1;
#X connect 35 0 31 1;
#X connect 35 0 41 1;
#X connect 38 0 17 0;
#X connect 39 0 16 0;
#X connect 40 0 41 0;
#X connect 41 0 42 0;
#X connect 42 0 43 0;
#X connect 44 0 15 0;
#X connect 46 0 45 0;
#X connect 47 0 49 0;
#X connect 48 0 29 0;
#X connect 49 0 48 0;
#X connect 49 0 28 0;
#X connect 50 0 64 0;
#X connect 50 0 65 0;
#X connect 51 0 65 1;
#X connect 52 0 10 0;
#X connect 52 1 55 0;
#X connect 53 0 45 0;
#X connect 54 0 64 1;
#X connect 55 0 66 0;
#X connect 56 0 57 0;
#X connect 58 0 59 0;
#X connect 59 0 60 0;
#X connect 61 0 1 0;
#X connect 62 0 63 0;
#X connect 63 2 69 0;
#X connect 63 3 53 0;
#X connect 63 4 61 0;
#X connect 64 0 52 0;
#X connect 65 0 47 0;
#X connect 66 0 52 1;
#X connect 67 0 66 1;
#X connect 68 0 66 1;
#X connect 69 0 66 1;
#X connect 70 0 66 1;
