#N canvas 0 26 1024 661 10;
#X floatatom 313 -31 5 0 0 0 - - -;
#X floatatom 431 -51 5 0 0 0 - - -;
#X floatatom 468 -190 5 0 0 0 - - -;
#X obj 413 -191 tgl 15 0 empty empty empty 17 7 0 10 -262144 -1 -1
1 1;
#X obj 428 -107 * 2;
#X obj 349 -84 * 110;
#X floatatom 507 -60 5 0 0 0 - - -;
#X obj 408 -132 random 4;
#X obj 478 -132 random 4;
#X obj 551 -108 * 440;
#X obj 370 207 bangsample;
#X obj 775 -230 sel 220;
#X obj 487 358 fx.pitch.shift~;
#X floatatom 481 313 5 0 0 0 - - -;
#X obj 521 169 ftom;
#X obj 516 225 moses 68;
#X obj 538 275 - 69;
#X obj 203 213 bangsample;
#X obj 200 328 fx.pitch.shift~;
#X obj 239 173 sel 880;
#X obj 414 -168 metro 250;
#X msg 307 402 0;
#X msg 336 402 -6;
#X obj 315 352 random 3;
#X obj 316 372 sel 0 1 2;
#X msg 364 401 -3;
#X obj 713 143 ezdac~;
#X obj 755 313 oggwrite~;
#X msg 823 276 start;
#X msg 894 278 stop;
#X obj 757 332 tgl 15 0 empty empty empty 17 7 0 10 -262144 -1 -1 0
1;
#X msg 837 206 vbr 44100 2 0.4;
#X floatatom 809 332 5 0 0 0 - - -;
#X obj 751 -46 hihat;
#X obj 652 -126 sel 440;
#X obj 773 -174 random 3;
#X obj 762 -94 route 0 1 2;
#X obj 765 -124 spigot;
#X obj 805 -144 tgl 15 0 empty empty empty 17 7 0 10 -262144 -1 -1
1 1;
#X msg 831 237 open obra4.ogg;
#X obj 66 -117 rimshot;
#X obj 72 -159 route 0 1 2;
#X obj 69 -187 random 4;
#X obj 656 -93 denysome;
#X obj 661 -66 bng 15 250 50 0 empty empty empty 17 7 0 10 -262144
-1 -1;
#X obj 784 -200 denysome;
#X obj 195 -142 bng 15 250 50 0 empty empty empty 17 7 0 10 -262144
-1 -1;
#X connect 0 0 11 0;
#X connect 0 0 14 0;
#X connect 0 0 34 0;
#X connect 2 0 20 1;
#X connect 3 0 20 0;
#X connect 4 0 1 0;
#X connect 4 0 5 0;
#X connect 5 0 0 0;
#X connect 6 0 19 0;
#X connect 7 0 4 0;
#X connect 8 0 9 0;
#X connect 9 0 6 0;
#X connect 10 0 12 0;
#X connect 11 0 10 0;
#X connect 11 0 45 0;
#X connect 12 0 26 0;
#X connect 13 0 12 1;
#X connect 14 0 15 0;
#X connect 15 1 16 0;
#X connect 16 0 13 0;
#X connect 17 0 18 0;
#X connect 18 0 26 1;
#X connect 19 0 17 0;
#X connect 19 0 23 0;
#X connect 19 0 42 0;
#X connect 20 0 7 0;
#X connect 20 0 8 0;
#X connect 21 0 18 1;
#X connect 22 0 18 1;
#X connect 23 0 24 0;
#X connect 24 0 21 0;
#X connect 24 1 22 0;
#X connect 24 2 25 0;
#X connect 25 0 18 1;
#X connect 26 0 27 0;
#X connect 26 1 27 1;
#X connect 27 0 30 0;
#X connect 27 1 32 0;
#X connect 28 0 27 0;
#X connect 29 0 27 0;
#X connect 31 0 27 0;
#X connect 33 0 26 0;
#X connect 34 0 43 0;
#X connect 35 0 37 0;
#X connect 36 0 33 1;
#X connect 36 1 33 2;
#X connect 36 2 33 3;
#X connect 37 0 36 0;
#X connect 38 0 37 1;
#X connect 39 0 27 0;
#X connect 40 0 26 1;
#X connect 41 0 40 0;
#X connect 41 1 40 1;
#X connect 41 2 40 2;
#X connect 41 3 40 3;
#X connect 42 0 41 0;
#X connect 43 0 44 0;
#X connect 44 0 33 0;
#X connect 45 0 35 0;
#X connect 46 0 40 3;
