#N canvas 0 0 779 472 10;
#X declare -lib iem_tab;
#X declare -lib tof;
#X declare -lib iem_tab;
#X declare -lib tof;
#X obj 374 -9 vsl 15 50 0 1 0 0 empty empty empty 0 -8 0 8 -258699
-1 -1 3000 1;
#X obj 320 57 *~ 0;
#X obj 475 -6 vsl 15 50 0 1 0 0 empty empty empty 0 -8 0 8 -258699
-1 -1 2000 1;
#X obj 432 59 *~ 0;
#X floatatom 313 -31 5 0 0 0 - - -;
#X obj 313 -11 osc~ 65;
#X floatatom 431 -51 5 0 0 0 - - -;
#X obj 799 24 *~;
#X obj 426 -9 phasor~;
#X floatatom 468 -190 5 0 0 0 - - -;
#X obj 413 -191 tgl 15 0 empty empty empty 17 7 0 10 -262144 -1 -1
1 1;
#X obj 428 -107 * 2;
#X obj 349 -84 * 110;
#X obj 578 -33 vsl 15 50 0 1 0 0 empty empty empty 0 -8 0 8 -258699
-1 -1 1700 1;
#X obj 529 16 *~ 0;
#X floatatom 507 -60 5 0 0 0 - - -;
#X text 448 -84 Don't forget to turn audio on!;
#X obj 517 -35 osc~ 65;
#X obj 550 71 vsl 15 50 0 1 0 0 empty empty empty 0 -8 0 8 -258699
-1 -1 1200 1;
#X obj 502 107 *~ 0;
#X obj 501 68 phasor~;
#X obj 712 22 *~;
#X obj 408 -132 random 4;
#X obj 478 -132 random 4;
#X obj 551 -108 * 440;
#X obj 773 -197 sel 220;
#X obj 487 358 fx.pitch.shift~;
#X floatatom 481 313 5 0 0 0 - - -;
#X obj 521 169 ftom;
#X obj 516 225 moses 68;
#X obj 538 275 - 69;
#X obj 200 328 fx.pitch.shift~;
#X obj 239 129 sel 880;
#X obj 414 -168 metro 250;
#X msg 307 402 0;
#X msg 336 402 -6;
#X obj 315 352 random 3;
#X obj 316 372 sel 0 1 2;
#X msg 364 401 -3;
#X obj 713 143 ezdac~;
#X obj 755 313 oggwrite~;
#X msg 823 276 start;
#X msg 894 278 stop;
#X obj 757 332 tgl 15 0 empty empty empty 17 7 0 10 -262144 -1 -1 0
1;
#X msg 831 237 open obra3.ogg;
#X msg 837 206 vbr 44100 2 0.4;
#X floatatom 809 332 5 0 0 0 - - -;
#X obj 751 -46 hihat;
#X obj 652 -126 sel 440;
#X obj 773 -174 random 3;
#X obj 820 -22 bng 15 250 50 0 empty empty empty 17 7 0 10 -262144
-1 -1;
#X obj 844 -15 bng 15 250 50 0 empty empty empty 17 7 0 10 -262144
-1 -1;
#X obj 868 -16 bng 15 250 50 0 empty empty empty 17 7 0 10 -262144
-1 -1;
#X obj 762 -94 route 0 1 2;
#X obj 765 -124 spigot;
#X obj 805 -144 tgl 15 0 empty empty empty 17 7 0 10 -262144 -1 -1
0 1;
#X obj 370 207 mimosa-sampler;
#X obj 203 169 mimosa-sampler;
#X connect 0 0 1 1;
#X connect 1 0 7 1;
#X connect 2 0 3 1;
#X connect 3 0 7 0;
#X connect 4 0 5 0;
#X connect 4 0 25 0;
#X connect 4 0 28 0;
#X connect 4 0 48 0;
#X connect 5 0 1 0;
#X connect 6 0 8 0;
#X connect 7 0 39 1;
#X connect 8 0 3 0;
#X connect 8 0 20 0;
#X connect 9 0 33 1;
#X connect 10 0 33 0;
#X connect 11 0 6 0;
#X connect 11 0 12 0;
#X connect 12 0 4 0;
#X connect 13 0 14 1;
#X connect 14 0 21 0;
#X connect 15 0 17 0;
#X connect 15 0 32 0;
#X connect 17 0 14 0;
#X connect 18 0 19 1;
#X connect 19 0 21 1;
#X connect 20 0 19 0;
#X connect 21 0 39 0;
#X connect 22 0 11 0;
#X connect 23 0 24 0;
#X connect 24 0 15 0;
#X connect 25 0 49 0;
#X connect 25 0 56 0;
#X connect 26 0 39 0;
#X connect 27 0 26 1;
#X connect 28 0 29 0;
#X connect 29 1 30 0;
#X connect 30 0 27 0;
#X connect 31 0 39 1;
#X connect 32 0 36 0;
#X connect 32 0 57 0;
#X connect 33 0 22 0;
#X connect 33 0 23 0;
#X connect 34 0 31 1;
#X connect 35 0 31 1;
#X connect 36 0 37 0;
#X connect 37 0 34 0;
#X connect 37 1 35 0;
#X connect 37 2 38 0;
#X connect 38 0 31 1;
#X connect 39 0 40 0;
#X connect 39 1 40 1;
#X connect 40 0 43 0;
#X connect 40 1 46 0;
#X connect 41 0 40 0;
#X connect 42 0 40 0;
#X connect 44 0 40 0;
#X connect 45 0 40 0;
#X connect 47 0 39 0;
#X connect 48 0 47 0;
#X connect 49 0 54 0;
#X connect 53 0 50 0;
#X connect 53 0 47 1;
#X connect 53 1 51 0;
#X connect 53 1 47 2;
#X connect 53 2 52 0;
#X connect 53 2 47 3;
#X connect 54 0 53 0;
#X connect 55 0 54 1;
#X connect 56 0 26 0;
#X connect 57 0 31 0;
