#N canvas 0 26 1003 661 10;
#X declare -lib iemmatrix;
#X obj 84 517 ezdac~;
#X obj 849 186 bangsample;
#X obj -16 187 bangsample;
#X obj 106 186 bangsample;
#X obj 231 186 bangsample;
#X obj 478 187 bangsample;
#X obj 602 187 bangsample;
#X obj 726 187 bangsample;
#X obj 354 186 bangsample;
#X obj 231 -114 timing.tempo_ 120 1 8;
#X obj 231 -64 seq.8x8_;
#X obj 598 58 list-dripslow;
#X obj 119 353 fx.pitch.shift~;
#X msg 688 56 -3 0 6 3 9;
#X connect 1 0 0 1;
#X connect 2 0 0 0;
#X connect 3 0 12 0;
#X connect 4 0 0 1;
#X connect 5 0 0 1;
#X connect 6 0 0 1;
#X connect 7 0 0 0;
#X connect 8 0 0 0;
#X connect 9 0 10 0;
#X connect 10 1 2 0;
#X connect 10 2 3 0;
#X connect 10 3 4 0;
#X connect 10 4 8 0;
#X connect 10 5 5 0;
#X connect 10 6 6 0;
#X connect 10 6 11 0;
#X connect 10 7 7 0;
#X connect 10 8 1 0;
#X connect 11 0 12 1;
#X connect 11 1 13 0;
#X connect 12 0 0 0;
#X connect 13 0 11 1;
