#N canvas 0 0 632 458 10;
#X obj 121 138 ezdac~;
#X obj 139 109 hihat;
#X floatatom 177 -27 5 0 0 0 - - -;
#X obj 122 -28 tgl 15 0 empty empty empty 17 7 0 10 -262144 -1 -1 0
1;
#X obj 125 18 random 4;
#X obj 121 44 sel 0 1 2 3;
#X obj 122 75 bng 15 250 50 0 empty empty empty 17 7 0 10 -262144 -1
-1;
#X obj 141 75 bng 15 250 50 0 empty empty empty 17 7 0 10 -262144 -1
-1;
#X obj 163 75 bng 15 250 50 0 empty empty empty 17 7 0 10 -262144 -1
-1;
#X obj 182 75 bng 15 250 50 0 empty empty empty 17 7 0 10 -262144 -1
-1;
#X obj 123 -5 metro 200;
#X connect 1 0 0 0;
#X connect 1 0 0 1;
#X connect 2 0 10 1;
#X connect 3 0 10 0;
#X connect 4 0 5 0;
#X connect 5 0 6 0;
#X connect 5 1 7 0;
#X connect 5 3 8 0;
#X connect 5 4 9 0;
#X connect 6 0 1 0;
#X connect 7 0 1 1;
#X connect 8 0 1 2;
#X connect 9 0 1 3;
#X connect 10 0 4 0;
