#N canvas 0 26 1024 661 10;
#X obj 49 293 seq;
#X msg 306 247 write test1.mid;
#X msg 175 127 bang;
#X msg 167 246 record;
#X msg 175 154 stop;
#X obj 180 108 bng 15 250 50 0 empty empty empty 0 -6 0 10 -262144
-1 -1;
#X msg 222 246 stop record;
#X obj 7 162 midiin;
#X msg 306 270 read test1.mid;
#X msg 225 153 pause;
#X msg 285 153 continue;
#X text 208 108 loop;
#X text 213 126 play;
#X text 236 218 recording;
#X text 352 343 jkant.altervista.org;
#X text 352 319 ver 0.1 05-07;
#X text 74 297 <-- click object to open list editor;
#X text 261 85 <-- midi file should be in the same folder or an open
window popups to pick file;
#X text 404 246 save in patch folder;
#X obj 472 311 midiparse;
#X obj 470 558 unpack f f;
#X floatatom 472 591 5 0 0 0 - - -;
#X floatatom 537 591 5 0 0 0 - - -;
#X text 471 607 pitch;
#X text 536 608 velocity;
#X text 554 561 note on messages;
#X obj 481 492 unpack f f;
#X floatatom 481 522 5 0 0 0 - - -;
#X floatatom 546 522 5 0 0 0 - - -;
#X text 480 537 aftert;
#X text 546 539 pitch;
#X obj 491 429 unpack f f;
#X floatatom 491 459 5 0 0 0 - - -;
#X floatatom 556 459 5 0 0 0 - - -;
#X text 490 474 value;
#X text 556 474 ctrl nr;
#X text 570 429 controller messages;
#X floatatom 501 405 5 0 0 0 - - -;
#X floatatom 510 383 5 0 0 0 - - -;
#X floatatom 520 360 5 0 0 0 - - -;
#X floatatom 530 337 5 0 0 0 - - -;
#X text 548 405 program change;
#X text 565 361 pitch bend;
#X text 555 385 aftertouch;
#X text 573 336 channel number;
#X msg 173 85 read \$1;
#X obj 169 45 openpanel;
#X obj 167 13 bng 15 250 50 0 empty empty empty 17 7 0 10 -262144 -1
-1;
#X msg 701 74 duration \$1;
#X floatatom 701 33 5 0 0 0 - - -;
#X obj 701 52 / 100;
#X floatatom 845 33 5 0 0 0 - - -;
#X obj 845 52 / 100;
#X msg 844 73 gain \$1;
#X floatatom 900 54 5 0 1000 0 - - -;
#X msg 900 75 speed \$1;
#X msg 921 119 pitch \$1;
#X floatatom 921 99 5 0 1000 0 - - -;
#X msg 779 74 window \$1;
#X text 955 98 0%->1000%;
#X text 934 52 0%->1000%;
#X obj 627 288 dac~;
#X obj 779 58 hradio 10 1 0 5 empty empty empty 0 -8 0 10 -262144 -1
-1 0;
#X floatatom 742 556 5 0 0 0 - - -;
#X floatatom 701 568 5 0 0 0 - - -;
#X obj 631 152 syn-bellsynth;
#X obj 697 320 mtof;
#X obj 686 520 moses 60;
#X obj 836 272 syn-simpleFM;
#X connect 0 0 19 0;
#X connect 0 1 5 0;
#X connect 1 0 0 0;
#X connect 2 0 0 0;
#X connect 3 0 0 0;
#X connect 4 0 0 0;
#X connect 5 0 2 0;
#X connect 6 0 0 0;
#X connect 7 0 0 0;
#X connect 8 0 0 0;
#X connect 9 0 0 0;
#X connect 10 0 0 0;
#X connect 19 0 20 0;
#X connect 19 1 26 0;
#X connect 19 2 31 0;
#X connect 19 3 37 0;
#X connect 19 4 38 0;
#X connect 19 5 39 0;
#X connect 19 6 40 0;
#X connect 20 0 21 0;
#X connect 20 0 67 0;
#X connect 20 1 22 0;
#X connect 26 0 27 0;
#X connect 26 1 28 0;
#X connect 31 0 32 0;
#X connect 31 1 33 0;
#X connect 45 0 0 0;
#X connect 46 0 45 0;
#X connect 47 0 46 0;
#X connect 48 0 65 1;
#X connect 49 0 50 0;
#X connect 50 0 48 0;
#X connect 51 0 52 0;
#X connect 52 0 53 0;
#X connect 53 0 65 1;
#X connect 54 0 55 0;
#X connect 55 0 65 1;
#X connect 56 0 65 1;
#X connect 57 0 56 0;
#X connect 58 0 65 1;
#X connect 62 0 58 0;
#X connect 65 0 61 0;
#X connect 65 0 61 1;
#X connect 66 0 65 0;
#X connect 67 0 64 0;
#X connect 67 0 68 0;
#X connect 67 1 63 0;
#X connect 67 1 66 0;
#X connect 68 0 61 0;
#X connect 68 0 61 1;
